G04*
G04 #@! TF.GenerationSoftware,Altium Limited,Altium Designer,20.0.14 (345)*
G04*
G04 Layer_Physical_Order=2*
G04 Layer_Color=16711680*
%FSLAX25Y25*%
%MOIN*%
G70*
G01*
G75*
%ADD15C,0.01000*%
%ADD52C,0.02000*%
%ADD58C,0.39370*%
%ADD59R,0.06024X0.06024*%
%ADD60C,0.06024*%
%ADD61C,0.06000*%
%ADD62C,0.02362*%
%ADD63C,0.07500*%
%ADD64C,0.16100*%
%ADD65C,0.08000*%
%ADD66C,0.08661*%
%ADD67C,0.02400*%
%ADD68C,0.02000*%
%ADD69C,0.01400*%
%ADD70C,0.04000*%
G36*
X165188Y331488D02*
Y325488D01*
X166856D01*
X167025Y324988D01*
X166339Y324461D01*
X165696Y323623D01*
X165292Y322647D01*
X165154Y321600D01*
X165292Y320553D01*
X165696Y319577D01*
X166339Y318739D01*
X167177Y318096D01*
X167599Y317921D01*
Y317379D01*
X167177Y317204D01*
X166339Y316561D01*
X165696Y315723D01*
X165292Y314747D01*
X165154Y313700D01*
X165292Y312653D01*
X165696Y311677D01*
X166339Y310839D01*
X167177Y310196D01*
X167599Y310021D01*
Y309479D01*
X167177Y309304D01*
X166339Y308661D01*
X165696Y307823D01*
X165292Y306847D01*
X165154Y305800D01*
X165292Y304753D01*
X165696Y303777D01*
X166339Y302939D01*
X167177Y302296D01*
X167599Y302121D01*
Y301579D01*
X167177Y301404D01*
X166339Y300761D01*
X165696Y299923D01*
X165292Y298947D01*
X165154Y297900D01*
X165292Y296853D01*
X165696Y295877D01*
X166339Y295039D01*
X167177Y294396D01*
X167599Y294221D01*
Y293679D01*
X167177Y293504D01*
X166339Y292861D01*
X165696Y292023D01*
X165292Y291047D01*
X165154Y290000D01*
X165292Y288953D01*
X165696Y287977D01*
X166339Y287139D01*
X167177Y286496D01*
X167599Y286321D01*
Y285779D01*
X167177Y285604D01*
X166339Y284961D01*
X165696Y284123D01*
X165292Y283147D01*
X165154Y282100D01*
X165292Y281053D01*
X165696Y280077D01*
X166339Y279239D01*
X167177Y278596D01*
X167599Y278421D01*
Y277879D01*
X167177Y277704D01*
X166339Y277061D01*
X165696Y276223D01*
X165292Y275247D01*
X165154Y274200D01*
X165292Y273153D01*
X165696Y272177D01*
X166339Y271339D01*
X167177Y270696D01*
X167599Y270521D01*
Y269979D01*
X167177Y269804D01*
X166339Y269161D01*
X165696Y268323D01*
X165292Y267347D01*
X165154Y266300D01*
X165292Y265253D01*
X165696Y264277D01*
X166339Y263439D01*
X167177Y262796D01*
X168153Y262391D01*
X169200Y262254D01*
X170247Y262391D01*
X171223Y262796D01*
X172061Y263439D01*
X172704Y264277D01*
X173108Y265253D01*
X173246Y266300D01*
X173108Y267347D01*
X172704Y268323D01*
X172061Y269161D01*
X171223Y269804D01*
X170800Y269979D01*
Y270521D01*
X171223Y270696D01*
X172061Y271339D01*
X172704Y272177D01*
X173108Y273153D01*
X173246Y274200D01*
X173108Y275247D01*
X172704Y276223D01*
X172061Y277061D01*
X171223Y277704D01*
X170800Y277879D01*
Y278421D01*
X171223Y278596D01*
X172061Y279239D01*
X172704Y280077D01*
X173108Y281053D01*
X173246Y282100D01*
X173108Y283147D01*
X172704Y284123D01*
X172061Y284961D01*
X171223Y285604D01*
X170800Y285779D01*
Y286321D01*
X171223Y286496D01*
X172061Y287139D01*
X172704Y287977D01*
X173108Y288953D01*
X173246Y290000D01*
X173108Y291047D01*
X172704Y292023D01*
X172061Y292861D01*
X171223Y293504D01*
X170800Y293679D01*
Y294221D01*
X171223Y294396D01*
X172061Y295039D01*
X172704Y295877D01*
X173108Y296853D01*
X173246Y297900D01*
X173108Y298947D01*
X172704Y299923D01*
X172061Y300761D01*
X171223Y301404D01*
X170800Y301579D01*
Y302121D01*
X171223Y302296D01*
X172061Y302939D01*
X172704Y303777D01*
X173108Y304753D01*
X173246Y305800D01*
X173108Y306847D01*
X172704Y307823D01*
X172061Y308661D01*
X171223Y309304D01*
X170800Y309479D01*
Y310021D01*
X171223Y310196D01*
X172061Y310839D01*
X172704Y311677D01*
X173108Y312653D01*
X173246Y313700D01*
X173108Y314747D01*
X172704Y315723D01*
X172061Y316561D01*
X171223Y317204D01*
X170800Y317379D01*
Y317921D01*
X171223Y318096D01*
X172061Y318739D01*
X172704Y319577D01*
X173108Y320553D01*
X173246Y321600D01*
X173108Y322647D01*
X172704Y323623D01*
X172061Y324461D01*
X171375Y324988D01*
X171544Y325488D01*
X173212D01*
Y331488D01*
X251831Y331488D01*
X252109Y331072D01*
X251891Y330547D01*
X251754Y329500D01*
X251891Y328453D01*
X252296Y327477D01*
X252939Y326639D01*
X253777Y325996D01*
X254200Y325821D01*
Y325279D01*
X253777Y325104D01*
X252939Y324461D01*
X252296Y323623D01*
X251891Y322647D01*
X251754Y321600D01*
X251891Y320553D01*
X252296Y319577D01*
X252939Y318739D01*
X253777Y318096D01*
X254200Y317921D01*
Y317379D01*
X253777Y317204D01*
X252939Y316561D01*
X252296Y315723D01*
X251891Y314747D01*
X251754Y313700D01*
X251891Y312653D01*
X252296Y311677D01*
X252939Y310839D01*
X253777Y310196D01*
X254200Y310021D01*
Y309479D01*
X253777Y309304D01*
X252939Y308661D01*
X252296Y307823D01*
X251891Y306847D01*
X251754Y305800D01*
X251891Y304753D01*
X252296Y303777D01*
X252939Y302939D01*
X253777Y302296D01*
X254200Y302121D01*
Y301579D01*
X253777Y301404D01*
X252939Y300761D01*
X252296Y299923D01*
X251891Y298947D01*
X251754Y297900D01*
X251891Y296853D01*
X252296Y295877D01*
X252939Y295039D01*
X253777Y294396D01*
X254200Y294221D01*
Y293679D01*
X253777Y293504D01*
X252939Y292861D01*
X252296Y292023D01*
X251891Y291047D01*
X251754Y290000D01*
X251891Y288953D01*
X252296Y287977D01*
X252939Y287139D01*
X253777Y286496D01*
X254200Y286321D01*
Y285779D01*
X253777Y285604D01*
X252939Y284961D01*
X252296Y284123D01*
X251891Y283147D01*
X251754Y282100D01*
X251891Y281053D01*
X252296Y280077D01*
X252939Y279239D01*
X253777Y278596D01*
X254200Y278421D01*
Y277879D01*
X253777Y277704D01*
X252939Y277061D01*
X252296Y276223D01*
X251891Y275247D01*
X251754Y274200D01*
X251891Y273153D01*
X252296Y272177D01*
X252939Y271339D01*
X253777Y270696D01*
X254200Y270521D01*
Y269979D01*
X253777Y269804D01*
X252939Y269161D01*
X252296Y268323D01*
X251891Y267347D01*
X251754Y266300D01*
X251891Y265253D01*
X252296Y264277D01*
X252939Y263439D01*
X253777Y262796D01*
X254200Y262621D01*
Y262079D01*
X253777Y261904D01*
X252939Y261261D01*
X252296Y260423D01*
X251891Y259447D01*
X251754Y258400D01*
X251891Y257353D01*
X252296Y256377D01*
X252939Y255539D01*
X253777Y254896D01*
X254753Y254491D01*
X255800Y254354D01*
X256847Y254491D01*
X257823Y254896D01*
X258661Y255539D01*
X259304Y256377D01*
X259709Y257353D01*
X259846Y258400D01*
X259709Y259447D01*
X259304Y260423D01*
X258661Y261261D01*
X257823Y261904D01*
X257400Y262079D01*
Y262621D01*
X257823Y262796D01*
X258661Y263439D01*
X259304Y264277D01*
X259709Y265253D01*
X259846Y266300D01*
X259709Y267347D01*
X259304Y268323D01*
X258661Y269161D01*
X257823Y269804D01*
X257400Y269979D01*
Y270521D01*
X257823Y270696D01*
X258661Y271339D01*
X259304Y272177D01*
X259709Y273153D01*
X259846Y274200D01*
X259709Y275247D01*
X259304Y276223D01*
X258661Y277061D01*
X257823Y277704D01*
X257400Y277879D01*
Y278421D01*
X257823Y278596D01*
X258661Y279239D01*
X259304Y280077D01*
X259709Y281053D01*
X259846Y282100D01*
X259709Y283147D01*
X259304Y284123D01*
X258661Y284961D01*
X257823Y285604D01*
X257400Y285779D01*
Y286321D01*
X257823Y286496D01*
X258661Y287139D01*
X259304Y287977D01*
X259709Y288953D01*
X259846Y290000D01*
X259709Y291047D01*
X259304Y292023D01*
X258661Y292861D01*
X257823Y293504D01*
X257400Y293679D01*
Y294221D01*
X257823Y294396D01*
X258661Y295039D01*
X259304Y295877D01*
X259709Y296853D01*
X259846Y297900D01*
X259709Y298947D01*
X259304Y299923D01*
X258661Y300761D01*
X257823Y301404D01*
X257400Y301579D01*
Y302121D01*
X257823Y302296D01*
X258661Y302939D01*
X259304Y303777D01*
X259709Y304753D01*
X259846Y305800D01*
X259709Y306847D01*
X259304Y307823D01*
X258661Y308661D01*
X257823Y309304D01*
X257400Y309479D01*
Y310021D01*
X257823Y310196D01*
X258661Y310839D01*
X259304Y311677D01*
X259709Y312653D01*
X259846Y313700D01*
X259709Y314747D01*
X259304Y315723D01*
X258661Y316561D01*
X257823Y317204D01*
X257400Y317379D01*
Y317921D01*
X257823Y318096D01*
X258661Y318739D01*
X259304Y319577D01*
X259709Y320553D01*
X259846Y321600D01*
X259709Y322647D01*
X259304Y323623D01*
X258661Y324461D01*
X257823Y325104D01*
X257400Y325279D01*
Y325821D01*
X257823Y325996D01*
X258661Y326639D01*
X259304Y327477D01*
X259709Y328453D01*
X259846Y329500D01*
X259709Y330547D01*
X259491Y331072D01*
X259769Y331488D01*
X290480D01*
X290480Y101020D01*
X104019Y101020D01*
X104019Y331488D01*
X165188D01*
D02*
G37*
%LPC*%
G36*
X129000Y326729D02*
X126294Y326552D01*
X123635Y326023D01*
X121067Y325151D01*
X118635Y323952D01*
X116381Y322446D01*
X114342Y320658D01*
X112554Y318619D01*
X111048Y316365D01*
X109848Y313933D01*
X108977Y311365D01*
X108448Y308706D01*
X108271Y306000D01*
X108448Y303294D01*
X108977Y300635D01*
X109848Y298067D01*
X111048Y295635D01*
X112554Y293381D01*
X114342Y291342D01*
X116381Y289554D01*
X118635Y288048D01*
X121067Y286848D01*
X123635Y285977D01*
X126294Y285448D01*
X129000Y285271D01*
X131706Y285448D01*
X134365Y285977D01*
X136933Y286848D01*
X139365Y288048D01*
X141619Y289554D01*
X143658Y291342D01*
X145446Y293381D01*
X146952Y295635D01*
X148152Y298067D01*
X149023Y300635D01*
X149552Y303294D01*
X149729Y306000D01*
X149552Y308706D01*
X149023Y311365D01*
X148152Y313933D01*
X146952Y316365D01*
X145446Y318619D01*
X143658Y320658D01*
X141619Y322446D01*
X139365Y323952D01*
X136933Y325151D01*
X134365Y326023D01*
X131706Y326552D01*
X129000Y326729D01*
D02*
G37*
G36*
X244243Y244743D02*
X243385Y244572D01*
X242657Y244086D01*
X242619Y244029D01*
X234811D01*
X234280Y244384D01*
X233500Y244539D01*
X232720Y244384D01*
X232058Y243942D01*
X231616Y243280D01*
X231461Y242500D01*
X231616Y241720D01*
X232058Y241058D01*
X232720Y240616D01*
X233500Y240461D01*
X234280Y240616D01*
X234811Y240971D01*
X242619D01*
X242657Y240914D01*
X243385Y240428D01*
X244243Y240257D01*
X245101Y240428D01*
X245829Y240914D01*
X246316Y241642D01*
X246486Y242500D01*
X246316Y243358D01*
X245829Y244086D01*
X245101Y244572D01*
X244243Y244743D01*
D02*
G37*
G36*
X180000Y240539D02*
X179220Y240384D01*
X178689Y240029D01*
X174811D01*
X174280Y240384D01*
X173500Y240539D01*
X172720Y240384D01*
X172058Y239942D01*
X171616Y239280D01*
X171461Y238500D01*
X171616Y237720D01*
X172058Y237058D01*
X172720Y236616D01*
X173500Y236461D01*
X174280Y236616D01*
X174811Y236971D01*
X178689D01*
X179220Y236616D01*
X180000Y236461D01*
X180780Y236616D01*
X181442Y237058D01*
X181884Y237720D01*
X182039Y238500D01*
X181884Y239280D01*
X181442Y239942D01*
X180780Y240384D01*
X180000Y240539D01*
D02*
G37*
G36*
X148327Y241377D02*
X146935Y241194D01*
X145638Y240656D01*
X144525Y239802D01*
X143670Y238688D01*
X143133Y237392D01*
X142950Y236000D01*
X143133Y234608D01*
X143670Y233312D01*
X144525Y232198D01*
X145638Y231344D01*
X146935Y230806D01*
X148327Y230623D01*
X149718Y230806D01*
X151015Y231344D01*
X152129Y232198D01*
X152983Y233312D01*
X153520Y234608D01*
X153703Y236000D01*
X153520Y237392D01*
X152983Y238688D01*
X152129Y239802D01*
X151015Y240656D01*
X149718Y241194D01*
X148327Y241377D01*
D02*
G37*
G36*
X126673D02*
X125282Y241194D01*
X123985Y240656D01*
X122871Y239802D01*
X122017Y238688D01*
X121480Y237392D01*
X121297Y236000D01*
X121480Y234608D01*
X122017Y233312D01*
X122871Y232198D01*
X123985Y231344D01*
X125282Y230806D01*
X126673Y230623D01*
X128065Y230806D01*
X129362Y231344D01*
X130475Y232198D01*
X131330Y233312D01*
X131867Y234608D01*
X132050Y236000D01*
X131867Y237392D01*
X131330Y238688D01*
X130475Y239802D01*
X129362Y240656D01*
X128065Y241194D01*
X126673Y241377D01*
D02*
G37*
G36*
X214000Y233043D02*
X212695Y232871D01*
X211478Y232367D01*
X210434Y231566D01*
X209632Y230522D01*
X209271Y229648D01*
X208729D01*
X208367Y230522D01*
X207566Y231566D01*
X206522Y232367D01*
X205305Y232871D01*
X204000Y233043D01*
X202695Y232871D01*
X201478Y232367D01*
X200434Y231566D01*
X199633Y230522D01*
X199129Y229305D01*
X198957Y228000D01*
X199129Y226695D01*
X199633Y225478D01*
X200434Y224434D01*
X201478Y223633D01*
X202695Y223129D01*
X204000Y222957D01*
X205305Y223129D01*
X206522Y223633D01*
X207566Y224434D01*
X208367Y225478D01*
X208729Y226352D01*
X209271D01*
X209632Y225478D01*
X210434Y224434D01*
X211478Y223633D01*
X212695Y223129D01*
X214000Y222957D01*
X215305Y223129D01*
X216522Y223633D01*
X217566Y224434D01*
X218368Y225478D01*
X218871Y226695D01*
X219043Y228000D01*
X218871Y229305D01*
X218368Y230522D01*
X217566Y231566D01*
X216522Y232367D01*
X215305Y232871D01*
X214000Y233043D01*
D02*
G37*
G36*
X229000Y212791D02*
X227760Y212628D01*
X226605Y212149D01*
X225612Y211388D01*
X224851Y210396D01*
X224372Y209240D01*
X224209Y208000D01*
X224372Y206760D01*
X224851Y205605D01*
X225612Y204612D01*
X226605Y203851D01*
X227760Y203372D01*
X229000Y203209D01*
X230240Y203372D01*
X231396Y203851D01*
X232388Y204612D01*
X233149Y205605D01*
X233628Y206760D01*
X233791Y208000D01*
X233628Y209240D01*
X233149Y210396D01*
X232388Y211388D01*
X231396Y212149D01*
X230240Y212628D01*
X229000Y212791D01*
D02*
G37*
G36*
X189000D02*
X187760Y212628D01*
X186604Y212149D01*
X185612Y211388D01*
X184851Y210396D01*
X184372Y209240D01*
X184209Y208000D01*
X184372Y206760D01*
X184851Y205605D01*
X185612Y204612D01*
X186604Y203851D01*
X187760Y203372D01*
X189000Y203209D01*
X190240Y203372D01*
X191395Y203851D01*
X192388Y204612D01*
X193149Y205605D01*
X193628Y206760D01*
X193791Y208000D01*
X193628Y209240D01*
X193149Y210396D01*
X192388Y211388D01*
X191395Y212149D01*
X190240Y212628D01*
X189000Y212791D01*
D02*
G37*
G36*
X209000Y217094D02*
X207226Y216919D01*
X205520Y216402D01*
X203948Y215561D01*
X202570Y214430D01*
X201439Y213052D01*
X200598Y211480D01*
X200081Y209774D01*
X199906Y208000D01*
X200081Y206226D01*
X200598Y204520D01*
X201439Y202948D01*
X202570Y201570D01*
X203948Y200439D01*
X205520Y199598D01*
X207226Y199081D01*
X209000Y198906D01*
X210774Y199081D01*
X212480Y199598D01*
X214052Y200439D01*
X215430Y201570D01*
X216561Y202948D01*
X217402Y204520D01*
X217919Y206226D01*
X218094Y208000D01*
X217919Y209774D01*
X217402Y211480D01*
X216561Y213052D01*
X215430Y214430D01*
X214052Y215561D01*
X212480Y216402D01*
X210774Y216919D01*
X209000Y217094D01*
D02*
G37*
G36*
X127000Y207535D02*
X125956Y207397D01*
X124983Y206994D01*
X124147Y206353D01*
X123506Y205517D01*
X123103Y204544D01*
X122966Y203500D01*
X123103Y202456D01*
X123506Y201483D01*
X124147Y200647D01*
X124983Y200006D01*
X125956Y199603D01*
X127000Y199466D01*
X128017Y199599D01*
X134058Y193558D01*
X134058Y193558D01*
X134720Y193116D01*
X135500Y192961D01*
X135500Y192961D01*
X154500D01*
X155280Y193116D01*
X155942Y193558D01*
X156384Y194220D01*
X156539Y195000D01*
X156384Y195780D01*
X155942Y196442D01*
X155280Y196884D01*
X154500Y197039D01*
X136345D01*
X130901Y202483D01*
X131035Y203500D01*
X130897Y204544D01*
X130494Y205517D01*
X129853Y206353D01*
X129017Y206994D01*
X128044Y207397D01*
X127000Y207535D01*
D02*
G37*
G36*
X224000Y203043D02*
X222695Y202871D01*
X221478Y202367D01*
X220434Y201566D01*
X219633Y200522D01*
X219129Y199305D01*
X218957Y198000D01*
X219129Y196695D01*
X219633Y195478D01*
X220434Y194434D01*
X221478Y193632D01*
X222695Y193129D01*
X224000Y192957D01*
X225305Y193129D01*
X226522Y193632D01*
X227566Y194434D01*
X228367Y195478D01*
X228871Y196695D01*
X229043Y198000D01*
X228871Y199305D01*
X228367Y200522D01*
X227566Y201566D01*
X226522Y202367D01*
X225305Y202871D01*
X224000Y203043D01*
D02*
G37*
G36*
X194000D02*
X192695Y202871D01*
X191478Y202367D01*
X190434Y201566D01*
X189632Y200522D01*
X189129Y199305D01*
X188957Y198000D01*
X189129Y196695D01*
X189632Y195478D01*
X190434Y194434D01*
X191478Y193632D01*
X192695Y193129D01*
X194000Y192957D01*
X195305Y193129D01*
X196522Y193632D01*
X197566Y194434D01*
X198368Y195478D01*
X198871Y196695D01*
X199043Y198000D01*
X198871Y199305D01*
X198368Y200522D01*
X197566Y201566D01*
X196522Y202367D01*
X195305Y202871D01*
X194000Y203043D01*
D02*
G37*
G36*
X219000Y193043D02*
X217695Y192871D01*
X216478Y192367D01*
X215434Y191566D01*
X214633Y190522D01*
X214129Y189305D01*
X213957Y188000D01*
X214129Y186695D01*
X214633Y185478D01*
X215434Y184434D01*
X216478Y183633D01*
X217695Y183129D01*
X219000Y182957D01*
X220305Y183129D01*
X221522Y183633D01*
X222566Y184434D01*
X223368Y185478D01*
X223871Y186695D01*
X224043Y188000D01*
X223871Y189305D01*
X223368Y190522D01*
X222566Y191566D01*
X221522Y192367D01*
X220305Y192871D01*
X219000Y193043D01*
D02*
G37*
G36*
X199000D02*
X197695Y192871D01*
X196478Y192367D01*
X195434Y191566D01*
X194632Y190522D01*
X194129Y189305D01*
X193957Y188000D01*
X194129Y186695D01*
X194632Y185478D01*
X195434Y184434D01*
X196478Y183633D01*
X197695Y183129D01*
X199000Y182957D01*
X200305Y183129D01*
X201522Y183633D01*
X202566Y184434D01*
X203367Y185478D01*
X203871Y186695D01*
X204043Y188000D01*
X203871Y189305D01*
X203367Y190522D01*
X202566Y191566D01*
X201522Y192367D01*
X200305Y192871D01*
X199000Y193043D01*
D02*
G37*
G36*
X147000Y187534D02*
X145956Y187397D01*
X144983Y186994D01*
X144147Y186353D01*
X143506Y185517D01*
X143103Y184544D01*
X142965Y183500D01*
X143103Y182456D01*
X143506Y181483D01*
X144147Y180647D01*
X144983Y180006D01*
X145956Y179603D01*
X147000Y179465D01*
X148044Y179603D01*
X149017Y180006D01*
X149853Y180647D01*
X150494Y181483D01*
X150897Y182456D01*
X151034Y183500D01*
X150897Y184544D01*
X150494Y185517D01*
X149853Y186353D01*
X149017Y186994D01*
X148044Y187397D01*
X147000Y187534D01*
D02*
G37*
G36*
X127000D02*
X125956Y187397D01*
X124983Y186994D01*
X124147Y186353D01*
X123506Y185517D01*
X123103Y184544D01*
X122966Y183500D01*
X123103Y182456D01*
X123506Y181483D01*
X124147Y180647D01*
X124983Y180006D01*
X125956Y179603D01*
X127000Y179465D01*
X128044Y179603D01*
X129017Y180006D01*
X129853Y180647D01*
X130494Y181483D01*
X130897Y182456D01*
X131035Y183500D01*
X130897Y184544D01*
X130494Y185517D01*
X129853Y186353D01*
X129017Y186994D01*
X128044Y187397D01*
X127000Y187534D01*
D02*
G37*
G36*
X229000Y190243D02*
X228142Y190072D01*
X227414Y189586D01*
X226928Y188858D01*
X226757Y188000D01*
X226928Y187142D01*
X227414Y186414D01*
X228142Y185928D01*
X229000Y185757D01*
X229067Y185770D01*
X233770Y181067D01*
X233757Y181000D01*
X233928Y180142D01*
X234414Y179414D01*
X235142Y178928D01*
X236000Y178757D01*
X236858Y178928D01*
X237586Y179414D01*
X238072Y180142D01*
X238243Y181000D01*
X238072Y181858D01*
X237586Y182586D01*
X236858Y183072D01*
X236000Y183243D01*
X235933Y183230D01*
X231230Y187933D01*
X231243Y188000D01*
X231072Y188858D01*
X230586Y189586D01*
X229858Y190072D01*
X229000Y190243D01*
D02*
G37*
G36*
X147000Y177534D02*
X145956Y177397D01*
X144983Y176994D01*
X144147Y176353D01*
X143506Y175517D01*
X143103Y174544D01*
X142965Y173500D01*
X143103Y172456D01*
X143506Y171483D01*
X144147Y170647D01*
X144983Y170006D01*
X145956Y169603D01*
X147000Y169465D01*
X148044Y169603D01*
X149017Y170006D01*
X149853Y170647D01*
X150494Y171483D01*
X150897Y172456D01*
X151034Y173500D01*
X150897Y174544D01*
X150494Y175517D01*
X149853Y176353D01*
X149017Y176994D01*
X148044Y177397D01*
X147000Y177534D01*
D02*
G37*
G36*
X127000D02*
X125956Y177397D01*
X124983Y176994D01*
X124147Y176353D01*
X123506Y175517D01*
X123103Y174544D01*
X122966Y173500D01*
X123103Y172456D01*
X123506Y171483D01*
X124147Y170647D01*
X124983Y170006D01*
X125956Y169603D01*
X127000Y169465D01*
X128044Y169603D01*
X129017Y170006D01*
X129853Y170647D01*
X130494Y171483D01*
X130897Y172456D01*
X131035Y173500D01*
X130897Y174544D01*
X130494Y175517D01*
X129853Y176353D01*
X129017Y176994D01*
X128044Y177397D01*
X127000Y177534D01*
D02*
G37*
G36*
X147000Y167534D02*
X145956Y167397D01*
X144983Y166994D01*
X144147Y166353D01*
X143506Y165517D01*
X143103Y164544D01*
X142965Y163500D01*
X143103Y162456D01*
X143506Y161483D01*
X144147Y160647D01*
X144983Y160006D01*
X145956Y159603D01*
X147000Y159466D01*
X148044Y159603D01*
X149017Y160006D01*
X149853Y160647D01*
X150494Y161483D01*
X150897Y162456D01*
X151034Y163500D01*
X150897Y164544D01*
X150494Y165517D01*
X149853Y166353D01*
X149017Y166994D01*
X148044Y167397D01*
X147000Y167534D01*
D02*
G37*
G36*
X127000D02*
X125956Y167397D01*
X124983Y166994D01*
X124147Y166353D01*
X123506Y165517D01*
X123103Y164544D01*
X122966Y163500D01*
X123103Y162456D01*
X123506Y161483D01*
X124147Y160647D01*
X124983Y160006D01*
X125956Y159603D01*
X127000Y159466D01*
X128044Y159603D01*
X129017Y160006D01*
X129853Y160647D01*
X130494Y161483D01*
X130897Y162456D01*
X131035Y163500D01*
X130897Y164544D01*
X130494Y165517D01*
X129853Y166353D01*
X129017Y166994D01*
X128044Y167397D01*
X127000Y167534D01*
D02*
G37*
G36*
X269000Y196729D02*
X266294Y196552D01*
X263635Y196023D01*
X261067Y195151D01*
X258635Y193952D01*
X256381Y192446D01*
X254342Y190658D01*
X252554Y188619D01*
X251048Y186365D01*
X249849Y183933D01*
X248977Y181365D01*
X248448Y178706D01*
X248271Y176000D01*
X248448Y173294D01*
X248977Y170635D01*
X249849Y168067D01*
X251048Y165635D01*
X252554Y163381D01*
X254342Y161342D01*
X256381Y159554D01*
X258635Y158048D01*
X261067Y156849D01*
X263635Y155977D01*
X266294Y155448D01*
X269000Y155271D01*
X271706Y155448D01*
X274365Y155977D01*
X276933Y156849D01*
X279365Y158048D01*
X281619Y159554D01*
X283658Y161342D01*
X285446Y163381D01*
X286952Y165635D01*
X288152Y168067D01*
X289023Y170635D01*
X289552Y173294D01*
X289729Y176000D01*
X289552Y178706D01*
X289023Y181365D01*
X288152Y183933D01*
X286952Y186365D01*
X285446Y188619D01*
X283658Y190658D01*
X281619Y192446D01*
X279365Y193952D01*
X276933Y195151D01*
X274365Y196023D01*
X271706Y196552D01*
X269000Y196729D01*
D02*
G37*
G36*
X210000Y152144D02*
Y150500D01*
X211644D01*
X211572Y150858D01*
X211086Y151586D01*
X210358Y152072D01*
X210000Y152144D01*
D02*
G37*
G36*
X209000D02*
X208642Y152072D01*
X207914Y151586D01*
X207428Y150858D01*
X207356Y150500D01*
X209000D01*
Y152144D01*
D02*
G37*
G36*
X147000Y157535D02*
X145956Y157397D01*
X144983Y156994D01*
X144147Y156353D01*
X143506Y155517D01*
X143103Y154544D01*
X142965Y153500D01*
X143103Y152456D01*
X143506Y151483D01*
X144147Y150647D01*
X144983Y150006D01*
X145956Y149603D01*
X147000Y149466D01*
X148044Y149603D01*
X149017Y150006D01*
X149853Y150647D01*
X150494Y151483D01*
X150897Y152456D01*
X151034Y153500D01*
X150897Y154544D01*
X150494Y155517D01*
X149853Y156353D01*
X149017Y156994D01*
X148044Y157397D01*
X147000Y157535D01*
D02*
G37*
G36*
X127000D02*
X125956Y157397D01*
X124983Y156994D01*
X124147Y156353D01*
X123506Y155517D01*
X123103Y154544D01*
X122966Y153500D01*
X123103Y152456D01*
X123506Y151483D01*
X124147Y150647D01*
X124983Y150006D01*
X125956Y149603D01*
X127000Y149466D01*
X128044Y149603D01*
X129017Y150006D01*
X129853Y150647D01*
X130494Y151483D01*
X130897Y152456D01*
X131035Y153500D01*
X130897Y154544D01*
X130494Y155517D01*
X129853Y156353D01*
X129017Y156994D01*
X128044Y157397D01*
X127000Y157535D01*
D02*
G37*
G36*
X211644Y149500D02*
X210000D01*
Y147856D01*
X210358Y147928D01*
X211086Y148414D01*
X211572Y149142D01*
X211644Y149500D01*
D02*
G37*
G36*
X209000D02*
X207356D01*
X207428Y149142D01*
X207914Y148414D01*
X208642Y147928D01*
X209000Y147856D01*
Y149500D01*
D02*
G37*
G36*
X275000Y132701D02*
X274276Y132606D01*
X273602Y132326D01*
X273023Y131882D01*
X272579Y131303D01*
X272300Y130629D01*
X272204Y129905D01*
X272300Y129182D01*
X272579Y128508D01*
X273023Y127929D01*
X273602Y127485D01*
X274276Y127205D01*
X275000Y127110D01*
X275724Y127205D01*
X276398Y127485D01*
X276977Y127929D01*
X277421Y128508D01*
X277700Y129182D01*
X277796Y129905D01*
X277700Y130629D01*
X277421Y131303D01*
X276977Y131882D01*
X276398Y132326D01*
X275724Y132606D01*
X275000Y132701D01*
D02*
G37*
G36*
X221000D02*
X220276Y132606D01*
X219602Y132326D01*
X219023Y131882D01*
X218579Y131303D01*
X218300Y130629D01*
X218204Y129905D01*
X218300Y129182D01*
X218579Y128508D01*
X219023Y127929D01*
X219602Y127485D01*
X220276Y127205D01*
X221000Y127110D01*
X221724Y127205D01*
X222398Y127485D01*
X222977Y127929D01*
X223421Y128508D01*
X223700Y129182D01*
X223796Y129905D01*
X223700Y130629D01*
X223421Y131303D01*
X222977Y131882D01*
X222398Y132326D01*
X221724Y132606D01*
X221000Y132701D01*
D02*
G37*
G36*
X147827Y128877D02*
X146435Y128693D01*
X145138Y128156D01*
X144025Y127302D01*
X143170Y126188D01*
X142633Y124892D01*
X142450Y123500D01*
X142633Y122108D01*
X143170Y120812D01*
X144025Y119698D01*
X145138Y118844D01*
X146435Y118307D01*
X147827Y118123D01*
X149218Y118307D01*
X150515Y118844D01*
X151629Y119698D01*
X152483Y120812D01*
X153020Y122108D01*
X153203Y123500D01*
X153020Y124892D01*
X152483Y126188D01*
X151629Y127302D01*
X150515Y128156D01*
X149218Y128693D01*
X147827Y128877D01*
D02*
G37*
G36*
X126173D02*
X124782Y128693D01*
X123485Y128156D01*
X122371Y127302D01*
X121517Y126188D01*
X120980Y124892D01*
X120797Y123500D01*
X120980Y122108D01*
X121517Y120812D01*
X122371Y119698D01*
X123485Y118844D01*
X124782Y118307D01*
X126173Y118123D01*
X127565Y118307D01*
X128862Y118844D01*
X129975Y119698D01*
X130830Y120812D01*
X131367Y122108D01*
X131550Y123500D01*
X131367Y124892D01*
X130830Y126188D01*
X129975Y127302D01*
X128862Y128156D01*
X127565Y128693D01*
X126173Y128877D01*
D02*
G37*
G36*
X275000Y120890D02*
X274276Y120795D01*
X273602Y120516D01*
X273023Y120071D01*
X272579Y119492D01*
X272300Y118818D01*
X272204Y118095D01*
X272300Y117371D01*
X272579Y116697D01*
X273023Y116118D01*
X273602Y115673D01*
X274276Y115394D01*
X275000Y115299D01*
X275724Y115394D01*
X276398Y115673D01*
X276977Y116118D01*
X277421Y116697D01*
X277700Y117371D01*
X277796Y118095D01*
X277700Y118818D01*
X277421Y119492D01*
X276977Y120071D01*
X276398Y120516D01*
X275724Y120795D01*
X275000Y120890D01*
D02*
G37*
G36*
X221000D02*
X220276Y120795D01*
X219602Y120516D01*
X219023Y120071D01*
X218579Y119492D01*
X218300Y118818D01*
X218204Y118095D01*
X218300Y117371D01*
X218579Y116697D01*
X219023Y116118D01*
X219602Y115673D01*
X220276Y115394D01*
X221000Y115299D01*
X221724Y115394D01*
X222398Y115673D01*
X222977Y116118D01*
X223421Y116697D01*
X223700Y117371D01*
X223796Y118095D01*
X223700Y118818D01*
X223421Y119492D01*
X222977Y120071D01*
X222398Y120516D01*
X221724Y120795D01*
X221000Y120890D01*
D02*
G37*
G36*
X254500Y118546D02*
X253453Y118409D01*
X252477Y118004D01*
X251639Y117361D01*
X250996Y116523D01*
X250591Y115547D01*
X250454Y114500D01*
X250591Y113453D01*
X250996Y112477D01*
X251639Y111639D01*
X252477Y110996D01*
X253453Y110591D01*
X254500Y110454D01*
X255547Y110591D01*
X256523Y110996D01*
X257361Y111639D01*
X258004Y112477D01*
X258409Y113453D01*
X258546Y114500D01*
X258409Y115547D01*
X258004Y116523D01*
X257361Y117361D01*
X256523Y118004D01*
X255547Y118409D01*
X254500Y118546D01*
D02*
G37*
%LPD*%
D15*
X229000Y188000D02*
X236000Y181000D01*
X233500Y242500D02*
X244243D01*
X173500Y238500D02*
X180000D01*
D52*
X127000Y203500D02*
X135500Y195000D01*
X154500D01*
D58*
X269000Y176000D02*
D03*
X129000Y306000D02*
D03*
D59*
X169200Y329500D02*
D03*
D60*
Y321600D02*
D03*
Y313700D02*
D03*
Y305800D02*
D03*
Y297900D02*
D03*
Y290000D02*
D03*
Y282100D02*
D03*
Y274200D02*
D03*
Y266300D02*
D03*
Y258400D02*
D03*
X255800D02*
D03*
Y266300D02*
D03*
Y274200D02*
D03*
Y282100D02*
D03*
Y290000D02*
D03*
Y297900D02*
D03*
Y305800D02*
D03*
Y313700D02*
D03*
Y321600D02*
D03*
Y329500D02*
D03*
X254500Y114500D02*
D03*
X204500D02*
D03*
D61*
X127000Y183500D02*
D03*
Y163500D02*
D03*
Y173500D02*
D03*
Y203500D02*
D03*
Y153500D02*
D03*
X147000Y183500D02*
D03*
Y163500D02*
D03*
Y173500D02*
D03*
Y203500D02*
D03*
Y153500D02*
D03*
D62*
X275000Y129905D02*
D03*
Y118095D02*
D03*
X221000D02*
D03*
Y129905D02*
D03*
D63*
X189000Y208000D02*
D03*
X229000D02*
D03*
D64*
X209000D02*
D03*
D65*
X224000Y198000D02*
D03*
X199000Y188000D02*
D03*
X219000D02*
D03*
X194000Y198000D02*
D03*
X214000Y228000D02*
D03*
X204000D02*
D03*
D66*
X126673Y236000D02*
D03*
X148327D02*
D03*
X126173Y123500D02*
D03*
X147827D02*
D03*
D67*
X229000Y188000D02*
D03*
X236000Y181000D02*
D03*
X244243Y242500D02*
D03*
X259000Y131000D02*
D03*
X220000Y239500D02*
D03*
X209500Y150000D02*
D03*
D68*
X173500Y238500D02*
D03*
X180000D02*
D03*
X156000Y286000D02*
D03*
X233500Y242500D02*
D03*
D69*
X154500Y195000D02*
D03*
D70*
X211500Y123500D02*
D03*
M02*
