G04*
G04 #@! TF.GenerationSoftware,Altium Limited,Altium Designer,20.0.14 (345)*
G04*
G04 Layer_Color=255*
%FSLAX25Y25*%
%MOIN*%
G70*
G01*
G75*
G04:AMPARAMS|DCode=18|XSize=48.2mil|YSize=21.18mil|CornerRadius=10.59mil|HoleSize=0mil|Usage=FLASHONLY|Rotation=180.000|XOffset=0mil|YOffset=0mil|HoleType=Round|Shape=RoundedRectangle|*
%AMROUNDEDRECTD18*
21,1,0.04820,0.00000,0,0,180.0*
21,1,0.02702,0.02118,0,0,180.0*
1,1,0.02118,-0.01351,0.00000*
1,1,0.02118,0.01351,0.00000*
1,1,0.02118,0.01351,0.00000*
1,1,0.02118,-0.01351,0.00000*
%
%ADD18ROUNDEDRECTD18*%
%ADD19R,0.04820X0.02118*%
%ADD20C,0.05000*%
G04:AMPARAMS|DCode=21|XSize=35.43mil|YSize=33.47mil|CornerRadius=8.37mil|HoleSize=0mil|Usage=FLASHONLY|Rotation=180.000|XOffset=0mil|YOffset=0mil|HoleType=Round|Shape=RoundedRectangle|*
%AMROUNDEDRECTD21*
21,1,0.03543,0.01673,0,0,180.0*
21,1,0.01870,0.03347,0,0,180.0*
1,1,0.01673,-0.00935,0.00837*
1,1,0.01673,0.00935,0.00837*
1,1,0.01673,0.00935,-0.00837*
1,1,0.01673,-0.00935,-0.00837*
%
%ADD21ROUNDEDRECTD21*%
%ADD22R,0.03150X0.03150*%
%ADD23R,0.02756X0.03937*%
%ADD24R,0.07480X0.03543*%
%ADD25R,0.05906X0.13386*%
%ADD26R,0.05118X0.05709*%
%ADD27R,0.03150X0.03937*%
%ADD28R,0.05906X0.02756*%
G04:AMPARAMS|DCode=29|XSize=35.43mil|YSize=33.47mil|CornerRadius=8.37mil|HoleSize=0mil|Usage=FLASHONLY|Rotation=270.000|XOffset=0mil|YOffset=0mil|HoleType=Round|Shape=RoundedRectangle|*
%AMROUNDEDRECTD29*
21,1,0.03543,0.01673,0,0,270.0*
21,1,0.01870,0.03347,0,0,270.0*
1,1,0.01673,-0.00837,-0.00935*
1,1,0.01673,-0.00837,0.00935*
1,1,0.01673,0.00837,0.00935*
1,1,0.01673,0.00837,-0.00935*
%
%ADD29ROUNDEDRECTD29*%
%ADD58C,0.39370*%
%ADD59R,0.06024X0.06024*%
%ADD60C,0.06024*%
%ADD61C,0.06000*%
%ADD62C,0.02362*%
%ADD63C,0.07500*%
%ADD64C,0.16100*%
%ADD65C,0.08000*%
%ADD66C,0.08661*%
D18*
X160613Y195000D02*
D03*
X167387Y198740D02*
D03*
D19*
Y191260D02*
D03*
D20*
X156000Y305000D02*
D03*
X162000Y163500D02*
D03*
X108000Y173500D02*
D03*
X162000D02*
D03*
X108000Y163500D02*
D03*
D21*
X215000Y167051D02*
D03*
Y160949D02*
D03*
X204000Y167051D02*
D03*
Y160949D02*
D03*
X226000D02*
D03*
Y167051D02*
D03*
X268000Y153551D02*
D03*
Y147449D02*
D03*
X156000Y298102D02*
D03*
Y292000D02*
D03*
X259000Y121449D02*
D03*
Y127551D02*
D03*
D22*
X215000Y155952D02*
D03*
Y150047D02*
D03*
X204000D02*
D03*
Y155952D02*
D03*
X226000D02*
D03*
Y150047D02*
D03*
D23*
X198000Y132500D02*
D03*
X204693D02*
D03*
D24*
X188500Y123555D02*
D03*
Y114500D02*
D03*
Y132610D02*
D03*
D25*
X168421Y123555D02*
D03*
D26*
X198350Y123500D02*
D03*
X204650D02*
D03*
D27*
X271201Y138370D02*
D03*
X278799D02*
D03*
Y109630D02*
D03*
X271201D02*
D03*
X224799D02*
D03*
X217201D02*
D03*
Y138370D02*
D03*
X224799D02*
D03*
D28*
X268110Y115142D02*
D03*
Y132858D02*
D03*
Y126953D02*
D03*
X227890Y132858D02*
D03*
Y115142D02*
D03*
Y121047D02*
D03*
D29*
X197949Y245000D02*
D03*
X204051D02*
D03*
X220051D02*
D03*
X213949D02*
D03*
D58*
X269000Y176000D02*
D03*
X129000Y306000D02*
D03*
D59*
X169200Y329500D02*
D03*
D60*
Y321600D02*
D03*
Y313700D02*
D03*
Y305800D02*
D03*
Y297900D02*
D03*
Y290000D02*
D03*
Y282100D02*
D03*
Y274200D02*
D03*
Y266300D02*
D03*
Y258400D02*
D03*
X255800D02*
D03*
Y266300D02*
D03*
Y274200D02*
D03*
Y282100D02*
D03*
Y290000D02*
D03*
Y297900D02*
D03*
Y305800D02*
D03*
Y313700D02*
D03*
Y321600D02*
D03*
Y329500D02*
D03*
X254500Y114500D02*
D03*
X204500D02*
D03*
D61*
X127000Y183500D02*
D03*
Y163500D02*
D03*
Y173500D02*
D03*
Y203500D02*
D03*
Y153500D02*
D03*
X147000Y183500D02*
D03*
Y163500D02*
D03*
Y173500D02*
D03*
Y203500D02*
D03*
Y153500D02*
D03*
D62*
X275000Y129905D02*
D03*
Y118095D02*
D03*
X221000D02*
D03*
Y129905D02*
D03*
D63*
X189000Y208000D02*
D03*
X229000D02*
D03*
D64*
X209000D02*
D03*
D65*
X224000Y198000D02*
D03*
X199000Y188000D02*
D03*
X219000D02*
D03*
X194000Y198000D02*
D03*
X214000Y228000D02*
D03*
X204000D02*
D03*
D66*
X126673Y236000D02*
D03*
X148327D02*
D03*
X126173Y123500D02*
D03*
X147827D02*
D03*
M02*
