G04*
G04 #@! TF.GenerationSoftware,Altium Limited,Altium Designer,20.0.14 (345)*
G04*
G04 Layer_Color=8388736*
%FSLAX25Y25*%
%MOIN*%
G70*
G01*
G75*
G04:AMPARAMS|DCode=18|XSize=48.2mil|YSize=21.18mil|CornerRadius=10.59mil|HoleSize=0mil|Usage=FLASHONLY|Rotation=180.000|XOffset=0mil|YOffset=0mil|HoleType=Round|Shape=RoundedRectangle|*
%AMROUNDEDRECTD18*
21,1,0.04820,0.00000,0,0,180.0*
21,1,0.02702,0.02118,0,0,180.0*
1,1,0.02118,-0.01351,0.00000*
1,1,0.02118,0.01351,0.00000*
1,1,0.02118,0.01351,0.00000*
1,1,0.02118,-0.01351,0.00000*
%
%ADD18ROUNDEDRECTD18*%
%ADD19R,0.04820X0.02118*%
%ADD23R,0.02756X0.03937*%
%ADD30C,0.05800*%
G04:AMPARAMS|DCode=31|XSize=43.43mil|YSize=41.47mil|CornerRadius=12.37mil|HoleSize=0mil|Usage=FLASHONLY|Rotation=180.000|XOffset=0mil|YOffset=0mil|HoleType=Round|Shape=RoundedRectangle|*
%AMROUNDEDRECTD31*
21,1,0.04343,0.01673,0,0,180.0*
21,1,0.01870,0.04147,0,0,180.0*
1,1,0.02473,-0.00935,0.00837*
1,1,0.02473,0.00935,0.00837*
1,1,0.02473,0.00935,-0.00837*
1,1,0.02473,-0.00935,-0.00837*
%
%ADD31ROUNDEDRECTD31*%
%ADD32R,0.03950X0.03950*%
%ADD33R,0.08280X0.04343*%
%ADD34R,0.06706X0.14186*%
%ADD35R,0.05918X0.06509*%
%ADD36R,0.03950X0.04737*%
%ADD37R,0.06706X0.03556*%
G04:AMPARAMS|DCode=38|XSize=43.43mil|YSize=41.47mil|CornerRadius=12.37mil|HoleSize=0mil|Usage=FLASHONLY|Rotation=270.000|XOffset=0mil|YOffset=0mil|HoleType=Round|Shape=RoundedRectangle|*
%AMROUNDEDRECTD38*
21,1,0.04343,0.01673,0,0,270.0*
21,1,0.01870,0.04147,0,0,270.0*
1,1,0.02473,-0.00837,-0.00935*
1,1,0.02473,-0.00837,0.00935*
1,1,0.02473,0.00837,0.00935*
1,1,0.02473,0.00837,-0.00935*
%
%ADD38ROUNDEDRECTD38*%
%ADD39C,0.40945*%
%ADD40R,0.06824X0.06824*%
%ADD41C,0.06824*%
%ADD42C,0.06800*%
%ADD43C,0.03162*%
%ADD44C,0.08300*%
%ADD45C,0.16900*%
%ADD46C,0.08800*%
%ADD47C,0.09461*%
%ADD48C,0.02800*%
%ADD49C,0.02200*%
%ADD50C,0.03200*%
%ADD51C,0.04800*%
D18*
X160613Y195000D02*
D03*
X167387Y198740D02*
D03*
D19*
Y191260D02*
D03*
D23*
X198000Y132500D02*
D03*
X204693D02*
D03*
D30*
X156000Y305000D02*
D03*
X162000Y163500D02*
D03*
X108000Y173500D02*
D03*
X162000D02*
D03*
X108000Y163500D02*
D03*
D31*
X215000Y167051D02*
D03*
Y160949D02*
D03*
X204000Y167051D02*
D03*
Y160949D02*
D03*
X226000D02*
D03*
Y167051D02*
D03*
X268000Y153551D02*
D03*
Y147449D02*
D03*
X156000Y298102D02*
D03*
Y292000D02*
D03*
X259000Y121449D02*
D03*
Y127551D02*
D03*
D32*
X215000Y155952D02*
D03*
Y150047D02*
D03*
X204000D02*
D03*
Y155952D02*
D03*
X226000D02*
D03*
Y150047D02*
D03*
D33*
X188500Y123555D02*
D03*
Y114500D02*
D03*
Y132610D02*
D03*
D34*
X168421Y123555D02*
D03*
D35*
X198350Y123500D02*
D03*
X204650D02*
D03*
D36*
X271201Y138370D02*
D03*
X278799D02*
D03*
Y109630D02*
D03*
X271201D02*
D03*
X224799D02*
D03*
X217201D02*
D03*
Y138370D02*
D03*
X224799D02*
D03*
D37*
X268110Y115142D02*
D03*
Y132858D02*
D03*
Y126953D02*
D03*
X227890Y132858D02*
D03*
Y115142D02*
D03*
Y121047D02*
D03*
D38*
X197949Y245000D02*
D03*
X204051D02*
D03*
X220051D02*
D03*
X213949D02*
D03*
D39*
X269000Y176000D02*
D03*
X129000Y306000D02*
D03*
D40*
X169200Y329500D02*
D03*
D41*
Y321600D02*
D03*
Y313700D02*
D03*
Y305800D02*
D03*
Y297900D02*
D03*
Y290000D02*
D03*
Y282100D02*
D03*
Y274200D02*
D03*
Y266300D02*
D03*
Y258400D02*
D03*
X255800D02*
D03*
Y266300D02*
D03*
Y274200D02*
D03*
Y282100D02*
D03*
Y290000D02*
D03*
Y297900D02*
D03*
Y305800D02*
D03*
Y313700D02*
D03*
Y321600D02*
D03*
Y329500D02*
D03*
X254500Y114500D02*
D03*
X204500D02*
D03*
D42*
X127000Y183500D02*
D03*
Y163500D02*
D03*
Y173500D02*
D03*
Y203500D02*
D03*
Y153500D02*
D03*
X147000Y183500D02*
D03*
Y163500D02*
D03*
Y173500D02*
D03*
Y203500D02*
D03*
Y153500D02*
D03*
D43*
X275000Y129905D02*
D03*
Y118095D02*
D03*
X221000D02*
D03*
Y129905D02*
D03*
D44*
X189000Y208000D02*
D03*
X229000D02*
D03*
D45*
X209000D02*
D03*
D46*
X224000Y198000D02*
D03*
X199000Y188000D02*
D03*
X219000D02*
D03*
X194000Y198000D02*
D03*
X214000Y228000D02*
D03*
X204000D02*
D03*
D47*
X126673Y236000D02*
D03*
X148327D02*
D03*
X126173Y123500D02*
D03*
X147827D02*
D03*
D48*
X173500Y238500D02*
D03*
X180000D02*
D03*
X156000Y286000D02*
D03*
D49*
X154500Y195000D02*
D03*
D50*
X220000Y239500D02*
D03*
D51*
X211500Y123500D02*
D03*
M02*
