G04*
G04 #@! TF.GenerationSoftware,Altium Limited,Altium Designer,20.0.14 (345)*
G04*
G04 Layer_Physical_Order=1*
G04 Layer_Color=255*
%FSLAX25Y25*%
%MOIN*%
G70*
G01*
G75*
%ADD15C,0.01000*%
G04:AMPARAMS|DCode=18|XSize=48.2mil|YSize=21.18mil|CornerRadius=10.59mil|HoleSize=0mil|Usage=FLASHONLY|Rotation=180.000|XOffset=0mil|YOffset=0mil|HoleType=Round|Shape=RoundedRectangle|*
%AMROUNDEDRECTD18*
21,1,0.04820,0.00000,0,0,180.0*
21,1,0.02702,0.02118,0,0,180.0*
1,1,0.02118,-0.01351,0.00000*
1,1,0.02118,0.01351,0.00000*
1,1,0.02118,0.01351,0.00000*
1,1,0.02118,-0.01351,0.00000*
%
%ADD18ROUNDEDRECTD18*%
%ADD19R,0.04820X0.02118*%
%ADD20C,0.05000*%
G04:AMPARAMS|DCode=21|XSize=35.43mil|YSize=33.47mil|CornerRadius=8.37mil|HoleSize=0mil|Usage=FLASHONLY|Rotation=180.000|XOffset=0mil|YOffset=0mil|HoleType=Round|Shape=RoundedRectangle|*
%AMROUNDEDRECTD21*
21,1,0.03543,0.01673,0,0,180.0*
21,1,0.01870,0.03347,0,0,180.0*
1,1,0.01673,-0.00935,0.00837*
1,1,0.01673,0.00935,0.00837*
1,1,0.01673,0.00935,-0.00837*
1,1,0.01673,-0.00935,-0.00837*
%
%ADD21ROUNDEDRECTD21*%
%ADD22R,0.03150X0.03150*%
%ADD23R,0.02756X0.03937*%
%ADD24R,0.07480X0.03543*%
%ADD25R,0.05906X0.13386*%
%ADD26R,0.05118X0.05709*%
%ADD27R,0.03150X0.03937*%
%ADD28R,0.05906X0.02756*%
G04:AMPARAMS|DCode=29|XSize=35.43mil|YSize=33.47mil|CornerRadius=8.37mil|HoleSize=0mil|Usage=FLASHONLY|Rotation=270.000|XOffset=0mil|YOffset=0mil|HoleType=Round|Shape=RoundedRectangle|*
%AMROUNDEDRECTD29*
21,1,0.03543,0.01673,0,0,270.0*
21,1,0.01870,0.03347,0,0,270.0*
1,1,0.01673,-0.00837,-0.00935*
1,1,0.01673,-0.00837,0.00935*
1,1,0.01673,0.00837,0.00935*
1,1,0.01673,0.00837,-0.00935*
%
%ADD29ROUNDEDRECTD29*%
%ADD52C,0.02000*%
%ADD53C,0.03500*%
%ADD54C,0.02500*%
%ADD55C,0.05000*%
%ADD56C,0.03000*%
%ADD57C,0.03543*%
%ADD58C,0.39370*%
%ADD59R,0.06024X0.06024*%
%ADD60C,0.06024*%
%ADD61C,0.06000*%
%ADD62C,0.02362*%
%ADD63C,0.07500*%
%ADD64C,0.16100*%
%ADD65C,0.08000*%
%ADD66C,0.08661*%
%ADD67C,0.02400*%
%ADD68C,0.02000*%
%ADD69C,0.01400*%
%ADD70C,0.04000*%
G36*
X251838Y322244D02*
X251754Y321600D01*
X251891Y320553D01*
X252296Y319577D01*
X252939Y318739D01*
X253777Y318096D01*
X253807Y318083D01*
Y317217D01*
X253777Y317204D01*
X252939Y316561D01*
X252296Y315723D01*
X251891Y314747D01*
X251754Y313700D01*
X251891Y312653D01*
X252296Y311677D01*
X252939Y310839D01*
X253777Y310196D01*
X253807Y310183D01*
Y309317D01*
X253777Y309304D01*
X252939Y308661D01*
X252296Y307823D01*
X251891Y306847D01*
X251754Y305800D01*
X251891Y304753D01*
X252296Y303777D01*
X252939Y302939D01*
X253777Y302296D01*
X253807Y302283D01*
Y301417D01*
X253777Y301404D01*
X252939Y300761D01*
X252296Y299923D01*
X251891Y298947D01*
X251754Y297900D01*
X251891Y296853D01*
X252296Y295877D01*
X252939Y295039D01*
X253777Y294396D01*
X253807Y294383D01*
Y293517D01*
X253777Y293504D01*
X252939Y292861D01*
X252296Y292023D01*
X251891Y291047D01*
X251754Y290000D01*
X251891Y288953D01*
X252296Y287977D01*
X252939Y287139D01*
X253777Y286496D01*
X253807Y286483D01*
Y285617D01*
X253777Y285604D01*
X252939Y284961D01*
X252296Y284123D01*
X251891Y283147D01*
X251754Y282100D01*
X251891Y281053D01*
X252296Y280077D01*
X252939Y279239D01*
X253777Y278596D01*
X253807Y278583D01*
Y277717D01*
X253777Y277704D01*
X252939Y277061D01*
X252296Y276223D01*
X251891Y275247D01*
X251754Y274200D01*
X251891Y273153D01*
X252096Y272659D01*
X238268Y258831D01*
X237529Y259138D01*
Y309067D01*
X251081Y322618D01*
X251838Y322244D01*
D02*
G37*
G36*
X231971Y256666D02*
Y243811D01*
X231961Y243797D01*
X230943Y243685D01*
X224774Y249853D01*
X224278Y250185D01*
X223693Y250301D01*
X190272D01*
X189686Y250185D01*
X189190Y249853D01*
X179846Y240509D01*
X179329Y240406D01*
X179044Y240512D01*
X178529Y240885D01*
Y298000D01*
X178413Y298585D01*
X178081Y299081D01*
X172904Y304259D01*
X173108Y304753D01*
X173246Y305800D01*
X173108Y306847D01*
X172704Y307823D01*
X172061Y308661D01*
X171223Y309304D01*
X171193Y309317D01*
Y310183D01*
X171223Y310196D01*
X172061Y310839D01*
X172704Y311677D01*
X173108Y312653D01*
X173246Y313700D01*
X173162Y314344D01*
X173919Y314718D01*
X231971Y256666D01*
D02*
G37*
G36*
X195341Y246442D02*
X195240Y245935D01*
Y244065D01*
X195382Y243348D01*
X195483Y243197D01*
X194919Y242633D01*
X194587Y242137D01*
X194471Y241551D01*
Y208967D01*
X193671Y208914D01*
X193628Y209240D01*
X193149Y210396D01*
X192388Y211388D01*
X191395Y212149D01*
X190240Y212628D01*
X189000Y212791D01*
X187760Y212628D01*
X186604Y212149D01*
X185612Y211388D01*
X184851Y210396D01*
X184372Y209240D01*
X184209Y208000D01*
X184372Y206760D01*
X184851Y205605D01*
X185612Y204612D01*
X186604Y203851D01*
X187760Y203372D01*
X189000Y203209D01*
X190240Y203372D01*
X191395Y203851D01*
X192388Y204612D01*
X193149Y205605D01*
X193628Y206760D01*
X193671Y207086D01*
X194471Y207033D01*
Y203456D01*
X194000Y203043D01*
X192695Y202871D01*
X191478Y202367D01*
X190434Y201566D01*
X189632Y200522D01*
X189129Y199305D01*
X188996Y198298D01*
X188202Y197961D01*
X178529Y207633D01*
Y236115D01*
X179044Y236488D01*
X179329Y236594D01*
X180000Y236461D01*
X180780Y236616D01*
X181442Y237058D01*
X181884Y237720D01*
X182009Y238346D01*
X190905Y247242D01*
X194888D01*
X195341Y246442D01*
D02*
G37*
G36*
X211340D02*
X211240Y245935D01*
Y244065D01*
X211382Y243348D01*
X211788Y242741D01*
X212396Y242335D01*
X212471Y242320D01*
Y232779D01*
X211478Y232367D01*
X210434Y231566D01*
X209632Y230522D01*
X209129Y229305D01*
X208957Y228000D01*
X209129Y226695D01*
X209632Y225478D01*
X210434Y224434D01*
X211478Y223633D01*
X212695Y223129D01*
X214000Y222957D01*
X215305Y223129D01*
X216522Y223633D01*
X217566Y224434D01*
X218368Y225478D01*
X218871Y226695D01*
X219043Y228000D01*
X218871Y229305D01*
X218368Y230522D01*
X217566Y231566D01*
X216522Y232367D01*
X215529Y232779D01*
Y242353D01*
X216110Y242741D01*
X216515Y243348D01*
X216592Y243734D01*
X217408D01*
X217484Y243348D01*
X217890Y242741D01*
X218471Y242353D01*
Y241124D01*
X218414Y241086D01*
X217928Y240358D01*
X217757Y239500D01*
X217928Y238642D01*
X218414Y237914D01*
X219142Y237428D01*
X220000Y237257D01*
X220858Y237428D01*
X221586Y237914D01*
X222072Y238642D01*
X222243Y239500D01*
X222072Y240358D01*
X221586Y241086D01*
X221529Y241124D01*
Y242320D01*
X221604Y242335D01*
X222212Y242741D01*
X222618Y243348D01*
X222760Y244065D01*
Y245935D01*
X222659Y246442D01*
X222700Y246523D01*
X223510Y246792D01*
X231383Y238919D01*
X231879Y238587D01*
X232465Y238471D01*
X234536D01*
X235121Y238587D01*
X235617Y238919D01*
X235732Y239033D01*
X236471Y238727D01*
Y190586D01*
X224919Y179034D01*
X224587Y178538D01*
X224471Y177953D01*
Y169642D01*
X224348Y169618D01*
X223741Y169212D01*
X223335Y168604D01*
X223192Y167888D01*
Y166215D01*
X223335Y165498D01*
X223741Y164890D01*
X224348Y164485D01*
X224734Y164408D01*
Y163592D01*
X224348Y163515D01*
X223741Y163110D01*
X223335Y162502D01*
X223192Y161785D01*
Y160112D01*
X223335Y159396D01*
X223390Y159313D01*
X223426Y158527D01*
X223426Y158527D01*
X223426Y158527D01*
Y153422D01*
X223426Y153378D01*
Y152622D01*
X222743Y152294D01*
X218258D01*
X217575Y152622D01*
Y153378D01*
X217575Y153422D01*
Y158527D01*
X217575Y158527D01*
X217575D01*
X217610Y159313D01*
X217665Y159396D01*
X217808Y160112D01*
Y161785D01*
X217665Y162502D01*
X217259Y163110D01*
X216652Y163515D01*
X216266Y163592D01*
Y164408D01*
X216652Y164485D01*
X217259Y164890D01*
X217665Y165498D01*
X217808Y166215D01*
Y167888D01*
X217665Y168604D01*
X217259Y169212D01*
X216652Y169618D01*
X215935Y169760D01*
X214065D01*
X213348Y169618D01*
X212741Y169212D01*
X212335Y168604D01*
X212330Y168581D01*
X209710D01*
X199151Y179139D01*
X198655Y179470D01*
X198070Y179587D01*
X175576D01*
X166701Y188462D01*
X167007Y189201D01*
X170797D01*
Y191956D01*
X174581Y195741D01*
X174913Y196238D01*
X175029Y196823D01*
Y205809D01*
X175829Y206052D01*
X175919Y205919D01*
X193579Y188258D01*
X193957Y188005D01*
X193957Y188000D01*
X194129Y186695D01*
X194632Y185478D01*
X195434Y184434D01*
X196478Y183633D01*
X197695Y183129D01*
X199000Y182957D01*
X200305Y183129D01*
X201522Y183633D01*
X202566Y184434D01*
X203367Y185478D01*
X203779Y186471D01*
X214222D01*
X214633Y185478D01*
X215434Y184434D01*
X216478Y183633D01*
X217695Y183129D01*
X219000Y182957D01*
X220305Y183129D01*
X221522Y183633D01*
X222566Y184434D01*
X223368Y185478D01*
X223871Y186695D01*
X224043Y188000D01*
X223871Y189305D01*
X223368Y190522D01*
X222566Y191566D01*
X221522Y192367D01*
X220305Y192871D01*
X219000Y193043D01*
X217695Y192871D01*
X216478Y192367D01*
X215434Y191566D01*
X214633Y190522D01*
X214222Y189529D01*
X203779D01*
X203367Y190522D01*
X202566Y191566D01*
X201522Y192367D01*
X200305Y192871D01*
X199000Y193043D01*
X197695Y192871D01*
X196478Y192367D01*
X195434Y191566D01*
X194648Y191515D01*
X193961Y192202D01*
X194298Y192996D01*
X195305Y193129D01*
X196522Y193632D01*
X197566Y194434D01*
X198368Y195478D01*
X198778Y196471D01*
X219221D01*
X219633Y195478D01*
X220434Y194434D01*
X221478Y193632D01*
X222695Y193129D01*
X224000Y192957D01*
X225305Y193129D01*
X226522Y193632D01*
X227566Y194434D01*
X228367Y195478D01*
X228871Y196695D01*
X229043Y198000D01*
X228871Y199305D01*
X228367Y200522D01*
X227566Y201566D01*
X226522Y202367D01*
X225305Y202871D01*
X224000Y203043D01*
X222695Y202871D01*
X221478Y202367D01*
X220434Y201566D01*
X219633Y200522D01*
X219221Y199529D01*
X214048D01*
X213848Y200329D01*
X214052Y200439D01*
X215430Y201570D01*
X216561Y202948D01*
X217402Y204520D01*
X217919Y206226D01*
X218094Y208000D01*
X217919Y209774D01*
X217402Y211480D01*
X216561Y213052D01*
X215430Y214430D01*
X214052Y215561D01*
X212480Y216402D01*
X210774Y216919D01*
X209000Y217094D01*
X207226Y216919D01*
X205520Y216402D01*
X203948Y215561D01*
X202570Y214430D01*
X201439Y213052D01*
X200598Y211480D01*
X200081Y209774D01*
X199906Y208000D01*
X200081Y206226D01*
X200598Y204520D01*
X201439Y202948D01*
X202570Y201570D01*
X203948Y200439D01*
X204152Y200329D01*
X203952Y199529D01*
X198778D01*
X198368Y200522D01*
X197566Y201566D01*
X197478Y201634D01*
X197529Y201894D01*
Y240918D01*
X198809Y242197D01*
X199502Y242335D01*
X200110Y242741D01*
X200516Y243348D01*
X200592Y243734D01*
X201408D01*
X201484Y243348D01*
X201890Y242741D01*
X202471Y242353D01*
Y228000D01*
X202587Y227415D01*
X202919Y226919D01*
X203415Y226587D01*
X204000Y226471D01*
X204585Y226587D01*
X205081Y226919D01*
X205413Y227415D01*
X205529Y228000D01*
Y242320D01*
X205604Y242335D01*
X206212Y242741D01*
X206618Y243348D01*
X206760Y244065D01*
Y244500D01*
X204051D01*
Y245500D01*
X206760D01*
Y245935D01*
X206660Y246442D01*
X207112Y247242D01*
X210888D01*
X211340Y246442D01*
D02*
G37*
G36*
X251561Y331488D02*
X252006Y330823D01*
X251891Y330547D01*
X251754Y329500D01*
X251891Y328453D01*
X252096Y327959D01*
X234919Y310781D01*
X234587Y310285D01*
X234471Y309700D01*
Y259538D01*
X233732Y259231D01*
X172904Y320059D01*
X173108Y320553D01*
X173246Y321600D01*
X173108Y322647D01*
X172704Y323623D01*
X172061Y324461D01*
X171223Y325104D01*
X170247Y325509D01*
X169200Y325646D01*
X168153Y325509D01*
X167177Y325104D01*
X166339Y324461D01*
X165696Y323623D01*
X165292Y322647D01*
X165154Y321600D01*
X165292Y320553D01*
X165696Y319577D01*
X166339Y318739D01*
X167177Y318096D01*
X167208Y318083D01*
Y317217D01*
X167177Y317204D01*
X166339Y316561D01*
X165696Y315723D01*
X165292Y314747D01*
X165154Y313700D01*
X165292Y312653D01*
X165696Y311677D01*
X166339Y310839D01*
X167177Y310196D01*
X167208Y310183D01*
Y309317D01*
X167177Y309304D01*
X166339Y308661D01*
X165696Y307823D01*
X165292Y306847D01*
X165154Y305800D01*
X165292Y304753D01*
X165696Y303777D01*
X166339Y302939D01*
X167177Y302296D01*
X167208Y302283D01*
Y301417D01*
X167177Y301404D01*
X166339Y300761D01*
X165696Y299923D01*
X165533Y299531D01*
X158690D01*
X158665Y299656D01*
X158259Y300263D01*
X157652Y300669D01*
X157529Y300693D01*
Y301845D01*
X157765Y301943D01*
X158496Y302504D01*
X159057Y303235D01*
X159410Y304086D01*
X159530Y305000D01*
X159410Y305914D01*
X159057Y306765D01*
X158496Y307496D01*
X157765Y308057D01*
X156914Y308410D01*
X156000Y308530D01*
X155086Y308410D01*
X154235Y308057D01*
X153504Y307496D01*
X152943Y306765D01*
X152590Y305914D01*
X152470Y305000D01*
X152590Y304086D01*
X152943Y303235D01*
X153504Y302504D01*
X154235Y301943D01*
X154471Y301845D01*
Y300693D01*
X154348Y300669D01*
X153741Y300263D01*
X153335Y299656D01*
X153192Y298939D01*
Y297266D01*
X153335Y296549D01*
X153741Y295942D01*
X154348Y295536D01*
X154734Y295459D01*
Y294643D01*
X154348Y294567D01*
X153741Y294161D01*
X153335Y293553D01*
X153192Y292837D01*
Y291163D01*
X153335Y290447D01*
X153741Y289839D01*
X154348Y289433D01*
X154471Y289409D01*
Y287311D01*
X154116Y286780D01*
X153961Y286000D01*
X154116Y285220D01*
X154558Y284558D01*
X155220Y284116D01*
X156000Y283961D01*
X156780Y284116D01*
X157442Y284558D01*
X157884Y285220D01*
X158039Y286000D01*
X157884Y286780D01*
X157529Y287311D01*
Y289409D01*
X157652Y289433D01*
X158259Y289839D01*
X158665Y290447D01*
X158808Y291163D01*
Y292837D01*
X158665Y293553D01*
X158259Y294161D01*
X157652Y294567D01*
X157266Y294643D01*
Y295459D01*
X157652Y295536D01*
X158259Y295942D01*
X158613Y296472D01*
X165449D01*
X165696Y295877D01*
X166339Y295039D01*
X167177Y294396D01*
X167208Y294383D01*
Y293517D01*
X167177Y293504D01*
X166339Y292861D01*
X165696Y292023D01*
X165292Y291047D01*
X165154Y290000D01*
X165292Y288953D01*
X165696Y287977D01*
X166339Y287139D01*
X167177Y286496D01*
X167208Y286483D01*
Y285617D01*
X167177Y285604D01*
X166339Y284961D01*
X165696Y284123D01*
X165292Y283147D01*
X165154Y282100D01*
X165292Y281053D01*
X165696Y280077D01*
X166339Y279239D01*
X167177Y278596D01*
X167208Y278583D01*
Y277717D01*
X167177Y277704D01*
X166339Y277061D01*
X165696Y276223D01*
X165292Y275247D01*
X165154Y274200D01*
X165292Y273153D01*
X165696Y272177D01*
X166339Y271339D01*
X167177Y270696D01*
X167208Y270683D01*
Y269817D01*
X167177Y269804D01*
X166339Y269161D01*
X165696Y268323D01*
X165292Y267347D01*
X165154Y266300D01*
X165292Y265253D01*
X165696Y264277D01*
X166339Y263439D01*
X167177Y262796D01*
X167208Y262783D01*
Y261917D01*
X167177Y261904D01*
X166339Y261261D01*
X165696Y260423D01*
X165292Y259447D01*
X165154Y258400D01*
X165292Y257353D01*
X165696Y256377D01*
X166339Y255539D01*
X167177Y254896D01*
X168153Y254491D01*
X169200Y254354D01*
X170247Y254491D01*
X171223Y254896D01*
X172061Y255539D01*
X172704Y256377D01*
X173108Y257353D01*
X173246Y258400D01*
X173108Y259447D01*
X172704Y260423D01*
X172061Y261261D01*
X171223Y261904D01*
X171193Y261917D01*
Y262783D01*
X171223Y262796D01*
X172061Y263439D01*
X172704Y264277D01*
X173108Y265253D01*
X173246Y266300D01*
X173108Y267347D01*
X172704Y268323D01*
X172061Y269161D01*
X171223Y269804D01*
X171193Y269817D01*
Y270683D01*
X171223Y270696D01*
X172061Y271339D01*
X172704Y272177D01*
X173108Y273153D01*
X173246Y274200D01*
X173108Y275247D01*
X172704Y276223D01*
X172061Y277061D01*
X171223Y277704D01*
X171193Y277717D01*
Y278583D01*
X171223Y278596D01*
X172061Y279239D01*
X172704Y280077D01*
X173108Y281053D01*
X173246Y282100D01*
X173108Y283147D01*
X172704Y284123D01*
X172061Y284961D01*
X171223Y285604D01*
X171193Y285617D01*
Y286483D01*
X171223Y286496D01*
X172061Y287139D01*
X172704Y287977D01*
X173108Y288953D01*
X173246Y290000D01*
X173108Y291047D01*
X172704Y292023D01*
X172061Y292861D01*
X171223Y293504D01*
X171193Y293517D01*
Y294383D01*
X171223Y294396D01*
X172061Y295039D01*
X172704Y295877D01*
X173108Y296853D01*
X173246Y297900D01*
X173162Y298544D01*
X173919Y298918D01*
X175471Y297366D01*
Y240481D01*
X174671Y240123D01*
X174280Y240384D01*
X173500Y240539D01*
X172720Y240384D01*
X172058Y239942D01*
X171616Y239280D01*
X171461Y238500D01*
X171616Y237720D01*
X171971Y237189D01*
Y197456D01*
X168127Y193613D01*
X167931Y193319D01*
X164280D01*
X163804Y194047D01*
X163904Y194197D01*
X164064Y195000D01*
X163904Y195803D01*
X163449Y196484D01*
X162768Y196940D01*
X161964Y197099D01*
X159263D01*
X158960Y197039D01*
X154500D01*
X153720Y196884D01*
X153058Y196442D01*
X152616Y195780D01*
X152461Y195000D01*
X152616Y194220D01*
X153058Y193558D01*
X153720Y193116D01*
X154500Y192961D01*
X158960D01*
X159263Y192901D01*
X159600D01*
Y191870D01*
X159717Y191285D01*
X160048Y190789D01*
X173861Y176976D01*
X174357Y176645D01*
X174943Y176528D01*
X197436D01*
X207995Y165970D01*
X208491Y165638D01*
X209076Y165522D01*
X212330D01*
X212335Y165498D01*
X212741Y164890D01*
X213348Y164485D01*
X213734Y164408D01*
Y163592D01*
X213348Y163515D01*
X212741Y163110D01*
X212335Y162502D01*
X212192Y161785D01*
Y160112D01*
X212335Y159396D01*
X212390Y159313D01*
X212425Y158527D01*
X212425Y158527D01*
X212425Y158527D01*
Y153422D01*
X212425Y153378D01*
Y152622D01*
X211743Y152294D01*
X207258D01*
X206575Y152622D01*
Y153378D01*
X206575Y153422D01*
Y158527D01*
X206575Y158527D01*
X206575D01*
X206610Y159313D01*
X206665Y159396D01*
X206808Y160112D01*
Y161785D01*
X206665Y162502D01*
X206259Y163110D01*
X205652Y163515D01*
X204935Y163658D01*
X203065D01*
X202348Y163515D01*
X201741Y163110D01*
X201335Y162502D01*
X201192Y161785D01*
Y160112D01*
X201335Y159396D01*
X201390Y159313D01*
X201426Y158527D01*
X201426Y158527D01*
X201426Y158527D01*
Y153422D01*
X201426Y153378D01*
Y152622D01*
X201426Y152578D01*
Y147472D01*
X206575D01*
Y147706D01*
X212425D01*
Y147472D01*
X217575D01*
Y147706D01*
X223426D01*
Y147472D01*
X228575D01*
Y152578D01*
X228575Y152622D01*
Y153378D01*
X228575Y153422D01*
Y158527D01*
X228575Y158527D01*
X228575D01*
X228610Y159313D01*
X228665Y159396D01*
X228808Y160112D01*
Y161785D01*
X228665Y162502D01*
X228259Y163110D01*
X227652Y163515D01*
X227266Y163592D01*
Y164408D01*
X227652Y164485D01*
X228259Y164890D01*
X228665Y165498D01*
X228808Y166215D01*
Y167888D01*
X228665Y168604D01*
X228259Y169212D01*
X227652Y169618D01*
X227529Y169642D01*
Y177319D01*
X239081Y188871D01*
X239413Y189367D01*
X239529Y189953D01*
Y255767D01*
X251081Y267318D01*
X251838Y266944D01*
X251754Y266300D01*
X251891Y265253D01*
X252296Y264277D01*
X252939Y263439D01*
X253777Y262796D01*
X253807Y262783D01*
Y261917D01*
X253777Y261904D01*
X252939Y261261D01*
X252296Y260423D01*
X251891Y259447D01*
X251754Y258400D01*
X251891Y257353D01*
X252296Y256377D01*
X252939Y255539D01*
X253777Y254896D01*
X254753Y254491D01*
X255800Y254354D01*
X256847Y254491D01*
X257823Y254896D01*
X258661Y255539D01*
X259304Y256377D01*
X259709Y257353D01*
X259846Y258400D01*
X259709Y259447D01*
X259304Y260423D01*
X258661Y261261D01*
X257823Y261904D01*
X257792Y261917D01*
Y262783D01*
X257823Y262796D01*
X258661Y263439D01*
X259304Y264277D01*
X259709Y265253D01*
X259846Y266300D01*
X259709Y267347D01*
X259304Y268323D01*
X258661Y269161D01*
X257823Y269804D01*
X257792Y269817D01*
Y270683D01*
X257823Y270696D01*
X258661Y271339D01*
X259304Y272177D01*
X259709Y273153D01*
X259846Y274200D01*
X259709Y275247D01*
X259304Y276223D01*
X258661Y277061D01*
X257823Y277704D01*
X257792Y277717D01*
Y278583D01*
X257823Y278596D01*
X258661Y279239D01*
X259304Y280077D01*
X259709Y281053D01*
X259846Y282100D01*
X259709Y283147D01*
X259304Y284123D01*
X258661Y284961D01*
X257823Y285604D01*
X257792Y285617D01*
Y286483D01*
X257823Y286496D01*
X258661Y287139D01*
X259304Y287977D01*
X259709Y288953D01*
X259846Y290000D01*
X259709Y291047D01*
X259304Y292023D01*
X258661Y292861D01*
X257823Y293504D01*
X257792Y293517D01*
Y294383D01*
X257823Y294396D01*
X258661Y295039D01*
X259304Y295877D01*
X259709Y296853D01*
X259846Y297900D01*
X259709Y298947D01*
X259304Y299923D01*
X258661Y300761D01*
X257823Y301404D01*
X257792Y301417D01*
Y302283D01*
X257823Y302296D01*
X258661Y302939D01*
X259304Y303777D01*
X259709Y304753D01*
X259846Y305800D01*
X259709Y306847D01*
X259304Y307823D01*
X258661Y308661D01*
X257823Y309304D01*
X257792Y309317D01*
Y310183D01*
X257823Y310196D01*
X258661Y310839D01*
X259304Y311677D01*
X259709Y312653D01*
X259846Y313700D01*
X259709Y314747D01*
X259304Y315723D01*
X258661Y316561D01*
X257823Y317204D01*
X257792Y317217D01*
Y318083D01*
X257823Y318096D01*
X258661Y318739D01*
X259304Y319577D01*
X259709Y320553D01*
X259846Y321600D01*
X259709Y322647D01*
X259304Y323623D01*
X258661Y324461D01*
X257823Y325104D01*
X257792Y325117D01*
Y325983D01*
X257823Y325996D01*
X258661Y326639D01*
X259304Y327477D01*
X259709Y328453D01*
X259846Y329500D01*
X259709Y330547D01*
X259594Y330823D01*
X260039Y331488D01*
X290480D01*
X290480Y176773D01*
X289681Y176747D01*
X289552Y178706D01*
X289023Y181365D01*
X288152Y183933D01*
X286952Y186365D01*
X285446Y188619D01*
X283658Y190658D01*
X281619Y192446D01*
X279365Y193952D01*
X276933Y195151D01*
X274365Y196023D01*
X271706Y196552D01*
X269000Y196729D01*
X266294Y196552D01*
X263635Y196023D01*
X261067Y195151D01*
X258635Y193952D01*
X256381Y192446D01*
X254342Y190658D01*
X252554Y188619D01*
X251048Y186365D01*
X249849Y183933D01*
X248977Y181365D01*
X248448Y178706D01*
X248271Y176000D01*
X248448Y173294D01*
X248977Y170635D01*
X249849Y168067D01*
X251048Y165635D01*
X252554Y163381D01*
X254342Y161342D01*
X256381Y159554D01*
X258635Y158048D01*
X261067Y156849D01*
X263635Y155977D01*
X266294Y155448D01*
X269000Y155271D01*
X271706Y155448D01*
X274365Y155977D01*
X276933Y156849D01*
X279365Y158048D01*
X281619Y159554D01*
X283658Y161342D01*
X285446Y163381D01*
X286952Y165635D01*
X288152Y168067D01*
X289023Y170635D01*
X289552Y173294D01*
X289681Y175253D01*
X290480Y175227D01*
X290480Y101020D01*
X104019Y101020D01*
Y161873D01*
X104820Y162032D01*
X104943Y161735D01*
X105504Y161004D01*
X106235Y160443D01*
X107086Y160090D01*
X108000Y159970D01*
X108914Y160090D01*
X109765Y160443D01*
X110496Y161004D01*
X111057Y161735D01*
X111155Y161971D01*
X123304D01*
X123506Y161483D01*
X124147Y160647D01*
X124983Y160006D01*
X125956Y159603D01*
X127000Y159466D01*
X127698Y159557D01*
X130032Y157224D01*
X129503Y156621D01*
X129017Y156994D01*
X128044Y157397D01*
X127000Y157535D01*
X125956Y157397D01*
X124983Y156994D01*
X124147Y156353D01*
X123506Y155517D01*
X123103Y154544D01*
X122966Y153500D01*
X123103Y152456D01*
X123506Y151483D01*
X124147Y150647D01*
X124983Y150006D01*
X125956Y149603D01*
X127000Y149466D01*
X128044Y149603D01*
X129017Y150006D01*
X129853Y150647D01*
X130494Y151483D01*
X130897Y152456D01*
X130906Y152523D01*
X131706Y152471D01*
Y150950D01*
X124378Y143622D01*
X123881Y142878D01*
X123706Y142000D01*
Y128248D01*
X123485Y128156D01*
X122371Y127302D01*
X121517Y126188D01*
X120980Y124892D01*
X120797Y123500D01*
X120980Y122108D01*
X121517Y120812D01*
X122371Y119698D01*
X123485Y118844D01*
X124782Y118307D01*
X126173Y118123D01*
X127565Y118307D01*
X128862Y118844D01*
X129975Y119698D01*
X130830Y120812D01*
X131367Y122108D01*
X131550Y123500D01*
X131367Y124892D01*
X130830Y126188D01*
X129975Y127302D01*
X128862Y128156D01*
X128294Y128391D01*
Y141050D01*
X135622Y148378D01*
X136119Y149122D01*
X136294Y150000D01*
Y156500D01*
X136119Y157378D01*
X135622Y158122D01*
X130943Y162802D01*
X131035Y163500D01*
X130897Y164544D01*
X130494Y165517D01*
X129853Y166353D01*
X129017Y166994D01*
X128044Y167397D01*
X127000Y167534D01*
X125956Y167397D01*
X124983Y166994D01*
X124147Y166353D01*
X123506Y165517D01*
X123304Y165029D01*
X111155D01*
X111057Y165265D01*
X110496Y165996D01*
X109765Y166557D01*
X108914Y166910D01*
X108000Y167030D01*
X107086Y166910D01*
X106235Y166557D01*
X105504Y165996D01*
X104943Y165265D01*
X104820Y164968D01*
X104019Y165127D01*
Y171873D01*
X104820Y172032D01*
X104943Y171735D01*
X105504Y171004D01*
X106235Y170443D01*
X107086Y170090D01*
X108000Y169970D01*
X108914Y170090D01*
X109765Y170443D01*
X110496Y171004D01*
X111057Y171735D01*
X111155Y171971D01*
X123304D01*
X123506Y171483D01*
X124147Y170647D01*
X124983Y170006D01*
X125956Y169603D01*
X127000Y169465D01*
X128044Y169603D01*
X129017Y170006D01*
X129853Y170647D01*
X130494Y171483D01*
X130897Y172456D01*
X131035Y173500D01*
X130943Y174198D01*
X135622Y178878D01*
X136119Y179622D01*
X136294Y180500D01*
Y228673D01*
X136119Y229551D01*
X135622Y230295D01*
X131703Y234214D01*
X131867Y234608D01*
X132050Y236000D01*
X131867Y237392D01*
X131330Y238688D01*
X130475Y239802D01*
X129362Y240656D01*
X128065Y241194D01*
X126673Y241377D01*
X125282Y241194D01*
X123985Y240656D01*
X122871Y239802D01*
X122017Y238688D01*
X121480Y237392D01*
X121297Y236000D01*
X121480Y234608D01*
X122017Y233312D01*
X122871Y232198D01*
X123985Y231344D01*
X125282Y230806D01*
X126673Y230623D01*
X128065Y230806D01*
X128459Y230970D01*
X131706Y227723D01*
Y204529D01*
X130906Y204477D01*
X130897Y204544D01*
X130494Y205517D01*
X129853Y206353D01*
X129017Y206994D01*
X128044Y207397D01*
X127000Y207535D01*
X125956Y207397D01*
X124983Y206994D01*
X124147Y206353D01*
X123506Y205517D01*
X123103Y204544D01*
X122966Y203500D01*
X123103Y202456D01*
X123506Y201483D01*
X124147Y200647D01*
X124983Y200006D01*
X125956Y199603D01*
X127000Y199466D01*
X128044Y199603D01*
X129017Y200006D01*
X129853Y200647D01*
X130494Y201483D01*
X130897Y202456D01*
X130906Y202523D01*
X131706Y202471D01*
Y184529D01*
X130906Y184477D01*
X130897Y184544D01*
X130494Y185517D01*
X129853Y186353D01*
X129017Y186994D01*
X128044Y187397D01*
X127000Y187534D01*
X125956Y187397D01*
X124983Y186994D01*
X124147Y186353D01*
X123506Y185517D01*
X123103Y184544D01*
X122966Y183500D01*
X123103Y182456D01*
X123506Y181483D01*
X124147Y180647D01*
X124983Y180006D01*
X125956Y179603D01*
X127000Y179465D01*
X128044Y179603D01*
X129017Y180006D01*
X129503Y180379D01*
X130032Y179776D01*
X127698Y177443D01*
X127000Y177534D01*
X125956Y177397D01*
X124983Y176994D01*
X124147Y176353D01*
X123506Y175517D01*
X123304Y175029D01*
X111155D01*
X111057Y175265D01*
X110496Y175996D01*
X109765Y176557D01*
X108914Y176910D01*
X108000Y177030D01*
X107086Y176910D01*
X106235Y176557D01*
X105504Y175996D01*
X104943Y175265D01*
X104820Y174968D01*
X104019Y175127D01*
X104019Y331488D01*
X251561Y331488D01*
D02*
G37*
%LPC*%
G36*
X229000Y212791D02*
X227760Y212628D01*
X226605Y212149D01*
X225612Y211388D01*
X224851Y210396D01*
X224372Y209240D01*
X224209Y208000D01*
X224372Y206760D01*
X224851Y205605D01*
X225612Y204612D01*
X226605Y203851D01*
X227760Y203372D01*
X229000Y203209D01*
X230240Y203372D01*
X231396Y203851D01*
X232388Y204612D01*
X233149Y205605D01*
X233628Y206760D01*
X233791Y208000D01*
X233628Y209240D01*
X233149Y210396D01*
X232388Y211388D01*
X231396Y212149D01*
X230240Y212628D01*
X229000Y212791D01*
D02*
G37*
G36*
X129000Y326729D02*
X126294Y326552D01*
X123635Y326023D01*
X121067Y325151D01*
X118635Y323952D01*
X116381Y322446D01*
X114342Y320658D01*
X112554Y318619D01*
X111048Y316365D01*
X109848Y313933D01*
X108977Y311365D01*
X108448Y308706D01*
X108271Y306000D01*
X108448Y303294D01*
X108977Y300635D01*
X109848Y298067D01*
X111048Y295635D01*
X112554Y293381D01*
X114342Y291342D01*
X116381Y289554D01*
X118635Y288048D01*
X121067Y286848D01*
X123635Y285977D01*
X126294Y285448D01*
X129000Y285271D01*
X131706Y285448D01*
X134365Y285977D01*
X136933Y286848D01*
X139365Y288048D01*
X141619Y289554D01*
X143658Y291342D01*
X145446Y293381D01*
X146952Y295635D01*
X148152Y298067D01*
X149023Y300635D01*
X149552Y303294D01*
X149729Y306000D01*
X149552Y308706D01*
X149023Y311365D01*
X148152Y313933D01*
X146952Y316365D01*
X145446Y318619D01*
X143658Y320658D01*
X141619Y322446D01*
X139365Y323952D01*
X136933Y325151D01*
X134365Y326023D01*
X131706Y326552D01*
X129000Y326729D01*
D02*
G37*
G36*
X148327Y241377D02*
X146935Y241194D01*
X145638Y240656D01*
X144525Y239802D01*
X143670Y238688D01*
X143133Y237392D01*
X142950Y236000D01*
X143133Y234608D01*
X143201Y234445D01*
X138378Y229622D01*
X137881Y228878D01*
X137706Y228000D01*
Y180500D01*
X137881Y179622D01*
X138378Y178878D01*
X143057Y174198D01*
X142965Y173500D01*
X143103Y172456D01*
X143506Y171483D01*
X144147Y170647D01*
X144983Y170006D01*
X145956Y169603D01*
X147000Y169465D01*
X148044Y169603D01*
X149017Y170006D01*
X149853Y170647D01*
X150494Y171483D01*
X150696Y171971D01*
X158845D01*
X158943Y171735D01*
X159504Y171004D01*
X160235Y170443D01*
X161086Y170090D01*
X162000Y169970D01*
X162914Y170090D01*
X163765Y170443D01*
X164496Y171004D01*
X165057Y171735D01*
X165410Y172586D01*
X165530Y173500D01*
X165410Y174414D01*
X165057Y175265D01*
X164496Y175996D01*
X163765Y176557D01*
X162914Y176910D01*
X162000Y177030D01*
X161086Y176910D01*
X160235Y176557D01*
X159504Y175996D01*
X158943Y175265D01*
X158845Y175029D01*
X150696D01*
X150494Y175517D01*
X149853Y176353D01*
X149017Y176994D01*
X148044Y177397D01*
X147000Y177534D01*
X146302Y177443D01*
X143968Y179776D01*
X144497Y180379D01*
X144983Y180006D01*
X145956Y179603D01*
X147000Y179465D01*
X148044Y179603D01*
X149017Y180006D01*
X149853Y180647D01*
X150494Y181483D01*
X150897Y182456D01*
X151034Y183500D01*
X150897Y184544D01*
X150494Y185517D01*
X149853Y186353D01*
X149017Y186994D01*
X148044Y187397D01*
X147000Y187534D01*
X145956Y187397D01*
X144983Y186994D01*
X144147Y186353D01*
X143506Y185517D01*
X143103Y184544D01*
X143094Y184477D01*
X142294Y184529D01*
Y202471D01*
X143094Y202523D01*
X143103Y202456D01*
X143506Y201483D01*
X144147Y200647D01*
X144983Y200006D01*
X145956Y199603D01*
X147000Y199466D01*
X148044Y199603D01*
X149017Y200006D01*
X149853Y200647D01*
X150494Y201483D01*
X150897Y202456D01*
X151034Y203500D01*
X150897Y204544D01*
X150494Y205517D01*
X149853Y206353D01*
X149017Y206994D01*
X148044Y207397D01*
X147000Y207535D01*
X145956Y207397D01*
X144983Y206994D01*
X144147Y206353D01*
X143506Y205517D01*
X143103Y204544D01*
X143094Y204477D01*
X142294Y204529D01*
Y227050D01*
X146310Y231066D01*
X146935Y230806D01*
X148327Y230623D01*
X149718Y230806D01*
X151015Y231344D01*
X152129Y232198D01*
X152983Y233312D01*
X153520Y234608D01*
X153703Y236000D01*
X153520Y237392D01*
X152983Y238688D01*
X152129Y239802D01*
X151015Y240656D01*
X149718Y241194D01*
X148327Y241377D01*
D02*
G37*
G36*
X147000Y167534D02*
X145956Y167397D01*
X144983Y166994D01*
X144147Y166353D01*
X143506Y165517D01*
X143103Y164544D01*
X142965Y163500D01*
X143057Y162802D01*
X138378Y158122D01*
X137881Y157378D01*
X137706Y156500D01*
Y149500D01*
X137881Y148622D01*
X138378Y147878D01*
X145206Y141050D01*
Y128184D01*
X145138Y128156D01*
X144025Y127302D01*
X143170Y126188D01*
X142633Y124892D01*
X142450Y123500D01*
X142633Y122108D01*
X143170Y120812D01*
X144025Y119698D01*
X145138Y118844D01*
X146435Y118307D01*
X147827Y118123D01*
X149218Y118307D01*
X150515Y118844D01*
X151629Y119698D01*
X152483Y120812D01*
X153020Y122108D01*
X153203Y123500D01*
X153020Y124892D01*
X152483Y126188D01*
X151629Y127302D01*
X150515Y128156D01*
X149794Y128455D01*
Y142000D01*
X149619Y142878D01*
X149122Y143622D01*
X142294Y150450D01*
Y152471D01*
X143094Y152523D01*
X143103Y152456D01*
X143506Y151483D01*
X144147Y150647D01*
X144983Y150006D01*
X145956Y149603D01*
X147000Y149466D01*
X148044Y149603D01*
X149017Y150006D01*
X149853Y150647D01*
X150494Y151483D01*
X150897Y152456D01*
X151034Y153500D01*
X150897Y154544D01*
X150494Y155517D01*
X149853Y156353D01*
X149017Y156994D01*
X148044Y157397D01*
X147000Y157535D01*
X145956Y157397D01*
X144983Y156994D01*
X144497Y156621D01*
X143968Y157224D01*
X146302Y159557D01*
X147000Y159466D01*
X148044Y159603D01*
X149017Y160006D01*
X149853Y160647D01*
X150494Y161483D01*
X150696Y161971D01*
X158845D01*
X158943Y161735D01*
X159504Y161004D01*
X160235Y160443D01*
X161086Y160090D01*
X162000Y159970D01*
X162914Y160090D01*
X163765Y160443D01*
X164496Y161004D01*
X165057Y161735D01*
X165410Y162586D01*
X165530Y163500D01*
X165410Y164414D01*
X165057Y165265D01*
X164496Y165996D01*
X163765Y166557D01*
X162914Y166910D01*
X162000Y167030D01*
X161086Y166910D01*
X160235Y166557D01*
X159504Y165996D01*
X158943Y165265D01*
X158845Y165029D01*
X150696D01*
X150494Y165517D01*
X149853Y166353D01*
X149017Y166994D01*
X148044Y167397D01*
X147000Y167534D01*
D02*
G37*
G36*
X227374Y141339D02*
X222224D01*
Y141144D01*
X219776D01*
Y141339D01*
X214626D01*
Y139340D01*
X214615Y139313D01*
X210576Y135274D01*
X207071D01*
Y135468D01*
X202315D01*
Y133918D01*
X202291Y133887D01*
X202014Y133218D01*
X201919Y132500D01*
X202014Y131782D01*
X202291Y131113D01*
X202315Y131082D01*
Y129532D01*
X207071D01*
Y129726D01*
X211724D01*
X212442Y129821D01*
X213111Y130098D01*
X213686Y130539D01*
X218549Y135402D01*
X219776D01*
Y135596D01*
X222224D01*
Y135402D01*
X223100D01*
Y133736D01*
X223195Y133018D01*
X223374Y132586D01*
X222717Y132082D01*
X222398Y132326D01*
X221724Y132606D01*
X221000Y132701D01*
X220276Y132606D01*
X219602Y132326D01*
X219023Y131882D01*
X218579Y131303D01*
X218300Y130629D01*
X218204Y129905D01*
X218300Y129182D01*
X218579Y128508D01*
X219023Y127929D01*
X219602Y127485D01*
X220276Y127205D01*
X221000Y127110D01*
X221724Y127205D01*
X222398Y127485D01*
X222977Y127929D01*
X223421Y128508D01*
X223700Y129182D01*
X223775Y129747D01*
X223813Y129919D01*
X224527Y130480D01*
X231842D01*
Y135236D01*
X228648D01*
Y137295D01*
X228553Y138013D01*
X228276Y138682D01*
X227835Y139257D01*
X227374Y139611D01*
Y141339D01*
D02*
G37*
G36*
X281374D02*
X276224D01*
Y135402D01*
X281374D01*
Y141339D01*
D02*
G37*
G36*
X200378Y135468D02*
X195622D01*
Y135384D01*
X188500D01*
X188484Y135382D01*
X183760D01*
Y129839D01*
X188484D01*
X188500Y129836D01*
X195622D01*
Y129532D01*
X200378D01*
Y131431D01*
X200569Y131892D01*
X200663Y132610D01*
X200569Y133328D01*
X200378Y133789D01*
Y135468D01*
D02*
G37*
G36*
X244243Y244743D02*
X243385Y244572D01*
X242657Y244086D01*
X242171Y243358D01*
X242000Y242500D01*
X242171Y241642D01*
X242657Y240914D01*
X242714Y240876D01*
Y149575D01*
X242830Y148990D01*
X243162Y148494D01*
X257881Y133774D01*
X257728Y132796D01*
X257414Y132586D01*
X256928Y131858D01*
X256757Y131000D01*
X256928Y130142D01*
X257068Y129931D01*
X256741Y129712D01*
X256335Y129104D01*
X256192Y128388D01*
Y126715D01*
X256335Y125998D01*
X256741Y125390D01*
X257348Y124985D01*
X257734Y124908D01*
Y124092D01*
X257348Y124015D01*
X256741Y123610D01*
X256335Y123002D01*
X256192Y122285D01*
Y120612D01*
X256335Y119896D01*
X256741Y119288D01*
X257348Y118882D01*
X258065Y118740D01*
X259935D01*
X260393Y118831D01*
X264158Y115066D01*
Y112764D01*
X267895D01*
X268626Y112598D01*
X268626Y111964D01*
Y106661D01*
X273776D01*
Y112598D01*
X272795D01*
X272063Y112764D01*
X272063Y113398D01*
Y116055D01*
X272863Y116326D01*
X273023Y116118D01*
X273602Y115673D01*
X274276Y115394D01*
X275000Y115299D01*
X275724Y115394D01*
X276398Y115673D01*
X276977Y116118D01*
X277421Y116697D01*
X277700Y117371D01*
X277796Y118095D01*
X277700Y118818D01*
X277421Y119492D01*
X276977Y120071D01*
X276398Y120516D01*
X275724Y120795D01*
X275000Y120890D01*
X274276Y120795D01*
X273602Y120516D01*
X273023Y120071D01*
X272579Y119492D01*
X272300Y118818D01*
X272225Y118253D01*
X272187Y118081D01*
X271473Y117520D01*
X267380D01*
X267232Y117549D01*
X266000D01*
X261985Y121565D01*
X261808Y121683D01*
Y122285D01*
X261665Y123002D01*
X261259Y123610D01*
X260652Y124015D01*
X260266Y124092D01*
Y124908D01*
X260652Y124985D01*
X261259Y125390D01*
X261665Y125998D01*
X261808Y126715D01*
Y128386D01*
X261811Y128390D01*
X262545Y128780D01*
X264158Y127168D01*
Y124575D01*
X272063D01*
Y127866D01*
X272863Y128138D01*
X273023Y127929D01*
X273602Y127485D01*
X274276Y127205D01*
X275000Y127110D01*
X275724Y127205D01*
X276398Y127485D01*
X276977Y127929D01*
X277421Y128508D01*
X277700Y129182D01*
X277796Y129905D01*
X277700Y130629D01*
X277421Y131303D01*
X276977Y131882D01*
X276398Y132326D01*
X275724Y132606D01*
X275000Y132701D01*
X274276Y132606D01*
X273602Y132326D01*
X273023Y131882D01*
X272863Y131674D01*
X272063Y131945D01*
Y135236D01*
X272795Y135402D01*
X273776D01*
Y141339D01*
X269529D01*
Y144858D01*
X269652Y144882D01*
X270259Y145288D01*
X270665Y145896D01*
X270808Y146612D01*
Y148285D01*
X270665Y149002D01*
X270259Y149610D01*
X269652Y150015D01*
X268935Y150158D01*
X267065D01*
X266348Y150015D01*
X265741Y149610D01*
X265335Y149002D01*
X265192Y148285D01*
Y146612D01*
X265335Y145896D01*
X265741Y145288D01*
X266348Y144882D01*
X266471Y144858D01*
Y135236D01*
X264158D01*
Y133185D01*
X263357Y132618D01*
X263113Y132704D01*
X262781Y133200D01*
X245773Y150209D01*
Y240876D01*
X245829Y240914D01*
X246316Y241642D01*
X246486Y242500D01*
X246316Y243358D01*
X245829Y244086D01*
X245101Y244572D01*
X244243Y244743D01*
D02*
G37*
G36*
X208209Y127354D02*
X201091D01*
Y125744D01*
X200291Y125472D01*
X200257Y125516D01*
X199682Y125957D01*
X199013Y126234D01*
X198295Y126329D01*
X188666D01*
X188500Y126351D01*
X168421D01*
X167698Y126255D01*
X167024Y125976D01*
X166445Y125532D01*
X166000Y124953D01*
X165721Y124279D01*
X165626Y123555D01*
X165721Y122832D01*
X166000Y122157D01*
X166445Y121578D01*
X167024Y121134D01*
X167698Y120855D01*
X168421Y120759D01*
X188500D01*
X188666Y120781D01*
X198295D01*
X199013Y120876D01*
X199682Y121153D01*
X200257Y121594D01*
X200291Y121638D01*
X201091Y121367D01*
Y119646D01*
X201289D01*
Y117183D01*
X193240D01*
Y117272D01*
X183760D01*
Y111728D01*
X187887D01*
X188591Y111636D01*
X201643D01*
X202477Y110996D01*
X203453Y110591D01*
X204500Y110454D01*
X205547Y110591D01*
X206523Y110996D01*
X207361Y111639D01*
X208004Y112477D01*
X208409Y113453D01*
X208546Y114500D01*
X208409Y115547D01*
X208349Y115691D01*
Y119970D01*
X211500D01*
X212414Y120090D01*
X213265Y120443D01*
X213996Y121004D01*
X214557Y121735D01*
X214910Y122586D01*
X215030Y123500D01*
X214910Y124414D01*
X214557Y125265D01*
X213996Y125996D01*
X213265Y126557D01*
X212414Y126910D01*
X211500Y127030D01*
X208209D01*
Y127354D01*
D02*
G37*
G36*
X248181Y123821D02*
X227890D01*
X227172Y123726D01*
X226503Y123449D01*
X226471Y123425D01*
X223937D01*
Y120134D01*
X223137Y119862D01*
X222977Y120071D01*
X222398Y120516D01*
X221724Y120795D01*
X221000Y120890D01*
X220276Y120795D01*
X219602Y120516D01*
X219023Y120071D01*
X218579Y119492D01*
X218300Y118818D01*
X218204Y118095D01*
X218300Y117371D01*
X218579Y116697D01*
X219023Y116118D01*
X219602Y115673D01*
X220276Y115394D01*
X221000Y115299D01*
X221724Y115394D01*
X222398Y115673D01*
X222977Y116118D01*
X223137Y116326D01*
X223937Y116055D01*
X223937Y112764D01*
X223205Y112598D01*
X222224D01*
Y106661D01*
X227374D01*
X227374Y112598D01*
X228105Y112764D01*
X231842D01*
Y117473D01*
X231842Y117520D01*
X231954Y118273D01*
X247032D01*
X250495Y114811D01*
X250454Y114500D01*
X250591Y113453D01*
X250996Y112477D01*
X251639Y111639D01*
X252477Y110996D01*
X253453Y110591D01*
X254500Y110454D01*
X255547Y110591D01*
X256523Y110996D01*
X257361Y111639D01*
X258004Y112477D01*
X258409Y113453D01*
X258546Y114500D01*
X258409Y115547D01*
X258004Y116523D01*
X257361Y117361D01*
X256523Y118004D01*
X255547Y118409D01*
X254620Y118531D01*
X250142Y123009D01*
X249568Y123449D01*
X248899Y123726D01*
X248181Y123821D01*
D02*
G37*
G36*
X281374Y112598D02*
X276224D01*
Y106661D01*
X281374D01*
Y112598D01*
D02*
G37*
G36*
X219776D02*
X214626D01*
Y106661D01*
X219776D01*
Y112598D01*
D02*
G37*
%LPD*%
D15*
X244243Y149575D02*
Y242500D01*
Y149575D02*
X261700Y132118D01*
X223693Y248772D02*
X232465Y240000D01*
X190272Y248772D02*
X223693D01*
X224000Y198000D02*
X226000D01*
X196000D02*
X224000D01*
X197949Y243500D02*
Y245000D01*
X214000Y228000D02*
Y245470D01*
X204000Y228000D02*
Y245099D01*
X196000Y241551D02*
X197949Y243500D01*
X195339Y198661D02*
X196000Y198000D01*
X195339Y198661D02*
Y201234D01*
X196000Y201894D01*
Y241551D01*
X177000Y207000D02*
Y298000D01*
X199000Y188000D02*
X221000D01*
X197661Y189339D02*
X199000Y188000D01*
X194661Y189339D02*
X197661D01*
X177000Y207000D02*
X194661Y189339D01*
X174943Y178057D02*
X198070D01*
X161130Y191870D02*
X174943Y178057D01*
X160260Y195000D02*
X160613D01*
X161130Y194483D01*
Y191870D02*
Y194483D01*
X167937Y191260D02*
X168134D01*
X169209Y192335D01*
Y192532D01*
X173500Y196823D01*
Y238500D01*
X180000D02*
X190272Y248772D01*
X232465Y240000D02*
X234536D01*
X236000Y241464D01*
Y309700D01*
X255800Y329500D01*
X198070Y178057D02*
X209076Y167051D01*
X215000D01*
X258863Y127688D02*
Y130863D01*
X259000Y131000D01*
X261700Y131788D02*
X266535Y126953D01*
X261700Y131788D02*
Y132118D01*
X258863Y127688D02*
X259000Y127551D01*
X266535Y126953D02*
X268110D01*
X220000Y244949D02*
X220051Y245000D01*
X220000Y239500D02*
Y244949D01*
X156000Y286000D02*
Y292000D01*
X169200Y305800D02*
X177000Y298000D01*
X238000Y189953D02*
Y256400D01*
X226000Y177953D02*
X238000Y189953D01*
Y256400D02*
X255800Y274200D01*
X169200Y321600D02*
X233500Y257300D01*
Y242500D02*
Y257300D01*
X259000Y121449D02*
X259965Y120483D01*
X260903D01*
X265367Y116020D01*
X267232D01*
X268110Y115142D01*
X268000Y132968D02*
X268110Y132858D01*
X268000Y132968D02*
Y147449D01*
X156000Y298102D02*
X156101Y298001D01*
X169099D01*
X169200Y297900D01*
X156000Y298102D02*
Y305000D01*
X108000Y173500D02*
X126500D01*
X147000Y163500D02*
X162000D01*
X108000D02*
X127000D01*
X147000Y173500D02*
X162000D01*
X226000Y167051D02*
Y177953D01*
Y155953D02*
X226000Y155952D01*
X215000Y155953D02*
X215000Y155952D01*
X204000Y155953D02*
X204000Y155952D01*
X225874Y133736D02*
X226752Y132858D01*
X224799Y138370D02*
X225874Y137295D01*
X226752Y132858D02*
X227890D01*
X217201Y137976D02*
Y138370D01*
X197890Y132610D02*
X198000Y132500D01*
X198295Y123555D02*
X198350Y123500D01*
X204650D02*
X204819Y123331D01*
X188500Y114500D02*
X188591Y114409D01*
D18*
X160613Y195000D02*
D03*
X167387Y198740D02*
D03*
D19*
Y191260D02*
D03*
D20*
X156000Y305000D02*
D03*
X162000Y163500D02*
D03*
X108000Y173500D02*
D03*
X162000D02*
D03*
X108000Y163500D02*
D03*
D21*
X215000Y167051D02*
D03*
Y160949D02*
D03*
X204000Y167051D02*
D03*
Y160949D02*
D03*
X226000D02*
D03*
Y167051D02*
D03*
X268000Y153551D02*
D03*
Y147449D02*
D03*
X156000Y298102D02*
D03*
Y292000D02*
D03*
X259000Y121449D02*
D03*
Y127551D02*
D03*
D22*
X215000Y155952D02*
D03*
Y150047D02*
D03*
X204000D02*
D03*
Y155952D02*
D03*
X226000D02*
D03*
Y150047D02*
D03*
D23*
X198000Y132500D02*
D03*
X204693D02*
D03*
D24*
X188500Y123555D02*
D03*
Y114500D02*
D03*
Y132610D02*
D03*
D25*
X168421Y123555D02*
D03*
D26*
X198350Y123500D02*
D03*
X204650D02*
D03*
D27*
X271201Y138370D02*
D03*
X278799D02*
D03*
Y109630D02*
D03*
X271201D02*
D03*
X224799D02*
D03*
X217201D02*
D03*
Y138370D02*
D03*
X224799D02*
D03*
D28*
X268110Y115142D02*
D03*
Y132858D02*
D03*
Y126953D02*
D03*
X227890Y132858D02*
D03*
Y115142D02*
D03*
Y121047D02*
D03*
D29*
X197949Y245000D02*
D03*
X204051D02*
D03*
X220051D02*
D03*
X213949D02*
D03*
D52*
X154500Y195000D02*
X160063D01*
X204693Y132945D02*
X205071Y133323D01*
X204693Y132500D02*
Y132945D01*
D53*
X248181Y121047D02*
X254819Y114409D01*
X227890Y121047D02*
X248181D01*
X225874Y133736D02*
Y137295D01*
X217201Y138370D02*
X224799D01*
X204693Y132500D02*
X211724D01*
X217201Y137976D01*
X188500Y132610D02*
X197890D01*
X188500Y123555D02*
X198295D01*
X188591Y114409D02*
X204819D01*
D54*
X140000Y228000D02*
X148000Y236000D01*
X148327D01*
X140000Y180500D02*
Y228000D01*
Y180500D02*
X147000Y173500D01*
X127000D02*
X134000Y180500D01*
X126673Y236000D02*
X134000Y228673D01*
Y180500D02*
Y228673D01*
Y150000D02*
Y156500D01*
X127000Y163500D02*
X134000Y156500D01*
X126000Y142000D02*
X134000Y150000D01*
X209500D02*
X225953D01*
X226000Y150047D01*
X204000D02*
X204047Y150000D01*
X209500D01*
X126500Y173500D02*
X127000D01*
X126000Y123673D02*
X126173Y123500D01*
X126000Y123673D02*
Y142000D01*
X147500Y123827D02*
X147827Y123500D01*
X147500Y123827D02*
Y142000D01*
X140000Y149500D02*
X147500Y142000D01*
X140000Y156500D02*
X147000Y163500D01*
X140000Y149500D02*
Y156500D01*
D55*
X204650Y123500D02*
X211500D01*
X204819Y114409D02*
Y123331D01*
D56*
X226000Y155953D02*
Y160949D01*
X215000Y155953D02*
Y160949D01*
X204000Y155953D02*
Y160949D01*
D57*
X168421Y123555D02*
X188500D01*
D58*
X269000Y176000D02*
D03*
X129000Y306000D02*
D03*
D59*
X169200Y329500D02*
D03*
D60*
Y321600D02*
D03*
Y313700D02*
D03*
Y305800D02*
D03*
Y297900D02*
D03*
Y290000D02*
D03*
Y282100D02*
D03*
Y274200D02*
D03*
Y266300D02*
D03*
Y258400D02*
D03*
X255800D02*
D03*
Y266300D02*
D03*
Y274200D02*
D03*
Y282100D02*
D03*
Y290000D02*
D03*
Y297900D02*
D03*
Y305800D02*
D03*
Y313700D02*
D03*
Y321600D02*
D03*
Y329500D02*
D03*
X254500Y114500D02*
D03*
X204500D02*
D03*
D61*
X127000Y183500D02*
D03*
Y163500D02*
D03*
Y173500D02*
D03*
Y203500D02*
D03*
Y153500D02*
D03*
X147000Y183500D02*
D03*
Y163500D02*
D03*
Y173500D02*
D03*
Y203500D02*
D03*
Y153500D02*
D03*
D62*
X275000Y129905D02*
D03*
Y118095D02*
D03*
X221000D02*
D03*
Y129905D02*
D03*
D63*
X189000Y208000D02*
D03*
X229000D02*
D03*
D64*
X209000D02*
D03*
D65*
X224000Y198000D02*
D03*
X199000Y188000D02*
D03*
X219000D02*
D03*
X194000Y198000D02*
D03*
X214000Y228000D02*
D03*
X204000D02*
D03*
D66*
X126673Y236000D02*
D03*
X148327D02*
D03*
X126173Y123500D02*
D03*
X147827D02*
D03*
D67*
X229000Y188000D02*
D03*
X236000Y181000D02*
D03*
X244243Y242500D02*
D03*
X259000Y131000D02*
D03*
X220000Y239500D02*
D03*
X209500Y150000D02*
D03*
D68*
X173500Y238500D02*
D03*
X180000D02*
D03*
X156000Y286000D02*
D03*
X233500Y242500D02*
D03*
D69*
X154500Y195000D02*
D03*
D70*
X211500Y123500D02*
D03*
M02*
