G04*
G04 #@! TF.GenerationSoftware,Altium Limited,Altium Designer,20.0.14 (345)*
G04*
G04 Layer_Color=255*
%FSLAX25Y25*%
%MOIN*%
G70*
G01*
G75*
%ADD58C,0.39370*%
%ADD59R,0.06024X0.06024*%
%ADD60C,0.06024*%
%ADD61C,0.06000*%
%ADD62C,0.02362*%
%ADD63C,0.07500*%
%ADD64C,0.16100*%
%ADD65C,0.08000*%
%ADD66C,0.08661*%
D58*
X269000Y176000D02*
D03*
X129000Y306000D02*
D03*
D59*
X169200Y329500D02*
D03*
D60*
Y321600D02*
D03*
Y313700D02*
D03*
Y305800D02*
D03*
Y297900D02*
D03*
Y290000D02*
D03*
Y282100D02*
D03*
Y274200D02*
D03*
Y266300D02*
D03*
Y258400D02*
D03*
X255800D02*
D03*
Y266300D02*
D03*
Y274200D02*
D03*
Y282100D02*
D03*
Y290000D02*
D03*
Y297900D02*
D03*
Y305800D02*
D03*
Y313700D02*
D03*
Y321600D02*
D03*
Y329500D02*
D03*
X254500Y114500D02*
D03*
X204500D02*
D03*
D61*
X127000Y183500D02*
D03*
Y163500D02*
D03*
Y173500D02*
D03*
Y203500D02*
D03*
Y153500D02*
D03*
X147000Y183500D02*
D03*
Y163500D02*
D03*
Y173500D02*
D03*
Y203500D02*
D03*
Y153500D02*
D03*
D62*
X275000Y129905D02*
D03*
Y118095D02*
D03*
X221000D02*
D03*
Y129905D02*
D03*
D63*
X189000Y208000D02*
D03*
X229000D02*
D03*
D64*
X209000D02*
D03*
D65*
X224000Y198000D02*
D03*
X199000Y188000D02*
D03*
X219000D02*
D03*
X194000Y198000D02*
D03*
X214000Y228000D02*
D03*
X204000D02*
D03*
D66*
X126673Y236000D02*
D03*
X148327D02*
D03*
X126173Y123500D02*
D03*
X147827D02*
D03*
M02*
