G04*
G04 #@! TF.GenerationSoftware,Altium Limited,Altium Designer,20.0.14 (345)*
G04*
G04 Layer_Color=16711935*
%FSLAX25Y25*%
%MOIN*%
G70*
G01*
G75*
%ADD10C,0.01575*%
%ADD14C,0.00500*%
%ADD71C,0.00394*%
D10*
X160531Y329516D02*
X159987Y330265D01*
X159107Y329979D01*
Y329053D01*
X159987Y328767D01*
X160531Y329516D01*
D14*
X164500Y251100D02*
Y332000D01*
X260500Y251100D02*
Y332000D01*
X164500Y251100D02*
X260500D01*
D71*
X216772Y160653D02*
Y167347D01*
X213228Y160653D02*
Y167347D01*
X216772D01*
X213228Y160653D02*
X216772D01*
X216575Y149850D02*
Y156149D01*
X213425Y149850D02*
Y156149D01*
X216575D01*
X213425Y149850D02*
X216575D01*
X197169Y126354D02*
X205831D01*
X197169Y120646D02*
X205831D01*
X197169D02*
Y126354D01*
X205831Y120646D02*
Y126354D01*
X280118Y110811D02*
Y137189D01*
X269882D02*
X280118D01*
X269882Y110811D02*
X280118D01*
X269882D02*
Y137189D01*
X202228Y167347D02*
X205772D01*
X202228Y160653D02*
X205772D01*
Y167347D01*
X202228Y160653D02*
Y167347D01*
X202426Y149850D02*
X205575D01*
X202426Y156149D02*
X205575D01*
X202426Y149850D02*
Y156149D01*
X205575Y149850D02*
Y156149D01*
X215882Y110811D02*
Y137189D01*
Y110811D02*
X226118D01*
X215882Y137189D02*
X226118D01*
Y110811D02*
Y137189D01*
X197653Y246772D02*
X204346D01*
X197653Y243228D02*
X204346D01*
X197653D02*
Y246772D01*
X204346Y243228D02*
Y246772D01*
X213653Y243228D02*
X220346D01*
X213653Y246772D02*
X220346D01*
Y243228D02*
Y246772D01*
X213653Y243228D02*
Y246772D01*
X224228Y160653D02*
Y167347D01*
X227772Y160653D02*
Y167347D01*
X224228Y160653D02*
X227772D01*
X224228Y167347D02*
X227772D01*
X227575Y149850D02*
Y156149D01*
X224426Y149850D02*
Y156149D01*
X227575D01*
X224426Y149850D02*
X227575D01*
X269772Y147153D02*
Y153847D01*
X266228Y147153D02*
Y153847D01*
X269772D01*
X266228Y147153D02*
X269772D01*
X157772Y291705D02*
Y298398D01*
X154228Y291705D02*
Y298398D01*
X157772D01*
X154228Y291705D02*
X157772D01*
X257228Y121153D02*
Y127847D01*
X260772Y121153D02*
Y127847D01*
X257228Y121153D02*
X260772D01*
X257228Y127847D02*
X260772D01*
M02*
