G04*
G04 #@! TF.GenerationSoftware,Altium Limited,Altium Designer,20.0.14 (345)*
G04*
G04 Layer_Color=65535*
%FSLAX25Y25*%
%MOIN*%
G70*
G01*
G75*
%ADD10C,0.01575*%
%ADD11C,0.00984*%
%ADD12C,0.01968*%
%ADD13C,0.00787*%
%ADD14C,0.00500*%
%ADD15C,0.01000*%
%ADD16C,0.00200*%
%ADD17C,0.00800*%
D10*
X160531Y329516D02*
X159987Y330265D01*
X159107Y329979D01*
Y329053D01*
X159987Y328767D01*
X160531Y329516D01*
X213425Y146504D02*
X216575D01*
X202426D02*
X205575D01*
X224426D02*
X227575D01*
D11*
X263484Y115142D02*
X262746Y115568D01*
Y114716D01*
X263484Y115142D01*
X233500Y132858D02*
X232762Y133284D01*
Y132432D01*
X233500Y132858D01*
D12*
X152500Y251500D02*
X151750Y251933D01*
Y251067D01*
X152500Y251500D01*
X152000Y139000D02*
X151250Y139433D01*
Y138567D01*
X152000Y139000D01*
D13*
X166559Y193795D02*
Y196205D01*
X161441Y200709D02*
X163500D01*
X161441Y189291D02*
Y192465D01*
Y197535D02*
Y200709D01*
Y189291D02*
X163500D01*
X217600Y162600D02*
Y165356D01*
X212300Y162500D02*
Y165256D01*
X200854Y134567D02*
X201839D01*
X200854Y130433D02*
X201839D01*
X269882Y118095D02*
Y124000D01*
X280118Y113173D02*
Y134827D01*
X156397Y223796D02*
Y248205D01*
X118500Y223796D02*
X156397D01*
X118500Y248205D02*
X156397D01*
X118500Y243000D02*
Y248205D01*
X113000Y243000D02*
X118500D01*
X113000Y229000D02*
Y243000D01*
Y229000D02*
X118500D01*
Y223796D02*
Y229000D01*
X155897Y111295D02*
Y135705D01*
X118000Y111295D02*
X155897D01*
X118000Y135705D02*
X155897D01*
X118000Y130500D02*
Y135705D01*
X112500Y130500D02*
X118000D01*
X112500Y116500D02*
Y130500D01*
Y116500D02*
X118000D01*
Y111295D02*
Y116500D01*
X206700Y162744D02*
Y165500D01*
X201400Y162644D02*
Y165400D01*
X226118Y124000D02*
Y129905D01*
X215882Y113173D02*
Y134827D01*
X199644Y247600D02*
X202400D01*
X199744Y242300D02*
X202500D01*
X215600Y242400D02*
X218356D01*
X215500Y247700D02*
X218256D01*
X223400Y162644D02*
Y165400D01*
X228700Y162744D02*
Y165500D01*
X270600Y149100D02*
Y151856D01*
X265300Y149000D02*
Y151756D01*
X158600Y293651D02*
Y296407D01*
X153300Y293551D02*
Y296307D01*
X256400Y123144D02*
Y125900D01*
X261700Y123244D02*
Y126000D01*
D14*
X164500Y251100D02*
X260500D01*
X164500D02*
Y332000D01*
X260500Y251100D02*
Y332000D01*
X264166Y105916D02*
X263750Y106332D01*
X262916D01*
X262500Y105916D01*
Y104250D01*
X262916Y103833D01*
X263750D01*
X264166Y104250D01*
X265416Y103833D02*
X266249D01*
X266665Y104250D01*
Y105083D01*
X266249Y105499D01*
X265416D01*
X264999Y105083D01*
Y104250D01*
X265416Y103833D01*
X267498D02*
Y105499D01*
X267915D01*
X268331Y105083D01*
Y103833D01*
Y105083D01*
X268748Y105499D01*
X269164Y105083D01*
Y103833D01*
X269998Y103000D02*
Y105499D01*
X271247D01*
X271664Y105083D01*
Y104250D01*
X271247Y103833D01*
X269998D01*
X273746D02*
X272913D01*
X272497Y104250D01*
Y105083D01*
X272913Y105499D01*
X273746D01*
X274163Y105083D01*
Y104666D01*
X272497D01*
X275413Y105916D02*
Y105499D01*
X274996D01*
X275829D01*
X275413D01*
Y104250D01*
X275829Y103833D01*
X277079D02*
X277912D01*
X277495D01*
Y105499D01*
X277079D01*
X279578Y105916D02*
Y105499D01*
X279161D01*
X279994D01*
X279578D01*
Y104250D01*
X279994Y103833D01*
X281244D02*
X282077D01*
X281661D01*
Y105499D01*
X281244D01*
X283743Y103833D02*
X284576D01*
X284993Y104250D01*
Y105083D01*
X284576Y105499D01*
X283743D01*
X283327Y105083D01*
Y104250D01*
X283743Y103833D01*
X285826D02*
Y105499D01*
X287075D01*
X287492Y105083D01*
Y103833D01*
X215000Y104000D02*
Y106499D01*
X216250D01*
X216666Y106083D01*
Y105250D01*
X216250Y104833D01*
X215000D01*
X217916Y104000D02*
X218749D01*
X219165Y104417D01*
Y105250D01*
X218749Y105666D01*
X217916D01*
X217499Y105250D01*
Y104417D01*
X217916Y104000D01*
X219998Y105666D02*
Y104417D01*
X220415Y104000D01*
X220831Y104417D01*
X221248Y104000D01*
X221665Y104417D01*
Y105666D01*
X223747Y104000D02*
X222914D01*
X222498Y104417D01*
Y105250D01*
X222914Y105666D01*
X223747D01*
X224164Y105250D01*
Y104833D01*
X222498D01*
X224997Y105666D02*
Y104000D01*
Y104833D01*
X225413Y105250D01*
X225830Y105666D01*
X226246D01*
X200500Y173416D02*
X200917Y173832D01*
X201750D01*
X202166Y173416D01*
Y172999D01*
X201750Y172583D01*
X201333D01*
X201750D01*
X202166Y172166D01*
Y171750D01*
X201750Y171333D01*
X200917D01*
X200500Y171750D01*
X202999Y173832D02*
Y172166D01*
X203832Y171333D01*
X204665Y172166D01*
Y173832D01*
X205498Y173416D02*
X205915Y173832D01*
X206748D01*
X207165Y173416D01*
Y172999D01*
X206748Y172583D01*
X206331D01*
X206748D01*
X207165Y172166D01*
Y171750D01*
X206748Y171333D01*
X205915D01*
X205498Y171750D01*
X210497Y173832D02*
X212163Y171333D01*
Y173832D02*
X210497Y171333D01*
X212996Y173832D02*
Y171333D01*
X214246D01*
X214662Y171750D01*
Y172166D01*
X214246Y172583D01*
X212996D01*
X214246D01*
X214662Y172999D01*
Y173416D01*
X214246Y173832D01*
X212996D01*
X216745Y171333D02*
X215912D01*
X215495Y171750D01*
Y172583D01*
X215912Y172999D01*
X216745D01*
X217161Y172583D01*
Y172166D01*
X215495D01*
X219244Y171333D02*
X218411D01*
X217994Y171750D01*
Y172583D01*
X218411Y172999D01*
X219244D01*
X219660Y172583D01*
Y172166D01*
X217994D01*
X222993Y171333D02*
Y173832D01*
X224242D01*
X224659Y173416D01*
Y172583D01*
X224242Y172166D01*
X222993D01*
X223826D02*
X224659Y171333D01*
X226742D02*
X225908D01*
X225492Y171750D01*
Y172583D01*
X225908Y172999D01*
X226742D01*
X227158Y172583D01*
Y172166D01*
X225492D01*
X227991Y171333D02*
X228824D01*
X228408D01*
Y173832D01*
X227991D01*
X230490Y172999D02*
X231323D01*
X231740Y172583D01*
Y171333D01*
X230490D01*
X230074Y171750D01*
X230490Y172166D01*
X231740D01*
X232573Y172999D02*
Y171750D01*
X232990Y171333D01*
X234239D01*
Y170916D01*
X233822Y170500D01*
X233406D01*
X234239Y171333D02*
Y172999D01*
X162500Y202834D02*
Y204167D01*
X162167Y204500D01*
X161500D01*
X161167Y204167D01*
Y202834D01*
X161500Y202500D01*
X162167D01*
X161834Y203167D02*
X162500Y202500D01*
X162167D02*
X162500Y202834D01*
X163166Y202500D02*
X163833D01*
X163500D01*
Y204500D01*
X163166Y204167D01*
X171667Y140000D02*
Y138667D01*
X172334Y138000D01*
X173000Y138667D01*
Y140000D01*
X173667Y138000D02*
Y140000D01*
X174667D01*
X175000Y139666D01*
Y139000D01*
X174667Y138667D01*
X173667D01*
X174333D02*
X175000Y138000D01*
X175666D02*
X176333D01*
X175999D01*
Y140000D01*
X175666Y139666D01*
X119667Y252000D02*
Y250000D01*
Y250667D01*
X121000Y252000D01*
X120000Y251000D01*
X121000Y250000D01*
X121667D02*
X122333D01*
X122000D01*
Y252000D01*
X121667Y251666D01*
X201500Y138500D02*
X200167D01*
Y137500D01*
X200834D01*
X200167D01*
Y136500D01*
X202167D02*
X202833D01*
X202500D01*
Y138500D01*
X202167Y138166D01*
X195000Y119167D02*
X194667Y119500D01*
X194000D01*
X193667Y119167D01*
Y117834D01*
X194000Y117500D01*
X194667D01*
X195000Y117834D01*
X195667Y117500D02*
X196333D01*
X196000D01*
Y119500D01*
X195667Y119167D01*
D15*
X117000Y213500D02*
X157000D01*
Y143500D02*
Y213500D01*
X117000Y143500D02*
X157000D01*
X117000D02*
Y213500D01*
X236500Y208000D02*
Y235500D01*
X181500D02*
X236500D01*
X181500Y180500D02*
Y235500D01*
Y180500D02*
X236500D01*
Y208000D01*
D16*
X185350Y110366D02*
Y136744D01*
X170783D02*
X185350D01*
X170783Y110366D02*
Y136744D01*
Y110366D02*
X185350D01*
D17*
X250800Y230636D02*
Y235634D01*
X253299D01*
X254132Y234801D01*
Y233135D01*
X253299Y232302D01*
X250800D01*
X252466D02*
X254132Y230636D01*
X258298D02*
X256631D01*
X255798Y231469D01*
Y233135D01*
X256631Y233968D01*
X258298D01*
X259131Y233135D01*
Y232302D01*
X255798D01*
X260797Y230636D02*
Y233968D01*
X261630D01*
X262463Y233135D01*
Y230636D01*
Y233135D01*
X263296Y233968D01*
X264129Y233135D01*
Y230636D01*
X266628D02*
X268294D01*
X269127Y231469D01*
Y233135D01*
X268294Y233968D01*
X266628D01*
X265795Y233135D01*
Y231469D01*
X266628Y230636D01*
X271627Y234801D02*
Y233968D01*
X270794D01*
X272460D01*
X271627D01*
Y231469D01*
X272460Y230636D01*
X277458D02*
X275792D01*
X274959Y231469D01*
Y233135D01*
X275792Y233968D01*
X277458D01*
X278291Y233135D01*
Y232302D01*
X274959D01*
X254132Y227716D02*
X250800D01*
Y222718D01*
X254132D01*
X250800Y225217D02*
X252466D01*
X255798D02*
X259131D01*
X264129Y226883D02*
X263296Y227716D01*
X261630D01*
X260797Y226883D01*
Y226050D01*
X261630Y225217D01*
X263296D01*
X264129Y224384D01*
Y223551D01*
X263296Y222718D01*
X261630D01*
X260797Y223551D01*
X265795Y227716D02*
X269127D01*
X267461D01*
Y222718D01*
X273293Y227716D02*
X271627D01*
X270794Y226883D01*
Y223551D01*
X271627Y222718D01*
X273293D01*
X274126Y223551D01*
Y226883D01*
X273293Y227716D01*
X275792Y222718D02*
Y227716D01*
X278291D01*
X279124Y226883D01*
Y225217D01*
X278291Y224384D01*
X275792D01*
X254132Y214800D02*
X250800D01*
X254132Y218132D01*
Y218965D01*
X253299Y219798D01*
X251633D01*
X250800Y218965D01*
X255798D02*
X256631Y219798D01*
X258298D01*
X259131Y218965D01*
Y215633D01*
X258298Y214800D01*
X256631D01*
X255798Y215633D01*
Y218965D01*
X264129Y214800D02*
X260797D01*
X264129Y218132D01*
Y218965D01*
X263296Y219798D01*
X261630D01*
X260797Y218965D01*
X265795Y214800D02*
X267461D01*
X266628D01*
Y219798D01*
X265795Y218965D01*
M02*
