G04*
G04 #@! TF.GenerationSoftware,Altium Limited,Altium Designer,22.1.2 (22)*
G04*
G04 Layer_Color=8388736*
%FSLAX25Y25*%
%MOIN*%
G70*
G04*
G04 #@! TF.SameCoordinates,94212916-5215-4C0A-BD21-050921E15A7C*
G04*
G04*
G04 #@! TF.FilePolarity,Negative*
G04*
G01*
G75*
G04:AMPARAMS|DCode=14|XSize=64.96mil|YSize=96.46mil|CornerRadius=4.13mil|HoleSize=0mil|Usage=FLASHONLY|Rotation=270.000|XOffset=0mil|YOffset=0mil|HoleType=Round|Shape=RoundedRectangle|*
%AMROUNDEDRECTD14*
21,1,0.06496,0.08819,0,0,270.0*
21,1,0.05669,0.09646,0,0,270.0*
1,1,0.00827,-0.04409,-0.02835*
1,1,0.00827,-0.04409,0.02835*
1,1,0.00827,0.04409,0.02835*
1,1,0.00827,0.04409,-0.02835*
%
%ADD14ROUNDEDRECTD14*%
G04:AMPARAMS|DCode=15|XSize=25.59mil|YSize=96.46mil|CornerRadius=2.17mil|HoleSize=0mil|Usage=FLASHONLY|Rotation=270.000|XOffset=0mil|YOffset=0mil|HoleType=Round|Shape=RoundedRectangle|*
%AMROUNDEDRECTD15*
21,1,0.02559,0.09213,0,0,270.0*
21,1,0.02126,0.09646,0,0,270.0*
1,1,0.00433,-0.04606,-0.01063*
1,1,0.00433,-0.04606,0.01063*
1,1,0.00433,0.04606,0.01063*
1,1,0.00433,0.04606,-0.01063*
%
%ADD15ROUNDEDRECTD15*%
%ADD16C,0.17335*%
%ADD17C,0.09855*%
%ADD18C,0.05800*%
D14*
X196850Y39370D02*
D03*
Y165354D02*
D03*
X118110Y39370D02*
D03*
Y165354D02*
D03*
X39370Y39370D02*
D03*
Y165354D02*
D03*
D15*
X196850Y32992D02*
D03*
Y158976D02*
D03*
X118110Y32992D02*
D03*
Y158976D02*
D03*
X39370Y32992D02*
D03*
Y158976D02*
D03*
D16*
X19685Y185039D02*
D03*
X216535D02*
D03*
Y19685D02*
D03*
X19685D02*
D03*
D17*
X202756Y92717D02*
D03*
Y109252D02*
D03*
X224409D02*
D03*
Y92717D02*
D03*
D18*
X129528Y33071D02*
D03*
M02*
