G04*
G04 #@! TF.GenerationSoftware,Altium Limited,Altium Designer,19.1.7 (138)*
G04*
G04 Layer_Color=128*
%FSLAX24Y24*%
%MOIN*%
G70*
G01*
G75*
%ADD103C,0.0020*%
D103*
X49925Y19100D02*
X50275D01*
X50100Y18925D02*
Y19275D01*
X49925Y18100D02*
X50275D01*
X50100Y17925D02*
Y18275D01*
X49925Y17100D02*
X50275D01*
X50100Y16925D02*
Y17275D01*
X49925Y16100D02*
X50275D01*
X50100Y15925D02*
Y16275D01*
X49925Y15100D02*
X50275D01*
X50100Y14925D02*
Y15275D01*
X50925Y15100D02*
X51275D01*
X51100Y14925D02*
Y15275D01*
X50925Y16100D02*
X51275D01*
X51100Y15925D02*
Y16275D01*
X50925Y17100D02*
X51275D01*
X51100Y16925D02*
Y17275D01*
X50925Y18100D02*
X51275D01*
X51100Y17925D02*
Y18275D01*
X50925Y19100D02*
X51275D01*
X51100Y18925D02*
Y19275D01*
X27525Y19100D02*
X27875D01*
X27700Y18925D02*
Y19275D01*
X27525Y18100D02*
X27875D01*
X27700Y17925D02*
Y18275D01*
X27525Y17100D02*
X27875D01*
X27700Y16925D02*
Y17275D01*
X27525Y16100D02*
X27875D01*
X27700Y15925D02*
Y16275D01*
X27525Y15100D02*
X27875D01*
X27700Y14925D02*
Y15275D01*
X28525Y15100D02*
X28875D01*
X28700Y14925D02*
Y15275D01*
X28525Y16100D02*
X28875D01*
X28700Y15925D02*
Y16275D01*
X28525Y17100D02*
X28875D01*
X28700Y16925D02*
Y17275D01*
X28525Y18100D02*
X28875D01*
X28700Y17925D02*
Y18275D01*
X28525Y19100D02*
X28875D01*
X28700Y18925D02*
Y19275D01*
X21222Y33400D02*
X21615D01*
X21418Y33203D02*
Y33597D01*
X20222Y33400D02*
X20615D01*
X20418Y33203D02*
Y33597D01*
X19222Y33400D02*
X19615D01*
X19418Y33203D02*
Y33597D01*
X11222Y33400D02*
X11615D01*
X11418Y33203D02*
Y33597D01*
X12222Y33400D02*
X12615D01*
X12418Y33203D02*
Y33597D01*
X13222Y33400D02*
X13615D01*
X13418Y33203D02*
Y33597D01*
X14222Y33400D02*
X14615D01*
X14418Y33203D02*
Y33597D01*
X15222Y33400D02*
X15615D01*
X15418Y33203D02*
Y33597D01*
X16222Y33400D02*
X16615D01*
X16418Y33203D02*
Y33597D01*
X17222Y33400D02*
X17615D01*
X17418Y33203D02*
Y33597D01*
X18222Y33400D02*
X18615D01*
X18418Y33203D02*
Y33597D01*
X20222Y19400D02*
X20615D01*
X20418Y19203D02*
Y19597D01*
X20222Y18400D02*
X20615D01*
X20418Y18203D02*
Y18597D01*
X19222Y19400D02*
X19615D01*
X19418Y19203D02*
Y19597D01*
X19222Y18400D02*
X19615D01*
X19418Y18203D02*
Y18597D01*
X18222Y19400D02*
X18615D01*
X18418Y19203D02*
Y19597D01*
X18222Y18400D02*
X18615D01*
X18418Y18203D02*
Y18597D01*
X17222Y19400D02*
X17615D01*
X17418Y19203D02*
Y19597D01*
X17222Y18400D02*
X17615D01*
X17418Y18203D02*
Y18597D01*
X16222Y19400D02*
X16615D01*
X16418Y19203D02*
Y19597D01*
X16222Y18400D02*
X16615D01*
X16418Y18203D02*
Y18597D01*
X15222Y19400D02*
X15615D01*
X15418Y19203D02*
Y19597D01*
X15222Y18400D02*
X15615D01*
X15418Y18203D02*
Y18597D01*
X14222Y19400D02*
X14615D01*
X14418Y19203D02*
Y19597D01*
X14222Y18400D02*
X14615D01*
X14418Y18203D02*
Y18597D01*
X13222Y19400D02*
X13615D01*
X13418Y19203D02*
Y19597D01*
X13222Y18400D02*
X13615D01*
X13418Y18203D02*
Y18597D01*
X12222Y19400D02*
X12615D01*
X12418Y19203D02*
Y19597D01*
X12222Y18400D02*
X12615D01*
X12418Y18203D02*
Y18597D01*
X34622Y18400D02*
X35015D01*
X34818Y18203D02*
Y18597D01*
X34622Y19400D02*
X35015D01*
X34818Y19203D02*
Y19597D01*
X35622Y18400D02*
X36015D01*
X35818Y18203D02*
Y18597D01*
X35622Y19400D02*
X36015D01*
X35818Y19203D02*
Y19597D01*
X36622Y18400D02*
X37015D01*
X36818Y18203D02*
Y18597D01*
X36622Y19400D02*
X37015D01*
X36818Y19203D02*
Y19597D01*
X37622Y18400D02*
X38015D01*
X37818Y18203D02*
Y18597D01*
X37622Y19400D02*
X38015D01*
X37818Y19203D02*
Y19597D01*
X38622Y18400D02*
X39015D01*
X38818Y18203D02*
Y18597D01*
X38622Y19400D02*
X39015D01*
X38818Y19203D02*
Y19597D01*
X39622Y18400D02*
X40015D01*
X39818Y18203D02*
Y18597D01*
X39622Y19400D02*
X40015D01*
X39818Y19203D02*
Y19597D01*
X40622Y18400D02*
X41015D01*
X40818Y18203D02*
Y18597D01*
X40622Y19400D02*
X41015D01*
X40818Y19203D02*
Y19597D01*
X41622Y18400D02*
X42015D01*
X41818Y18203D02*
Y18597D01*
X41622Y19400D02*
X42015D01*
X41818Y19203D02*
Y19597D01*
X42622Y18400D02*
X43015D01*
X42818Y18203D02*
Y18597D01*
X42622Y19400D02*
X43015D01*
X42818Y19203D02*
Y19597D01*
X40622Y33400D02*
X41015D01*
X40818Y33203D02*
Y33597D01*
X39622Y33400D02*
X40015D01*
X39818Y33203D02*
Y33597D01*
X38622Y33400D02*
X39015D01*
X38818Y33203D02*
Y33597D01*
X37622Y33400D02*
X38015D01*
X37818Y33203D02*
Y33597D01*
X36622Y33400D02*
X37015D01*
X36818Y33203D02*
Y33597D01*
X35622Y33400D02*
X36015D01*
X35818Y33203D02*
Y33597D01*
X34622Y33400D02*
X35015D01*
X34818Y33203D02*
Y33597D01*
X33622Y33400D02*
X34015D01*
X33818Y33203D02*
Y33597D01*
X41622Y33400D02*
X42015D01*
X41818Y33203D02*
Y33597D01*
X42622Y33400D02*
X43015D01*
X42818Y33203D02*
Y33597D01*
X43622Y33400D02*
X44015D01*
X43818Y33203D02*
Y33597D01*
X65922Y33400D02*
X66315D01*
X66118Y33203D02*
Y33597D01*
X64922Y33400D02*
X65315D01*
X65118Y33203D02*
Y33597D01*
X63922Y33400D02*
X64315D01*
X64118Y33203D02*
Y33597D01*
X55922Y33400D02*
X56315D01*
X56118Y33203D02*
Y33597D01*
X56922Y33400D02*
X57315D01*
X57118Y33203D02*
Y33597D01*
X57922Y33400D02*
X58315D01*
X58118Y33203D02*
Y33597D01*
X58922Y33400D02*
X59315D01*
X59118Y33203D02*
Y33597D01*
X59922Y33400D02*
X60315D01*
X60118Y33203D02*
Y33597D01*
X60922Y33400D02*
X61315D01*
X61118Y33203D02*
Y33597D01*
X61922Y33400D02*
X62315D01*
X62118Y33203D02*
Y33597D01*
X62922Y33400D02*
X63315D01*
X63118Y33203D02*
Y33597D01*
X64922Y19400D02*
X65315D01*
X65118Y19203D02*
Y19597D01*
X64922Y18400D02*
X65315D01*
X65118Y18203D02*
Y18597D01*
X63922Y19400D02*
X64315D01*
X64118Y19203D02*
Y19597D01*
X63922Y18400D02*
X64315D01*
X64118Y18203D02*
Y18597D01*
X62922Y19400D02*
X63315D01*
X63118Y19203D02*
Y19597D01*
X62922Y18400D02*
X63315D01*
X63118Y18203D02*
Y18597D01*
X61922Y19400D02*
X62315D01*
X62118Y19203D02*
Y19597D01*
X61922Y18400D02*
X62315D01*
X62118Y18203D02*
Y18597D01*
X60922Y19400D02*
X61315D01*
X61118Y19203D02*
Y19597D01*
X60922Y18400D02*
X61315D01*
X61118Y18203D02*
Y18597D01*
X59922Y19400D02*
X60315D01*
X60118Y19203D02*
Y19597D01*
X59922Y18400D02*
X60315D01*
X60118Y18203D02*
Y18597D01*
X58922Y19400D02*
X59315D01*
X59118Y19203D02*
Y19597D01*
X58922Y18400D02*
X59315D01*
X59118Y18203D02*
Y18597D01*
X57922Y19400D02*
X58315D01*
X58118Y19203D02*
Y19597D01*
X57922Y18400D02*
X58315D01*
X58118Y18203D02*
Y18597D01*
X56922Y19400D02*
X57315D01*
X57118Y19203D02*
Y19597D01*
X56922Y18400D02*
X57315D01*
X57118Y18203D02*
Y18597D01*
X103472Y18300D02*
X103865D01*
X103668Y18103D02*
Y18497D01*
X103472Y19300D02*
X103865D01*
X103668Y19103D02*
Y19497D01*
X104472Y18300D02*
X104865D01*
X104668Y18103D02*
Y18497D01*
X104472Y19300D02*
X104865D01*
X104668Y19103D02*
Y19497D01*
X105472Y18300D02*
X105865D01*
X105668Y18103D02*
Y18497D01*
X105472Y19300D02*
X105865D01*
X105668Y19103D02*
Y19497D01*
X106472Y18300D02*
X106865D01*
X106668Y18103D02*
Y18497D01*
X106472Y19300D02*
X106865D01*
X106668Y19103D02*
Y19497D01*
X107472Y18300D02*
X107865D01*
X107668Y18103D02*
Y18497D01*
X107472Y19300D02*
X107865D01*
X107668Y19103D02*
Y19497D01*
X108472Y18300D02*
X108865D01*
X108668Y18103D02*
Y18497D01*
X108472Y19300D02*
X108865D01*
X108668Y19103D02*
Y19497D01*
X109472Y18300D02*
X109865D01*
X109668Y18103D02*
Y18497D01*
X109472Y19300D02*
X109865D01*
X109668Y19103D02*
Y19497D01*
X110472Y18300D02*
X110865D01*
X110668Y18103D02*
Y18497D01*
X110472Y19300D02*
X110865D01*
X110668Y19103D02*
Y19497D01*
X111472Y18300D02*
X111865D01*
X111668Y18103D02*
Y18497D01*
X111472Y19300D02*
X111865D01*
X111668Y19103D02*
Y19497D01*
X109472Y33300D02*
X109865D01*
X109668Y33103D02*
Y33497D01*
X108472Y33300D02*
X108865D01*
X108668Y33103D02*
Y33497D01*
X107472Y33300D02*
X107865D01*
X107668Y33103D02*
Y33497D01*
X106472Y33300D02*
X106865D01*
X106668Y33103D02*
Y33497D01*
X105472Y33300D02*
X105865D01*
X105668Y33103D02*
Y33497D01*
X104472Y33300D02*
X104865D01*
X104668Y33103D02*
Y33497D01*
X103472Y33300D02*
X103865D01*
X103668Y33103D02*
Y33497D01*
X102472Y33300D02*
X102865D01*
X102668Y33103D02*
Y33497D01*
X110472Y33300D02*
X110865D01*
X110668Y33103D02*
Y33497D01*
X111472Y33300D02*
X111865D01*
X111668Y33103D02*
Y33497D01*
X112472Y33300D02*
X112865D01*
X112668Y33103D02*
Y33497D01*
X133572Y33300D02*
X133965D01*
X133768Y33103D02*
Y33497D01*
X132572Y33300D02*
X132965D01*
X132768Y33103D02*
Y33497D01*
X131572Y33300D02*
X131965D01*
X131768Y33103D02*
Y33497D01*
X123572Y33300D02*
X123965D01*
X123768Y33103D02*
Y33497D01*
X124572Y33300D02*
X124965D01*
X124768Y33103D02*
Y33497D01*
X125572Y33300D02*
X125965D01*
X125768Y33103D02*
Y33497D01*
X126572Y33300D02*
X126965D01*
X126768Y33103D02*
Y33497D01*
X127572Y33300D02*
X127965D01*
X127768Y33103D02*
Y33497D01*
X128572Y33300D02*
X128965D01*
X128768Y33103D02*
Y33497D01*
X129572Y33300D02*
X129965D01*
X129768Y33103D02*
Y33497D01*
X130572Y33300D02*
X130965D01*
X130768Y33103D02*
Y33497D01*
X132572Y19300D02*
X132965D01*
X132768Y19103D02*
Y19497D01*
X132572Y18300D02*
X132965D01*
X132768Y18103D02*
Y18497D01*
X131572Y19300D02*
X131965D01*
X131768Y19103D02*
Y19497D01*
X131572Y18300D02*
X131965D01*
X131768Y18103D02*
Y18497D01*
X130572Y19300D02*
X130965D01*
X130768Y19103D02*
Y19497D01*
X130572Y18300D02*
X130965D01*
X130768Y18103D02*
Y18497D01*
X129572Y19300D02*
X129965D01*
X129768Y19103D02*
Y19497D01*
X129572Y18300D02*
X129965D01*
X129768Y18103D02*
Y18497D01*
X128572Y19300D02*
X128965D01*
X128768Y19103D02*
Y19497D01*
X128572Y18300D02*
X128965D01*
X128768Y18103D02*
Y18497D01*
X127572Y19300D02*
X127965D01*
X127768Y19103D02*
Y19497D01*
X127572Y18300D02*
X127965D01*
X127768Y18103D02*
Y18497D01*
X126572Y19300D02*
X126965D01*
X126768Y19103D02*
Y19497D01*
X126572Y18300D02*
X126965D01*
X126768Y18103D02*
Y18497D01*
X125572Y19300D02*
X125965D01*
X125768Y19103D02*
Y19497D01*
X125572Y18300D02*
X125965D01*
X125768Y18103D02*
Y18497D01*
X124572Y19300D02*
X124965D01*
X124768Y19103D02*
Y19497D01*
X124572Y18300D02*
X124965D01*
X124768Y18103D02*
Y18497D01*
X146672Y18300D02*
X147065D01*
X146868Y18103D02*
Y18497D01*
X146672Y19300D02*
X147065D01*
X146868Y19103D02*
Y19497D01*
X147672Y18300D02*
X148065D01*
X147868Y18103D02*
Y18497D01*
X147672Y19300D02*
X148065D01*
X147868Y19103D02*
Y19497D01*
X148672Y18300D02*
X149065D01*
X148868Y18103D02*
Y18497D01*
X148672Y19300D02*
X149065D01*
X148868Y19103D02*
Y19497D01*
X149672Y18300D02*
X150065D01*
X149868Y18103D02*
Y18497D01*
X149672Y19300D02*
X150065D01*
X149868Y19103D02*
Y19497D01*
X150672Y18300D02*
X151065D01*
X150868Y18103D02*
Y18497D01*
X150672Y19300D02*
X151065D01*
X150868Y19103D02*
Y19497D01*
X151672Y18300D02*
X152065D01*
X151868Y18103D02*
Y18497D01*
X151672Y19300D02*
X152065D01*
X151868Y19103D02*
Y19497D01*
X152672Y18300D02*
X153065D01*
X152868Y18103D02*
Y18497D01*
X152672Y19300D02*
X153065D01*
X152868Y19103D02*
Y19497D01*
X153672Y18300D02*
X154065D01*
X153868Y18103D02*
Y18497D01*
X153672Y19300D02*
X154065D01*
X153868Y19103D02*
Y19497D01*
X154672Y18300D02*
X155065D01*
X154868Y18103D02*
Y18497D01*
X154672Y19300D02*
X155065D01*
X154868Y19103D02*
Y19497D01*
X152672Y33300D02*
X153065D01*
X152868Y33103D02*
Y33497D01*
X151672Y33300D02*
X152065D01*
X151868Y33103D02*
Y33497D01*
X150672Y33300D02*
X151065D01*
X150868Y33103D02*
Y33497D01*
X149672Y33300D02*
X150065D01*
X149868Y33103D02*
Y33497D01*
X148672Y33300D02*
X149065D01*
X148868Y33103D02*
Y33497D01*
X147672Y33300D02*
X148065D01*
X147868Y33103D02*
Y33497D01*
X146672Y33300D02*
X147065D01*
X146868Y33103D02*
Y33497D01*
X145672Y33300D02*
X146065D01*
X145868Y33103D02*
Y33497D01*
X153672Y33300D02*
X154065D01*
X153868Y33103D02*
Y33497D01*
X154672Y33300D02*
X155065D01*
X154868Y33103D02*
Y33497D01*
X155672Y33300D02*
X156065D01*
X155868Y33103D02*
Y33497D01*
X17448Y61950D02*
X17842D01*
X17645Y61753D02*
Y62147D01*
X17448Y60950D02*
X17842D01*
X17645Y60753D02*
Y61147D01*
X17448Y59950D02*
X17842D01*
X17645Y59753D02*
Y60147D01*
X17448Y58950D02*
X17842D01*
X17645Y58753D02*
Y59147D01*
X17448Y57950D02*
X17842D01*
X17645Y57753D02*
Y58147D01*
X17448Y56950D02*
X17842D01*
X17645Y56753D02*
Y57147D01*
X17448Y55950D02*
X17842D01*
X17645Y55753D02*
Y56147D01*
X17448Y54950D02*
X17842D01*
X17645Y54753D02*
Y55147D01*
X17448Y53950D02*
X17842D01*
X17645Y53753D02*
Y54147D01*
X17448Y52950D02*
X17842D01*
X17645Y52753D02*
Y53147D01*
X20398Y61950D02*
X20792D01*
X20595Y61753D02*
Y62147D01*
X20398Y60950D02*
X20792D01*
X20595Y60753D02*
Y61147D01*
X20398Y59950D02*
X20792D01*
X20595Y59753D02*
Y60147D01*
X20398Y58950D02*
X20792D01*
X20595Y58753D02*
Y59147D01*
X20398Y57950D02*
X20792D01*
X20595Y57753D02*
Y58147D01*
X20398Y56950D02*
X20792D01*
X20595Y56753D02*
Y57147D01*
X20398Y55950D02*
X20792D01*
X20595Y55753D02*
Y56147D01*
X20398Y54950D02*
X20792D01*
X20595Y54753D02*
Y55147D01*
X20398Y53950D02*
X20792D01*
X20595Y53753D02*
Y54147D01*
X20398Y52950D02*
X20792D01*
X20595Y52753D02*
Y53147D01*
X145918Y51640D02*
X146312D01*
X146115Y51443D02*
Y51837D01*
X145918Y50640D02*
X146312D01*
X146115Y50443D02*
Y50837D01*
X145918Y49640D02*
X146312D01*
X146115Y49443D02*
Y49837D01*
X145918Y48640D02*
X146312D01*
X146115Y48443D02*
Y48837D01*
X145918Y47640D02*
X146312D01*
X146115Y47443D02*
Y47837D01*
X145918Y46640D02*
X146312D01*
X146115Y46443D02*
Y46837D01*
X145918Y45640D02*
X146312D01*
X146115Y45443D02*
Y45837D01*
X145918Y44640D02*
X146312D01*
X146115Y44443D02*
Y44837D01*
X145918Y43640D02*
X146312D01*
X146115Y43443D02*
Y43837D01*
X145918Y42640D02*
X146312D01*
X146115Y42443D02*
Y42837D01*
X148868Y51640D02*
X149262D01*
X149065Y51443D02*
Y51837D01*
X148868Y50640D02*
X149262D01*
X149065Y50443D02*
Y50837D01*
X148868Y49640D02*
X149262D01*
X149065Y49443D02*
Y49837D01*
X148868Y48640D02*
X149262D01*
X149065Y48443D02*
Y48837D01*
X148868Y47640D02*
X149262D01*
X149065Y47443D02*
Y47837D01*
X148868Y46640D02*
X149262D01*
X149065Y46443D02*
Y46837D01*
X148868Y45640D02*
X149262D01*
X149065Y45443D02*
Y45837D01*
X148868Y44640D02*
X149262D01*
X149065Y44443D02*
Y44837D01*
X148868Y43640D02*
X149262D01*
X149065Y43443D02*
Y43837D01*
X148868Y42640D02*
X149262D01*
X149065Y42443D02*
Y42837D01*
X141864Y42241D02*
X142336D01*
X142100Y42005D02*
Y42477D01*
X141864Y46359D02*
X142336D01*
X142100Y46123D02*
Y46595D01*
X119090Y44100D02*
X123090D01*
X121090Y42100D02*
Y46100D01*
X125710Y44100D02*
X129710D01*
X127710Y42100D02*
Y46100D01*
X122400Y47410D02*
X126400D01*
X124400Y45410D02*
Y49410D01*
X122400Y44100D02*
X126400D01*
X124400Y42100D02*
Y46100D01*
X122400Y40360D02*
X126400D01*
X124400Y38360D02*
Y42360D01*
X133700Y46640D02*
X137700D01*
X135700Y44640D02*
Y48640D01*
X133700Y42900D02*
X137700D01*
X135700Y40900D02*
Y44900D01*
X133700Y39590D02*
X137700D01*
X135700Y37590D02*
Y41590D01*
X130390Y42900D02*
X134390D01*
X132390Y40900D02*
Y44900D01*
X137010Y42900D02*
X141010D01*
X139010Y40900D02*
Y44900D01*
X36845Y50240D02*
X40845D01*
X38845Y48240D02*
Y52240D01*
X43465Y50240D02*
X47465D01*
X45465Y48240D02*
Y52240D01*
X40155Y53550D02*
X44155D01*
X42155Y51550D02*
Y55550D01*
X40155Y50240D02*
X44155D01*
X42155Y48240D02*
Y52240D01*
X40155Y46500D02*
X44155D01*
X42155Y44500D02*
Y48500D01*
X52000Y46493D02*
X56000D01*
X54000Y44493D02*
Y48493D01*
X52000Y50233D02*
X56000D01*
X54000Y48233D02*
Y52233D01*
X52000Y53543D02*
X56000D01*
X54000Y51543D02*
Y55543D01*
X55310Y50233D02*
X59310D01*
X57310Y48233D02*
Y52233D01*
X48690Y50233D02*
X52690D01*
X50690Y48233D02*
Y52233D01*
X118741Y24300D02*
X119134D01*
X118937Y24103D02*
Y24497D01*
X117166Y24300D02*
X117559D01*
X117363Y24103D02*
Y24497D01*
X5731Y48835D02*
X6361D01*
X6046Y48520D02*
Y49150D01*
X7385Y48835D02*
X8015D01*
X7700Y48520D02*
Y49150D01*
X7385Y46670D02*
X8015D01*
X7700Y46355D02*
Y46985D01*
X5731Y46670D02*
X6361D01*
X6046Y46355D02*
Y46985D01*
X99385Y60554D02*
X100015D01*
X99700Y60239D02*
Y60869D01*
X99385Y58900D02*
X100015D01*
X99700Y58585D02*
Y59215D01*
X101550Y58900D02*
X102180D01*
X101865Y58585D02*
Y59215D01*
X101550Y60554D02*
X102180D01*
X101865Y60239D02*
Y60869D01*
X160010Y46850D02*
X160640D01*
X160325Y46535D02*
Y47165D01*
X160010Y45196D02*
X160640D01*
X160325Y44882D02*
Y45511D01*
X157845Y45196D02*
X158475D01*
X158160Y44882D02*
Y45511D01*
X157845Y46850D02*
X158475D01*
X158160Y46535D02*
Y47165D01*
X50778Y24300D02*
X51172D01*
X50975Y24103D02*
Y24497D01*
X49203Y24300D02*
X49597D01*
X49400Y24103D02*
Y24497D01*
X28391Y24300D02*
X28784D01*
X28587Y24103D02*
Y24497D01*
X26816Y24300D02*
X27209D01*
X27013Y24103D02*
Y24497D01*
X26483Y29960D02*
X26917D01*
X26700Y29743D02*
Y30177D01*
X26483Y30960D02*
X26917D01*
X26700Y30743D02*
Y31177D01*
X26483Y31960D02*
X26917D01*
X26700Y31743D02*
Y32177D01*
X24763Y31950D02*
X25197D01*
X24980Y31733D02*
Y32167D01*
X24763Y30950D02*
X25197D01*
X24980Y30733D02*
Y31167D01*
X24763Y29950D02*
X25197D01*
X24980Y29733D02*
Y30167D01*
X18740Y46746D02*
X19528D01*
X19134Y46352D02*
Y47140D01*
X16496Y46746D02*
X17284D01*
X16890Y46352D02*
Y47140D01*
X14252Y46756D02*
X15040D01*
X14646Y46362D02*
Y47150D01*
X14252Y48990D02*
X15040D01*
X14646Y48596D02*
Y49384D01*
X16496Y48990D02*
X17284D01*
X16890Y48596D02*
Y49384D01*
X18740Y48990D02*
X19528D01*
X19134Y48596D02*
Y49384D01*
X19736Y45655D02*
X20484D01*
X20110Y45281D02*
Y46029D01*
X12008Y46756D02*
X12796D01*
X12402Y46362D02*
Y47149D01*
X12008Y48990D02*
X12796D01*
X12402Y48596D02*
Y49384D01*
X22195Y48623D02*
X22825D01*
X22510Y48308D02*
Y48938D01*
X23848Y48623D02*
X24478D01*
X24163Y48308D02*
Y48938D01*
X25502Y48623D02*
X26132D01*
X25817Y48308D02*
Y48938D01*
X27155Y48623D02*
X27785D01*
X27470Y48308D02*
Y48938D01*
X27155Y46457D02*
X27785D01*
X27470Y46142D02*
Y46772D01*
X25502Y46457D02*
X26132D01*
X25817Y46142D02*
Y46772D01*
X23848Y46457D02*
X24478D01*
X24163Y46142D02*
Y46772D01*
X22195Y46457D02*
X22825D01*
X22510Y46142D02*
Y46772D01*
X76953Y55890D02*
X77425D01*
X77189Y55654D02*
Y56126D01*
X72835Y55890D02*
X73307D01*
X73071Y55654D02*
Y56126D01*
X86960Y58426D02*
X87590D01*
X87275Y58111D02*
Y58741D01*
X89125Y58426D02*
X89755D01*
X89440Y58111D02*
Y58741D01*
X91975Y58460D02*
X92447D01*
X92211Y58224D02*
Y58696D01*
X96093Y58460D02*
X96565D01*
X96329Y58224D02*
Y58696D01*
X122005Y49400D02*
X122477D01*
X122241Y49164D02*
Y49636D01*
X126123Y49400D02*
X126595D01*
X126359Y49164D02*
Y49636D01*
X145933Y59510D02*
X146267D01*
X146100Y59343D02*
Y59677D01*
X145933Y56510D02*
X146267D01*
X146100Y56343D02*
Y56677D01*
X144454Y52381D02*
X144926D01*
X144690Y52145D02*
Y52617D01*
X144454Y56499D02*
X144926D01*
X144690Y56263D02*
Y56735D01*
X160093Y39140D02*
X160527D01*
X160310Y38923D02*
Y39357D01*
X160093Y38140D02*
X160527D01*
X160310Y37923D02*
Y38357D01*
X160093Y37140D02*
X160527D01*
X160310Y36923D02*
Y37357D01*
X158663Y37130D02*
X159097D01*
X158880Y36913D02*
Y37347D01*
X158663Y38130D02*
X159097D01*
X158880Y37913D02*
Y38347D01*
X158663Y39130D02*
X159097D01*
X158880Y38913D02*
Y39347D01*
X148293Y40180D02*
X148727D01*
X148510Y39963D02*
Y40397D01*
X148293Y39180D02*
X148727D01*
X148510Y38963D02*
Y39397D01*
X148293Y38180D02*
X148727D01*
X148510Y37963D02*
Y38397D01*
X146893Y38180D02*
X147327D01*
X147110Y37963D02*
Y38397D01*
X146893Y39180D02*
X147327D01*
X147110Y38963D02*
Y39397D01*
X146893Y40180D02*
X147327D01*
X147110Y39963D02*
Y40397D01*
X148073Y5083D02*
X148703D01*
X148388Y4768D02*
Y5398D01*
X149727Y5083D02*
X150357D01*
X150042Y4768D02*
Y5398D01*
X151380Y5083D02*
X152010D01*
X151695Y4768D02*
Y5398D01*
X153034Y5083D02*
X153664D01*
X153349Y4768D02*
Y5398D01*
X153034Y2917D02*
X153664D01*
X153349Y2602D02*
Y3232D01*
X151380Y2917D02*
X152010D01*
X151695Y2602D02*
Y3232D01*
X149727Y2917D02*
X150357D01*
X150042Y2602D02*
Y3232D01*
X148073Y2917D02*
X148703D01*
X148388Y2602D02*
Y3232D01*
X104873Y5083D02*
X105503D01*
X105188Y4768D02*
Y5398D01*
X106527Y5083D02*
X107157D01*
X106842Y4768D02*
Y5398D01*
X108180Y5083D02*
X108810D01*
X108495Y4768D02*
Y5398D01*
X109834Y5083D02*
X110464D01*
X110149Y4768D02*
Y5398D01*
X109834Y2917D02*
X110464D01*
X110149Y2602D02*
Y3232D01*
X108180Y2917D02*
X108810D01*
X108495Y2602D02*
Y3232D01*
X106527Y2917D02*
X107157D01*
X106842Y2602D02*
Y3232D01*
X104873Y2917D02*
X105503D01*
X105188Y2602D02*
Y3232D01*
X118125Y19100D02*
X118475D01*
X118300Y18925D02*
Y19275D01*
X118125Y18100D02*
X118475D01*
X118300Y17925D02*
Y18275D01*
X118125Y17100D02*
X118475D01*
X118300Y16925D02*
Y17275D01*
X118125Y16100D02*
X118475D01*
X118300Y15925D02*
Y16275D01*
X118125Y15100D02*
X118475D01*
X118300Y14925D02*
Y15275D01*
X119125Y15100D02*
X119475D01*
X119300Y14925D02*
Y15275D01*
X119125Y16100D02*
X119475D01*
X119300Y15925D02*
Y16275D01*
X119125Y17100D02*
X119475D01*
X119300Y16925D02*
Y17275D01*
X119125Y18100D02*
X119475D01*
X119300Y17925D02*
Y18275D01*
X119125Y19100D02*
X119475D01*
X119300Y18925D02*
Y19275D01*
X116563Y32560D02*
X116997D01*
X116780Y32343D02*
Y32777D01*
X116563Y33560D02*
X116997D01*
X116780Y33343D02*
Y33777D01*
X116563Y34560D02*
X116997D01*
X116780Y34343D02*
Y34777D01*
X117793Y34560D02*
X118227D01*
X118010Y34343D02*
Y34777D01*
X117793Y33560D02*
X118227D01*
X118010Y33343D02*
Y33777D01*
X117793Y32560D02*
X118227D01*
X118010Y32343D02*
Y32777D01*
X97191Y24300D02*
X97584D01*
X97387Y24103D02*
Y24497D01*
X95616Y24300D02*
X96009D01*
X95813Y24103D02*
Y24497D01*
X96125Y19100D02*
X96475D01*
X96300Y18925D02*
Y19275D01*
X96125Y18100D02*
X96475D01*
X96300Y17925D02*
Y18275D01*
X96125Y17100D02*
X96475D01*
X96300Y16925D02*
Y17275D01*
X96125Y16100D02*
X96475D01*
X96300Y15925D02*
Y16275D01*
X96125Y15100D02*
X96475D01*
X96300Y14925D02*
Y15275D01*
X97125Y15100D02*
X97475D01*
X97300Y14925D02*
Y15275D01*
X97125Y16100D02*
X97475D01*
X97300Y15925D02*
Y16275D01*
X97125Y17100D02*
X97475D01*
X97300Y16925D02*
Y17275D01*
X97125Y18100D02*
X97475D01*
X97300Y17925D02*
Y18275D01*
X97125Y19100D02*
X97475D01*
X97300Y18925D02*
Y19275D01*
X58323Y5183D02*
X58953D01*
X58638Y4868D02*
Y5498D01*
X59977Y5183D02*
X60607D01*
X60292Y4868D02*
Y5498D01*
X61630Y5183D02*
X62260D01*
X61945Y4868D02*
Y5498D01*
X63284Y5183D02*
X63914D01*
X63599Y4868D02*
Y5498D01*
X63284Y3017D02*
X63914D01*
X63599Y2702D02*
Y3332D01*
X61630Y3017D02*
X62260D01*
X61945Y2702D02*
Y3332D01*
X59977Y3017D02*
X60607D01*
X60292Y2702D02*
Y3332D01*
X58323Y3017D02*
X58953D01*
X58638Y2702D02*
Y3332D01*
X36023Y5183D02*
X36653D01*
X36338Y4868D02*
Y5498D01*
X37677Y5183D02*
X38307D01*
X37992Y4868D02*
Y5498D01*
X39330Y5183D02*
X39960D01*
X39645Y4868D02*
Y5498D01*
X40984Y5183D02*
X41614D01*
X41299Y4868D02*
Y5498D01*
X40984Y3017D02*
X41614D01*
X41299Y2702D02*
Y3332D01*
X39330Y3017D02*
X39960D01*
X39645Y2702D02*
Y3332D01*
X37677Y3017D02*
X38307D01*
X37992Y2702D02*
Y3332D01*
X36023Y3017D02*
X36653D01*
X36338Y2702D02*
Y3332D01*
X13623Y5183D02*
X14253D01*
X13938Y4868D02*
Y5498D01*
X15277Y5183D02*
X15907D01*
X15592Y4868D02*
Y5498D01*
X16930Y5183D02*
X17560D01*
X17245Y4868D02*
Y5498D01*
X18584Y5183D02*
X19214D01*
X18899Y4868D02*
Y5498D01*
X18584Y3017D02*
X19214D01*
X18899Y2702D02*
Y3332D01*
X16930Y3017D02*
X17560D01*
X17245Y2702D02*
Y3332D01*
X15277Y3017D02*
X15907D01*
X15592Y2702D02*
Y3332D01*
X13623Y3017D02*
X14253D01*
X13938Y2702D02*
Y3332D01*
X4203Y24300D02*
X4597D01*
X4400Y24103D02*
Y24497D01*
X5778Y24300D02*
X6172D01*
X5975Y24103D02*
Y24497D01*
X49963Y42640D02*
X50435D01*
X50199Y42404D02*
Y42876D01*
X45845Y42640D02*
X46317D01*
X46081Y42404D02*
Y42876D01*
X48403Y32000D02*
X48837D01*
X48620Y31783D02*
Y32217D01*
X48403Y31000D02*
X48837D01*
X48620Y30783D02*
Y31217D01*
X48403Y30000D02*
X48837D01*
X48620Y29783D02*
Y30217D01*
X46973Y30000D02*
X47407D01*
X47190Y29783D02*
Y30217D01*
X46973Y31000D02*
X47407D01*
X47190Y30783D02*
Y31217D01*
X46973Y32000D02*
X47407D01*
X47190Y31783D02*
Y32217D01*
X67323Y38300D02*
X67757D01*
X67540Y38083D02*
Y38517D01*
X67323Y39300D02*
X67757D01*
X67540Y39083D02*
Y39517D01*
X67323Y40300D02*
X67757D01*
X67540Y40083D02*
Y40517D01*
X66023Y40310D02*
X66457D01*
X66240Y40093D02*
Y40527D01*
X66023Y39310D02*
X66457D01*
X66240Y39093D02*
Y39527D01*
X66023Y38310D02*
X66457D01*
X66240Y38093D02*
Y38527D01*
X44726Y60965D02*
X45848D01*
X45287Y60404D02*
Y61526D01*
X42392Y60965D02*
X43514D01*
X42953Y60404D02*
Y61526D01*
X1967Y60650D02*
X4033D01*
X3000Y59617D02*
Y61683D01*
X1967Y2650D02*
X4033D01*
X3000Y1617D02*
Y3683D01*
X157967Y60650D02*
X160033D01*
X159000Y59617D02*
Y61683D01*
X157967Y2650D02*
X160033D01*
X159000Y1617D02*
Y3683D01*
X50021Y60965D02*
X51143D01*
X50582Y60404D02*
Y61526D01*
X52116Y60965D02*
X53238D01*
X52677Y60404D02*
Y61526D01*
X140925Y19100D02*
X141275D01*
X141100Y18925D02*
Y19275D01*
X140925Y18100D02*
X141275D01*
X141100Y17925D02*
Y18275D01*
X140925Y17100D02*
X141275D01*
X141100Y16925D02*
Y17275D01*
X140925Y16100D02*
X141275D01*
X141100Y15925D02*
Y16275D01*
X140925Y15100D02*
X141275D01*
X141100Y14925D02*
Y15275D01*
X139925Y15100D02*
X140275D01*
X140100Y14925D02*
Y15275D01*
X139925Y16100D02*
X140275D01*
X140100Y15925D02*
Y16275D01*
X139925Y17100D02*
X140275D01*
X140100Y16925D02*
Y17275D01*
X139925Y18100D02*
X140275D01*
X140100Y17925D02*
Y18275D01*
X139925Y19100D02*
X140275D01*
X140100Y18925D02*
Y19275D01*
X5225Y19100D02*
X5575D01*
X5400Y18925D02*
Y19275D01*
X5225Y18100D02*
X5575D01*
X5400Y17925D02*
Y18275D01*
X5225Y17100D02*
X5575D01*
X5400Y16925D02*
Y17275D01*
X5225Y16100D02*
X5575D01*
X5400Y15925D02*
Y16275D01*
X5225Y15100D02*
X5575D01*
X5400Y14925D02*
Y15275D01*
X4225Y15100D02*
X4575D01*
X4400Y14925D02*
Y15275D01*
X4225Y16100D02*
X4575D01*
X4400Y15925D02*
Y16275D01*
X4225Y17100D02*
X4575D01*
X4400Y16925D02*
Y17275D01*
X4225Y18100D02*
X4575D01*
X4400Y17925D02*
Y18275D01*
X4225Y19100D02*
X4575D01*
X4400Y18925D02*
Y19275D01*
X135032Y54200D02*
X135958D01*
X135495Y53737D02*
Y54663D01*
X124125Y54200D02*
X125050D01*
X124587Y53737D02*
Y54663D01*
X137215Y54200D02*
X138140D01*
X137677Y53737D02*
Y54663D01*
X122031Y54200D02*
X122956D01*
X122494Y53737D02*
Y54663D01*
X137215Y60600D02*
X138140D01*
X137677Y60138D02*
Y61063D01*
X122031Y60600D02*
X122956D01*
X122494Y60137D02*
Y61062D01*
X135032Y60600D02*
X135958D01*
X135495Y60138D02*
Y61063D01*
X124125Y60600D02*
X125050D01*
X124587Y60137D02*
Y61062D01*
X125973Y2917D02*
X126603D01*
X126288Y2602D02*
Y3232D01*
X127627Y2917D02*
X128257D01*
X127942Y2602D02*
Y3232D01*
X129280Y2917D02*
X129910D01*
X129595Y2602D02*
Y3232D01*
X130934Y2917D02*
X131564D01*
X131249Y2602D02*
Y3232D01*
X130934Y5083D02*
X131564D01*
X131249Y4768D02*
Y5398D01*
X129280Y5083D02*
X129910D01*
X129595Y4768D02*
Y5398D01*
X127627Y5083D02*
X128257D01*
X127942Y4768D02*
Y5398D01*
X125973Y5083D02*
X126603D01*
X126288Y4768D02*
Y5398D01*
X138766Y24300D02*
X139159D01*
X138963Y24103D02*
Y24497D01*
X140341Y24300D02*
X140734D01*
X140537Y24103D02*
Y24497D01*
X72923Y43200D02*
X73277D01*
X73100Y43023D02*
Y43377D01*
X72923Y44200D02*
X73277D01*
X73100Y44023D02*
Y44377D01*
X73923Y43200D02*
X74277D01*
X74100Y43023D02*
Y43377D01*
X73923Y44200D02*
X74277D01*
X74100Y44023D02*
Y44377D01*
X74923Y43200D02*
X75277D01*
X75100Y43023D02*
Y43377D01*
X74923Y44200D02*
X75277D01*
X75100Y44023D02*
Y44377D01*
X75923Y43200D02*
X76277D01*
X76100Y43023D02*
Y43377D01*
X75923Y44200D02*
X76277D01*
X76100Y44023D02*
Y44377D01*
X76923Y43200D02*
X77277D01*
X77100Y43023D02*
Y43377D01*
X76923Y44200D02*
X77277D01*
X77100Y44023D02*
Y44377D01*
X77923Y43200D02*
X78277D01*
X78100Y43023D02*
Y43377D01*
X77923Y44200D02*
X78277D01*
X78100Y44023D02*
Y44377D01*
X78923Y43200D02*
X79277D01*
X79100Y43023D02*
Y43377D01*
X78923Y44200D02*
X79277D01*
X79100Y44023D02*
Y44377D01*
X79923Y43200D02*
X80277D01*
X80100Y43023D02*
Y43377D01*
X79923Y44200D02*
X80277D01*
X80100Y44023D02*
Y44377D01*
X80923Y43200D02*
X81277D01*
X81100Y43023D02*
Y43377D01*
X80923Y44200D02*
X81277D01*
X81100Y44023D02*
Y44377D01*
X81923Y43200D02*
X82277D01*
X82100Y43023D02*
Y43377D01*
X81923Y44200D02*
X82277D01*
X82100Y44023D02*
Y44377D01*
X82923Y43200D02*
X83277D01*
X83100Y43023D02*
Y43377D01*
X82923Y44200D02*
X83277D01*
X83100Y44023D02*
Y44377D01*
X83923Y43200D02*
X84277D01*
X84100Y43023D02*
Y43377D01*
X83923Y44200D02*
X84277D01*
X84100Y44023D02*
Y44377D01*
X84923Y43200D02*
X85277D01*
X85100Y43023D02*
Y43377D01*
X84923Y44200D02*
X85277D01*
X85100Y44023D02*
Y44377D01*
X85923Y43200D02*
X86277D01*
X86100Y43023D02*
Y43377D01*
X85923Y44200D02*
X86277D01*
X86100Y44023D02*
Y44377D01*
X86923Y43200D02*
X87277D01*
X87100Y43023D02*
Y43377D01*
X86923Y44200D02*
X87277D01*
X87100Y44023D02*
Y44377D01*
X87923Y43200D02*
X88277D01*
X88100Y43023D02*
Y43377D01*
X87923Y44200D02*
X88277D01*
X88100Y44023D02*
Y44377D01*
X88923Y43200D02*
X89277D01*
X89100Y43023D02*
Y43377D01*
X88923Y44200D02*
X89277D01*
X89100Y44023D02*
Y44377D01*
X89923Y43200D02*
X90277D01*
X90100Y43023D02*
Y43377D01*
X89923Y44200D02*
X90277D01*
X90100Y44023D02*
Y44377D01*
X91923Y33200D02*
X92277D01*
X92100Y33023D02*
Y33377D01*
X91923Y32200D02*
X92277D01*
X92100Y32023D02*
Y32377D01*
X91923Y31200D02*
X92277D01*
X92100Y31023D02*
Y31377D01*
X91923Y30200D02*
X92277D01*
X92100Y30023D02*
Y30377D01*
X91923Y29200D02*
X92277D01*
X92100Y29023D02*
Y29377D01*
X91923Y28200D02*
X92277D01*
X92100Y28023D02*
Y28377D01*
X91923Y27200D02*
X92277D01*
X92100Y27023D02*
Y27377D01*
X91923Y26200D02*
X92277D01*
X92100Y26023D02*
Y26377D01*
X91923Y42200D02*
X92277D01*
X92100Y42023D02*
Y42377D01*
X91923Y41200D02*
X92277D01*
X92100Y41023D02*
Y41377D01*
X91923Y40200D02*
X92277D01*
X92100Y40023D02*
Y40377D01*
X91923Y39200D02*
X92277D01*
X92100Y39023D02*
Y39377D01*
X91923Y38200D02*
X92277D01*
X92100Y38023D02*
Y38377D01*
X91923Y37200D02*
X92277D01*
X92100Y37023D02*
Y37377D01*
X91923Y36200D02*
X92277D01*
X92100Y36023D02*
Y36377D01*
X91923Y35200D02*
X92277D01*
X92100Y35023D02*
Y35377D01*
X72923Y22700D02*
X73277D01*
X73100Y22523D02*
Y22877D01*
X72923Y21700D02*
X73277D01*
X73100Y21523D02*
Y21877D01*
X72923Y20700D02*
X73277D01*
X73100Y20523D02*
Y20877D01*
X72923Y19700D02*
X73277D01*
X73100Y19523D02*
Y19877D01*
X72923Y18700D02*
X73277D01*
X73100Y18523D02*
Y18877D01*
X72923Y17700D02*
X73277D01*
X73100Y17523D02*
Y17877D01*
X72923Y16700D02*
X73277D01*
X73100Y16523D02*
Y16877D01*
X72923Y15700D02*
X73277D01*
X73100Y15523D02*
Y15877D01*
X72923Y31200D02*
X73277D01*
X73100Y31023D02*
Y31377D01*
X72923Y30200D02*
X73277D01*
X73100Y30023D02*
Y30377D01*
X72923Y29200D02*
X73277D01*
X73100Y29023D02*
Y29377D01*
X72923Y28200D02*
X73277D01*
X73100Y28023D02*
Y28377D01*
X72923Y27200D02*
X73277D01*
X73100Y27023D02*
Y27377D01*
X72923Y26200D02*
X73277D01*
X73100Y26023D02*
Y26377D01*
X72923Y25200D02*
X73277D01*
X73100Y25023D02*
Y25377D01*
X72923Y24200D02*
X73277D01*
X73100Y24023D02*
Y24377D01*
X91923Y19200D02*
X92277D01*
X92100Y19023D02*
Y19377D01*
X91923Y20200D02*
X92277D01*
X92100Y20023D02*
Y20377D01*
X91923Y21200D02*
X92277D01*
X92100Y21023D02*
Y21377D01*
X91923Y22200D02*
X92277D01*
X92100Y22023D02*
Y22377D01*
X91923Y23200D02*
X92277D01*
X92100Y23023D02*
Y23377D01*
X91923Y24200D02*
X92277D01*
X92100Y24023D02*
Y24377D01*
X72923Y33200D02*
X73277D01*
X73100Y33023D02*
Y33377D01*
X72923Y34200D02*
X73277D01*
X73100Y34023D02*
Y34377D01*
X72923Y35200D02*
X73277D01*
X73100Y35023D02*
Y35377D01*
X72923Y36200D02*
X73277D01*
X73100Y36023D02*
Y36377D01*
X72923Y37200D02*
X73277D01*
X73100Y37023D02*
Y37377D01*
X72923Y38200D02*
X73277D01*
X73100Y38023D02*
Y38377D01*
X72923Y39200D02*
X73277D01*
X73100Y39023D02*
Y39377D01*
X72923Y40200D02*
X73277D01*
X73100Y40023D02*
Y40377D01*
X86823Y4340D02*
X87257D01*
X87040Y4123D02*
Y4557D01*
X85823Y4340D02*
X86257D01*
X86040Y4123D02*
Y4557D01*
X84823Y4340D02*
X85257D01*
X85040Y4123D02*
Y4557D01*
X80705Y2480D02*
X81177D01*
X80941Y2244D02*
Y2716D01*
X84823Y2480D02*
X85295D01*
X85059Y2244D02*
Y2716D01*
X43623Y55500D02*
X44095D01*
X43859Y55264D02*
Y55736D01*
X39505Y55500D02*
X39977D01*
X39741Y55264D02*
Y55736D01*
X40415Y43300D02*
X40565D01*
X40490Y43225D02*
Y43375D01*
X115751Y24904D02*
X115901D01*
X115826Y24829D02*
Y24979D01*
X44445Y18950D02*
X44595D01*
X44520Y18875D02*
Y19025D01*
X43915Y18670D02*
X44065D01*
X43990Y18595D02*
Y18745D01*
X66385Y18950D02*
X66535D01*
X66460Y18875D02*
Y19025D01*
X65985Y18730D02*
X66135D01*
X66060Y18655D02*
Y18805D01*
X133985Y18930D02*
X134135D01*
X134060Y18855D02*
Y19005D01*
X133595Y18730D02*
X133745D01*
X133670Y18655D02*
Y18805D01*
X112955Y18930D02*
X113105D01*
X113030Y18855D02*
Y19005D01*
X112495Y18740D02*
X112645D01*
X112570Y18665D02*
Y18815D01*
X145595Y16440D02*
X145745D01*
X145670Y16365D02*
Y16515D01*
X145595Y16880D02*
X145745D01*
X145670Y16805D02*
Y16955D01*
X144485Y17380D02*
X144635D01*
X144560Y17305D02*
Y17455D01*
X144485Y17860D02*
X144635D01*
X144560Y17785D02*
Y17935D01*
X155805Y18800D02*
X155955D01*
X155880Y18725D02*
Y18875D01*
X156205Y18950D02*
X156355D01*
X156280Y18875D02*
Y19025D01*
X153272Y7767D02*
X153422D01*
X153347Y7692D02*
Y7842D01*
X153272Y7375D02*
X153422D01*
X153347Y7300D02*
Y7450D01*
X153272Y6983D02*
X153422D01*
X153347Y6908D02*
Y7058D01*
X122685Y17860D02*
X122835D01*
X122760Y17785D02*
Y17935D01*
X122685Y17380D02*
X122835D01*
X122760Y17305D02*
Y17455D01*
X123795Y16880D02*
X123945D01*
X123870Y16805D02*
Y16955D01*
X123795Y16440D02*
X123945D01*
X123870Y16365D02*
Y16515D01*
X131172Y6983D02*
X131322D01*
X131247Y6908D02*
Y7058D01*
X131172Y7375D02*
X131322D01*
X131247Y7300D02*
Y7450D01*
X131172Y7767D02*
X131322D01*
X131247Y7692D02*
Y7842D01*
X110072Y7767D02*
X110222D01*
X110147Y7692D02*
Y7842D01*
X110072Y7375D02*
X110222D01*
X110147Y7300D02*
Y7450D01*
X110072Y6983D02*
X110222D01*
X110147Y6908D02*
Y7058D01*
X101795Y16440D02*
X101945D01*
X101870Y16365D02*
Y16515D01*
X101795Y16880D02*
X101945D01*
X101870Y16805D02*
Y16955D01*
X102205Y17380D02*
X102355D01*
X102280Y17305D02*
Y17455D01*
X102205Y17830D02*
X102355D01*
X102280Y17755D02*
Y17905D01*
X63522Y7083D02*
X63672D01*
X63597Y7008D02*
Y7158D01*
X63522Y7475D02*
X63672D01*
X63597Y7400D02*
Y7550D01*
X63522Y7867D02*
X63672D01*
X63597Y7792D02*
Y7942D01*
X56005Y17830D02*
X56155D01*
X56080Y17755D02*
Y17905D01*
X56005Y17380D02*
X56155D01*
X56080Y17305D02*
Y17455D01*
X55595Y16880D02*
X55745D01*
X55670Y16805D02*
Y16955D01*
X55595Y16440D02*
X55745D01*
X55670Y16365D02*
Y16515D01*
X41222Y7867D02*
X41372D01*
X41297Y7792D02*
Y7942D01*
X41222Y7475D02*
X41372D01*
X41297Y7400D02*
Y7550D01*
X41222Y7083D02*
X41372D01*
X41297Y7008D02*
Y7158D01*
X33605Y17830D02*
X33755D01*
X33680Y17755D02*
Y17905D01*
X33605Y17380D02*
X33755D01*
X33680Y17305D02*
Y17455D01*
X33195Y16880D02*
X33345D01*
X33270Y16805D02*
Y16955D01*
X33195Y16440D02*
X33345D01*
X33270Y16365D02*
Y16515D01*
X9895Y16440D02*
X10045D01*
X9970Y16365D02*
Y16515D01*
X9895Y16880D02*
X10045D01*
X9970Y16805D02*
Y16955D01*
X21945Y18950D02*
X22095D01*
X22020Y18875D02*
Y19025D01*
X21575Y18580D02*
X21725D01*
X21650Y18505D02*
Y18655D01*
X10305Y17380D02*
X10455D01*
X10380Y17305D02*
Y17455D01*
X10305Y17830D02*
X10455D01*
X10380Y17755D02*
Y17905D01*
X18822Y7083D02*
X18972D01*
X18897Y7008D02*
Y7158D01*
X18822Y7475D02*
X18972D01*
X18897Y7400D02*
Y7550D01*
X18822Y7867D02*
X18972D01*
X18897Y7792D02*
Y7942D01*
X100615Y33010D02*
X100765D01*
X100690Y32935D02*
Y33085D01*
X99635Y32960D02*
X99785D01*
X99710Y32885D02*
Y33035D01*
X91835Y33870D02*
X91985D01*
X91910Y33795D02*
Y33945D01*
X91848Y34253D02*
X91998D01*
X91923Y34178D02*
Y34328D01*
X34935Y32770D02*
X35085D01*
X35010Y32695D02*
Y32845D01*
X56515Y32700D02*
X56665D01*
X56590Y32625D02*
Y32775D01*
X90505Y33510D02*
X90655D01*
X90580Y33435D02*
Y33585D01*
X90505Y33070D02*
X90655D01*
X90580Y32995D02*
Y33145D01*
X91125Y31860D02*
X91275D01*
X91200Y31785D02*
Y31935D01*
X62615Y26320D02*
X62765D01*
X62690Y26245D02*
Y26395D01*
X62835Y26720D02*
X62985D01*
X62910Y26645D02*
Y26795D01*
X69665Y28830D02*
X69815D01*
X69740Y28755D02*
Y28905D01*
X69675Y29320D02*
X69825D01*
X69750Y29245D02*
Y29395D01*
X66005Y31960D02*
X66155D01*
X66080Y31885D02*
Y32035D01*
X66015Y32360D02*
X66165D01*
X66090Y32285D02*
Y32435D01*
X61435Y24380D02*
X61585D01*
X61510Y24305D02*
Y24455D01*
X61661Y24059D02*
X61811D01*
X61736Y23984D02*
Y24134D01*
X61135Y24700D02*
X61285D01*
X61210Y24625D02*
Y24775D01*
X47915Y24000D02*
X48065D01*
X47990Y23925D02*
Y24075D01*
X47905Y24390D02*
X48055D01*
X47980Y24315D02*
Y24465D01*
X39065Y24390D02*
X39215D01*
X39140Y24315D02*
Y24465D01*
X39195Y24000D02*
X39345D01*
X39270Y23925D02*
Y24075D01*
X38895Y24810D02*
X39045D01*
X38970Y24735D02*
Y24885D01*
X25675Y25330D02*
X25825D01*
X25750Y25255D02*
Y25405D01*
X38135Y25590D02*
X38285D01*
X38210Y25515D02*
Y25665D01*
X25675Y24910D02*
X25825D01*
X25750Y24835D02*
Y24985D01*
X91090Y29625D02*
X91240D01*
X91165Y29550D02*
Y29700D01*
X96585Y32490D02*
X96735D01*
X96660Y32415D02*
Y32565D01*
X103255Y29302D02*
X103405D01*
X103330Y29227D02*
Y29378D01*
X115375Y27900D02*
X115525D01*
X115450Y27825D02*
Y27975D01*
X117105Y29302D02*
X117255D01*
X117180Y29227D02*
Y29378D01*
X94175Y26300D02*
X94325D01*
X94250Y26225D02*
Y26375D01*
X10965Y32790D02*
X11115D01*
X11040Y32715D02*
Y32865D01*
X143152Y40840D02*
X143302D01*
X143227Y40765D02*
Y40915D01*
X61605Y35790D02*
X61755D01*
X61680Y35715D02*
Y35865D01*
X33715Y34540D02*
X33865D01*
X33790Y34465D02*
Y34615D01*
X49568Y31554D02*
X49718D01*
X49643Y31479D02*
Y31629D01*
X51045Y32400D02*
X51195D01*
X51120Y32325D02*
Y32475D01*
X63075Y39240D02*
X63225D01*
X63150Y39165D02*
Y39315D01*
X63375Y38620D02*
X63525D01*
X63450Y38545D02*
Y38695D01*
X137615Y27900D02*
X137765D01*
X137690Y27825D02*
Y27975D01*
X137615Y28300D02*
X137765D01*
X137690Y28225D02*
Y28375D01*
X130315Y23500D02*
X130465D01*
X130390Y23425D02*
Y23575D01*
X94335Y24970D02*
X94485D01*
X94410Y24895D02*
Y25045D01*
X94615Y25250D02*
X94765D01*
X94690Y25175D02*
Y25325D01*
X94565Y27600D02*
X94715D01*
X94640Y27525D02*
Y27675D01*
X94565Y27150D02*
X94715D01*
X94640Y27075D02*
Y27225D01*
X94565Y28100D02*
X94715D01*
X94640Y28025D02*
Y28175D01*
X94332Y23703D02*
X94482D01*
X94407Y23628D02*
Y23778D01*
X94049Y23416D02*
X94199D01*
X94124Y23341D02*
Y23491D01*
X107415Y25250D02*
X107565D01*
X107490Y25175D02*
Y25325D01*
X94565Y26650D02*
X94715D01*
X94640Y26575D02*
Y26725D01*
X95855Y31170D02*
X96005D01*
X95930Y31095D02*
Y31245D01*
X95855Y30640D02*
X96005D01*
X95930Y30565D02*
Y30715D01*
X95855Y29640D02*
X96005D01*
X95930Y29565D02*
Y29715D01*
X95855Y30180D02*
X96005D01*
X95930Y30105D02*
Y30255D01*
X104825Y27600D02*
X104975D01*
X104900Y27525D02*
Y27675D01*
X105295Y27150D02*
X105445D01*
X105370Y27075D02*
Y27225D01*
X105715Y26650D02*
X105865D01*
X105790Y26575D02*
Y26725D01*
X106185Y26300D02*
X106335D01*
X106260Y26225D02*
Y26375D01*
X107855Y24810D02*
X108005D01*
X107930Y24735D02*
Y24885D01*
X108105Y23840D02*
X108255D01*
X108180Y23765D02*
Y23915D01*
X104385Y28100D02*
X104535D01*
X104460Y28025D02*
Y28175D01*
X103535Y28980D02*
X103685D01*
X103610Y28905D02*
Y29055D01*
X103955Y28520D02*
X104105D01*
X104030Y28445D02*
Y28595D01*
X106605Y25930D02*
X106755D01*
X106680Y25855D02*
Y26005D01*
X106975Y25550D02*
X107125D01*
X107050Y25475D02*
Y25625D01*
X108105Y24350D02*
X108255D01*
X108180Y24275D02*
Y24425D01*
X115515Y22840D02*
X115665D01*
X115590Y22765D02*
Y22915D01*
X115482Y23703D02*
X115632D01*
X115557Y23628D02*
Y23778D01*
X115375Y25150D02*
X115525D01*
X115450Y25075D02*
Y25225D01*
X115375Y25600D02*
X115525D01*
X115450Y25525D02*
Y25675D01*
X115805Y25860D02*
X115955D01*
X115880Y25785D02*
Y25935D01*
X128570Y26215D02*
X128720D01*
X128645Y26140D02*
Y26290D01*
X129015Y25860D02*
X129165D01*
X129090Y25785D02*
Y25935D01*
X115375Y26250D02*
X115525D01*
X115450Y26175D02*
Y26325D01*
X115375Y27090D02*
X115525D01*
X115450Y27015D02*
Y27165D01*
X115805Y28210D02*
X115955D01*
X115880Y28135D02*
Y28285D01*
X115825Y27520D02*
X115975D01*
X115900Y27445D02*
Y27595D01*
X115805Y26610D02*
X115955D01*
X115880Y26535D02*
Y26685D01*
X115895Y23330D02*
X116045D01*
X115970Y23255D02*
Y23405D01*
X129415Y25580D02*
X129565D01*
X129490Y25505D02*
Y25655D01*
X129830Y25205D02*
X129980D01*
X129905Y25130D02*
Y25280D01*
X130205Y24830D02*
X130355D01*
X130280Y24755D02*
Y24905D01*
X130345Y24440D02*
X130495D01*
X130420Y24365D02*
Y24515D01*
X130397Y24012D02*
X130547D01*
X130472Y23937D02*
Y24087D01*
X136285Y26730D02*
X136435D01*
X136360Y26655D02*
Y26805D01*
X136265Y25920D02*
X136415D01*
X136340Y25845D02*
Y25995D01*
X136295Y25180D02*
X136445D01*
X136370Y25105D02*
Y25255D01*
X136765Y27090D02*
X136915D01*
X136840Y27015D02*
Y27165D01*
X136765Y26270D02*
X136915D01*
X136840Y26195D02*
Y26345D01*
X136765Y25560D02*
X136915D01*
X136840Y25485D02*
Y25635D01*
X136765Y24610D02*
X136915D01*
X136840Y24535D02*
Y24685D01*
X147615Y28440D02*
X147765D01*
X147690Y28365D02*
Y28515D01*
X148875Y27110D02*
X149025D01*
X148950Y27035D02*
Y27185D01*
X149465Y26630D02*
X149615D01*
X149540Y26555D02*
Y26705D01*
X150805Y25340D02*
X150955D01*
X150880Y25265D02*
Y25415D01*
X151445Y24740D02*
X151595D01*
X151520Y24665D02*
Y24815D01*
X151615Y24130D02*
X151765D01*
X151690Y24055D02*
Y24205D01*
X151635Y23650D02*
X151785D01*
X151710Y23575D02*
Y23725D01*
X125485Y29302D02*
X125635D01*
X125560Y29227D02*
Y29378D01*
X127765Y27010D02*
X127915D01*
X127840Y26935D02*
Y27085D01*
X126945Y27880D02*
X127095D01*
X127020Y27805D02*
Y27955D01*
X126595Y28210D02*
X126745D01*
X126670Y28135D02*
Y28285D01*
X127265Y27520D02*
X127415D01*
X127340Y27445D02*
Y27595D01*
X128175Y26610D02*
X128325D01*
X128250Y26535D02*
Y26685D01*
X102895Y29640D02*
X103045D01*
X102970Y29565D02*
Y29715D01*
X102455Y30180D02*
X102605D01*
X102530Y30105D02*
Y30255D01*
X101915Y30660D02*
X102065D01*
X101990Y30585D02*
Y30735D01*
X101335Y31190D02*
X101485D01*
X101410Y31115D02*
Y31265D01*
X100845Y31700D02*
X100995D01*
X100920Y31625D02*
Y31775D01*
X100425Y32150D02*
X100575D01*
X100500Y32075D02*
Y32225D01*
X60856Y25190D02*
X61006D01*
X60931Y25115D02*
Y25265D01*
X60335Y25590D02*
X60485D01*
X60410Y25515D02*
Y25665D01*
X59905Y26030D02*
X60055D01*
X59980Y25955D02*
Y26105D01*
X59575Y26480D02*
X59725D01*
X59650Y26405D02*
Y26555D01*
X59085Y27010D02*
X59235D01*
X59160Y26935D02*
Y27085D01*
X57875Y28170D02*
X58025D01*
X57950Y28095D02*
Y28245D01*
X57335Y28610D02*
X57485D01*
X57410Y28535D02*
Y28685D01*
X56915Y29030D02*
X57065D01*
X56990Y28955D02*
Y29105D01*
X56405Y29410D02*
X56555D01*
X56480Y29335D02*
Y29485D01*
X47925Y26030D02*
X48075D01*
X48000Y25955D02*
Y26105D01*
X47925Y26480D02*
X48075D01*
X48000Y26405D02*
Y26555D01*
X47925Y24810D02*
X48075D01*
X48000Y24735D02*
Y24885D01*
X47925Y25194D02*
X48075D01*
X48000Y25119D02*
Y25269D01*
X47925Y25590D02*
X48075D01*
X48000Y25515D02*
Y25665D01*
X47925Y29410D02*
X48075D01*
X48000Y29335D02*
Y29485D01*
X47925Y29030D02*
X48075D01*
X48000Y28955D02*
Y29105D01*
X47925Y28610D02*
X48075D01*
X48000Y28535D02*
Y28685D01*
X47925Y28170D02*
X48075D01*
X48000Y28095D02*
Y28245D01*
X47925Y27780D02*
X48075D01*
X48000Y27705D02*
Y27855D01*
X47925Y27390D02*
X48075D01*
X48000Y27315D02*
Y27465D01*
X47925Y27010D02*
X48075D01*
X48000Y26935D02*
Y27085D01*
X37405Y26320D02*
X37555D01*
X37480Y26245D02*
Y26395D01*
X37759Y26021D02*
X37909D01*
X37834Y25946D02*
Y26096D01*
X38486Y25194D02*
X38636D01*
X38561Y25119D02*
Y25269D01*
X25675Y27080D02*
X25825D01*
X25750Y27005D02*
Y27155D01*
X25675Y27460D02*
X25825D01*
X25750Y27385D02*
Y27535D01*
X25675Y26620D02*
X25825D01*
X25750Y26545D02*
Y26695D01*
X25675Y26200D02*
X25825D01*
X25750Y26125D02*
Y26275D01*
X25675Y25760D02*
X25825D01*
X25750Y25685D02*
Y25835D01*
X25955Y28300D02*
X26105D01*
X26030Y28225D02*
Y28375D01*
X156127Y47767D02*
X156277D01*
X156202Y47692D02*
Y47842D01*
X155835Y45190D02*
X155985D01*
X155910Y45115D02*
Y45265D01*
X29825Y58230D02*
X29975D01*
X29900Y58155D02*
Y58305D01*
X28685Y55410D02*
X28835D01*
X28760Y55335D02*
Y55485D01*
X25915Y53380D02*
X26065D01*
X25990Y53305D02*
Y53455D01*
X155425Y39660D02*
X155575D01*
X155500Y39585D02*
Y39735D01*
X144525Y45320D02*
X144675D01*
X144600Y45245D02*
Y45395D01*
X152615Y43250D02*
X152765D01*
X152690Y43175D02*
Y43325D01*
X80115Y620D02*
X80265D01*
X80190Y545D02*
Y695D01*
X26297Y35260D02*
X26447D01*
X26372Y35185D02*
Y35335D01*
X145415Y40840D02*
X145565D01*
X145490Y40765D02*
Y40915D01*
X115775Y37120D02*
X115925D01*
X115850Y37045D02*
Y37195D01*
X63755Y37770D02*
X63905D01*
X63830Y37695D02*
Y37845D01*
X48615Y34830D02*
X48765D01*
X48690Y34755D02*
Y34905D01*
X49025Y35920D02*
X49175D01*
X49100Y35845D02*
Y35995D01*
X26525Y36320D02*
X26675D01*
X26600Y36245D02*
Y36395D01*
X57205Y35210D02*
X57355D01*
X57280Y35135D02*
Y35285D01*
X83365Y5410D02*
X83515D01*
X83440Y5335D02*
Y5485D01*
X88565Y5470D02*
X88715D01*
X88640Y5395D02*
Y5545D01*
X3255Y28300D02*
X3405D01*
X3330Y28225D02*
Y28375D01*
X3255Y27900D02*
X3405D01*
X3330Y27825D02*
Y27975D01*
X3255Y28700D02*
X3405D01*
X3330Y28625D02*
Y28775D01*
X25955Y27900D02*
X26105D01*
X26030Y27825D02*
Y27975D01*
X25955Y28700D02*
X26105D01*
X26030Y28625D02*
Y28775D01*
X137615Y28700D02*
X137765D01*
X137690Y28625D02*
Y28775D01*
X151635Y60012D02*
X151785D01*
X151710Y59937D02*
Y60087D01*
X151015Y60012D02*
X151165D01*
X151090Y59937D02*
Y60087D01*
X150405Y60002D02*
X150555D01*
X150480Y59927D02*
Y60077D01*
X153485Y58492D02*
X153635D01*
X153560Y58417D02*
Y58567D01*
X153485Y57828D02*
X153635D01*
X153560Y57753D02*
Y57903D01*
X153485Y57162D02*
X153635D01*
X153560Y57087D02*
Y57237D01*
X151635Y55672D02*
X151785D01*
X151710Y55597D02*
Y55747D01*
X151015Y55672D02*
X151165D01*
X151090Y55597D02*
Y55747D01*
X150405Y55662D02*
X150555D01*
X150480Y55587D02*
Y55737D01*
X28245Y21420D02*
X28395D01*
X28320Y21345D02*
Y21495D01*
X26595Y21405D02*
X26745D01*
X26670Y21330D02*
Y21480D01*
X46695Y35950D02*
X46845D01*
X46770Y35875D02*
Y36025D01*
X114815Y36320D02*
X114965D01*
X114890Y36245D02*
Y36395D01*
X151225Y39790D02*
X151375D01*
X151300Y39715D02*
Y39865D01*
X154805Y38030D02*
X154955D01*
X154880Y37955D02*
Y38105D01*
X142595Y4890D02*
X142745D01*
X142670Y4815D02*
Y4965D01*
X89845Y22090D02*
X89995D01*
X89920Y22015D02*
Y22165D01*
X121125Y5180D02*
X121275D01*
X121200Y5105D02*
Y5255D01*
X76765Y58380D02*
X76915D01*
X76840Y58305D02*
Y58455D01*
X76755Y58990D02*
X76905D01*
X76830Y58915D02*
Y59065D01*
X76755Y59610D02*
X76905D01*
X76830Y59535D02*
Y59685D01*
X75265Y61460D02*
X75415D01*
X75340Y61385D02*
Y61535D01*
X74599Y61460D02*
X74749D01*
X74674Y61385D02*
Y61535D01*
X73935Y61460D02*
X74085D01*
X74010Y61385D02*
Y61535D01*
X72425Y58380D02*
X72575D01*
X72500Y58305D02*
Y58455D01*
X72415Y58990D02*
X72565D01*
X72490Y58915D02*
Y59065D01*
X72415Y59610D02*
X72565D01*
X72490Y59535D02*
Y59685D01*
X80595Y59010D02*
X80745D01*
X80670Y58935D02*
Y59085D01*
X23865Y5610D02*
X24015D01*
X23940Y5535D02*
Y5685D01*
X24665Y7410D02*
X24815D01*
X24740Y7335D02*
Y7485D01*
X22055Y1620D02*
X22205D01*
X22130Y1545D02*
Y1695D01*
X22825Y2370D02*
X22975D01*
X22900Y2295D02*
Y2445D01*
X9555Y6730D02*
X9705D01*
X9630Y6655D02*
Y6805D01*
X8515Y6060D02*
X8665D01*
X8590Y5985D02*
Y6135D01*
X45385Y6730D02*
X45535D01*
X45460Y6655D02*
Y6805D01*
X46585Y7730D02*
X46735D01*
X46660Y7655D02*
Y7805D01*
X44405Y1600D02*
X44555D01*
X44480Y1525D02*
Y1675D01*
X45175Y2110D02*
X45325D01*
X45250Y2035D02*
Y2185D01*
X31265Y5540D02*
X31415D01*
X31340Y5465D02*
Y5615D01*
X31995Y5990D02*
X32145D01*
X32070Y5915D02*
Y6065D01*
X69445Y5840D02*
X69595D01*
X69520Y5765D02*
Y5915D01*
X70245Y7640D02*
X70395D01*
X70320Y7565D02*
Y7715D01*
X66825Y1530D02*
X66975D01*
X66900Y1455D02*
Y1605D01*
X67545Y2170D02*
X67695D01*
X67620Y2095D02*
Y2245D01*
X54725Y5730D02*
X54875D01*
X54800Y5655D02*
Y5805D01*
X53975Y5030D02*
X54125D01*
X54050Y4955D02*
Y5105D01*
X114675Y4980D02*
X114825D01*
X114750Y4905D02*
Y5055D01*
X115975Y6080D02*
X116125D01*
X116050Y6005D02*
Y6155D01*
X113285Y1510D02*
X113435D01*
X113360Y1435D02*
Y1585D01*
X114065Y2030D02*
X114215D01*
X114140Y1955D02*
Y2105D01*
X100875Y6280D02*
X101025D01*
X100950Y6205D02*
Y6355D01*
X100095Y5610D02*
X100245D01*
X100170Y5535D02*
Y5685D01*
X137335Y4830D02*
X137485D01*
X137410Y4755D02*
Y4905D01*
X138535Y5830D02*
X138685D01*
X138610Y5755D02*
Y5905D01*
X134415Y1510D02*
X134565D01*
X134490Y1435D02*
Y1585D01*
X135865Y2610D02*
X136015D01*
X135940Y2535D02*
Y2685D01*
X122605Y6380D02*
X122755D01*
X122680Y6305D02*
Y6455D01*
X159725Y6900D02*
X159875D01*
X159800Y6825D02*
Y6975D01*
X155425Y4200D02*
X155575D01*
X155500Y4125D02*
Y4275D01*
X143135Y5390D02*
X143285D01*
X143210Y5315D02*
Y5465D01*
X91509Y11700D02*
X92691D01*
X92100Y11109D02*
Y12291D01*
X72509Y12200D02*
X73691D01*
X73100Y11609D02*
Y12791D01*
X72509Y41700D02*
X73691D01*
X73100Y41109D02*
Y42291D01*
X91509Y44200D02*
X92691D01*
X92100Y43609D02*
Y44791D01*
M02*
