G04*
G04 #@! TF.GenerationSoftware,Altium Limited,Altium Designer,19.1.7 (138)*
G04*
G04 Layer_Color=16711935*
%FSLAX24Y24*%
%MOIN*%
G70*
G01*
G75*
%ADD14C,0.0100*%
%ADD21C,0.0005*%
%ADD22C,0.0039*%
%ADD23C,0.0020*%
D14*
X93100Y6846D02*
Y45200D01*
X72100Y6200D02*
Y44200D01*
X73100Y45200D01*
X77100D01*
X77104D02*
X78104Y46200D01*
X91600D01*
X92600Y45200D01*
X93100D01*
X72100Y6200D02*
X92454D01*
X93100D01*
Y6846D01*
D21*
X468Y243D02*
Y63235D01*
Y243D02*
X161886D01*
Y63235D01*
X468D02*
X161886D01*
D22*
X145193Y39364D02*
G03*
X145193Y39364I-197J0D01*
G01*
X152637Y45708D02*
G03*
X152637Y45708I-197J0D01*
G01*
X25657Y55928D02*
G03*
X25657Y55928I-197J0D01*
G01*
X47691Y33764D02*
G03*
X47691Y33764I-197J0D01*
G01*
X25321Y34204D02*
G03*
X25321Y34204I-197J0D01*
G01*
X65193Y38836D02*
G03*
X65193Y38836I-197J0D01*
G01*
X117053Y35764D02*
G03*
X117053Y35764I-197J0D01*
G01*
X157113Y38054D02*
G03*
X157113Y38054I-197J0D01*
G01*
X25573Y20515D02*
X25927D01*
X25573Y19845D02*
X25927D01*
Y20515D01*
X25573Y19845D02*
Y20515D01*
X9511Y4536D02*
Y5244D01*
X10849Y4536D02*
Y5244D01*
X9511D02*
X10849D01*
X9511Y4536D02*
X10849D01*
X22269Y2006D02*
Y2714D01*
X20931Y2006D02*
Y2714D01*
Y2006D02*
X22269D01*
X20931Y2714D02*
X22269D01*
Y3106D02*
Y3814D01*
X20931Y3106D02*
Y3814D01*
Y3106D02*
X22269D01*
X20931Y3814D02*
X22269D01*
X158095Y41253D02*
X158765D01*
X158095Y41607D02*
X158765D01*
Y41253D02*
Y41607D01*
X158095Y41253D02*
Y41607D01*
Y40333D02*
X158765D01*
X158095Y40687D02*
X158765D01*
Y40333D02*
Y40687D01*
X158095Y40333D02*
Y40687D01*
X25831Y53676D02*
X27169D01*
X25831Y54384D02*
X27169D01*
Y53676D02*
Y54384D01*
X25831Y53676D02*
Y54384D01*
X26365Y59533D02*
X27035D01*
X26365Y59887D02*
X27035D01*
Y59533D02*
Y59887D01*
X26365Y59533D02*
Y59887D01*
X28115Y56107D02*
X28785D01*
X28115Y55753D02*
X28785D01*
X28115D02*
Y56107D01*
X28785Y55753D02*
Y56107D01*
X29723Y57105D02*
Y57775D01*
X30077Y57105D02*
Y57775D01*
X29723Y57105D02*
X30077D01*
X29723Y57775D02*
X30077D01*
X29723Y55775D02*
Y56445D01*
X30077Y55775D02*
Y56445D01*
X29723Y55775D02*
X30077D01*
X29723Y56445D02*
X30077D01*
X145350Y39010D02*
Y40230D01*
X144130Y39010D02*
Y40230D01*
Y39010D02*
X145350D01*
X144130Y40230D02*
X145350D01*
X155255Y45867D02*
X155925D01*
X155255Y45513D02*
X155925D01*
X155255D02*
Y45867D01*
X155925Y45513D02*
Y45867D01*
X152551Y43516D02*
X153889D01*
X152551Y44224D02*
X153889D01*
Y43516D02*
Y44224D01*
X152551Y43516D02*
Y44224D01*
X154220Y45354D02*
Y48480D01*
X150660D02*
X154220D01*
X150660Y44920D02*
Y48480D01*
Y44920D02*
X153786D01*
X154220Y45354D01*
X150660D02*
X154220D01*
X155535Y47457D02*
X156205D01*
X155535Y47103D02*
X156205D01*
X155535D02*
Y47457D01*
X156205Y47103D02*
Y47457D01*
X155520Y46163D02*
X156190D01*
X155520Y46517D02*
X156190D01*
Y46163D02*
Y46517D01*
X155520Y46163D02*
Y46517D01*
X154913Y48075D02*
Y48745D01*
X155267Y48075D02*
Y48745D01*
X154913Y48075D02*
X155267D01*
X154913Y48745D02*
X155267D01*
X27240Y55574D02*
Y58700D01*
X23680D02*
X27240D01*
X23680Y55140D02*
Y58700D01*
Y55140D02*
X26806D01*
X27240Y55574D01*
X23680D02*
X27240D01*
X145109Y40496D02*
Y41204D01*
X143771Y40496D02*
Y41204D01*
Y40496D02*
X145109D01*
X143771Y41204D02*
X145109D01*
X48360Y33410D02*
Y34630D01*
X47140Y33410D02*
Y34630D01*
X48360D01*
X47140Y33410D02*
X48360D01*
X24770Y33850D02*
X25990D01*
X24770Y35070D02*
X25990D01*
X24770Y33850D02*
Y35070D01*
X25990Y33850D02*
Y35070D01*
X64130Y37970D02*
Y39190D01*
X65350Y37970D02*
Y39190D01*
X64130Y37970D02*
X65350D01*
X64130Y39190D02*
X65350D01*
X117210Y35410D02*
Y36630D01*
X115990Y35410D02*
Y36630D01*
Y35410D02*
X117210D01*
X115990Y36630D02*
X117210D01*
X157270Y37700D02*
Y38920D01*
X156050Y37700D02*
Y38920D01*
Y37700D02*
X157270D01*
X156050Y38920D02*
X157270D01*
X52629Y21379D02*
Y21734D01*
X51960Y21379D02*
Y21734D01*
Y21379D02*
X52629D01*
X51960Y21734D02*
X52629D01*
X48589Y35576D02*
Y36284D01*
X47251Y35576D02*
Y36284D01*
Y35576D02*
X48589D01*
X47251Y36284D02*
X48589D01*
X2693Y30985D02*
X3047D01*
X2693Y30315D02*
X3047D01*
Y30985D01*
X2693Y30315D02*
Y30985D01*
X77568Y56972D02*
Y61008D01*
X73887Y56972D02*
Y61008D01*
Y56972D02*
X77568D01*
X73887Y61008D02*
X77568D01*
X80493Y59386D02*
Y60074D01*
X80867Y59386D02*
Y60074D01*
X80493Y59386D02*
X80867D01*
X80493Y60074D02*
X80867D01*
X80847Y57906D02*
Y58594D01*
X80473Y57906D02*
Y58594D01*
X80847D01*
X80473Y57906D02*
X80847D01*
X153583Y53096D02*
Y53784D01*
X153957Y53096D02*
Y53784D01*
X153583Y53096D02*
X153957D01*
X153583Y53784D02*
X153957D01*
X148263Y53136D02*
Y53824D01*
X148637Y53136D02*
Y53824D01*
X148263Y53136D02*
X148637D01*
X148263Y53824D02*
X148637D01*
X154506Y39779D02*
X155214D01*
X154506Y38441D02*
X155214D01*
Y39779D01*
X154506Y38441D02*
Y39779D01*
X146605Y36533D02*
Y36887D01*
X147275Y36533D02*
Y36887D01*
X146605D02*
X147275D01*
X146605Y36533D02*
X147275D01*
X143841Y3936D02*
Y4644D01*
X145179Y3936D02*
Y4644D01*
X143841D02*
X145179D01*
X143841Y3936D02*
X145179D01*
X143841Y4936D02*
Y5644D01*
X145179Y4936D02*
Y5644D01*
X143841D02*
X145179D01*
X143841Y4936D02*
X145179D01*
X143033Y4925D02*
X143387D01*
X143033Y4255D02*
X143387D01*
Y4925D01*
X143033Y4255D02*
Y4925D01*
X156546Y4831D02*
X157254D01*
X156546Y6169D02*
X157254D01*
X156546Y4831D02*
Y6169D01*
X157254Y4831D02*
Y6169D01*
X155446Y4831D02*
X156154D01*
X155446Y6169D02*
X156154D01*
X155446Y4831D02*
Y6169D01*
X156154Y4831D02*
Y6169D01*
X155965Y4023D02*
Y4377D01*
X156635Y4023D02*
Y4377D01*
X155965D02*
X156635D01*
X155965Y4023D02*
X156635D01*
X159369Y7546D02*
Y8254D01*
X158031Y7546D02*
Y8254D01*
Y7546D02*
X159369D01*
X158031Y8254D02*
X159369D01*
X160063Y7240D02*
X160417D01*
X160063Y7910D02*
X160417D01*
X160063Y7240D02*
Y7910D01*
X160417Y7240D02*
Y7910D01*
X159369Y6546D02*
Y7254D01*
X158031Y6546D02*
Y7254D01*
Y6546D02*
X159369D01*
X158031Y7254D02*
X159369D01*
X121623Y5215D02*
X121977D01*
X121623Y4545D02*
X121977D01*
Y5215D01*
X121623Y4545D02*
Y5215D01*
X122531Y4226D02*
Y4934D01*
X123869Y4226D02*
Y4934D01*
X122531D02*
X123869D01*
X122531Y4226D02*
X123869D01*
X122531Y5276D02*
Y5984D01*
X123869Y5276D02*
Y5984D01*
X122531D02*
X123869D01*
X122531Y5276D02*
X123869D01*
X134609Y2874D02*
Y3583D01*
X133271Y2874D02*
Y3583D01*
Y2874D02*
X134609D01*
X133271Y3583D02*
X134609D01*
Y1756D02*
Y2464D01*
X133271Y1756D02*
Y2464D01*
Y1756D02*
X134609D01*
X133271Y2464D02*
X134609D01*
X135163Y2575D02*
X135517D01*
X135163Y3245D02*
X135517D01*
X135163Y2575D02*
Y3245D01*
X135517Y2575D02*
Y3245D01*
X138145Y5653D02*
Y6007D01*
X137475Y5653D02*
Y6007D01*
Y5653D02*
X138145D01*
X137475Y6007D02*
X138145D01*
X136879Y5476D02*
Y6184D01*
X135541Y5476D02*
Y6184D01*
Y5476D02*
X136879D01*
X135541Y6184D02*
X136879D01*
Y4476D02*
Y5184D01*
X135541Y4476D02*
Y5184D01*
Y4476D02*
X136879D01*
X135541Y5184D02*
X136879D01*
X100801Y4126D02*
Y4834D01*
X102139Y4126D02*
Y4834D01*
X100801D02*
X102139D01*
X100801Y4126D02*
X102139D01*
X100801Y5226D02*
Y5934D01*
X102139Y5226D02*
Y5934D01*
X100801D02*
X102139D01*
X100801Y5226D02*
X102139D01*
X99993Y5115D02*
X100347D01*
X99993Y4445D02*
X100347D01*
Y5115D01*
X99993Y4445D02*
Y5115D01*
X113509Y2836D02*
Y3544D01*
X112171Y2836D02*
Y3544D01*
Y2836D02*
X113509D01*
X112171Y3544D02*
X113509D01*
Y1736D02*
Y2444D01*
X112171Y1736D02*
Y2444D01*
Y1736D02*
X113509D01*
X112171Y2444D02*
X113509D01*
X113963Y2555D02*
X114317D01*
X113963Y3225D02*
X114317D01*
X113963Y2555D02*
Y3225D01*
X114317Y2555D02*
Y3225D01*
X114319Y5726D02*
Y6434D01*
X112981Y5726D02*
Y6434D01*
Y5726D02*
X114319D01*
X112981Y6434D02*
X114319D01*
Y4626D02*
Y5334D01*
X112981Y4626D02*
Y5334D01*
Y4626D02*
X114319D01*
X112981Y5334D02*
X114319D01*
X115585Y5903D02*
Y6257D01*
X114915Y5903D02*
Y6257D01*
Y5903D02*
X115585D01*
X114915Y6257D02*
X115585D01*
X88837Y4306D02*
Y4994D01*
X88463Y4306D02*
Y4994D01*
X88837D01*
X88463Y4306D02*
X88837D01*
X83627Y4256D02*
Y4944D01*
X83253Y4256D02*
Y4944D01*
X83627D01*
X83253Y4256D02*
X83627D01*
X116253Y21285D02*
X116607D01*
X116253Y20615D02*
X116607D01*
Y21285D01*
X116253Y20615D02*
Y21285D01*
X115419Y36766D02*
Y37474D01*
X114081Y36766D02*
Y37474D01*
Y36766D02*
X115419D01*
X114081Y37474D02*
X115419D01*
X94344Y21704D02*
X94699D01*
X94344Y21035D02*
X94699D01*
Y21704D01*
X94344Y21035D02*
Y21704D01*
X54671Y3476D02*
Y4184D01*
X56009Y3476D02*
Y4184D01*
X54671D02*
X56009D01*
X54671Y3476D02*
X56009D01*
X53863Y4465D02*
X54217D01*
X53863Y3795D02*
X54217D01*
Y4465D01*
X53863Y3795D02*
Y4465D01*
X54671Y4676D02*
Y5384D01*
X56009Y4676D02*
Y5384D01*
X54671D02*
X56009D01*
X54671Y4676D02*
X56009D01*
X66999Y3016D02*
Y3724D01*
X65661Y3016D02*
Y3724D01*
Y3016D02*
X66999D01*
X65661Y3724D02*
X66999D01*
Y1816D02*
Y2524D01*
X65661Y1816D02*
Y2524D01*
Y1816D02*
X66999D01*
X65661Y2524D02*
X66999D01*
X67453Y2735D02*
X67807D01*
X67453Y3405D02*
X67807D01*
X67453Y2735D02*
Y3405D01*
X67807Y2735D02*
Y3405D01*
X69089Y5456D02*
Y6164D01*
X67751Y5456D02*
Y6164D01*
Y5456D02*
X69089D01*
X67751Y6164D02*
X69089D01*
Y6656D02*
Y7364D01*
X67751Y6656D02*
Y7364D01*
Y6656D02*
X69089D01*
X67751Y7364D02*
X69089D01*
X70355Y6863D02*
Y7217D01*
X69685Y6863D02*
Y7217D01*
Y6863D02*
X70355D01*
X69685Y7217D02*
X70355D01*
X31971Y4066D02*
Y4774D01*
X33309Y4066D02*
Y4774D01*
X31971D02*
X33309D01*
X31971Y4066D02*
X33309D01*
X31971Y5066D02*
Y5774D01*
X33309Y5066D02*
Y5774D01*
X31971D02*
X33309D01*
X31971Y5066D02*
X33309D01*
X31163Y5055D02*
X31517D01*
X31163Y4385D02*
X31517D01*
Y5055D01*
X31163Y4385D02*
Y5055D01*
X45073Y2655D02*
X45427D01*
X45073Y3325D02*
X45427D01*
X45073Y2655D02*
Y3325D01*
X45427Y2655D02*
Y3325D01*
X44619Y2986D02*
Y3694D01*
X43281Y2986D02*
Y3694D01*
Y2986D02*
X44619D01*
X43281Y3694D02*
X44619D01*
Y1936D02*
Y2644D01*
X43281Y1936D02*
Y2644D01*
Y1936D02*
X44619D01*
X43281Y2644D02*
X44619D01*
X45029Y7376D02*
Y8084D01*
X43691Y7376D02*
Y8084D01*
Y7376D02*
X45029D01*
X43691Y8084D02*
X45029D01*
X46195Y7553D02*
Y7907D01*
X45525Y7553D02*
Y7907D01*
Y7553D02*
X46195D01*
X45525Y7907D02*
X46195D01*
X45029Y6376D02*
Y7084D01*
X43691Y6376D02*
Y7084D01*
Y6376D02*
X45029D01*
X43691Y7084D02*
X45029D01*
X8413Y5525D02*
X8767D01*
X8413Y4855D02*
X8767D01*
Y5525D01*
X8413Y4855D02*
Y5525D01*
X22723Y2830D02*
X23077D01*
X22723Y3500D02*
X23077D01*
X22723Y2830D02*
Y3500D01*
X23077Y2830D02*
Y3500D01*
X23509Y6406D02*
Y7114D01*
X22171Y6406D02*
Y7114D01*
Y6406D02*
X23509D01*
X22171Y7114D02*
X23509D01*
Y5256D02*
Y5964D01*
X22171Y5256D02*
Y5964D01*
Y5256D02*
X23509D01*
X22171Y5964D02*
X23509D01*
X24775Y6583D02*
Y6937D01*
X24105Y6583D02*
Y6937D01*
Y6583D02*
X24775D01*
X24105Y6937D02*
X24775D01*
X63871Y36596D02*
Y37304D01*
X65209Y36596D02*
Y37304D01*
X63871D02*
X65209D01*
X63871Y36596D02*
X65209D01*
X24761Y36684D02*
X26099D01*
X24761Y35976D02*
X26099D01*
X24761D02*
Y36684D01*
X26099Y35976D02*
Y36684D01*
X9511Y5756D02*
X10849D01*
X9511Y6464D02*
X10849D01*
Y5756D02*
Y6464D01*
X9511Y5756D02*
Y6464D01*
X153167Y55367D02*
Y58910D01*
X149013Y55367D02*
Y58910D01*
X153167D01*
X149013Y55367D02*
X153167D01*
X83993Y3651D02*
X88087D01*
X83993D02*
Y5462D01*
X83993D02*
X88087D01*
Y3651D02*
Y5462D01*
X83993Y4950D02*
X88087D01*
X145193Y39364D02*
G03*
X145193Y39364I-197J0D01*
G01*
X152637Y45708D02*
G03*
X152637Y45708I-197J0D01*
G01*
X25657Y55928D02*
G03*
X25657Y55928I-197J0D01*
G01*
X47691Y33764D02*
G03*
X47691Y33764I-197J0D01*
G01*
X25321Y34204D02*
G03*
X25321Y34204I-197J0D01*
G01*
X65193Y38836D02*
G03*
X65193Y38836I-197J0D01*
G01*
X117053Y35764D02*
G03*
X117053Y35764I-197J0D01*
G01*
X157113Y38054D02*
G03*
X157113Y38054I-197J0D01*
G01*
X25573Y20515D02*
X25927D01*
X25573Y19845D02*
X25927D01*
Y20515D01*
X25573Y19845D02*
Y20515D01*
X9511Y4536D02*
Y5244D01*
X10849Y4536D02*
Y5244D01*
X9511D02*
X10849D01*
X9511Y4536D02*
X10849D01*
X22269Y2006D02*
Y2714D01*
X20931Y2006D02*
Y2714D01*
Y2006D02*
X22269D01*
X20931Y2714D02*
X22269D01*
Y3106D02*
Y3814D01*
X20931Y3106D02*
Y3814D01*
Y3106D02*
X22269D01*
X20931Y3814D02*
X22269D01*
X158095Y41253D02*
X158765D01*
X158095Y41607D02*
X158765D01*
Y41253D02*
Y41607D01*
X158095Y41253D02*
Y41607D01*
Y40333D02*
X158765D01*
X158095Y40687D02*
X158765D01*
Y40333D02*
Y40687D01*
X158095Y40333D02*
Y40687D01*
X25831Y53676D02*
X27169D01*
X25831Y54384D02*
X27169D01*
Y53676D02*
Y54384D01*
X25831Y53676D02*
Y54384D01*
X26365Y59533D02*
X27035D01*
X26365Y59887D02*
X27035D01*
Y59533D02*
Y59887D01*
X26365Y59533D02*
Y59887D01*
X28115Y56107D02*
X28785D01*
X28115Y55753D02*
X28785D01*
X28115D02*
Y56107D01*
X28785Y55753D02*
Y56107D01*
X29723Y57105D02*
Y57775D01*
X30077Y57105D02*
Y57775D01*
X29723Y57105D02*
X30077D01*
X29723Y57775D02*
X30077D01*
X29723Y55775D02*
Y56445D01*
X30077Y55775D02*
Y56445D01*
X29723Y55775D02*
X30077D01*
X29723Y56445D02*
X30077D01*
X145350Y39010D02*
Y40230D01*
X144130Y39010D02*
Y40230D01*
Y39010D02*
X145350D01*
X144130Y40230D02*
X145350D01*
X155255Y45867D02*
X155925D01*
X155255Y45513D02*
X155925D01*
X155255D02*
Y45867D01*
X155925Y45513D02*
Y45867D01*
X152551Y43516D02*
X153889D01*
X152551Y44224D02*
X153889D01*
Y43516D02*
Y44224D01*
X152551Y43516D02*
Y44224D01*
X154220Y45354D02*
Y48480D01*
X150660D02*
X154220D01*
X150660Y44920D02*
Y48480D01*
Y44920D02*
X153786D01*
X154220Y45354D01*
X150660D02*
X154220D01*
X155535Y47457D02*
X156205D01*
X155535Y47103D02*
X156205D01*
X155535D02*
Y47457D01*
X156205Y47103D02*
Y47457D01*
X155520Y46163D02*
X156190D01*
X155520Y46517D02*
X156190D01*
Y46163D02*
Y46517D01*
X155520Y46163D02*
Y46517D01*
X154913Y48075D02*
Y48745D01*
X155267Y48075D02*
Y48745D01*
X154913Y48075D02*
X155267D01*
X154913Y48745D02*
X155267D01*
X27240Y55574D02*
Y58700D01*
X23680D02*
X27240D01*
X23680Y55140D02*
Y58700D01*
Y55140D02*
X26806D01*
X27240Y55574D01*
X23680D02*
X27240D01*
X145109Y40496D02*
Y41204D01*
X143771Y40496D02*
Y41204D01*
Y40496D02*
X145109D01*
X143771Y41204D02*
X145109D01*
X48360Y33410D02*
Y34630D01*
X47140Y33410D02*
Y34630D01*
X48360D01*
X47140Y33410D02*
X48360D01*
X24770Y33850D02*
X25990D01*
X24770Y35070D02*
X25990D01*
X24770Y33850D02*
Y35070D01*
X25990Y33850D02*
Y35070D01*
X64130Y37970D02*
Y39190D01*
X65350Y37970D02*
Y39190D01*
X64130Y37970D02*
X65350D01*
X64130Y39190D02*
X65350D01*
X117210Y35410D02*
Y36630D01*
X115990Y35410D02*
Y36630D01*
Y35410D02*
X117210D01*
X115990Y36630D02*
X117210D01*
X157270Y37700D02*
Y38920D01*
X156050Y37700D02*
Y38920D01*
Y37700D02*
X157270D01*
X156050Y38920D02*
X157270D01*
X52629Y21379D02*
Y21734D01*
X51960Y21379D02*
Y21734D01*
Y21379D02*
X52629D01*
X51960Y21734D02*
X52629D01*
X48589Y35576D02*
Y36284D01*
X47251Y35576D02*
Y36284D01*
Y35576D02*
X48589D01*
X47251Y36284D02*
X48589D01*
X2693Y30985D02*
X3047D01*
X2693Y30315D02*
X3047D01*
Y30985D01*
X2693Y30315D02*
Y30985D01*
X77568Y56972D02*
Y61008D01*
X73887Y56972D02*
Y61008D01*
Y56972D02*
X77568D01*
X73887Y61008D02*
X77568D01*
X80493Y59386D02*
Y60074D01*
X80867Y59386D02*
Y60074D01*
X80493Y59386D02*
X80867D01*
X80493Y60074D02*
X80867D01*
X80847Y57906D02*
Y58594D01*
X80473Y57906D02*
Y58594D01*
X80847D01*
X80473Y57906D02*
X80847D01*
X153583Y53096D02*
Y53784D01*
X153957Y53096D02*
Y53784D01*
X153583Y53096D02*
X153957D01*
X153583Y53784D02*
X153957D01*
X148263Y53136D02*
Y53824D01*
X148637Y53136D02*
Y53824D01*
X148263Y53136D02*
X148637D01*
X148263Y53824D02*
X148637D01*
X154506Y39779D02*
X155214D01*
X154506Y38441D02*
X155214D01*
Y39779D01*
X154506Y38441D02*
Y39779D01*
X146605Y36533D02*
Y36887D01*
X147275Y36533D02*
Y36887D01*
X146605D02*
X147275D01*
X146605Y36533D02*
X147275D01*
X143841Y3936D02*
Y4644D01*
X145179Y3936D02*
Y4644D01*
X143841D02*
X145179D01*
X143841Y3936D02*
X145179D01*
X143841Y4936D02*
Y5644D01*
X145179Y4936D02*
Y5644D01*
X143841D02*
X145179D01*
X143841Y4936D02*
X145179D01*
X143033Y4925D02*
X143387D01*
X143033Y4255D02*
X143387D01*
Y4925D01*
X143033Y4255D02*
Y4925D01*
X156546Y4831D02*
X157254D01*
X156546Y6169D02*
X157254D01*
X156546Y4831D02*
Y6169D01*
X157254Y4831D02*
Y6169D01*
X155446Y4831D02*
X156154D01*
X155446Y6169D02*
X156154D01*
X155446Y4831D02*
Y6169D01*
X156154Y4831D02*
Y6169D01*
X155965Y4023D02*
Y4377D01*
X156635Y4023D02*
Y4377D01*
X155965D02*
X156635D01*
X155965Y4023D02*
X156635D01*
X159369Y7546D02*
Y8254D01*
X158031Y7546D02*
Y8254D01*
Y7546D02*
X159369D01*
X158031Y8254D02*
X159369D01*
X160063Y7240D02*
X160417D01*
X160063Y7910D02*
X160417D01*
X160063Y7240D02*
Y7910D01*
X160417Y7240D02*
Y7910D01*
X159369Y6546D02*
Y7254D01*
X158031Y6546D02*
Y7254D01*
Y6546D02*
X159369D01*
X158031Y7254D02*
X159369D01*
X121623Y5215D02*
X121977D01*
X121623Y4545D02*
X121977D01*
Y5215D01*
X121623Y4545D02*
Y5215D01*
X122531Y4226D02*
Y4934D01*
X123869Y4226D02*
Y4934D01*
X122531D02*
X123869D01*
X122531Y4226D02*
X123869D01*
X122531Y5276D02*
Y5984D01*
X123869Y5276D02*
Y5984D01*
X122531D02*
X123869D01*
X122531Y5276D02*
X123869D01*
X134609Y2874D02*
Y3583D01*
X133271Y2874D02*
Y3583D01*
Y2874D02*
X134609D01*
X133271Y3583D02*
X134609D01*
Y1756D02*
Y2464D01*
X133271Y1756D02*
Y2464D01*
Y1756D02*
X134609D01*
X133271Y2464D02*
X134609D01*
X135163Y2575D02*
X135517D01*
X135163Y3245D02*
X135517D01*
X135163Y2575D02*
Y3245D01*
X135517Y2575D02*
Y3245D01*
X138145Y5653D02*
Y6007D01*
X137475Y5653D02*
Y6007D01*
Y5653D02*
X138145D01*
X137475Y6007D02*
X138145D01*
X136879Y5476D02*
Y6184D01*
X135541Y5476D02*
Y6184D01*
Y5476D02*
X136879D01*
X135541Y6184D02*
X136879D01*
Y4476D02*
Y5184D01*
X135541Y4476D02*
Y5184D01*
Y4476D02*
X136879D01*
X135541Y5184D02*
X136879D01*
X100801Y4126D02*
Y4834D01*
X102139Y4126D02*
Y4834D01*
X100801D02*
X102139D01*
X100801Y4126D02*
X102139D01*
X100801Y5226D02*
Y5934D01*
X102139Y5226D02*
Y5934D01*
X100801D02*
X102139D01*
X100801Y5226D02*
X102139D01*
X99993Y5115D02*
X100347D01*
X99993Y4445D02*
X100347D01*
Y5115D01*
X99993Y4445D02*
Y5115D01*
X113509Y2836D02*
Y3544D01*
X112171Y2836D02*
Y3544D01*
Y2836D02*
X113509D01*
X112171Y3544D02*
X113509D01*
Y1736D02*
Y2444D01*
X112171Y1736D02*
Y2444D01*
Y1736D02*
X113509D01*
X112171Y2444D02*
X113509D01*
X113963Y2555D02*
X114317D01*
X113963Y3225D02*
X114317D01*
X113963Y2555D02*
Y3225D01*
X114317Y2555D02*
Y3225D01*
X114319Y5726D02*
Y6434D01*
X112981Y5726D02*
Y6434D01*
Y5726D02*
X114319D01*
X112981Y6434D02*
X114319D01*
Y4626D02*
Y5334D01*
X112981Y4626D02*
Y5334D01*
Y4626D02*
X114319D01*
X112981Y5334D02*
X114319D01*
X115585Y5903D02*
Y6257D01*
X114915Y5903D02*
Y6257D01*
Y5903D02*
X115585D01*
X114915Y6257D02*
X115585D01*
X88837Y4306D02*
Y4994D01*
X88463Y4306D02*
Y4994D01*
X88837D01*
X88463Y4306D02*
X88837D01*
X83627Y4256D02*
Y4944D01*
X83253Y4256D02*
Y4944D01*
X83627D01*
X83253Y4256D02*
X83627D01*
X116253Y21285D02*
X116607D01*
X116253Y20615D02*
X116607D01*
Y21285D01*
X116253Y20615D02*
Y21285D01*
X115419Y36766D02*
Y37474D01*
X114081Y36766D02*
Y37474D01*
Y36766D02*
X115419D01*
X114081Y37474D02*
X115419D01*
X94344Y21704D02*
X94699D01*
X94344Y21035D02*
X94699D01*
Y21704D01*
X94344Y21035D02*
Y21704D01*
X54671Y3476D02*
Y4184D01*
X56009Y3476D02*
Y4184D01*
X54671D02*
X56009D01*
X54671Y3476D02*
X56009D01*
X53863Y4465D02*
X54217D01*
X53863Y3795D02*
X54217D01*
Y4465D01*
X53863Y3795D02*
Y4465D01*
X54671Y4676D02*
Y5384D01*
X56009Y4676D02*
Y5384D01*
X54671D02*
X56009D01*
X54671Y4676D02*
X56009D01*
X66999Y3016D02*
Y3724D01*
X65661Y3016D02*
Y3724D01*
Y3016D02*
X66999D01*
X65661Y3724D02*
X66999D01*
Y1816D02*
Y2524D01*
X65661Y1816D02*
Y2524D01*
Y1816D02*
X66999D01*
X65661Y2524D02*
X66999D01*
X67453Y2735D02*
X67807D01*
X67453Y3405D02*
X67807D01*
X67453Y2735D02*
Y3405D01*
X67807Y2735D02*
Y3405D01*
X69089Y5456D02*
Y6164D01*
X67751Y5456D02*
Y6164D01*
Y5456D02*
X69089D01*
X67751Y6164D02*
X69089D01*
Y6656D02*
Y7364D01*
X67751Y6656D02*
Y7364D01*
Y6656D02*
X69089D01*
X67751Y7364D02*
X69089D01*
X70355Y6863D02*
Y7217D01*
X69685Y6863D02*
Y7217D01*
Y6863D02*
X70355D01*
X69685Y7217D02*
X70355D01*
X31971Y4066D02*
Y4774D01*
X33309Y4066D02*
Y4774D01*
X31971D02*
X33309D01*
X31971Y4066D02*
X33309D01*
X31971Y5066D02*
Y5774D01*
X33309Y5066D02*
Y5774D01*
X31971D02*
X33309D01*
X31971Y5066D02*
X33309D01*
X31163Y5055D02*
X31517D01*
X31163Y4385D02*
X31517D01*
Y5055D01*
X31163Y4385D02*
Y5055D01*
X45073Y2655D02*
X45427D01*
X45073Y3325D02*
X45427D01*
X45073Y2655D02*
Y3325D01*
X45427Y2655D02*
Y3325D01*
X44619Y2986D02*
Y3694D01*
X43281Y2986D02*
Y3694D01*
Y2986D02*
X44619D01*
X43281Y3694D02*
X44619D01*
Y1936D02*
Y2644D01*
X43281Y1936D02*
Y2644D01*
Y1936D02*
X44619D01*
X43281Y2644D02*
X44619D01*
X45029Y7376D02*
Y8084D01*
X43691Y7376D02*
Y8084D01*
Y7376D02*
X45029D01*
X43691Y8084D02*
X45029D01*
X46195Y7553D02*
Y7907D01*
X45525Y7553D02*
Y7907D01*
Y7553D02*
X46195D01*
X45525Y7907D02*
X46195D01*
X45029Y6376D02*
Y7084D01*
X43691Y6376D02*
Y7084D01*
Y6376D02*
X45029D01*
X43691Y7084D02*
X45029D01*
X8413Y5525D02*
X8767D01*
X8413Y4855D02*
X8767D01*
Y5525D01*
X8413Y4855D02*
Y5525D01*
X22723Y2830D02*
X23077D01*
X22723Y3500D02*
X23077D01*
X22723Y2830D02*
Y3500D01*
X23077Y2830D02*
Y3500D01*
X23509Y6406D02*
Y7114D01*
X22171Y6406D02*
Y7114D01*
Y6406D02*
X23509D01*
X22171Y7114D02*
X23509D01*
Y5256D02*
Y5964D01*
X22171Y5256D02*
Y5964D01*
Y5256D02*
X23509D01*
X22171Y5964D02*
X23509D01*
X24775Y6583D02*
Y6937D01*
X24105Y6583D02*
Y6937D01*
Y6583D02*
X24775D01*
X24105Y6937D02*
X24775D01*
X63871Y36596D02*
Y37304D01*
X65209Y36596D02*
Y37304D01*
X63871D02*
X65209D01*
X63871Y36596D02*
X65209D01*
X24761Y36684D02*
X26099D01*
X24761Y35976D02*
X26099D01*
X24761D02*
Y36684D01*
X26099Y35976D02*
Y36684D01*
X9511Y5756D02*
X10849D01*
X9511Y6464D02*
X10849D01*
Y5756D02*
Y6464D01*
X9511Y5756D02*
Y6464D01*
X153167Y55367D02*
Y58910D01*
X149013Y55367D02*
Y58910D01*
X153167D01*
X149013Y55367D02*
X153167D01*
X83993Y3651D02*
X88087D01*
X83993D02*
Y5462D01*
X83993D02*
X88087D01*
Y3651D02*
Y5462D01*
X83993Y4950D02*
X88087D01*
X25750Y20003D02*
Y20357D01*
X25573Y20180D02*
X25927D01*
X9393Y4516D02*
Y5264D01*
X10967Y4516D02*
Y5264D01*
X9393D02*
X10967D01*
X9393Y4516D02*
X10967D01*
X9983Y4890D02*
X10377D01*
X10180Y4693D02*
Y5087D01*
X22387Y1986D02*
Y2734D01*
X20813Y1986D02*
Y2734D01*
Y1986D02*
X22387D01*
X20813Y2734D02*
X22387D01*
X21403Y2360D02*
X21797D01*
X21600Y2163D02*
Y2557D01*
X22387Y3086D02*
Y3834D01*
X20813Y3086D02*
Y3834D01*
Y3086D02*
X22387D01*
X20813Y3834D02*
X22387D01*
X21403Y3460D02*
X21797D01*
X21600Y3263D02*
Y3657D01*
X158430Y41253D02*
Y41607D01*
X158253Y41430D02*
X158607D01*
X158430Y40333D02*
Y40687D01*
X158253Y40510D02*
X158607D01*
X26500Y53833D02*
Y54227D01*
X26303Y54030D02*
X26697D01*
X25713Y53656D02*
X27287D01*
X25713Y54404D02*
X27287D01*
Y53656D02*
Y54404D01*
X25713Y53656D02*
Y54404D01*
X26700Y59533D02*
Y59887D01*
X26523Y59710D02*
X26877D01*
X28450Y55753D02*
Y56107D01*
X28273Y55930D02*
X28627D01*
X29723Y57440D02*
X30077D01*
X29900Y57263D02*
Y57617D01*
X29723Y56110D02*
X30077D01*
X29900Y55933D02*
Y56287D01*
X144543Y39620D02*
X144937D01*
X144740Y39423D02*
Y39817D01*
X155590Y45513D02*
Y45867D01*
X155413Y45690D02*
X155767D01*
X153220Y43673D02*
Y44067D01*
X153023Y43870D02*
X153417D01*
X152433Y43496D02*
X154007D01*
X152433Y44244D02*
X154007D01*
Y43496D02*
Y44244D01*
X152433Y43496D02*
Y44244D01*
X152243Y46700D02*
X152637D01*
X152440Y46503D02*
Y46897D01*
X155870Y47103D02*
Y47457D01*
X155693Y47280D02*
X156047D01*
X155855Y46163D02*
Y46517D01*
X155678Y46340D02*
X156032D01*
X154913Y48410D02*
X155267D01*
X155090Y48233D02*
Y48587D01*
X25263Y56920D02*
X25657D01*
X25460Y56723D02*
Y57117D01*
X145227Y40476D02*
Y41224D01*
X143653Y40476D02*
Y41224D01*
Y40476D02*
X145227D01*
X143653Y41224D02*
X145227D01*
X144243Y40850D02*
X144637D01*
X144440Y40653D02*
Y41047D01*
X47553Y34020D02*
X47947D01*
X47750Y33823D02*
Y34217D01*
X25380Y34263D02*
Y34657D01*
X25183Y34460D02*
X25577D01*
X64543Y38580D02*
X64937D01*
X64740Y38383D02*
Y38777D01*
X116403Y36020D02*
X116797D01*
X116600Y35823D02*
Y36217D01*
X156463Y38310D02*
X156857D01*
X156660Y38113D02*
Y38507D01*
X52117Y21556D02*
X52472D01*
X52295Y21379D02*
Y21734D01*
X48707Y35556D02*
Y36304D01*
X47133Y35556D02*
Y36304D01*
Y35556D02*
X48707D01*
X47133Y36304D02*
X48707D01*
X47723Y35930D02*
X48117D01*
X47920Y35733D02*
Y36127D01*
X2870Y30473D02*
Y30827D01*
X2693Y30650D02*
X3047D01*
X75993Y58990D02*
X76387D01*
X76190Y58793D02*
Y59187D01*
X80493Y59730D02*
X80867D01*
X80680Y59543D02*
Y59917D01*
X80463Y59258D02*
Y60202D01*
X80897Y59258D02*
Y60202D01*
X80463Y59258D02*
X80897D01*
X80463Y60202D02*
X80897D01*
X80473Y58250D02*
X80847D01*
X80660Y58063D02*
Y58437D01*
X80877Y57778D02*
Y58722D01*
X80443Y57778D02*
Y58722D01*
X80877D01*
X80443Y57778D02*
X80877D01*
X153583Y53440D02*
X153957D01*
X153770Y53253D02*
Y53627D01*
X153553Y52968D02*
Y53912D01*
X153987Y52968D02*
Y53912D01*
X153553Y52968D02*
X153987D01*
X153553Y53912D02*
X153987D01*
X148263Y53480D02*
X148637D01*
X148450Y53293D02*
Y53667D01*
X148233Y53008D02*
Y53952D01*
X148667Y53008D02*
Y53952D01*
X148233Y53008D02*
X148667D01*
X148233Y53952D02*
X148667D01*
X154486Y39897D02*
X155234D01*
X154486Y38323D02*
X155234D01*
Y39897D01*
X154486Y38323D02*
Y39897D01*
X154860Y38913D02*
Y39307D01*
X154663Y39110D02*
X155057D01*
X146763Y36710D02*
X147117D01*
X146940Y36533D02*
Y36887D01*
X143723Y3916D02*
Y4664D01*
X145297Y3916D02*
Y4664D01*
X143723D02*
X145297D01*
X143723Y3916D02*
X145297D01*
X144313Y4290D02*
X144707D01*
X144510Y4093D02*
Y4487D01*
X143723Y4916D02*
Y5664D01*
X145297Y4916D02*
Y5664D01*
X143723D02*
X145297D01*
X143723Y4916D02*
X145297D01*
X144313Y5290D02*
X144707D01*
X144510Y5093D02*
Y5487D01*
X143210Y4413D02*
Y4767D01*
X143033Y4590D02*
X143387D01*
X156526Y4713D02*
X157274D01*
X156526Y6287D02*
X157274D01*
X156526Y4713D02*
Y6287D01*
X157274Y4713D02*
Y6287D01*
X156900Y5303D02*
Y5697D01*
X156703Y5500D02*
X157097D01*
X155426Y4713D02*
X156174D01*
X155426Y6287D02*
X156174D01*
X155426Y4713D02*
Y6287D01*
X156174Y4713D02*
Y6287D01*
X155800Y5303D02*
Y5697D01*
X155603Y5500D02*
X155997D01*
X156123Y4200D02*
X156477D01*
X156300Y4023D02*
Y4377D01*
X159487Y7526D02*
Y8274D01*
X157913Y7526D02*
Y8274D01*
Y7526D02*
X159487D01*
X157913Y8274D02*
X159487D01*
X158503Y7900D02*
X158897D01*
X158700Y7703D02*
Y8097D01*
X160240Y7398D02*
Y7752D01*
X160063Y7575D02*
X160417D01*
X159487Y6526D02*
Y7274D01*
X157913Y6526D02*
Y7274D01*
Y6526D02*
X159487D01*
X157913Y7274D02*
X159487D01*
X158503Y6900D02*
X158897D01*
X158700Y6703D02*
Y7097D01*
X121800Y4703D02*
Y5057D01*
X121623Y4880D02*
X121977D01*
X122413Y4206D02*
Y4954D01*
X123987Y4206D02*
Y4954D01*
X122413D02*
X123987D01*
X122413Y4206D02*
X123987D01*
X123003Y4580D02*
X123397D01*
X123200Y4383D02*
Y4777D01*
X122413Y5256D02*
Y6004D01*
X123987Y5256D02*
Y6004D01*
X122413D02*
X123987D01*
X122413Y5256D02*
X123987D01*
X123003Y5630D02*
X123397D01*
X123200Y5433D02*
Y5827D01*
X134727Y2854D02*
Y3602D01*
X133153Y2854D02*
Y3602D01*
Y2854D02*
X134727D01*
X133153Y3602D02*
X134727D01*
X133743Y3228D02*
X134137D01*
X133940Y3032D02*
Y3425D01*
X134727Y1736D02*
Y2484D01*
X133153Y1736D02*
Y2484D01*
Y1736D02*
X134727D01*
X133153Y2484D02*
X134727D01*
X133743Y2110D02*
X134137D01*
X133940Y1913D02*
Y2307D01*
X135340Y2733D02*
Y3087D01*
X135163Y2910D02*
X135517D01*
X137633Y5830D02*
X137987D01*
X137810Y5653D02*
Y6007D01*
X136997Y5456D02*
Y6204D01*
X135423Y5456D02*
Y6204D01*
Y5456D02*
X136997D01*
X135423Y6204D02*
X136997D01*
X136013Y5830D02*
X136407D01*
X136210Y5633D02*
Y6027D01*
X136997Y4456D02*
Y5204D01*
X135423Y4456D02*
Y5204D01*
Y4456D02*
X136997D01*
X135423Y5204D02*
X136997D01*
X136013Y4830D02*
X136407D01*
X136210Y4633D02*
Y5027D01*
X100683Y4106D02*
Y4854D01*
X102257Y4106D02*
Y4854D01*
X100683D02*
X102257D01*
X100683Y4106D02*
X102257D01*
X101273Y4480D02*
X101667D01*
X101470Y4283D02*
Y4677D01*
X100683Y5206D02*
Y5954D01*
X102257Y5206D02*
Y5954D01*
X100683D02*
X102257D01*
X100683Y5206D02*
X102257D01*
X101273Y5580D02*
X101667D01*
X101470Y5383D02*
Y5777D01*
X100170Y4603D02*
Y4957D01*
X99993Y4780D02*
X100347D01*
X113627Y2816D02*
Y3564D01*
X112053Y2816D02*
Y3564D01*
Y2816D02*
X113627D01*
X112053Y3564D02*
X113627D01*
X112643Y3190D02*
X113037D01*
X112840Y2993D02*
Y3387D01*
X113627Y1716D02*
Y2464D01*
X112053Y1716D02*
Y2464D01*
Y1716D02*
X113627D01*
X112053Y2464D02*
X113627D01*
X112643Y2090D02*
X113037D01*
X112840Y1893D02*
Y2287D01*
X114140Y2713D02*
Y3067D01*
X113963Y2890D02*
X114317D01*
X114437Y5706D02*
Y6454D01*
X112863Y5706D02*
Y6454D01*
Y5706D02*
X114437D01*
X112863Y6454D02*
X114437D01*
X113453Y6080D02*
X113847D01*
X113650Y5883D02*
Y6277D01*
X114437Y4606D02*
Y5354D01*
X112863Y4606D02*
Y5354D01*
Y4606D02*
X114437D01*
X112863Y5354D02*
X114437D01*
X113453Y4980D02*
X113847D01*
X113650Y4783D02*
Y5177D01*
X115073Y6080D02*
X115427D01*
X115250Y5903D02*
Y6257D01*
X88463Y4650D02*
X88837D01*
X88650Y4463D02*
Y4837D01*
X88867Y4178D02*
Y5122D01*
X88433Y4178D02*
Y5122D01*
X88867D01*
X88433Y4178D02*
X88867D01*
X83253Y4600D02*
X83627D01*
X83440Y4413D02*
Y4787D01*
X83657Y4128D02*
Y5072D01*
X83223Y4128D02*
Y5072D01*
X83657D01*
X83223Y4128D02*
X83657D01*
X116430Y20773D02*
Y21127D01*
X116253Y20950D02*
X116607D01*
X115537Y36746D02*
Y37494D01*
X113963Y36746D02*
Y37494D01*
Y36746D02*
X115537D01*
X113963Y37494D02*
X115537D01*
X114553Y37120D02*
X114947D01*
X114750Y36923D02*
Y37317D01*
X94521Y21192D02*
Y21547D01*
X94344Y21370D02*
X94699D01*
X54553Y3456D02*
Y4204D01*
X56127Y3456D02*
Y4204D01*
X54553D02*
X56127D01*
X54553Y3456D02*
X56127D01*
X55143Y3830D02*
X55537D01*
X55340Y3633D02*
Y4027D01*
X54040Y3953D02*
Y4307D01*
X53863Y4130D02*
X54217D01*
X54553Y4656D02*
Y5404D01*
X56127Y4656D02*
Y5404D01*
X54553D02*
X56127D01*
X54553Y4656D02*
X56127D01*
X55143Y5030D02*
X55537D01*
X55340Y4833D02*
Y5227D01*
X67117Y2996D02*
Y3744D01*
X65543Y2996D02*
Y3744D01*
Y2996D02*
X67117D01*
X65543Y3744D02*
X67117D01*
X66133Y3370D02*
X66527D01*
X66330Y3173D02*
Y3567D01*
X67117Y1796D02*
Y2544D01*
X65543Y1796D02*
Y2544D01*
Y1796D02*
X67117D01*
X65543Y2544D02*
X67117D01*
X66133Y2170D02*
X66527D01*
X66330Y1973D02*
Y2367D01*
X67630Y2893D02*
Y3247D01*
X67453Y3070D02*
X67807D01*
X69207Y5436D02*
Y6184D01*
X67633Y5436D02*
Y6184D01*
Y5436D02*
X69207D01*
X67633Y6184D02*
X69207D01*
X68223Y5810D02*
X68617D01*
X68420Y5613D02*
Y6007D01*
X69207Y6636D02*
Y7384D01*
X67633Y6636D02*
Y7384D01*
Y6636D02*
X69207D01*
X67633Y7384D02*
X69207D01*
X68223Y7010D02*
X68617D01*
X68420Y6813D02*
Y7207D01*
X69843Y7040D02*
X70197D01*
X70020Y6863D02*
Y7217D01*
X31853Y4046D02*
Y4794D01*
X33427Y4046D02*
Y4794D01*
X31853D02*
X33427D01*
X31853Y4046D02*
X33427D01*
X32443Y4420D02*
X32837D01*
X32640Y4223D02*
Y4617D01*
X31853Y5046D02*
Y5794D01*
X33427Y5046D02*
Y5794D01*
X31853D02*
X33427D01*
X31853Y5046D02*
X33427D01*
X32443Y5420D02*
X32837D01*
X32640Y5223D02*
Y5617D01*
X31340Y4543D02*
Y4897D01*
X31163Y4720D02*
X31517D01*
X45250Y2813D02*
Y3167D01*
X45073Y2990D02*
X45427D01*
X44737Y2966D02*
Y3714D01*
X43163Y2966D02*
Y3714D01*
Y2966D02*
X44737D01*
X43163Y3714D02*
X44737D01*
X43753Y3340D02*
X44147D01*
X43950Y3143D02*
Y3537D01*
X44737Y1916D02*
Y2664D01*
X43163Y1916D02*
Y2664D01*
Y1916D02*
X44737D01*
X43163Y2664D02*
X44737D01*
X43753Y2290D02*
X44147D01*
X43950Y2093D02*
Y2487D01*
X45147Y7356D02*
Y8104D01*
X43573Y7356D02*
Y8104D01*
Y7356D02*
X45147D01*
X43573Y8104D02*
X45147D01*
X44163Y7730D02*
X44557D01*
X44360Y7533D02*
Y7927D01*
X45683Y7730D02*
X46037D01*
X45860Y7553D02*
Y7907D01*
X45147Y6356D02*
Y7104D01*
X43573Y6356D02*
Y7104D01*
Y6356D02*
X45147D01*
X43573Y7104D02*
X45147D01*
X44163Y6730D02*
X44557D01*
X44360Y6533D02*
Y6927D01*
X8590Y5013D02*
Y5367D01*
X8413Y5190D02*
X8767D01*
X22900Y2988D02*
Y3342D01*
X22723Y3165D02*
X23077D01*
X23627Y6386D02*
Y7134D01*
X22053Y6386D02*
Y7134D01*
Y6386D02*
X23627D01*
X22053Y7134D02*
X23627D01*
X22643Y6760D02*
X23037D01*
X22840Y6563D02*
Y6957D01*
X23627Y5236D02*
Y5984D01*
X22053Y5236D02*
Y5984D01*
Y5236D02*
X23627D01*
X22053Y5984D02*
X23627D01*
X22643Y5610D02*
X23037D01*
X22840Y5413D02*
Y5807D01*
X24263Y6760D02*
X24617D01*
X24440Y6583D02*
Y6937D01*
X63753Y36576D02*
Y37324D01*
X65327Y36576D02*
Y37324D01*
X63753D02*
X65327D01*
X63753Y36576D02*
X65327D01*
X64343Y36950D02*
X64737D01*
X64540Y36753D02*
Y37147D01*
X25430Y36133D02*
Y36527D01*
X25233Y36330D02*
X25627D01*
X24643Y36704D02*
X26217D01*
X24643Y35956D02*
X26217D01*
X24643D02*
Y36704D01*
X26217Y35956D02*
Y36704D01*
X10180Y5913D02*
Y6307D01*
X9983Y6110D02*
X10377D01*
X9393Y5736D02*
X10967D01*
X9393Y6484D02*
X10967D01*
Y5736D02*
Y6484D01*
X9393Y5736D02*
Y6484D01*
X150893Y56430D02*
X151287D01*
X151090Y56233D02*
Y56627D01*
X153275Y53182D02*
Y59678D01*
X148905Y53182D02*
Y59678D01*
X153275D01*
X148905Y53182D02*
X153275D01*
X85843Y4340D02*
X86237D01*
X86040Y4143D02*
Y4537D01*
D23*
X25474Y20751D02*
X26026D01*
X25474Y19609D02*
X26026D01*
Y20751D01*
X25474Y19609D02*
Y20751D01*
X157859Y41154D02*
X159001D01*
X157859Y41706D02*
X159001D01*
Y41154D02*
Y41706D01*
X157859Y41154D02*
Y41706D01*
Y40234D02*
X159001D01*
X157859Y40786D02*
X159001D01*
Y40234D02*
Y40786D01*
X157859Y40234D02*
Y40786D01*
X26129Y59434D02*
X27271D01*
X26129Y59986D02*
X27271D01*
Y59434D02*
Y59986D01*
X26129Y59434D02*
Y59986D01*
X27879Y56206D02*
X29021D01*
X27879Y55654D02*
X29021D01*
X27879D02*
Y56206D01*
X29021Y55654D02*
Y56206D01*
X29624Y56869D02*
Y58011D01*
X30176Y56869D02*
Y58011D01*
X29624Y56869D02*
X30176D01*
X29624Y58011D02*
X30176D01*
X29624Y55539D02*
Y56681D01*
X30176Y55539D02*
Y56681D01*
X29624Y55539D02*
X30176D01*
X29624Y56681D02*
X30176D01*
X145862Y38970D02*
Y40270D01*
X143618Y38970D02*
Y40270D01*
Y38970D02*
X145862D01*
X143618Y40270D02*
X145862D01*
X155019Y45966D02*
X156161D01*
X155019Y45414D02*
X156161D01*
X155019D02*
Y45966D01*
X156161Y45414D02*
Y45966D01*
X154655Y44485D02*
Y48915D01*
X150225Y44485D02*
Y48915D01*
Y44485D02*
X154655D01*
X150225Y48915D02*
X154655D01*
X155299Y47556D02*
X156441D01*
X155299Y47004D02*
X156441D01*
X155299D02*
Y47556D01*
X156441Y47004D02*
Y47556D01*
X155284Y46064D02*
X156426D01*
X155284Y46616D02*
X156426D01*
Y46064D02*
Y46616D01*
X155284Y46064D02*
Y46616D01*
X154814Y47839D02*
Y48981D01*
X155366Y47839D02*
Y48981D01*
X154814Y47839D02*
X155366D01*
X154814Y48981D02*
X155366D01*
X27675Y54705D02*
Y59135D01*
X23245Y54705D02*
Y59135D01*
Y54705D02*
X27675D01*
X23245Y59135D02*
X27675D01*
X48400Y32898D02*
Y35142D01*
X47100Y32898D02*
Y35142D01*
X48400D01*
X47100Y32898D02*
X48400D01*
X24730Y33338D02*
X26030D01*
X24730Y35582D02*
X26030D01*
X24730Y33338D02*
Y35582D01*
X26030Y33338D02*
Y35582D01*
X64090Y37458D02*
Y39702D01*
X65390Y37458D02*
Y39702D01*
X64090Y37458D02*
X65390D01*
X64090Y39702D02*
X65390D01*
X117722Y35370D02*
Y36670D01*
X115478Y35370D02*
Y36670D01*
Y35370D02*
X117722D01*
X115478Y36670D02*
X117722D01*
X157782Y37660D02*
Y38960D01*
X155538Y37660D02*
Y38960D01*
Y37660D02*
X157782D01*
X155538Y38960D02*
X157782D01*
X52865Y21281D02*
Y21832D01*
X51724Y21281D02*
Y21832D01*
Y21281D02*
X52865D01*
X51724Y21832D02*
X52865D01*
X2594Y31221D02*
X3146D01*
X2594Y30079D02*
X3146D01*
Y31221D01*
X2594Y30079D02*
Y31221D01*
X79320Y56790D02*
Y61190D01*
X72940Y56790D02*
Y61190D01*
Y56790D02*
X79320D01*
X72940Y61190D02*
X79320D01*
X146369Y36434D02*
Y36986D01*
X147511Y36434D02*
Y36986D01*
X146369D02*
X147511D01*
X146369Y36434D02*
X147511D01*
X142934Y5161D02*
X143486D01*
X142934Y4019D02*
X143486D01*
Y5161D01*
X142934Y4019D02*
Y5161D01*
X155729Y3924D02*
Y4476D01*
X156871Y3924D02*
Y4476D01*
X155729D02*
X156871D01*
X155729Y3924D02*
X156871D01*
X159964Y7004D02*
X160516D01*
X159964Y8146D02*
X160516D01*
X159964Y7004D02*
Y8146D01*
X160516Y7004D02*
Y8146D01*
X121524Y5451D02*
X122076D01*
X121524Y4309D02*
X122076D01*
Y5451D01*
X121524Y4309D02*
Y5451D01*
X135064Y2339D02*
X135616D01*
X135064Y3481D02*
X135616D01*
X135064Y2339D02*
Y3481D01*
X135616Y2339D02*
Y3481D01*
X138381Y5554D02*
Y6106D01*
X137239Y5554D02*
Y6106D01*
Y5554D02*
X138381D01*
X137239Y6106D02*
X138381D01*
X99894Y5351D02*
X100446D01*
X99894Y4209D02*
X100446D01*
Y5351D01*
X99894Y4209D02*
Y5351D01*
X113864Y2319D02*
X114416D01*
X113864Y3461D02*
X114416D01*
X113864Y2319D02*
Y3461D01*
X114416Y2319D02*
Y3461D01*
X115821Y5804D02*
Y6356D01*
X114679Y5804D02*
Y6356D01*
Y5804D02*
X115821D01*
X114679Y6356D02*
X115821D01*
X116154Y21521D02*
X116706D01*
X116154Y20379D02*
X116706D01*
Y21521D01*
X116154Y20379D02*
Y21521D01*
X94246Y21941D02*
X94797D01*
X94246Y20799D02*
X94797D01*
Y21941D01*
X94246Y20799D02*
Y21941D01*
X53764Y4701D02*
X54316D01*
X53764Y3559D02*
X54316D01*
Y4701D01*
X53764Y3559D02*
Y4701D01*
X67354Y2499D02*
X67906D01*
X67354Y3641D02*
X67906D01*
X67354Y2499D02*
Y3641D01*
X67906Y2499D02*
Y3641D01*
X70591Y6764D02*
Y7316D01*
X69449Y6764D02*
Y7316D01*
Y6764D02*
X70591D01*
X69449Y7316D02*
X70591D01*
X31064Y5291D02*
X31616D01*
X31064Y4149D02*
X31616D01*
Y5291D01*
X31064Y4149D02*
Y5291D01*
X44974Y2419D02*
X45526D01*
X44974Y3561D02*
X45526D01*
X44974Y2419D02*
Y3561D01*
X45526Y2419D02*
Y3561D01*
X46431Y7454D02*
Y8006D01*
X45289Y7454D02*
Y8006D01*
Y7454D02*
X46431D01*
X45289Y8006D02*
X46431D01*
X8314Y5761D02*
X8866D01*
X8314Y4619D02*
X8866D01*
Y5761D01*
X8314Y4619D02*
Y5761D01*
X22624Y2594D02*
X23176D01*
X22624Y3736D02*
X23176D01*
X22624Y2594D02*
Y3736D01*
X23176Y2594D02*
Y3736D01*
X25011Y6484D02*
Y7036D01*
X23869Y6484D02*
Y7036D01*
Y6484D02*
X25011D01*
X23869Y7036D02*
X25011D01*
M02*
