G04*
G04 #@! TF.GenerationSoftware,Altium Limited,Altium Designer,19.1.7 (138)*
G04*
G04 Layer_Color=2752767*
%FSLAX24Y24*%
%MOIN*%
G70*
G01*
G75*
%ADD103C,0.0020*%
%ADD104C,0.0027*%
%ADD105C,0.0013*%
D103*
X50020Y19020D02*
Y19180D01*
X50180D01*
Y19020D01*
X50020D01*
Y18020D02*
Y18180D01*
X50180D01*
Y18020D01*
X50020D01*
Y17020D02*
Y17180D01*
X50180D01*
Y17020D01*
X50020D01*
Y16020D02*
Y16180D01*
X50180D01*
Y16020D01*
X50020D01*
Y15020D02*
Y15180D01*
X50180D01*
Y15020D01*
X50020D01*
X51020D02*
Y15180D01*
X51180D01*
Y15020D01*
X51020D01*
Y16020D02*
Y16180D01*
X51180D01*
Y16020D01*
X51020D01*
Y17020D02*
Y17180D01*
X51180D01*
Y17020D01*
X51020D01*
Y18020D02*
Y18180D01*
X51180D01*
Y18020D01*
X51020D01*
Y19020D02*
Y19180D01*
X51180D01*
Y19020D01*
X51020D01*
X27620D02*
Y19180D01*
X27780D01*
Y19020D01*
X27620D01*
Y18020D02*
Y18180D01*
X27780D01*
Y18020D01*
X27620D01*
Y17020D02*
Y17180D01*
X27780D01*
Y17020D01*
X27620D01*
Y16020D02*
Y16180D01*
X27780D01*
Y16020D01*
X27620D01*
Y15020D02*
Y15180D01*
X27780D01*
Y15020D01*
X27620D01*
X28620D02*
Y15180D01*
X28780D01*
Y15020D01*
X28620D01*
Y16020D02*
Y16180D01*
X28780D01*
Y16020D01*
X28620D01*
Y17020D02*
Y17180D01*
X28780D01*
Y17020D01*
X28620D01*
Y18020D02*
Y18180D01*
X28780D01*
Y18020D01*
X28620D01*
Y19020D02*
Y19180D01*
X28780D01*
Y19020D01*
X28620D01*
X142100Y42161D02*
X142020Y42321D01*
X142180D01*
X142100Y42161D01*
Y46279D02*
X142020Y46439D01*
X142180D01*
X142100Y46279D01*
X121090Y44020D02*
X121130Y44060D01*
X121170D01*
X121130Y44100D01*
X121170Y44140D01*
X121130D01*
X121090Y44180D01*
X121050Y44140D01*
X121010D01*
X121050Y44100D01*
X121010Y44060D01*
X121050D01*
X121090Y44020D01*
X127710D02*
X127750Y44060D01*
X127790D01*
X127750Y44100D01*
X127790Y44140D01*
X127750D01*
X127710Y44180D01*
X127670Y44140D01*
X127630D01*
X127670Y44100D01*
X127630Y44060D01*
X127670D01*
X127710Y44020D01*
X124400Y47330D02*
X124440Y47370D01*
X124480D01*
X124440Y47410D01*
X124480Y47450D01*
X124440D01*
X124400Y47490D01*
X124360Y47450D01*
X124320D01*
X124360Y47410D01*
X124320Y47370D01*
X124360D01*
X124400Y47330D01*
Y44020D02*
X124440Y44060D01*
X124480D01*
X124440Y44100D01*
X124480Y44140D01*
X124440D01*
X124400Y44180D01*
X124360Y44140D01*
X124320D01*
X124360Y44100D01*
X124320Y44060D01*
X124360D01*
X124400Y44020D01*
Y40280D02*
X124440Y40320D01*
X124480D01*
X124440Y40360D01*
X124480Y40400D01*
X124440D01*
X124400Y40440D01*
X124360Y40400D01*
X124320D01*
X124360Y40360D01*
X124320Y40320D01*
X124360D01*
X124400Y40280D01*
X135700Y46560D02*
X135740Y46600D01*
X135780D01*
X135740Y46640D01*
X135780Y46680D01*
X135740D01*
X135700Y46720D01*
X135660Y46680D01*
X135620D01*
X135660Y46640D01*
X135620Y46600D01*
X135660D01*
X135700Y46560D01*
Y42820D02*
X135740Y42860D01*
X135780D01*
X135740Y42900D01*
X135780Y42940D01*
X135740D01*
X135700Y42980D01*
X135660Y42940D01*
X135620D01*
X135660Y42900D01*
X135620Y42860D01*
X135660D01*
X135700Y42820D01*
Y39510D02*
X135740Y39550D01*
X135780D01*
X135740Y39590D01*
X135780Y39630D01*
X135740D01*
X135700Y39670D01*
X135660Y39630D01*
X135620D01*
X135660Y39590D01*
X135620Y39550D01*
X135660D01*
X135700Y39510D01*
X132390Y42820D02*
X132430Y42860D01*
X132470D01*
X132430Y42900D01*
X132470Y42940D01*
X132430D01*
X132390Y42980D01*
X132350Y42940D01*
X132310D01*
X132350Y42900D01*
X132310Y42860D01*
X132350D01*
X132390Y42820D01*
X139010D02*
X139050Y42860D01*
X139090D01*
X139050Y42900D01*
X139090Y42940D01*
X139050D01*
X139010Y42980D01*
X138970Y42940D01*
X138930D01*
X138970Y42900D01*
X138930Y42860D01*
X138970D01*
X139010Y42820D01*
X38845Y50160D02*
X38885Y50200D01*
X38925D01*
X38885Y50240D01*
X38925Y50280D01*
X38885D01*
X38845Y50320D01*
X38805Y50280D01*
X38765D01*
X38805Y50240D01*
X38765Y50200D01*
X38805D01*
X38845Y50160D01*
X45465D02*
X45505Y50200D01*
X45545D01*
X45505Y50240D01*
X45545Y50280D01*
X45505D01*
X45465Y50320D01*
X45425Y50280D01*
X45385D01*
X45425Y50240D01*
X45385Y50200D01*
X45425D01*
X45465Y50160D01*
X42155Y53470D02*
X42195Y53510D01*
X42235D01*
X42195Y53550D01*
X42235Y53590D01*
X42195D01*
X42155Y53630D01*
X42115Y53590D01*
X42075D01*
X42115Y53550D01*
X42075Y53510D01*
X42115D01*
X42155Y53470D01*
Y50160D02*
X42195Y50200D01*
X42235D01*
X42195Y50240D01*
X42235Y50280D01*
X42195D01*
X42155Y50320D01*
X42115Y50280D01*
X42075D01*
X42115Y50240D01*
X42075Y50200D01*
X42115D01*
X42155Y50160D01*
Y46420D02*
X42195Y46460D01*
X42235D01*
X42195Y46500D01*
X42235Y46540D01*
X42195D01*
X42155Y46580D01*
X42115Y46540D01*
X42075D01*
X42115Y46500D01*
X42075Y46460D01*
X42115D01*
X42155Y46420D01*
X54000Y46413D02*
X54040Y46453D01*
X54080D01*
X54040Y46493D01*
X54080Y46533D01*
X54040D01*
X54000Y46573D01*
X53960Y46533D01*
X53920D01*
X53960Y46493D01*
X53920Y46453D01*
X53960D01*
X54000Y46413D01*
Y50153D02*
X54040Y50193D01*
X54080D01*
X54040Y50233D01*
X54080Y50273D01*
X54040D01*
X54000Y50313D01*
X53960Y50273D01*
X53920D01*
X53960Y50233D01*
X53920Y50193D01*
X53960D01*
X54000Y50153D01*
Y53463D02*
X54040Y53503D01*
X54080D01*
X54040Y53543D01*
X54080Y53583D01*
X54040D01*
X54000Y53623D01*
X53960Y53583D01*
X53920D01*
X53960Y53543D01*
X53920Y53503D01*
X53960D01*
X54000Y53463D01*
X57310Y50153D02*
X57350Y50193D01*
X57390D01*
X57350Y50233D01*
X57390Y50273D01*
X57350D01*
X57310Y50313D01*
X57270Y50273D01*
X57230D01*
X57270Y50233D01*
X57230Y50193D01*
X57270D01*
X57310Y50153D01*
X50690D02*
X50730Y50193D01*
X50770D01*
X50730Y50233D01*
X50770Y50273D01*
X50730D01*
X50690Y50313D01*
X50650Y50273D01*
X50610D01*
X50650Y50233D01*
X50610Y50193D01*
X50650D01*
X50690Y50153D01*
X5966Y48755D02*
X6006Y48835D01*
X5966Y48915D01*
X6046Y48875D01*
X6126Y48915D01*
X6086Y48835D01*
X6126Y48755D01*
X6046Y48795D01*
X5966Y48755D01*
X7620D02*
X7660Y48835D01*
X7620Y48915D01*
X7700Y48875D01*
X7780Y48915D01*
X7740Y48835D01*
X7780Y48755D01*
X7700Y48795D01*
X7620Y48755D01*
Y46590D02*
X7660Y46670D01*
X7620Y46750D01*
X7700Y46710D01*
X7780Y46750D01*
X7740Y46670D01*
X7780Y46590D01*
X7700Y46630D01*
X7620Y46590D01*
X5966D02*
X6006Y46670D01*
X5966Y46750D01*
X6046Y46710D01*
X6126Y46750D01*
X6086Y46670D01*
X6126Y46590D01*
X6046Y46630D01*
X5966Y46590D01*
X99620Y60474D02*
X99660Y60554D01*
X99620Y60634D01*
X99700Y60594D01*
X99780Y60634D01*
X99740Y60554D01*
X99780Y60474D01*
X99700Y60514D01*
X99620Y60474D01*
Y58820D02*
X99660Y58900D01*
X99620Y58980D01*
X99700Y58940D01*
X99780Y58980D01*
X99740Y58900D01*
X99780Y58820D01*
X99700Y58860D01*
X99620Y58820D01*
X101785D02*
X101825Y58900D01*
X101785Y58980D01*
X101865Y58940D01*
X101945Y58980D01*
X101905Y58900D01*
X101945Y58820D01*
X101865Y58860D01*
X101785Y58820D01*
Y60474D02*
X101825Y60554D01*
X101785Y60634D01*
X101865Y60594D01*
X101945Y60634D01*
X101905Y60554D01*
X101945Y60474D01*
X101865Y60514D01*
X101785Y60474D01*
X160245Y46770D02*
X160285Y46850D01*
X160245Y46930D01*
X160325Y46890D01*
X160405Y46930D01*
X160365Y46850D01*
X160405Y46770D01*
X160325Y46810D01*
X160245Y46770D01*
Y45116D02*
X160285Y45196D01*
X160245Y45276D01*
X160325Y45236D01*
X160405Y45276D01*
X160365Y45196D01*
X160405Y45116D01*
X160325Y45156D01*
X160245Y45116D01*
X158080D02*
X158120Y45196D01*
X158080Y45276D01*
X158160Y45236D01*
X158240Y45276D01*
X158200Y45196D01*
X158240Y45116D01*
X158160Y45156D01*
X158080Y45116D01*
Y46770D02*
X158120Y46850D01*
X158080Y46930D01*
X158160Y46890D01*
X158240Y46930D01*
X158200Y46850D01*
X158240Y46770D01*
X158160Y46810D01*
X158080Y46770D01*
X26660Y29920D02*
Y29880D01*
X26740D01*
Y29920D01*
X26780D01*
Y30000D01*
X26740D01*
Y30040D01*
X26660D01*
Y30000D01*
X26620D01*
Y29920D01*
X26660D01*
Y30920D02*
Y30880D01*
X26740D01*
Y30920D01*
X26780D01*
Y31000D01*
X26740D01*
Y31040D01*
X26660D01*
Y31000D01*
X26620D01*
Y30920D01*
X26660D01*
Y31920D02*
Y31880D01*
X26740D01*
Y31920D01*
X26780D01*
Y32000D01*
X26740D01*
Y32040D01*
X26660D01*
Y32000D01*
X26620D01*
Y31920D01*
X26660D01*
X24940Y31910D02*
Y31870D01*
X25020D01*
Y31910D01*
X25060D01*
Y31990D01*
X25020D01*
Y32030D01*
X24940D01*
Y31990D01*
X24900D01*
Y31910D01*
X24940D01*
Y30910D02*
Y30870D01*
X25020D01*
Y30910D01*
X25060D01*
Y30990D01*
X25020D01*
Y31030D01*
X24940D01*
Y30990D01*
X24900D01*
Y30910D01*
X24940D01*
Y29910D02*
Y29870D01*
X25020D01*
Y29910D01*
X25060D01*
Y29990D01*
X25020D01*
Y30030D01*
X24940D01*
Y29990D01*
X24900D01*
Y29910D01*
X24940D01*
X19054Y46666D02*
X19094D01*
X19134Y46706D01*
X19174Y46666D01*
X19214D01*
Y46706D01*
X19174Y46746D01*
X19214Y46786D01*
Y46826D01*
X19174D01*
X19134Y46786D01*
X19094Y46826D01*
X19054D01*
Y46786D01*
X19094Y46746D01*
X19054Y46706D01*
Y46666D01*
X16810D02*
X16850D01*
X16890Y46706D01*
X16930Y46666D01*
X16970D01*
Y46706D01*
X16930Y46746D01*
X16970Y46786D01*
Y46826D01*
X16930D01*
X16890Y46786D01*
X16850Y46826D01*
X16810D01*
Y46786D01*
X16850Y46746D01*
X16810Y46706D01*
Y46666D01*
X14566Y46676D02*
X14606D01*
X14646Y46716D01*
X14686Y46676D01*
X14726D01*
Y46716D01*
X14686Y46756D01*
X14726Y46796D01*
Y46836D01*
X14686D01*
X14646Y46796D01*
X14606Y46836D01*
X14566D01*
Y46796D01*
X14606Y46756D01*
X14566Y46716D01*
Y46676D01*
X14566Y48910D02*
X14606D01*
X14646Y48950D01*
X14686Y48910D01*
X14726D01*
Y48950D01*
X14686Y48990D01*
X14726Y49030D01*
Y49070D01*
X14686D01*
X14646Y49030D01*
X14606Y49070D01*
X14566D01*
Y49030D01*
X14606Y48990D01*
X14566Y48950D01*
Y48910D01*
X16810D02*
X16850D01*
X16890Y48950D01*
X16930Y48910D01*
X16970D01*
Y48950D01*
X16930Y48990D01*
X16970Y49030D01*
Y49070D01*
X16930D01*
X16890Y49030D01*
X16850Y49070D01*
X16810D01*
Y49030D01*
X16850Y48990D01*
X16810Y48950D01*
Y48910D01*
X19054D02*
X19094D01*
X19134Y48950D01*
X19174Y48910D01*
X19214D01*
Y48950D01*
X19174Y48990D01*
X19214Y49030D01*
Y49070D01*
X19174D01*
X19134Y49030D01*
X19094Y49070D01*
X19054D01*
Y49030D01*
X19094Y48990D01*
X19054Y48950D01*
Y48910D01*
X20030Y45655D02*
X20110Y45735D01*
X20190Y45655D01*
X20110Y45575D01*
X20030Y45655D01*
X12322Y46676D02*
X12362D01*
X12402Y46716D01*
X12442Y46676D01*
X12482D01*
Y46716D01*
X12442Y46756D01*
X12482Y46796D01*
Y46836D01*
X12442D01*
X12402Y46796D01*
X12362Y46836D01*
X12322D01*
Y46796D01*
X12362Y46756D01*
X12322Y46716D01*
Y46676D01*
Y48910D02*
X12362D01*
X12402Y48950D01*
X12442Y48910D01*
X12482D01*
Y48950D01*
X12442Y48990D01*
X12482Y49030D01*
Y49070D01*
X12442D01*
X12402Y49030D01*
X12362Y49070D01*
X12322D01*
Y49030D01*
X12362Y48990D01*
X12322Y48950D01*
Y48910D01*
X22430Y48543D02*
X22470Y48623D01*
X22430Y48703D01*
X22510Y48663D01*
X22590Y48703D01*
X22550Y48623D01*
X22590Y48543D01*
X22510Y48583D01*
X22430Y48543D01*
X24083D02*
X24123Y48623D01*
X24083Y48703D01*
X24163Y48663D01*
X24243Y48703D01*
X24203Y48623D01*
X24243Y48543D01*
X24163Y48583D01*
X24083Y48543D01*
X25737D02*
X25777Y48623D01*
X25737Y48703D01*
X25817Y48663D01*
X25897Y48703D01*
X25857Y48623D01*
X25897Y48543D01*
X25817Y48583D01*
X25737Y48543D01*
X27390D02*
X27430Y48623D01*
X27390Y48703D01*
X27470Y48663D01*
X27550Y48703D01*
X27510Y48623D01*
X27550Y48543D01*
X27470Y48583D01*
X27390Y48543D01*
Y46377D02*
X27430Y46457D01*
X27390Y46537D01*
X27470Y46497D01*
X27550Y46537D01*
X27510Y46457D01*
X27550Y46377D01*
X27470Y46417D01*
X27390Y46377D01*
X25737D02*
X25777Y46457D01*
X25737Y46537D01*
X25817Y46497D01*
X25897Y46537D01*
X25857Y46457D01*
X25897Y46377D01*
X25817Y46417D01*
X25737Y46377D01*
X24083D02*
X24123Y46457D01*
X24083Y46537D01*
X24163Y46497D01*
X24243Y46537D01*
X24203Y46457D01*
X24243Y46377D01*
X24163Y46417D01*
X24083Y46377D01*
X22430D02*
X22470Y46457D01*
X22430Y46537D01*
X22510Y46497D01*
X22590Y46537D01*
X22550Y46457D01*
X22590Y46377D01*
X22510Y46417D01*
X22430Y46377D01*
X77189Y55810D02*
X77109Y55970D01*
X77269D01*
X77189Y55810D01*
X73071D02*
X72991Y55970D01*
X73151D01*
X73071Y55810D01*
X87195Y58346D02*
X87235Y58426D01*
X87195Y58506D01*
X87275Y58466D01*
X87355Y58506D01*
X87315Y58426D01*
X87355Y58346D01*
X87275Y58386D01*
X87195Y58346D01*
X89360D02*
X89400Y58426D01*
X89360Y58506D01*
X89440Y58466D01*
X89520Y58506D01*
X89480Y58426D01*
X89520Y58346D01*
X89440Y58386D01*
X89360Y58346D01*
X92211Y58380D02*
X92131Y58540D01*
X92291D01*
X92211Y58380D01*
X96329D02*
X96249Y58540D01*
X96409D01*
X96329Y58380D01*
X122241Y49320D02*
X122161Y49480D01*
X122321D01*
X122241Y49320D01*
X126359D02*
X126279Y49480D01*
X126439D01*
X126359Y49320D01*
X146020Y59430D02*
Y59590D01*
X146180D01*
Y59430D01*
X146020D01*
X146060Y59470D02*
Y59550D01*
X146140D01*
Y59470D01*
X146060D01*
X146020Y56430D02*
Y56590D01*
X146180D01*
Y56430D01*
X146020D01*
X146060Y56470D02*
Y56550D01*
X146140D01*
Y56470D01*
X146060D01*
X144690Y52301D02*
X144610Y52461D01*
X144770D01*
X144690Y52301D01*
Y56419D02*
X144610Y56579D01*
X144770D01*
X144690Y56419D01*
X160270Y39100D02*
Y39060D01*
X160350D01*
Y39100D01*
X160390D01*
Y39180D01*
X160350D01*
Y39220D01*
X160270D01*
Y39180D01*
X160230D01*
Y39100D01*
X160270D01*
Y38100D02*
Y38060D01*
X160350D01*
Y38100D01*
X160390D01*
Y38180D01*
X160350D01*
Y38220D01*
X160270D01*
Y38180D01*
X160230D01*
Y38100D01*
X160270D01*
Y37100D02*
Y37060D01*
X160350D01*
Y37100D01*
X160390D01*
Y37180D01*
X160350D01*
Y37220D01*
X160270D01*
Y37180D01*
X160230D01*
Y37100D01*
X160270D01*
X158840Y37090D02*
Y37050D01*
X158920D01*
Y37090D01*
X158960D01*
Y37170D01*
X158920D01*
Y37210D01*
X158840D01*
Y37170D01*
X158800D01*
Y37090D01*
X158840D01*
Y38090D02*
Y38050D01*
X158920D01*
Y38090D01*
X158960D01*
Y38170D01*
X158920D01*
Y38210D01*
X158840D01*
Y38170D01*
X158800D01*
Y38090D01*
X158840D01*
Y39090D02*
Y39050D01*
X158920D01*
Y39090D01*
X158960D01*
Y39170D01*
X158920D01*
Y39210D01*
X158840D01*
Y39170D01*
X158800D01*
Y39090D01*
X158840D01*
X148470Y40140D02*
Y40100D01*
X148550D01*
Y40140D01*
X148590D01*
Y40220D01*
X148550D01*
Y40260D01*
X148470D01*
Y40220D01*
X148430D01*
Y40140D01*
X148470D01*
Y39140D02*
Y39100D01*
X148550D01*
Y39140D01*
X148590D01*
Y39220D01*
X148550D01*
Y39260D01*
X148470D01*
Y39220D01*
X148430D01*
Y39140D01*
X148470D01*
Y38140D02*
Y38100D01*
X148550D01*
Y38140D01*
X148590D01*
Y38220D01*
X148550D01*
Y38260D01*
X148470D01*
Y38220D01*
X148430D01*
Y38140D01*
X148470D01*
X147070D02*
Y38100D01*
X147150D01*
Y38140D01*
X147190D01*
Y38220D01*
X147150D01*
Y38260D01*
X147070D01*
Y38220D01*
X147030D01*
Y38140D01*
X147070D01*
Y39140D02*
Y39100D01*
X147150D01*
Y39140D01*
X147190D01*
Y39220D01*
X147150D01*
Y39260D01*
X147070D01*
Y39220D01*
X147030D01*
Y39140D01*
X147070D01*
Y40140D02*
Y40100D01*
X147150D01*
Y40140D01*
X147190D01*
Y40220D01*
X147150D01*
Y40260D01*
X147070D01*
Y40220D01*
X147030D01*
Y40140D01*
X147070D01*
X148308Y5003D02*
X148348Y5083D01*
X148308Y5163D01*
X148388Y5123D01*
X148468Y5163D01*
X148428Y5083D01*
X148468Y5003D01*
X148388Y5043D01*
X148308Y5003D01*
X149962D02*
X150002Y5083D01*
X149962Y5163D01*
X150042Y5123D01*
X150122Y5163D01*
X150082Y5083D01*
X150122Y5003D01*
X150042Y5043D01*
X149962Y5003D01*
X151615D02*
X151655Y5083D01*
X151615Y5163D01*
X151695Y5123D01*
X151775Y5163D01*
X151735Y5083D01*
X151775Y5003D01*
X151695Y5043D01*
X151615Y5003D01*
X153269D02*
X153309Y5083D01*
X153269Y5163D01*
X153349Y5123D01*
X153429Y5163D01*
X153389Y5083D01*
X153429Y5003D01*
X153349Y5043D01*
X153269Y5003D01*
Y2837D02*
X153309Y2917D01*
X153269Y2997D01*
X153349Y2957D01*
X153429Y2997D01*
X153389Y2917D01*
X153429Y2837D01*
X153349Y2877D01*
X153269Y2837D01*
X151615D02*
X151655Y2917D01*
X151615Y2997D01*
X151695Y2957D01*
X151775Y2997D01*
X151735Y2917D01*
X151775Y2837D01*
X151695Y2877D01*
X151615Y2837D01*
X149962D02*
X150002Y2917D01*
X149962Y2997D01*
X150042Y2957D01*
X150122Y2997D01*
X150082Y2917D01*
X150122Y2837D01*
X150042Y2877D01*
X149962Y2837D01*
X148308D02*
X148348Y2917D01*
X148308Y2997D01*
X148388Y2957D01*
X148468Y2997D01*
X148428Y2917D01*
X148468Y2837D01*
X148388Y2877D01*
X148308Y2837D01*
X105108Y5003D02*
X105148Y5083D01*
X105108Y5163D01*
X105188Y5123D01*
X105268Y5163D01*
X105228Y5083D01*
X105268Y5003D01*
X105188Y5043D01*
X105108Y5003D01*
X106762D02*
X106802Y5083D01*
X106762Y5163D01*
X106842Y5123D01*
X106922Y5163D01*
X106882Y5083D01*
X106922Y5003D01*
X106842Y5043D01*
X106762Y5003D01*
X108415D02*
X108455Y5083D01*
X108415Y5163D01*
X108495Y5123D01*
X108575Y5163D01*
X108535Y5083D01*
X108575Y5003D01*
X108495Y5043D01*
X108415Y5003D01*
X110069D02*
X110109Y5083D01*
X110069Y5163D01*
X110149Y5123D01*
X110229Y5163D01*
X110189Y5083D01*
X110229Y5003D01*
X110149Y5043D01*
X110069Y5003D01*
Y2837D02*
X110109Y2917D01*
X110069Y2997D01*
X110149Y2957D01*
X110229Y2997D01*
X110189Y2917D01*
X110229Y2837D01*
X110149Y2877D01*
X110069Y2837D01*
X108415D02*
X108455Y2917D01*
X108415Y2997D01*
X108495Y2957D01*
X108575Y2997D01*
X108535Y2917D01*
X108575Y2837D01*
X108495Y2877D01*
X108415Y2837D01*
X106762D02*
X106802Y2917D01*
X106762Y2997D01*
X106842Y2957D01*
X106922Y2997D01*
X106882Y2917D01*
X106922Y2837D01*
X106842Y2877D01*
X106762Y2837D01*
X105108D02*
X105148Y2917D01*
X105108Y2997D01*
X105188Y2957D01*
X105268Y2997D01*
X105228Y2917D01*
X105268Y2837D01*
X105188Y2877D01*
X105108Y2837D01*
X118220Y19020D02*
Y19180D01*
X118380D01*
Y19020D01*
X118220D01*
Y18020D02*
Y18180D01*
X118380D01*
Y18020D01*
X118220D01*
Y17020D02*
Y17180D01*
X118380D01*
Y17020D01*
X118220D01*
Y16020D02*
Y16180D01*
X118380D01*
Y16020D01*
X118220D01*
Y15020D02*
Y15180D01*
X118380D01*
Y15020D01*
X118220D01*
X119220D02*
Y15180D01*
X119380D01*
Y15020D01*
X119220D01*
Y16020D02*
Y16180D01*
X119380D01*
Y16020D01*
X119220D01*
Y17020D02*
Y17180D01*
X119380D01*
Y17020D01*
X119220D01*
Y18020D02*
Y18180D01*
X119380D01*
Y18020D01*
X119220D01*
Y19020D02*
Y19180D01*
X119380D01*
Y19020D01*
X119220D01*
X116740Y32520D02*
Y32480D01*
X116820D01*
Y32520D01*
X116860D01*
Y32600D01*
X116820D01*
Y32640D01*
X116740D01*
Y32600D01*
X116700D01*
Y32520D01*
X116740D01*
Y33520D02*
Y33480D01*
X116820D01*
Y33520D01*
X116860D01*
Y33600D01*
X116820D01*
Y33640D01*
X116740D01*
Y33600D01*
X116700D01*
Y33520D01*
X116740D01*
Y34520D02*
Y34480D01*
X116820D01*
Y34520D01*
X116860D01*
Y34600D01*
X116820D01*
Y34640D01*
X116740D01*
Y34600D01*
X116700D01*
Y34520D01*
X116740D01*
X117970D02*
Y34480D01*
X118050D01*
Y34520D01*
X118090D01*
Y34600D01*
X118050D01*
Y34640D01*
X117970D01*
Y34600D01*
X117930D01*
Y34520D01*
X117970D01*
Y33520D02*
Y33480D01*
X118050D01*
Y33520D01*
X118090D01*
Y33600D01*
X118050D01*
Y33640D01*
X117970D01*
Y33600D01*
X117930D01*
Y33520D01*
X117970D01*
Y32520D02*
Y32480D01*
X118050D01*
Y32520D01*
X118090D01*
Y32600D01*
X118050D01*
Y32640D01*
X117970D01*
Y32600D01*
X117930D01*
Y32520D01*
X117970D01*
X96220Y19020D02*
Y19180D01*
X96380D01*
Y19020D01*
X96220D01*
Y18020D02*
Y18180D01*
X96380D01*
Y18020D01*
X96220D01*
Y17020D02*
Y17180D01*
X96380D01*
Y17020D01*
X96220D01*
Y16020D02*
Y16180D01*
X96380D01*
Y16020D01*
X96220D01*
Y15020D02*
Y15180D01*
X96380D01*
Y15020D01*
X96220D01*
X97220D02*
Y15180D01*
X97380D01*
Y15020D01*
X97220D01*
Y16020D02*
Y16180D01*
X97380D01*
Y16020D01*
X97220D01*
Y17020D02*
Y17180D01*
X97380D01*
Y17020D01*
X97220D01*
Y18020D02*
Y18180D01*
X97380D01*
Y18020D01*
X97220D01*
Y19020D02*
Y19180D01*
X97380D01*
Y19020D01*
X97220D01*
X58558Y5103D02*
X58598Y5183D01*
X58558Y5263D01*
X58638Y5223D01*
X58718Y5263D01*
X58678Y5183D01*
X58718Y5103D01*
X58638Y5143D01*
X58558Y5103D01*
X60212D02*
X60252Y5183D01*
X60212Y5263D01*
X60292Y5223D01*
X60372Y5263D01*
X60332Y5183D01*
X60372Y5103D01*
X60292Y5143D01*
X60212Y5103D01*
X61865D02*
X61905Y5183D01*
X61865Y5263D01*
X61945Y5223D01*
X62025Y5263D01*
X61985Y5183D01*
X62025Y5103D01*
X61945Y5143D01*
X61865Y5103D01*
X63519D02*
X63559Y5183D01*
X63519Y5263D01*
X63599Y5223D01*
X63679Y5263D01*
X63639Y5183D01*
X63679Y5103D01*
X63599Y5143D01*
X63519Y5103D01*
Y2937D02*
X63559Y3017D01*
X63519Y3097D01*
X63599Y3057D01*
X63679Y3097D01*
X63639Y3017D01*
X63679Y2937D01*
X63599Y2977D01*
X63519Y2937D01*
X61865D02*
X61905Y3017D01*
X61865Y3097D01*
X61945Y3057D01*
X62025Y3097D01*
X61985Y3017D01*
X62025Y2937D01*
X61945Y2977D01*
X61865Y2937D01*
X60212D02*
X60252Y3017D01*
X60212Y3097D01*
X60292Y3057D01*
X60372Y3097D01*
X60332Y3017D01*
X60372Y2937D01*
X60292Y2977D01*
X60212Y2937D01*
X58558D02*
X58598Y3017D01*
X58558Y3097D01*
X58638Y3057D01*
X58718Y3097D01*
X58678Y3017D01*
X58718Y2937D01*
X58638Y2977D01*
X58558Y2937D01*
X36258Y5103D02*
X36298Y5183D01*
X36258Y5263D01*
X36338Y5223D01*
X36418Y5263D01*
X36378Y5183D01*
X36418Y5103D01*
X36338Y5143D01*
X36258Y5103D01*
X37912D02*
X37952Y5183D01*
X37912Y5263D01*
X37992Y5223D01*
X38072Y5263D01*
X38032Y5183D01*
X38072Y5103D01*
X37992Y5143D01*
X37912Y5103D01*
X39565D02*
X39605Y5183D01*
X39565Y5263D01*
X39645Y5223D01*
X39725Y5263D01*
X39685Y5183D01*
X39725Y5103D01*
X39645Y5143D01*
X39565Y5103D01*
X41219D02*
X41259Y5183D01*
X41219Y5263D01*
X41299Y5223D01*
X41379Y5263D01*
X41339Y5183D01*
X41379Y5103D01*
X41299Y5143D01*
X41219Y5103D01*
Y2937D02*
X41259Y3017D01*
X41219Y3097D01*
X41299Y3057D01*
X41379Y3097D01*
X41339Y3017D01*
X41379Y2937D01*
X41299Y2977D01*
X41219Y2937D01*
X39565D02*
X39605Y3017D01*
X39565Y3097D01*
X39645Y3057D01*
X39725Y3097D01*
X39685Y3017D01*
X39725Y2937D01*
X39645Y2977D01*
X39565Y2937D01*
X37912D02*
X37952Y3017D01*
X37912Y3097D01*
X37992Y3057D01*
X38072Y3097D01*
X38032Y3017D01*
X38072Y2937D01*
X37992Y2977D01*
X37912Y2937D01*
X36258D02*
X36298Y3017D01*
X36258Y3097D01*
X36338Y3057D01*
X36418Y3097D01*
X36378Y3017D01*
X36418Y2937D01*
X36338Y2977D01*
X36258Y2937D01*
X13858Y5103D02*
X13898Y5183D01*
X13858Y5263D01*
X13938Y5223D01*
X14018Y5263D01*
X13978Y5183D01*
X14018Y5103D01*
X13938Y5143D01*
X13858Y5103D01*
X15512D02*
X15552Y5183D01*
X15512Y5263D01*
X15592Y5223D01*
X15672Y5263D01*
X15632Y5183D01*
X15672Y5103D01*
X15592Y5143D01*
X15512Y5103D01*
X17165D02*
X17205Y5183D01*
X17165Y5263D01*
X17245Y5223D01*
X17325Y5263D01*
X17285Y5183D01*
X17325Y5103D01*
X17245Y5143D01*
X17165Y5103D01*
X18819D02*
X18859Y5183D01*
X18819Y5263D01*
X18899Y5223D01*
X18979Y5263D01*
X18939Y5183D01*
X18979Y5103D01*
X18899Y5143D01*
X18819Y5103D01*
Y2937D02*
X18859Y3017D01*
X18819Y3097D01*
X18899Y3057D01*
X18979Y3097D01*
X18939Y3017D01*
X18979Y2937D01*
X18899Y2977D01*
X18819Y2937D01*
X17165D02*
X17205Y3017D01*
X17165Y3097D01*
X17245Y3057D01*
X17325Y3097D01*
X17285Y3017D01*
X17325Y2937D01*
X17245Y2977D01*
X17165Y2937D01*
X15512D02*
X15552Y3017D01*
X15512Y3097D01*
X15592Y3057D01*
X15672Y3097D01*
X15632Y3017D01*
X15672Y2937D01*
X15592Y2977D01*
X15512Y2937D01*
X13858D02*
X13898Y3017D01*
X13858Y3097D01*
X13938Y3057D01*
X14018Y3097D01*
X13978Y3017D01*
X14018Y2937D01*
X13938Y2977D01*
X13858Y2937D01*
X50199Y42560D02*
X50119Y42720D01*
X50279D01*
X50199Y42560D01*
X46081D02*
X46001Y42720D01*
X46161D01*
X46081Y42560D01*
X48580Y31960D02*
Y31920D01*
X48660D01*
Y31960D01*
X48700D01*
Y32040D01*
X48660D01*
Y32080D01*
X48580D01*
Y32040D01*
X48540D01*
Y31960D01*
X48580D01*
Y30960D02*
Y30920D01*
X48660D01*
Y30960D01*
X48700D01*
Y31040D01*
X48660D01*
Y31080D01*
X48580D01*
Y31040D01*
X48540D01*
Y30960D01*
X48580D01*
Y29960D02*
Y29920D01*
X48660D01*
Y29960D01*
X48700D01*
Y30040D01*
X48660D01*
Y30080D01*
X48580D01*
Y30040D01*
X48540D01*
Y29960D01*
X48580D01*
X47150D02*
Y29920D01*
X47230D01*
Y29960D01*
X47270D01*
Y30040D01*
X47230D01*
Y30080D01*
X47150D01*
Y30040D01*
X47110D01*
Y29960D01*
X47150D01*
Y30960D02*
Y30920D01*
X47230D01*
Y30960D01*
X47270D01*
Y31040D01*
X47230D01*
Y31080D01*
X47150D01*
Y31040D01*
X47110D01*
Y30960D01*
X47150D01*
Y31960D02*
Y31920D01*
X47230D01*
Y31960D01*
X47270D01*
Y32040D01*
X47230D01*
Y32080D01*
X47150D01*
Y32040D01*
X47110D01*
Y31960D01*
X47150D01*
X67500Y38260D02*
Y38220D01*
X67580D01*
Y38260D01*
X67620D01*
Y38340D01*
X67580D01*
Y38380D01*
X67500D01*
Y38340D01*
X67460D01*
Y38260D01*
X67500D01*
Y39260D02*
Y39220D01*
X67580D01*
Y39260D01*
X67620D01*
Y39340D01*
X67580D01*
Y39380D01*
X67500D01*
Y39340D01*
X67460D01*
Y39260D01*
X67500D01*
Y40260D02*
Y40220D01*
X67580D01*
Y40260D01*
X67620D01*
Y40340D01*
X67580D01*
Y40380D01*
X67500D01*
Y40340D01*
X67460D01*
Y40260D01*
X67500D01*
X66200Y40270D02*
Y40230D01*
X66280D01*
Y40270D01*
X66320D01*
Y40350D01*
X66280D01*
Y40390D01*
X66200D01*
Y40350D01*
X66160D01*
Y40270D01*
X66200D01*
Y39270D02*
Y39230D01*
X66280D01*
Y39270D01*
X66320D01*
Y39350D01*
X66280D01*
Y39390D01*
X66200D01*
Y39350D01*
X66160D01*
Y39270D01*
X66200D01*
Y38270D02*
Y38230D01*
X66280D01*
Y38270D01*
X66320D01*
Y38350D01*
X66280D01*
Y38390D01*
X66200D01*
Y38350D01*
X66160D01*
Y38270D01*
X66200D01*
X3000Y60570D02*
X2920Y60730D01*
X3080D01*
X3000Y60570D01*
Y60610D02*
X2960Y60690D01*
X3040D01*
X3000Y60610D01*
Y2570D02*
X2920Y2730D01*
X3080D01*
X3000Y2570D01*
Y2610D02*
X2960Y2690D01*
X3040D01*
X3000Y2610D01*
X159000Y60570D02*
X158920Y60730D01*
X159080D01*
X159000Y60570D01*
Y60610D02*
X158960Y60690D01*
X159040D01*
X159000Y60610D01*
Y2570D02*
X158920Y2730D01*
X159080D01*
X159000Y2570D01*
Y2610D02*
X158960Y2690D01*
X159040D01*
X159000Y2610D01*
X141020Y19020D02*
Y19180D01*
X141180D01*
Y19020D01*
X141020D01*
Y18020D02*
Y18180D01*
X141180D01*
Y18020D01*
X141020D01*
Y17020D02*
Y17180D01*
X141180D01*
Y17020D01*
X141020D01*
Y16020D02*
Y16180D01*
X141180D01*
Y16020D01*
X141020D01*
Y15020D02*
Y15180D01*
X141180D01*
Y15020D01*
X141020D01*
X140020D02*
Y15180D01*
X140180D01*
Y15020D01*
X140020D01*
Y16020D02*
Y16180D01*
X140180D01*
Y16020D01*
X140020D01*
Y17020D02*
Y17180D01*
X140180D01*
Y17020D01*
X140020D01*
Y18020D02*
Y18180D01*
X140180D01*
Y18020D01*
X140020D01*
Y19020D02*
Y19180D01*
X140180D01*
Y19020D01*
X140020D01*
X5320D02*
Y19180D01*
X5480D01*
Y19020D01*
X5320D01*
Y18020D02*
Y18180D01*
X5480D01*
Y18020D01*
X5320D01*
Y17020D02*
Y17180D01*
X5480D01*
Y17020D01*
X5320D01*
Y16020D02*
Y16180D01*
X5480D01*
Y16020D01*
X5320D01*
Y15020D02*
Y15180D01*
X5480D01*
Y15020D01*
X5320D01*
X4320D02*
Y15180D01*
X4480D01*
Y15020D01*
X4320D01*
Y16020D02*
Y16180D01*
X4480D01*
Y16020D01*
X4320D01*
Y17020D02*
Y17180D01*
X4480D01*
Y17020D01*
X4320D01*
Y18020D02*
Y18180D01*
X4480D01*
Y18020D01*
X4320D01*
Y19020D02*
Y19180D01*
X4480D01*
Y19020D01*
X4320D01*
X135495Y54120D02*
X135535Y54160D01*
X135575D01*
X135535Y54200D01*
X135575Y54240D01*
X135535D01*
X135495Y54280D01*
X135455Y54240D01*
X135415D01*
X135455Y54200D01*
X135415Y54160D01*
X135455D01*
X135495Y54120D01*
Y54160D02*
X135515Y54180D01*
X135535D01*
X135515Y54200D01*
X135535Y54220D01*
X135515D01*
X135495Y54240D01*
X135475Y54220D01*
X135455D01*
X135475Y54200D01*
X135455Y54180D01*
X135475D01*
X135495Y54160D01*
X124587Y54120D02*
X124627Y54160D01*
X124667D01*
X124627Y54200D01*
X124667Y54240D01*
X124627D01*
X124587Y54280D01*
X124547Y54240D01*
X124507D01*
X124547Y54200D01*
X124507Y54160D01*
X124547D01*
X124587Y54120D01*
Y54160D02*
X124607Y54180D01*
X124627D01*
X124607Y54200D01*
X124627Y54220D01*
X124607D01*
X124587Y54240D01*
X124567Y54220D01*
X124547D01*
X124567Y54200D01*
X124547Y54180D01*
X124567D01*
X124587Y54160D01*
X137677Y54120D02*
X137717Y54160D01*
X137757D01*
X137717Y54200D01*
X137757Y54240D01*
X137717D01*
X137677Y54280D01*
X137637Y54240D01*
X137597D01*
X137637Y54200D01*
X137597Y54160D01*
X137637D01*
X137677Y54120D01*
Y54160D02*
X137697Y54180D01*
X137717D01*
X137697Y54200D01*
X137717Y54220D01*
X137697D01*
X137677Y54240D01*
X137657Y54220D01*
X137637D01*
X137657Y54200D01*
X137637Y54180D01*
X137657D01*
X137677Y54160D01*
X122494Y54120D02*
X122534Y54160D01*
X122574D01*
X122534Y54200D01*
X122574Y54240D01*
X122534D01*
X122494Y54280D01*
X122454Y54240D01*
X122414D01*
X122454Y54200D01*
X122414Y54160D01*
X122454D01*
X122494Y54120D01*
Y54160D02*
X122514Y54180D01*
X122534D01*
X122514Y54200D01*
X122534Y54220D01*
X122514D01*
X122494Y54240D01*
X122474Y54220D01*
X122454D01*
X122474Y54200D01*
X122454Y54180D01*
X122474D01*
X122494Y54160D01*
X137677Y60520D02*
X137717Y60560D01*
X137757D01*
X137717Y60600D01*
X137757Y60640D01*
X137717D01*
X137677Y60680D01*
X137637Y60640D01*
X137597D01*
X137637Y60600D01*
X137597Y60560D01*
X137637D01*
X137677Y60520D01*
Y60560D02*
X137697Y60580D01*
X137717D01*
X137697Y60600D01*
X137717Y60620D01*
X137697D01*
X137677Y60640D01*
X137657Y60620D01*
X137637D01*
X137657Y60600D01*
X137637Y60580D01*
X137657D01*
X137677Y60560D01*
X122494Y60520D02*
X122534Y60560D01*
X122574D01*
X122534Y60600D01*
X122574Y60640D01*
X122534D01*
X122494Y60680D01*
X122454Y60640D01*
X122414D01*
X122454Y60600D01*
X122414Y60560D01*
X122454D01*
X122494Y60520D01*
Y60560D02*
X122514Y60580D01*
X122534D01*
X122514Y60600D01*
X122534Y60620D01*
X122514D01*
X122494Y60640D01*
X122474Y60620D01*
X122454D01*
X122474Y60600D01*
X122454Y60580D01*
X122474D01*
X122494Y60560D01*
X135495Y60520D02*
X135535Y60560D01*
X135575D01*
X135535Y60600D01*
X135575Y60640D01*
X135535D01*
X135495Y60680D01*
X135455Y60640D01*
X135415D01*
X135455Y60600D01*
X135415Y60560D01*
X135455D01*
X135495Y60520D01*
Y60560D02*
X135515Y60580D01*
X135535D01*
X135515Y60600D01*
X135535Y60620D01*
X135515D01*
X135495Y60640D01*
X135475Y60620D01*
X135455D01*
X135475Y60600D01*
X135455Y60580D01*
X135475D01*
X135495Y60560D01*
X124587Y60520D02*
X124627Y60560D01*
X124667D01*
X124627Y60600D01*
X124667Y60640D01*
X124627D01*
X124587Y60680D01*
X124547Y60640D01*
X124507D01*
X124547Y60600D01*
X124507Y60560D01*
X124547D01*
X124587Y60520D01*
Y60560D02*
X124607Y60580D01*
X124627D01*
X124607Y60600D01*
X124627Y60620D01*
X124607D01*
X124587Y60640D01*
X124567Y60620D01*
X124547D01*
X124567Y60600D01*
X124547Y60580D01*
X124567D01*
X124587Y60560D01*
X126208Y2837D02*
X126248Y2917D01*
X126208Y2997D01*
X126288Y2957D01*
X126368Y2997D01*
X126328Y2917D01*
X126368Y2837D01*
X126288Y2877D01*
X126208Y2837D01*
X127862D02*
X127902Y2917D01*
X127862Y2997D01*
X127942Y2957D01*
X128022Y2997D01*
X127982Y2917D01*
X128022Y2837D01*
X127942Y2877D01*
X127862Y2837D01*
X129515D02*
X129555Y2917D01*
X129515Y2997D01*
X129595Y2957D01*
X129675Y2997D01*
X129635Y2917D01*
X129675Y2837D01*
X129595Y2877D01*
X129515Y2837D01*
X131169D02*
X131209Y2917D01*
X131169Y2997D01*
X131249Y2957D01*
X131329Y2997D01*
X131289Y2917D01*
X131329Y2837D01*
X131249Y2877D01*
X131169Y2837D01*
Y5003D02*
X131209Y5083D01*
X131169Y5163D01*
X131249Y5123D01*
X131329Y5163D01*
X131289Y5083D01*
X131329Y5003D01*
X131249Y5043D01*
X131169Y5003D01*
X129515D02*
X129555Y5083D01*
X129515Y5163D01*
X129595Y5123D01*
X129675Y5163D01*
X129635Y5083D01*
X129675Y5003D01*
X129595Y5043D01*
X129515Y5003D01*
X127862D02*
X127902Y5083D01*
X127862Y5163D01*
X127942Y5123D01*
X128022Y5163D01*
X127982Y5083D01*
X128022Y5003D01*
X127942Y5043D01*
X127862Y5003D01*
X126208D02*
X126248Y5083D01*
X126208Y5163D01*
X126288Y5123D01*
X126368Y5163D01*
X126328Y5083D01*
X126368Y5003D01*
X126288Y5043D01*
X126208Y5003D01*
X73020Y43120D02*
X73060Y43200D01*
X73020Y43280D01*
X73100Y43240D01*
X73180Y43280D01*
X73140Y43200D01*
X73180Y43120D01*
X73100Y43160D01*
X73020Y43120D01*
X73060Y43160D02*
X73080Y43200D01*
X73060Y43240D01*
X73100Y43220D01*
X73140Y43240D01*
X73120Y43200D01*
X73140Y43160D01*
X73100Y43180D01*
X73060Y43160D01*
X73020Y44120D02*
X73060Y44200D01*
X73020Y44280D01*
X73100Y44240D01*
X73180Y44280D01*
X73140Y44200D01*
X73180Y44120D01*
X73100Y44160D01*
X73020Y44120D01*
X73060Y44160D02*
X73080Y44200D01*
X73060Y44240D01*
X73100Y44220D01*
X73140Y44240D01*
X73120Y44200D01*
X73140Y44160D01*
X73100Y44180D01*
X73060Y44160D01*
X74020Y43120D02*
X74060Y43200D01*
X74020Y43280D01*
X74100Y43240D01*
X74180Y43280D01*
X74140Y43200D01*
X74180Y43120D01*
X74100Y43160D01*
X74020Y43120D01*
X74060Y43160D02*
X74080Y43200D01*
X74060Y43240D01*
X74100Y43220D01*
X74140Y43240D01*
X74120Y43200D01*
X74140Y43160D01*
X74100Y43180D01*
X74060Y43160D01*
X74020Y44120D02*
X74060Y44200D01*
X74020Y44280D01*
X74100Y44240D01*
X74180Y44280D01*
X74140Y44200D01*
X74180Y44120D01*
X74100Y44160D01*
X74020Y44120D01*
X74060Y44160D02*
X74080Y44200D01*
X74060Y44240D01*
X74100Y44220D01*
X74140Y44240D01*
X74120Y44200D01*
X74140Y44160D01*
X74100Y44180D01*
X74060Y44160D01*
X75020Y43120D02*
X75060Y43200D01*
X75020Y43280D01*
X75100Y43240D01*
X75180Y43280D01*
X75140Y43200D01*
X75180Y43120D01*
X75100Y43160D01*
X75020Y43120D01*
X75060Y43160D02*
X75080Y43200D01*
X75060Y43240D01*
X75100Y43220D01*
X75140Y43240D01*
X75120Y43200D01*
X75140Y43160D01*
X75100Y43180D01*
X75060Y43160D01*
X75020Y44120D02*
X75060Y44200D01*
X75020Y44280D01*
X75100Y44240D01*
X75180Y44280D01*
X75140Y44200D01*
X75180Y44120D01*
X75100Y44160D01*
X75020Y44120D01*
X75060Y44160D02*
X75080Y44200D01*
X75060Y44240D01*
X75100Y44220D01*
X75140Y44240D01*
X75120Y44200D01*
X75140Y44160D01*
X75100Y44180D01*
X75060Y44160D01*
X76020Y43120D02*
X76060Y43200D01*
X76020Y43280D01*
X76100Y43240D01*
X76180Y43280D01*
X76140Y43200D01*
X76180Y43120D01*
X76100Y43160D01*
X76020Y43120D01*
X76060Y43160D02*
X76080Y43200D01*
X76060Y43240D01*
X76100Y43220D01*
X76140Y43240D01*
X76120Y43200D01*
X76140Y43160D01*
X76100Y43180D01*
X76060Y43160D01*
X76020Y44120D02*
X76060Y44200D01*
X76020Y44280D01*
X76100Y44240D01*
X76180Y44280D01*
X76140Y44200D01*
X76180Y44120D01*
X76100Y44160D01*
X76020Y44120D01*
X76060Y44160D02*
X76080Y44200D01*
X76060Y44240D01*
X76100Y44220D01*
X76140Y44240D01*
X76120Y44200D01*
X76140Y44160D01*
X76100Y44180D01*
X76060Y44160D01*
X77020Y43120D02*
X77060Y43200D01*
X77020Y43280D01*
X77100Y43240D01*
X77180Y43280D01*
X77140Y43200D01*
X77180Y43120D01*
X77100Y43160D01*
X77020Y43120D01*
X77060Y43160D02*
X77080Y43200D01*
X77060Y43240D01*
X77100Y43220D01*
X77140Y43240D01*
X77120Y43200D01*
X77140Y43160D01*
X77100Y43180D01*
X77060Y43160D01*
X77020Y44120D02*
X77060Y44200D01*
X77020Y44280D01*
X77100Y44240D01*
X77180Y44280D01*
X77140Y44200D01*
X77180Y44120D01*
X77100Y44160D01*
X77020Y44120D01*
X77060Y44160D02*
X77080Y44200D01*
X77060Y44240D01*
X77100Y44220D01*
X77140Y44240D01*
X77120Y44200D01*
X77140Y44160D01*
X77100Y44180D01*
X77060Y44160D01*
X78020Y43120D02*
X78060Y43200D01*
X78020Y43280D01*
X78100Y43240D01*
X78180Y43280D01*
X78140Y43200D01*
X78180Y43120D01*
X78100Y43160D01*
X78020Y43120D01*
X78060Y43160D02*
X78080Y43200D01*
X78060Y43240D01*
X78100Y43220D01*
X78140Y43240D01*
X78120Y43200D01*
X78140Y43160D01*
X78100Y43180D01*
X78060Y43160D01*
X78020Y44120D02*
X78060Y44200D01*
X78020Y44280D01*
X78100Y44240D01*
X78180Y44280D01*
X78140Y44200D01*
X78180Y44120D01*
X78100Y44160D01*
X78020Y44120D01*
X78060Y44160D02*
X78080Y44200D01*
X78060Y44240D01*
X78100Y44220D01*
X78140Y44240D01*
X78120Y44200D01*
X78140Y44160D01*
X78100Y44180D01*
X78060Y44160D01*
X79020Y43120D02*
X79060Y43200D01*
X79020Y43280D01*
X79100Y43240D01*
X79180Y43280D01*
X79140Y43200D01*
X79180Y43120D01*
X79100Y43160D01*
X79020Y43120D01*
X79060Y43160D02*
X79080Y43200D01*
X79060Y43240D01*
X79100Y43220D01*
X79140Y43240D01*
X79120Y43200D01*
X79140Y43160D01*
X79100Y43180D01*
X79060Y43160D01*
X79020Y44120D02*
X79060Y44200D01*
X79020Y44280D01*
X79100Y44240D01*
X79180Y44280D01*
X79140Y44200D01*
X79180Y44120D01*
X79100Y44160D01*
X79020Y44120D01*
X79060Y44160D02*
X79080Y44200D01*
X79060Y44240D01*
X79100Y44220D01*
X79140Y44240D01*
X79120Y44200D01*
X79140Y44160D01*
X79100Y44180D01*
X79060Y44160D01*
X80020Y43120D02*
X80060Y43200D01*
X80020Y43280D01*
X80100Y43240D01*
X80180Y43280D01*
X80140Y43200D01*
X80180Y43120D01*
X80100Y43160D01*
X80020Y43120D01*
X80060Y43160D02*
X80080Y43200D01*
X80060Y43240D01*
X80100Y43220D01*
X80140Y43240D01*
X80120Y43200D01*
X80140Y43160D01*
X80100Y43180D01*
X80060Y43160D01*
X80020Y44120D02*
X80060Y44200D01*
X80020Y44280D01*
X80100Y44240D01*
X80180Y44280D01*
X80140Y44200D01*
X80180Y44120D01*
X80100Y44160D01*
X80020Y44120D01*
X80060Y44160D02*
X80080Y44200D01*
X80060Y44240D01*
X80100Y44220D01*
X80140Y44240D01*
X80120Y44200D01*
X80140Y44160D01*
X80100Y44180D01*
X80060Y44160D01*
X81020Y43120D02*
X81060Y43200D01*
X81020Y43280D01*
X81100Y43240D01*
X81180Y43280D01*
X81140Y43200D01*
X81180Y43120D01*
X81100Y43160D01*
X81020Y43120D01*
X81060Y43160D02*
X81080Y43200D01*
X81060Y43240D01*
X81100Y43220D01*
X81140Y43240D01*
X81120Y43200D01*
X81140Y43160D01*
X81100Y43180D01*
X81060Y43160D01*
X81020Y44120D02*
X81060Y44200D01*
X81020Y44280D01*
X81100Y44240D01*
X81180Y44280D01*
X81140Y44200D01*
X81180Y44120D01*
X81100Y44160D01*
X81020Y44120D01*
X81060Y44160D02*
X81080Y44200D01*
X81060Y44240D01*
X81100Y44220D01*
X81140Y44240D01*
X81120Y44200D01*
X81140Y44160D01*
X81100Y44180D01*
X81060Y44160D01*
X82020Y43120D02*
X82060Y43200D01*
X82020Y43280D01*
X82100Y43240D01*
X82180Y43280D01*
X82140Y43200D01*
X82180Y43120D01*
X82100Y43160D01*
X82020Y43120D01*
X82060Y43160D02*
X82080Y43200D01*
X82060Y43240D01*
X82100Y43220D01*
X82140Y43240D01*
X82120Y43200D01*
X82140Y43160D01*
X82100Y43180D01*
X82060Y43160D01*
X82020Y44120D02*
X82060Y44200D01*
X82020Y44280D01*
X82100Y44240D01*
X82180Y44280D01*
X82140Y44200D01*
X82180Y44120D01*
X82100Y44160D01*
X82020Y44120D01*
X82060Y44160D02*
X82080Y44200D01*
X82060Y44240D01*
X82100Y44220D01*
X82140Y44240D01*
X82120Y44200D01*
X82140Y44160D01*
X82100Y44180D01*
X82060Y44160D01*
X83020Y43120D02*
X83060Y43200D01*
X83020Y43280D01*
X83100Y43240D01*
X83180Y43280D01*
X83140Y43200D01*
X83180Y43120D01*
X83100Y43160D01*
X83020Y43120D01*
X83060Y43160D02*
X83080Y43200D01*
X83060Y43240D01*
X83100Y43220D01*
X83140Y43240D01*
X83120Y43200D01*
X83140Y43160D01*
X83100Y43180D01*
X83060Y43160D01*
X83020Y44120D02*
X83060Y44200D01*
X83020Y44280D01*
X83100Y44240D01*
X83180Y44280D01*
X83140Y44200D01*
X83180Y44120D01*
X83100Y44160D01*
X83020Y44120D01*
X83060Y44160D02*
X83080Y44200D01*
X83060Y44240D01*
X83100Y44220D01*
X83140Y44240D01*
X83120Y44200D01*
X83140Y44160D01*
X83100Y44180D01*
X83060Y44160D01*
X84020Y43120D02*
X84060Y43200D01*
X84020Y43280D01*
X84100Y43240D01*
X84180Y43280D01*
X84140Y43200D01*
X84180Y43120D01*
X84100Y43160D01*
X84020Y43120D01*
X84060Y43160D02*
X84080Y43200D01*
X84060Y43240D01*
X84100Y43220D01*
X84140Y43240D01*
X84120Y43200D01*
X84140Y43160D01*
X84100Y43180D01*
X84060Y43160D01*
X84020Y44120D02*
X84060Y44200D01*
X84020Y44280D01*
X84100Y44240D01*
X84180Y44280D01*
X84140Y44200D01*
X84180Y44120D01*
X84100Y44160D01*
X84020Y44120D01*
X84060Y44160D02*
X84080Y44200D01*
X84060Y44240D01*
X84100Y44220D01*
X84140Y44240D01*
X84120Y44200D01*
X84140Y44160D01*
X84100Y44180D01*
X84060Y44160D01*
X85020Y43120D02*
X85060Y43200D01*
X85020Y43280D01*
X85100Y43240D01*
X85180Y43280D01*
X85140Y43200D01*
X85180Y43120D01*
X85100Y43160D01*
X85020Y43120D01*
X85060Y43160D02*
X85080Y43200D01*
X85060Y43240D01*
X85100Y43220D01*
X85140Y43240D01*
X85120Y43200D01*
X85140Y43160D01*
X85100Y43180D01*
X85060Y43160D01*
X85020Y44120D02*
X85060Y44200D01*
X85020Y44280D01*
X85100Y44240D01*
X85180Y44280D01*
X85140Y44200D01*
X85180Y44120D01*
X85100Y44160D01*
X85020Y44120D01*
X85060Y44160D02*
X85080Y44200D01*
X85060Y44240D01*
X85100Y44220D01*
X85140Y44240D01*
X85120Y44200D01*
X85140Y44160D01*
X85100Y44180D01*
X85060Y44160D01*
X86020Y43120D02*
X86060Y43200D01*
X86020Y43280D01*
X86100Y43240D01*
X86180Y43280D01*
X86140Y43200D01*
X86180Y43120D01*
X86100Y43160D01*
X86020Y43120D01*
X86060Y43160D02*
X86080Y43200D01*
X86060Y43240D01*
X86100Y43220D01*
X86140Y43240D01*
X86120Y43200D01*
X86140Y43160D01*
X86100Y43180D01*
X86060Y43160D01*
X86020Y44120D02*
X86060Y44200D01*
X86020Y44280D01*
X86100Y44240D01*
X86180Y44280D01*
X86140Y44200D01*
X86180Y44120D01*
X86100Y44160D01*
X86020Y44120D01*
X86060Y44160D02*
X86080Y44200D01*
X86060Y44240D01*
X86100Y44220D01*
X86140Y44240D01*
X86120Y44200D01*
X86140Y44160D01*
X86100Y44180D01*
X86060Y44160D01*
X87020Y43120D02*
X87060Y43200D01*
X87020Y43280D01*
X87100Y43240D01*
X87180Y43280D01*
X87140Y43200D01*
X87180Y43120D01*
X87100Y43160D01*
X87020Y43120D01*
X87060Y43160D02*
X87080Y43200D01*
X87060Y43240D01*
X87100Y43220D01*
X87140Y43240D01*
X87120Y43200D01*
X87140Y43160D01*
X87100Y43180D01*
X87060Y43160D01*
X87020Y44120D02*
X87060Y44200D01*
X87020Y44280D01*
X87100Y44240D01*
X87180Y44280D01*
X87140Y44200D01*
X87180Y44120D01*
X87100Y44160D01*
X87020Y44120D01*
X87060Y44160D02*
X87080Y44200D01*
X87060Y44240D01*
X87100Y44220D01*
X87140Y44240D01*
X87120Y44200D01*
X87140Y44160D01*
X87100Y44180D01*
X87060Y44160D01*
X88020Y43120D02*
X88060Y43200D01*
X88020Y43280D01*
X88100Y43240D01*
X88180Y43280D01*
X88140Y43200D01*
X88180Y43120D01*
X88100Y43160D01*
X88020Y43120D01*
X88060Y43160D02*
X88080Y43200D01*
X88060Y43240D01*
X88100Y43220D01*
X88140Y43240D01*
X88120Y43200D01*
X88140Y43160D01*
X88100Y43180D01*
X88060Y43160D01*
X88020Y44120D02*
X88060Y44200D01*
X88020Y44280D01*
X88100Y44240D01*
X88180Y44280D01*
X88140Y44200D01*
X88180Y44120D01*
X88100Y44160D01*
X88020Y44120D01*
X88060Y44160D02*
X88080Y44200D01*
X88060Y44240D01*
X88100Y44220D01*
X88140Y44240D01*
X88120Y44200D01*
X88140Y44160D01*
X88100Y44180D01*
X88060Y44160D01*
X89020Y43120D02*
X89060Y43200D01*
X89020Y43280D01*
X89100Y43240D01*
X89180Y43280D01*
X89140Y43200D01*
X89180Y43120D01*
X89100Y43160D01*
X89020Y43120D01*
X89060Y43160D02*
X89080Y43200D01*
X89060Y43240D01*
X89100Y43220D01*
X89140Y43240D01*
X89120Y43200D01*
X89140Y43160D01*
X89100Y43180D01*
X89060Y43160D01*
X89020Y44120D02*
X89060Y44200D01*
X89020Y44280D01*
X89100Y44240D01*
X89180Y44280D01*
X89140Y44200D01*
X89180Y44120D01*
X89100Y44160D01*
X89020Y44120D01*
X89060Y44160D02*
X89080Y44200D01*
X89060Y44240D01*
X89100Y44220D01*
X89140Y44240D01*
X89120Y44200D01*
X89140Y44160D01*
X89100Y44180D01*
X89060Y44160D01*
X90020Y43120D02*
X90060Y43200D01*
X90020Y43280D01*
X90100Y43240D01*
X90180Y43280D01*
X90140Y43200D01*
X90180Y43120D01*
X90100Y43160D01*
X90020Y43120D01*
X90060Y43160D02*
X90080Y43200D01*
X90060Y43240D01*
X90100Y43220D01*
X90140Y43240D01*
X90120Y43200D01*
X90140Y43160D01*
X90100Y43180D01*
X90060Y43160D01*
X90020Y44120D02*
X90060Y44200D01*
X90020Y44280D01*
X90100Y44240D01*
X90180Y44280D01*
X90140Y44200D01*
X90180Y44120D01*
X90100Y44160D01*
X90020Y44120D01*
X90060Y44160D02*
X90080Y44200D01*
X90060Y44240D01*
X90100Y44220D01*
X90140Y44240D01*
X90120Y44200D01*
X90140Y44160D01*
X90100Y44180D01*
X90060Y44160D01*
X92020Y33120D02*
X92060Y33200D01*
X92020Y33280D01*
X92100Y33240D01*
X92180Y33280D01*
X92140Y33200D01*
X92180Y33120D01*
X92100Y33160D01*
X92020Y33120D01*
X92060Y33160D02*
X92080Y33200D01*
X92060Y33240D01*
X92100Y33220D01*
X92140Y33240D01*
X92120Y33200D01*
X92140Y33160D01*
X92100Y33180D01*
X92060Y33160D01*
X92020Y32120D02*
X92060Y32200D01*
X92020Y32280D01*
X92100Y32240D01*
X92180Y32280D01*
X92140Y32200D01*
X92180Y32120D01*
X92100Y32160D01*
X92020Y32120D01*
X92060Y32160D02*
X92080Y32200D01*
X92060Y32240D01*
X92100Y32220D01*
X92140Y32240D01*
X92120Y32200D01*
X92140Y32160D01*
X92100Y32180D01*
X92060Y32160D01*
X92020Y31120D02*
X92060Y31200D01*
X92020Y31280D01*
X92100Y31240D01*
X92180Y31280D01*
X92140Y31200D01*
X92180Y31120D01*
X92100Y31160D01*
X92020Y31120D01*
X92060Y31160D02*
X92080Y31200D01*
X92060Y31240D01*
X92100Y31220D01*
X92140Y31240D01*
X92120Y31200D01*
X92140Y31160D01*
X92100Y31180D01*
X92060Y31160D01*
X92020Y30120D02*
X92060Y30200D01*
X92020Y30280D01*
X92100Y30240D01*
X92180Y30280D01*
X92140Y30200D01*
X92180Y30120D01*
X92100Y30160D01*
X92020Y30120D01*
X92060Y30160D02*
X92080Y30200D01*
X92060Y30240D01*
X92100Y30220D01*
X92140Y30240D01*
X92120Y30200D01*
X92140Y30160D01*
X92100Y30180D01*
X92060Y30160D01*
X92020Y29120D02*
X92060Y29200D01*
X92020Y29280D01*
X92100Y29240D01*
X92180Y29280D01*
X92140Y29200D01*
X92180Y29120D01*
X92100Y29160D01*
X92020Y29120D01*
X92060Y29160D02*
X92080Y29200D01*
X92060Y29240D01*
X92100Y29220D01*
X92140Y29240D01*
X92120Y29200D01*
X92140Y29160D01*
X92100Y29180D01*
X92060Y29160D01*
X92020Y28120D02*
X92060Y28200D01*
X92020Y28280D01*
X92100Y28240D01*
X92180Y28280D01*
X92140Y28200D01*
X92180Y28120D01*
X92100Y28160D01*
X92020Y28120D01*
X92060Y28160D02*
X92080Y28200D01*
X92060Y28240D01*
X92100Y28220D01*
X92140Y28240D01*
X92120Y28200D01*
X92140Y28160D01*
X92100Y28180D01*
X92060Y28160D01*
X92020Y27120D02*
X92060Y27200D01*
X92020Y27280D01*
X92100Y27240D01*
X92180Y27280D01*
X92140Y27200D01*
X92180Y27120D01*
X92100Y27160D01*
X92020Y27120D01*
X92060Y27160D02*
X92080Y27200D01*
X92060Y27240D01*
X92100Y27220D01*
X92140Y27240D01*
X92120Y27200D01*
X92140Y27160D01*
X92100Y27180D01*
X92060Y27160D01*
X92020Y26120D02*
X92060Y26200D01*
X92020Y26280D01*
X92100Y26240D01*
X92180Y26280D01*
X92140Y26200D01*
X92180Y26120D01*
X92100Y26160D01*
X92020Y26120D01*
X92060Y26160D02*
X92080Y26200D01*
X92060Y26240D01*
X92100Y26220D01*
X92140Y26240D01*
X92120Y26200D01*
X92140Y26160D01*
X92100Y26180D01*
X92060Y26160D01*
X92020Y42120D02*
X92060Y42200D01*
X92020Y42280D01*
X92100Y42240D01*
X92180Y42280D01*
X92140Y42200D01*
X92180Y42120D01*
X92100Y42160D01*
X92020Y42120D01*
X92060Y42160D02*
X92080Y42200D01*
X92060Y42240D01*
X92100Y42220D01*
X92140Y42240D01*
X92120Y42200D01*
X92140Y42160D01*
X92100Y42180D01*
X92060Y42160D01*
X92020Y41120D02*
X92060Y41200D01*
X92020Y41280D01*
X92100Y41240D01*
X92180Y41280D01*
X92140Y41200D01*
X92180Y41120D01*
X92100Y41160D01*
X92020Y41120D01*
X92060Y41160D02*
X92080Y41200D01*
X92060Y41240D01*
X92100Y41220D01*
X92140Y41240D01*
X92120Y41200D01*
X92140Y41160D01*
X92100Y41180D01*
X92060Y41160D01*
X92020Y40120D02*
X92060Y40200D01*
X92020Y40280D01*
X92100Y40240D01*
X92180Y40280D01*
X92140Y40200D01*
X92180Y40120D01*
X92100Y40160D01*
X92020Y40120D01*
X92060Y40160D02*
X92080Y40200D01*
X92060Y40240D01*
X92100Y40220D01*
X92140Y40240D01*
X92120Y40200D01*
X92140Y40160D01*
X92100Y40180D01*
X92060Y40160D01*
X92020Y39120D02*
X92060Y39200D01*
X92020Y39280D01*
X92100Y39240D01*
X92180Y39280D01*
X92140Y39200D01*
X92180Y39120D01*
X92100Y39160D01*
X92020Y39120D01*
X92060Y39160D02*
X92080Y39200D01*
X92060Y39240D01*
X92100Y39220D01*
X92140Y39240D01*
X92120Y39200D01*
X92140Y39160D01*
X92100Y39180D01*
X92060Y39160D01*
X92020Y38120D02*
X92060Y38200D01*
X92020Y38280D01*
X92100Y38240D01*
X92180Y38280D01*
X92140Y38200D01*
X92180Y38120D01*
X92100Y38160D01*
X92020Y38120D01*
X92060Y38160D02*
X92080Y38200D01*
X92060Y38240D01*
X92100Y38220D01*
X92140Y38240D01*
X92120Y38200D01*
X92140Y38160D01*
X92100Y38180D01*
X92060Y38160D01*
X92020Y37120D02*
X92060Y37200D01*
X92020Y37280D01*
X92100Y37240D01*
X92180Y37280D01*
X92140Y37200D01*
X92180Y37120D01*
X92100Y37160D01*
X92020Y37120D01*
X92060Y37160D02*
X92080Y37200D01*
X92060Y37240D01*
X92100Y37220D01*
X92140Y37240D01*
X92120Y37200D01*
X92140Y37160D01*
X92100Y37180D01*
X92060Y37160D01*
X92020Y36120D02*
X92060Y36200D01*
X92020Y36280D01*
X92100Y36240D01*
X92180Y36280D01*
X92140Y36200D01*
X92180Y36120D01*
X92100Y36160D01*
X92020Y36120D01*
X92060Y36160D02*
X92080Y36200D01*
X92060Y36240D01*
X92100Y36220D01*
X92140Y36240D01*
X92120Y36200D01*
X92140Y36160D01*
X92100Y36180D01*
X92060Y36160D01*
X92020Y35120D02*
X92060Y35200D01*
X92020Y35280D01*
X92100Y35240D01*
X92180Y35280D01*
X92140Y35200D01*
X92180Y35120D01*
X92100Y35160D01*
X92020Y35120D01*
X92060Y35160D02*
X92080Y35200D01*
X92060Y35240D01*
X92100Y35220D01*
X92140Y35240D01*
X92120Y35200D01*
X92140Y35160D01*
X92100Y35180D01*
X92060Y35160D01*
X73020Y22620D02*
X73060Y22700D01*
X73020Y22780D01*
X73100Y22740D01*
X73180Y22780D01*
X73140Y22700D01*
X73180Y22620D01*
X73100Y22660D01*
X73020Y22620D01*
X73060Y22660D02*
X73080Y22700D01*
X73060Y22740D01*
X73100Y22720D01*
X73140Y22740D01*
X73120Y22700D01*
X73140Y22660D01*
X73100Y22680D01*
X73060Y22660D01*
X73020Y21620D02*
X73060Y21700D01*
X73020Y21780D01*
X73100Y21740D01*
X73180Y21780D01*
X73140Y21700D01*
X73180Y21620D01*
X73100Y21660D01*
X73020Y21620D01*
X73060Y21660D02*
X73080Y21700D01*
X73060Y21740D01*
X73100Y21720D01*
X73140Y21740D01*
X73120Y21700D01*
X73140Y21660D01*
X73100Y21680D01*
X73060Y21660D01*
X73020Y20620D02*
X73060Y20700D01*
X73020Y20780D01*
X73100Y20740D01*
X73180Y20780D01*
X73140Y20700D01*
X73180Y20620D01*
X73100Y20660D01*
X73020Y20620D01*
X73060Y20660D02*
X73080Y20700D01*
X73060Y20740D01*
X73100Y20720D01*
X73140Y20740D01*
X73120Y20700D01*
X73140Y20660D01*
X73100Y20680D01*
X73060Y20660D01*
X73020Y19620D02*
X73060Y19700D01*
X73020Y19780D01*
X73100Y19740D01*
X73180Y19780D01*
X73140Y19700D01*
X73180Y19620D01*
X73100Y19660D01*
X73020Y19620D01*
X73060Y19660D02*
X73080Y19700D01*
X73060Y19740D01*
X73100Y19720D01*
X73140Y19740D01*
X73120Y19700D01*
X73140Y19660D01*
X73100Y19680D01*
X73060Y19660D01*
X73020Y18620D02*
X73060Y18700D01*
X73020Y18780D01*
X73100Y18740D01*
X73180Y18780D01*
X73140Y18700D01*
X73180Y18620D01*
X73100Y18660D01*
X73020Y18620D01*
X73060Y18660D02*
X73080Y18700D01*
X73060Y18740D01*
X73100Y18720D01*
X73140Y18740D01*
X73120Y18700D01*
X73140Y18660D01*
X73100Y18680D01*
X73060Y18660D01*
X73020Y17620D02*
X73060Y17700D01*
X73020Y17780D01*
X73100Y17740D01*
X73180Y17780D01*
X73140Y17700D01*
X73180Y17620D01*
X73100Y17660D01*
X73020Y17620D01*
X73060Y17660D02*
X73080Y17700D01*
X73060Y17740D01*
X73100Y17720D01*
X73140Y17740D01*
X73120Y17700D01*
X73140Y17660D01*
X73100Y17680D01*
X73060Y17660D01*
X73020Y16620D02*
X73060Y16700D01*
X73020Y16780D01*
X73100Y16740D01*
X73180Y16780D01*
X73140Y16700D01*
X73180Y16620D01*
X73100Y16660D01*
X73020Y16620D01*
X73060Y16660D02*
X73080Y16700D01*
X73060Y16740D01*
X73100Y16720D01*
X73140Y16740D01*
X73120Y16700D01*
X73140Y16660D01*
X73100Y16680D01*
X73060Y16660D01*
X73020Y15620D02*
X73060Y15700D01*
X73020Y15780D01*
X73100Y15740D01*
X73180Y15780D01*
X73140Y15700D01*
X73180Y15620D01*
X73100Y15660D01*
X73020Y15620D01*
X73060Y15660D02*
X73080Y15700D01*
X73060Y15740D01*
X73100Y15720D01*
X73140Y15740D01*
X73120Y15700D01*
X73140Y15660D01*
X73100Y15680D01*
X73060Y15660D01*
X73020Y31120D02*
X73060Y31200D01*
X73020Y31280D01*
X73100Y31240D01*
X73180Y31280D01*
X73140Y31200D01*
X73180Y31120D01*
X73100Y31160D01*
X73020Y31120D01*
X73060Y31160D02*
X73080Y31200D01*
X73060Y31240D01*
X73100Y31220D01*
X73140Y31240D01*
X73120Y31200D01*
X73140Y31160D01*
X73100Y31180D01*
X73060Y31160D01*
X73020Y30120D02*
X73060Y30200D01*
X73020Y30280D01*
X73100Y30240D01*
X73180Y30280D01*
X73140Y30200D01*
X73180Y30120D01*
X73100Y30160D01*
X73020Y30120D01*
X73060Y30160D02*
X73080Y30200D01*
X73060Y30240D01*
X73100Y30220D01*
X73140Y30240D01*
X73120Y30200D01*
X73140Y30160D01*
X73100Y30180D01*
X73060Y30160D01*
X73020Y29120D02*
X73060Y29200D01*
X73020Y29280D01*
X73100Y29240D01*
X73180Y29280D01*
X73140Y29200D01*
X73180Y29120D01*
X73100Y29160D01*
X73020Y29120D01*
X73060Y29160D02*
X73080Y29200D01*
X73060Y29240D01*
X73100Y29220D01*
X73140Y29240D01*
X73120Y29200D01*
X73140Y29160D01*
X73100Y29180D01*
X73060Y29160D01*
X73020Y28120D02*
X73060Y28200D01*
X73020Y28280D01*
X73100Y28240D01*
X73180Y28280D01*
X73140Y28200D01*
X73180Y28120D01*
X73100Y28160D01*
X73020Y28120D01*
X73060Y28160D02*
X73080Y28200D01*
X73060Y28240D01*
X73100Y28220D01*
X73140Y28240D01*
X73120Y28200D01*
X73140Y28160D01*
X73100Y28180D01*
X73060Y28160D01*
X73020Y27120D02*
X73060Y27200D01*
X73020Y27280D01*
X73100Y27240D01*
X73180Y27280D01*
X73140Y27200D01*
X73180Y27120D01*
X73100Y27160D01*
X73020Y27120D01*
X73060Y27160D02*
X73080Y27200D01*
X73060Y27240D01*
X73100Y27220D01*
X73140Y27240D01*
X73120Y27200D01*
X73140Y27160D01*
X73100Y27180D01*
X73060Y27160D01*
X73020Y26120D02*
X73060Y26200D01*
X73020Y26280D01*
X73100Y26240D01*
X73180Y26280D01*
X73140Y26200D01*
X73180Y26120D01*
X73100Y26160D01*
X73020Y26120D01*
X73060Y26160D02*
X73080Y26200D01*
X73060Y26240D01*
X73100Y26220D01*
X73140Y26240D01*
X73120Y26200D01*
X73140Y26160D01*
X73100Y26180D01*
X73060Y26160D01*
X73020Y25120D02*
X73060Y25200D01*
X73020Y25280D01*
X73100Y25240D01*
X73180Y25280D01*
X73140Y25200D01*
X73180Y25120D01*
X73100Y25160D01*
X73020Y25120D01*
X73060Y25160D02*
X73080Y25200D01*
X73060Y25240D01*
X73100Y25220D01*
X73140Y25240D01*
X73120Y25200D01*
X73140Y25160D01*
X73100Y25180D01*
X73060Y25160D01*
X73020Y24120D02*
X73060Y24200D01*
X73020Y24280D01*
X73100Y24240D01*
X73180Y24280D01*
X73140Y24200D01*
X73180Y24120D01*
X73100Y24160D01*
X73020Y24120D01*
X73060Y24160D02*
X73080Y24200D01*
X73060Y24240D01*
X73100Y24220D01*
X73140Y24240D01*
X73120Y24200D01*
X73140Y24160D01*
X73100Y24180D01*
X73060Y24160D01*
X92020Y19120D02*
X92060Y19200D01*
X92020Y19280D01*
X92100Y19240D01*
X92180Y19280D01*
X92140Y19200D01*
X92180Y19120D01*
X92100Y19160D01*
X92020Y19120D01*
X92060Y19160D02*
X92080Y19200D01*
X92060Y19240D01*
X92100Y19220D01*
X92140Y19240D01*
X92120Y19200D01*
X92140Y19160D01*
X92100Y19180D01*
X92060Y19160D01*
X92020Y20120D02*
X92060Y20200D01*
X92020Y20280D01*
X92100Y20240D01*
X92180Y20280D01*
X92140Y20200D01*
X92180Y20120D01*
X92100Y20160D01*
X92020Y20120D01*
X92060Y20160D02*
X92080Y20200D01*
X92060Y20240D01*
X92100Y20220D01*
X92140Y20240D01*
X92120Y20200D01*
X92140Y20160D01*
X92100Y20180D01*
X92060Y20160D01*
X92020Y21120D02*
X92060Y21200D01*
X92020Y21280D01*
X92100Y21240D01*
X92180Y21280D01*
X92140Y21200D01*
X92180Y21120D01*
X92100Y21160D01*
X92020Y21120D01*
X92060Y21160D02*
X92080Y21200D01*
X92060Y21240D01*
X92100Y21220D01*
X92140Y21240D01*
X92120Y21200D01*
X92140Y21160D01*
X92100Y21180D01*
X92060Y21160D01*
X92020Y22120D02*
X92060Y22200D01*
X92020Y22280D01*
X92100Y22240D01*
X92180Y22280D01*
X92140Y22200D01*
X92180Y22120D01*
X92100Y22160D01*
X92020Y22120D01*
X92060Y22160D02*
X92080Y22200D01*
X92060Y22240D01*
X92100Y22220D01*
X92140Y22240D01*
X92120Y22200D01*
X92140Y22160D01*
X92100Y22180D01*
X92060Y22160D01*
X92020Y23120D02*
X92060Y23200D01*
X92020Y23280D01*
X92100Y23240D01*
X92180Y23280D01*
X92140Y23200D01*
X92180Y23120D01*
X92100Y23160D01*
X92020Y23120D01*
X92060Y23160D02*
X92080Y23200D01*
X92060Y23240D01*
X92100Y23220D01*
X92140Y23240D01*
X92120Y23200D01*
X92140Y23160D01*
X92100Y23180D01*
X92060Y23160D01*
X92020Y24120D02*
X92060Y24200D01*
X92020Y24280D01*
X92100Y24240D01*
X92180Y24280D01*
X92140Y24200D01*
X92180Y24120D01*
X92100Y24160D01*
X92020Y24120D01*
X92060Y24160D02*
X92080Y24200D01*
X92060Y24240D01*
X92100Y24220D01*
X92140Y24240D01*
X92120Y24200D01*
X92140Y24160D01*
X92100Y24180D01*
X92060Y24160D01*
X73020Y33120D02*
X73060Y33200D01*
X73020Y33280D01*
X73100Y33240D01*
X73180Y33280D01*
X73140Y33200D01*
X73180Y33120D01*
X73100Y33160D01*
X73020Y33120D01*
X73060Y33160D02*
X73080Y33200D01*
X73060Y33240D01*
X73100Y33220D01*
X73140Y33240D01*
X73120Y33200D01*
X73140Y33160D01*
X73100Y33180D01*
X73060Y33160D01*
X73020Y34120D02*
X73060Y34200D01*
X73020Y34280D01*
X73100Y34240D01*
X73180Y34280D01*
X73140Y34200D01*
X73180Y34120D01*
X73100Y34160D01*
X73020Y34120D01*
X73060Y34160D02*
X73080Y34200D01*
X73060Y34240D01*
X73100Y34220D01*
X73140Y34240D01*
X73120Y34200D01*
X73140Y34160D01*
X73100Y34180D01*
X73060Y34160D01*
X73020Y35120D02*
X73060Y35200D01*
X73020Y35280D01*
X73100Y35240D01*
X73180Y35280D01*
X73140Y35200D01*
X73180Y35120D01*
X73100Y35160D01*
X73020Y35120D01*
X73060Y35160D02*
X73080Y35200D01*
X73060Y35240D01*
X73100Y35220D01*
X73140Y35240D01*
X73120Y35200D01*
X73140Y35160D01*
X73100Y35180D01*
X73060Y35160D01*
X73020Y36120D02*
X73060Y36200D01*
X73020Y36280D01*
X73100Y36240D01*
X73180Y36280D01*
X73140Y36200D01*
X73180Y36120D01*
X73100Y36160D01*
X73020Y36120D01*
X73060Y36160D02*
X73080Y36200D01*
X73060Y36240D01*
X73100Y36220D01*
X73140Y36240D01*
X73120Y36200D01*
X73140Y36160D01*
X73100Y36180D01*
X73060Y36160D01*
X73020Y37120D02*
X73060Y37200D01*
X73020Y37280D01*
X73100Y37240D01*
X73180Y37280D01*
X73140Y37200D01*
X73180Y37120D01*
X73100Y37160D01*
X73020Y37120D01*
X73060Y37160D02*
X73080Y37200D01*
X73060Y37240D01*
X73100Y37220D01*
X73140Y37240D01*
X73120Y37200D01*
X73140Y37160D01*
X73100Y37180D01*
X73060Y37160D01*
X73020Y38120D02*
X73060Y38200D01*
X73020Y38280D01*
X73100Y38240D01*
X73180Y38280D01*
X73140Y38200D01*
X73180Y38120D01*
X73100Y38160D01*
X73020Y38120D01*
X73060Y38160D02*
X73080Y38200D01*
X73060Y38240D01*
X73100Y38220D01*
X73140Y38240D01*
X73120Y38200D01*
X73140Y38160D01*
X73100Y38180D01*
X73060Y38160D01*
X73020Y39120D02*
X73060Y39200D01*
X73020Y39280D01*
X73100Y39240D01*
X73180Y39280D01*
X73140Y39200D01*
X73180Y39120D01*
X73100Y39160D01*
X73020Y39120D01*
X73060Y39160D02*
X73080Y39200D01*
X73060Y39240D01*
X73100Y39220D01*
X73140Y39240D01*
X73120Y39200D01*
X73140Y39160D01*
X73100Y39180D01*
X73060Y39160D01*
X73020Y40120D02*
X73060Y40200D01*
X73020Y40280D01*
X73100Y40240D01*
X73180Y40280D01*
X73140Y40200D01*
X73180Y40120D01*
X73100Y40160D01*
X73020Y40120D01*
X73060Y40160D02*
X73080Y40200D01*
X73060Y40240D01*
X73100Y40220D01*
X73140Y40240D01*
X73120Y40200D01*
X73140Y40160D01*
X73100Y40180D01*
X73060Y40160D01*
X87000Y4300D02*
Y4260D01*
X87080D01*
Y4300D01*
X87120D01*
Y4380D01*
X87080D01*
Y4420D01*
X87000D01*
Y4380D01*
X86960D01*
Y4300D01*
X87000D01*
X86000D02*
Y4260D01*
X86080D01*
Y4300D01*
X86120D01*
Y4380D01*
X86080D01*
Y4420D01*
X86000D01*
Y4380D01*
X85960D01*
Y4300D01*
X86000D01*
X85000D02*
Y4260D01*
X85080D01*
Y4300D01*
X85120D01*
Y4380D01*
X85080D01*
Y4420D01*
X85000D01*
Y4380D01*
X84960D01*
Y4300D01*
X85000D01*
X80941Y2400D02*
X80861Y2560D01*
X81021D01*
X80941Y2400D01*
X85059D02*
X84979Y2560D01*
X85139D01*
X85059Y2400D01*
X43859Y55420D02*
X43779Y55580D01*
X43939D01*
X43859Y55420D01*
X39741D02*
X39661Y55580D01*
X39821D01*
X39741Y55420D01*
X40450Y43260D02*
Y43220D01*
X40530D01*
Y43260D01*
X40570D01*
Y43340D01*
X40530D01*
Y43380D01*
X40450D01*
Y43340D01*
X40410D01*
Y43260D01*
X40450D01*
X40470Y43280D02*
Y43260D01*
X40510D01*
Y43280D01*
X40530D01*
Y43320D01*
X40510D01*
Y43340D01*
X40470D01*
Y43320D01*
X40450D01*
Y43280D01*
X40470D01*
X115786Y24864D02*
Y24824D01*
X115866D01*
Y24864D01*
X115906D01*
Y24944D01*
X115866D01*
Y24984D01*
X115786D01*
Y24944D01*
X115746D01*
Y24864D01*
X115786D01*
X115806Y24884D02*
Y24864D01*
X115846D01*
Y24884D01*
X115866D01*
Y24924D01*
X115846D01*
Y24944D01*
X115806D01*
Y24924D01*
X115786D01*
Y24884D01*
X115806D01*
X44480Y18910D02*
Y18870D01*
X44560D01*
Y18910D01*
X44600D01*
Y18990D01*
X44560D01*
Y19030D01*
X44480D01*
Y18990D01*
X44440D01*
Y18910D01*
X44480D01*
X44500Y18930D02*
Y18910D01*
X44540D01*
Y18930D01*
X44560D01*
Y18970D01*
X44540D01*
Y18990D01*
X44500D01*
Y18970D01*
X44480D01*
Y18930D01*
X44500D01*
X43950Y18630D02*
Y18590D01*
X44030D01*
Y18630D01*
X44070D01*
Y18710D01*
X44030D01*
Y18750D01*
X43950D01*
Y18710D01*
X43910D01*
Y18630D01*
X43950D01*
X43970Y18650D02*
Y18630D01*
X44010D01*
Y18650D01*
X44030D01*
Y18690D01*
X44010D01*
Y18710D01*
X43970D01*
Y18690D01*
X43950D01*
Y18650D01*
X43970D01*
X66420Y18910D02*
Y18870D01*
X66500D01*
Y18910D01*
X66540D01*
Y18990D01*
X66500D01*
Y19030D01*
X66420D01*
Y18990D01*
X66380D01*
Y18910D01*
X66420D01*
X66440Y18930D02*
Y18910D01*
X66480D01*
Y18930D01*
X66500D01*
Y18970D01*
X66480D01*
Y18990D01*
X66440D01*
Y18970D01*
X66420D01*
Y18930D01*
X66440D01*
X66020Y18690D02*
Y18650D01*
X66100D01*
Y18690D01*
X66140D01*
Y18770D01*
X66100D01*
Y18810D01*
X66020D01*
Y18770D01*
X65980D01*
Y18690D01*
X66020D01*
X66040Y18710D02*
Y18690D01*
X66080D01*
Y18710D01*
X66100D01*
Y18750D01*
X66080D01*
Y18770D01*
X66040D01*
Y18750D01*
X66020D01*
Y18710D01*
X66040D01*
X134020Y18890D02*
Y18850D01*
X134100D01*
Y18890D01*
X134140D01*
Y18970D01*
X134100D01*
Y19010D01*
X134020D01*
Y18970D01*
X133980D01*
Y18890D01*
X134020D01*
X134040Y18910D02*
Y18890D01*
X134080D01*
Y18910D01*
X134100D01*
Y18950D01*
X134080D01*
Y18970D01*
X134040D01*
Y18950D01*
X134020D01*
Y18910D01*
X134040D01*
X133630Y18690D02*
Y18650D01*
X133710D01*
Y18690D01*
X133750D01*
Y18770D01*
X133710D01*
Y18810D01*
X133630D01*
Y18770D01*
X133590D01*
Y18690D01*
X133630D01*
X133650Y18710D02*
Y18690D01*
X133690D01*
Y18710D01*
X133710D01*
Y18750D01*
X133690D01*
Y18770D01*
X133650D01*
Y18750D01*
X133630D01*
Y18710D01*
X133650D01*
X112990Y18890D02*
Y18850D01*
X113070D01*
Y18890D01*
X113110D01*
Y18970D01*
X113070D01*
Y19010D01*
X112990D01*
Y18970D01*
X112950D01*
Y18890D01*
X112990D01*
X113010Y18910D02*
Y18890D01*
X113050D01*
Y18910D01*
X113070D01*
Y18950D01*
X113050D01*
Y18970D01*
X113010D01*
Y18950D01*
X112990D01*
Y18910D01*
X113010D01*
X112530Y18700D02*
Y18660D01*
X112610D01*
Y18700D01*
X112650D01*
Y18780D01*
X112610D01*
Y18820D01*
X112530D01*
Y18780D01*
X112490D01*
Y18700D01*
X112530D01*
X112550Y18720D02*
Y18700D01*
X112590D01*
Y18720D01*
X112610D01*
Y18760D01*
X112590D01*
Y18780D01*
X112550D01*
Y18760D01*
X112530D01*
Y18720D01*
X112550D01*
X145630Y16400D02*
Y16360D01*
X145710D01*
Y16400D01*
X145750D01*
Y16480D01*
X145710D01*
Y16520D01*
X145630D01*
Y16480D01*
X145590D01*
Y16400D01*
X145630D01*
X145650Y16420D02*
Y16400D01*
X145690D01*
Y16420D01*
X145710D01*
Y16460D01*
X145690D01*
Y16480D01*
X145650D01*
Y16460D01*
X145630D01*
Y16420D01*
X145650D01*
X145630Y16840D02*
Y16800D01*
X145710D01*
Y16840D01*
X145750D01*
Y16920D01*
X145710D01*
Y16960D01*
X145630D01*
Y16920D01*
X145590D01*
Y16840D01*
X145630D01*
X145650Y16860D02*
Y16840D01*
X145690D01*
Y16860D01*
X145710D01*
Y16900D01*
X145690D01*
Y16920D01*
X145650D01*
Y16900D01*
X145630D01*
Y16860D01*
X145650D01*
X144520Y17340D02*
Y17300D01*
X144600D01*
Y17340D01*
X144640D01*
Y17420D01*
X144600D01*
Y17460D01*
X144520D01*
Y17420D01*
X144480D01*
Y17340D01*
X144520D01*
X144540Y17360D02*
Y17340D01*
X144580D01*
Y17360D01*
X144600D01*
Y17400D01*
X144580D01*
Y17420D01*
X144540D01*
Y17400D01*
X144520D01*
Y17360D01*
X144540D01*
X144520Y17820D02*
Y17780D01*
X144600D01*
Y17820D01*
X144640D01*
Y17900D01*
X144600D01*
Y17940D01*
X144520D01*
Y17900D01*
X144480D01*
Y17820D01*
X144520D01*
X144540Y17840D02*
Y17820D01*
X144580D01*
Y17840D01*
X144600D01*
Y17880D01*
X144580D01*
Y17900D01*
X144540D01*
Y17880D01*
X144520D01*
Y17840D01*
X144540D01*
X155840Y18760D02*
Y18720D01*
X155920D01*
Y18760D01*
X155960D01*
Y18840D01*
X155920D01*
Y18880D01*
X155840D01*
Y18840D01*
X155800D01*
Y18760D01*
X155840D01*
X155860Y18780D02*
Y18760D01*
X155900D01*
Y18780D01*
X155920D01*
Y18820D01*
X155900D01*
Y18840D01*
X155860D01*
Y18820D01*
X155840D01*
Y18780D01*
X155860D01*
X156240Y18910D02*
Y18870D01*
X156320D01*
Y18910D01*
X156360D01*
Y18990D01*
X156320D01*
Y19030D01*
X156240D01*
Y18990D01*
X156200D01*
Y18910D01*
X156240D01*
X156260Y18930D02*
Y18910D01*
X156300D01*
Y18930D01*
X156320D01*
Y18970D01*
X156300D01*
Y18990D01*
X156260D01*
Y18970D01*
X156240D01*
Y18930D01*
X156260D01*
X153307Y7727D02*
Y7687D01*
X153387D01*
Y7727D01*
X153427D01*
Y7807D01*
X153387D01*
Y7847D01*
X153307D01*
Y7807D01*
X153267D01*
Y7727D01*
X153307D01*
X153327Y7747D02*
Y7727D01*
X153367D01*
Y7747D01*
X153387D01*
Y7787D01*
X153367D01*
Y7807D01*
X153327D01*
Y7787D01*
X153307D01*
Y7747D01*
X153327D01*
X153307Y7335D02*
Y7295D01*
X153387D01*
Y7335D01*
X153427D01*
Y7415D01*
X153387D01*
Y7455D01*
X153307D01*
Y7415D01*
X153267D01*
Y7335D01*
X153307D01*
X153327Y7355D02*
Y7335D01*
X153367D01*
Y7355D01*
X153387D01*
Y7395D01*
X153367D01*
Y7415D01*
X153327D01*
Y7395D01*
X153307D01*
Y7355D01*
X153327D01*
X153307Y6943D02*
Y6903D01*
X153387D01*
Y6943D01*
X153427D01*
Y7023D01*
X153387D01*
Y7063D01*
X153307D01*
Y7023D01*
X153267D01*
Y6943D01*
X153307D01*
X153327Y6963D02*
Y6943D01*
X153367D01*
Y6963D01*
X153387D01*
Y7003D01*
X153367D01*
Y7023D01*
X153327D01*
Y7003D01*
X153307D01*
Y6963D01*
X153327D01*
X122720Y17820D02*
Y17780D01*
X122800D01*
Y17820D01*
X122840D01*
Y17900D01*
X122800D01*
Y17940D01*
X122720D01*
Y17900D01*
X122680D01*
Y17820D01*
X122720D01*
X122740Y17840D02*
Y17820D01*
X122780D01*
Y17840D01*
X122800D01*
Y17880D01*
X122780D01*
Y17900D01*
X122740D01*
Y17880D01*
X122720D01*
Y17840D01*
X122740D01*
X122720Y17340D02*
Y17300D01*
X122800D01*
Y17340D01*
X122840D01*
Y17420D01*
X122800D01*
Y17460D01*
X122720D01*
Y17420D01*
X122680D01*
Y17340D01*
X122720D01*
X122740Y17360D02*
Y17340D01*
X122780D01*
Y17360D01*
X122800D01*
Y17400D01*
X122780D01*
Y17420D01*
X122740D01*
Y17400D01*
X122720D01*
Y17360D01*
X122740D01*
X123830Y16840D02*
Y16800D01*
X123910D01*
Y16840D01*
X123950D01*
Y16920D01*
X123910D01*
Y16960D01*
X123830D01*
Y16920D01*
X123790D01*
Y16840D01*
X123830D01*
X123850Y16860D02*
Y16840D01*
X123890D01*
Y16860D01*
X123910D01*
Y16900D01*
X123890D01*
Y16920D01*
X123850D01*
Y16900D01*
X123830D01*
Y16860D01*
X123850D01*
X123830Y16400D02*
Y16360D01*
X123910D01*
Y16400D01*
X123950D01*
Y16480D01*
X123910D01*
Y16520D01*
X123830D01*
Y16480D01*
X123790D01*
Y16400D01*
X123830D01*
X123850Y16420D02*
Y16400D01*
X123890D01*
Y16420D01*
X123910D01*
Y16460D01*
X123890D01*
Y16480D01*
X123850D01*
Y16460D01*
X123830D01*
Y16420D01*
X123850D01*
X131207Y6943D02*
Y6903D01*
X131287D01*
Y6943D01*
X131327D01*
Y7023D01*
X131287D01*
Y7063D01*
X131207D01*
Y7023D01*
X131167D01*
Y6943D01*
X131207D01*
X131227Y6963D02*
Y6943D01*
X131267D01*
Y6963D01*
X131287D01*
Y7003D01*
X131267D01*
Y7023D01*
X131227D01*
Y7003D01*
X131207D01*
Y6963D01*
X131227D01*
X131207Y7335D02*
Y7295D01*
X131287D01*
Y7335D01*
X131327D01*
Y7415D01*
X131287D01*
Y7455D01*
X131207D01*
Y7415D01*
X131167D01*
Y7335D01*
X131207D01*
X131227Y7355D02*
Y7335D01*
X131267D01*
Y7355D01*
X131287D01*
Y7395D01*
X131267D01*
Y7415D01*
X131227D01*
Y7395D01*
X131207D01*
Y7355D01*
X131227D01*
X131207Y7727D02*
Y7687D01*
X131287D01*
Y7727D01*
X131327D01*
Y7807D01*
X131287D01*
Y7847D01*
X131207D01*
Y7807D01*
X131167D01*
Y7727D01*
X131207D01*
X131227Y7747D02*
Y7727D01*
X131267D01*
Y7747D01*
X131287D01*
Y7787D01*
X131267D01*
Y7807D01*
X131227D01*
Y7787D01*
X131207D01*
Y7747D01*
X131227D01*
X110107Y7727D02*
Y7687D01*
X110187D01*
Y7727D01*
X110227D01*
Y7807D01*
X110187D01*
Y7847D01*
X110107D01*
Y7807D01*
X110067D01*
Y7727D01*
X110107D01*
X110127Y7747D02*
Y7727D01*
X110167D01*
Y7747D01*
X110187D01*
Y7787D01*
X110167D01*
Y7807D01*
X110127D01*
Y7787D01*
X110107D01*
Y7747D01*
X110127D01*
X110107Y7335D02*
Y7295D01*
X110187D01*
Y7335D01*
X110227D01*
Y7415D01*
X110187D01*
Y7455D01*
X110107D01*
Y7415D01*
X110067D01*
Y7335D01*
X110107D01*
X110127Y7355D02*
Y7335D01*
X110167D01*
Y7355D01*
X110187D01*
Y7395D01*
X110167D01*
Y7415D01*
X110127D01*
Y7395D01*
X110107D01*
Y7355D01*
X110127D01*
X110107Y6943D02*
Y6903D01*
X110187D01*
Y6943D01*
X110227D01*
Y7023D01*
X110187D01*
Y7063D01*
X110107D01*
Y7023D01*
X110067D01*
Y6943D01*
X110107D01*
X110127Y6963D02*
Y6943D01*
X110167D01*
Y6963D01*
X110187D01*
Y7003D01*
X110167D01*
Y7023D01*
X110127D01*
Y7003D01*
X110107D01*
Y6963D01*
X110127D01*
X101830Y16400D02*
Y16360D01*
X101910D01*
Y16400D01*
X101950D01*
Y16480D01*
X101910D01*
Y16520D01*
X101830D01*
Y16480D01*
X101790D01*
Y16400D01*
X101830D01*
X101850Y16420D02*
Y16400D01*
X101890D01*
Y16420D01*
X101910D01*
Y16460D01*
X101890D01*
Y16480D01*
X101850D01*
Y16460D01*
X101830D01*
Y16420D01*
X101850D01*
X101830Y16840D02*
Y16800D01*
X101910D01*
Y16840D01*
X101950D01*
Y16920D01*
X101910D01*
Y16960D01*
X101830D01*
Y16920D01*
X101790D01*
Y16840D01*
X101830D01*
X101850Y16860D02*
Y16840D01*
X101890D01*
Y16860D01*
X101910D01*
Y16900D01*
X101890D01*
Y16920D01*
X101850D01*
Y16900D01*
X101830D01*
Y16860D01*
X101850D01*
X102240Y17340D02*
Y17300D01*
X102320D01*
Y17340D01*
X102360D01*
Y17420D01*
X102320D01*
Y17460D01*
X102240D01*
Y17420D01*
X102200D01*
Y17340D01*
X102240D01*
X102260Y17360D02*
Y17340D01*
X102300D01*
Y17360D01*
X102320D01*
Y17400D01*
X102300D01*
Y17420D01*
X102260D01*
Y17400D01*
X102240D01*
Y17360D01*
X102260D01*
X102240Y17790D02*
Y17750D01*
X102320D01*
Y17790D01*
X102360D01*
Y17870D01*
X102320D01*
Y17910D01*
X102240D01*
Y17870D01*
X102200D01*
Y17790D01*
X102240D01*
X102260Y17810D02*
Y17790D01*
X102300D01*
Y17810D01*
X102320D01*
Y17850D01*
X102300D01*
Y17870D01*
X102260D01*
Y17850D01*
X102240D01*
Y17810D01*
X102260D01*
X63557Y7043D02*
Y7003D01*
X63637D01*
Y7043D01*
X63677D01*
Y7123D01*
X63637D01*
Y7163D01*
X63557D01*
Y7123D01*
X63517D01*
Y7043D01*
X63557D01*
X63577Y7063D02*
Y7043D01*
X63617D01*
Y7063D01*
X63637D01*
Y7103D01*
X63617D01*
Y7123D01*
X63577D01*
Y7103D01*
X63557D01*
Y7063D01*
X63577D01*
X63557Y7435D02*
Y7395D01*
X63637D01*
Y7435D01*
X63677D01*
Y7515D01*
X63637D01*
Y7555D01*
X63557D01*
Y7515D01*
X63517D01*
Y7435D01*
X63557D01*
X63577Y7455D02*
Y7435D01*
X63617D01*
Y7455D01*
X63637D01*
Y7495D01*
X63617D01*
Y7515D01*
X63577D01*
Y7495D01*
X63557D01*
Y7455D01*
X63577D01*
X63557Y7827D02*
Y7787D01*
X63637D01*
Y7827D01*
X63677D01*
Y7907D01*
X63637D01*
Y7947D01*
X63557D01*
Y7907D01*
X63517D01*
Y7827D01*
X63557D01*
X63577Y7847D02*
Y7827D01*
X63617D01*
Y7847D01*
X63637D01*
Y7887D01*
X63617D01*
Y7907D01*
X63577D01*
Y7887D01*
X63557D01*
Y7847D01*
X63577D01*
X56040Y17790D02*
Y17750D01*
X56120D01*
Y17790D01*
X56160D01*
Y17870D01*
X56120D01*
Y17910D01*
X56040D01*
Y17870D01*
X56000D01*
Y17790D01*
X56040D01*
X56060Y17810D02*
Y17790D01*
X56100D01*
Y17810D01*
X56120D01*
Y17850D01*
X56100D01*
Y17870D01*
X56060D01*
Y17850D01*
X56040D01*
Y17810D01*
X56060D01*
X56040Y17340D02*
Y17300D01*
X56120D01*
Y17340D01*
X56160D01*
Y17420D01*
X56120D01*
Y17460D01*
X56040D01*
Y17420D01*
X56000D01*
Y17340D01*
X56040D01*
X56060Y17360D02*
Y17340D01*
X56100D01*
Y17360D01*
X56120D01*
Y17400D01*
X56100D01*
Y17420D01*
X56060D01*
Y17400D01*
X56040D01*
Y17360D01*
X56060D01*
X55630Y16840D02*
Y16800D01*
X55710D01*
Y16840D01*
X55750D01*
Y16920D01*
X55710D01*
Y16960D01*
X55630D01*
Y16920D01*
X55590D01*
Y16840D01*
X55630D01*
X55650Y16860D02*
Y16840D01*
X55690D01*
Y16860D01*
X55710D01*
Y16900D01*
X55690D01*
Y16920D01*
X55650D01*
Y16900D01*
X55630D01*
Y16860D01*
X55650D01*
X55630Y16400D02*
Y16360D01*
X55710D01*
Y16400D01*
X55750D01*
Y16480D01*
X55710D01*
Y16520D01*
X55630D01*
Y16480D01*
X55590D01*
Y16400D01*
X55630D01*
X55650Y16420D02*
Y16400D01*
X55690D01*
Y16420D01*
X55710D01*
Y16460D01*
X55690D01*
Y16480D01*
X55650D01*
Y16460D01*
X55630D01*
Y16420D01*
X55650D01*
X41257Y7827D02*
Y7787D01*
X41337D01*
Y7827D01*
X41377D01*
Y7907D01*
X41337D01*
Y7947D01*
X41257D01*
Y7907D01*
X41217D01*
Y7827D01*
X41257D01*
X41277Y7847D02*
Y7827D01*
X41317D01*
Y7847D01*
X41337D01*
Y7887D01*
X41317D01*
Y7907D01*
X41277D01*
Y7887D01*
X41257D01*
Y7847D01*
X41277D01*
X41257Y7435D02*
Y7395D01*
X41337D01*
Y7435D01*
X41377D01*
Y7515D01*
X41337D01*
Y7555D01*
X41257D01*
Y7515D01*
X41217D01*
Y7435D01*
X41257D01*
X41277Y7455D02*
Y7435D01*
X41317D01*
Y7455D01*
X41337D01*
Y7495D01*
X41317D01*
Y7515D01*
X41277D01*
Y7495D01*
X41257D01*
Y7455D01*
X41277D01*
X41257Y7043D02*
Y7003D01*
X41337D01*
Y7043D01*
X41377D01*
Y7123D01*
X41337D01*
Y7163D01*
X41257D01*
Y7123D01*
X41217D01*
Y7043D01*
X41257D01*
X41277Y7063D02*
Y7043D01*
X41317D01*
Y7063D01*
X41337D01*
Y7103D01*
X41317D01*
Y7123D01*
X41277D01*
Y7103D01*
X41257D01*
Y7063D01*
X41277D01*
X33640Y17790D02*
Y17750D01*
X33720D01*
Y17790D01*
X33760D01*
Y17870D01*
X33720D01*
Y17910D01*
X33640D01*
Y17870D01*
X33600D01*
Y17790D01*
X33640D01*
X33660Y17810D02*
Y17790D01*
X33700D01*
Y17810D01*
X33720D01*
Y17850D01*
X33700D01*
Y17870D01*
X33660D01*
Y17850D01*
X33640D01*
Y17810D01*
X33660D01*
X33640Y17340D02*
Y17300D01*
X33720D01*
Y17340D01*
X33760D01*
Y17420D01*
X33720D01*
Y17460D01*
X33640D01*
Y17420D01*
X33600D01*
Y17340D01*
X33640D01*
X33660Y17360D02*
Y17340D01*
X33700D01*
Y17360D01*
X33720D01*
Y17400D01*
X33700D01*
Y17420D01*
X33660D01*
Y17400D01*
X33640D01*
Y17360D01*
X33660D01*
X33230Y16840D02*
Y16800D01*
X33310D01*
Y16840D01*
X33350D01*
Y16920D01*
X33310D01*
Y16960D01*
X33230D01*
Y16920D01*
X33190D01*
Y16840D01*
X33230D01*
X33250Y16860D02*
Y16840D01*
X33290D01*
Y16860D01*
X33310D01*
Y16900D01*
X33290D01*
Y16920D01*
X33250D01*
Y16900D01*
X33230D01*
Y16860D01*
X33250D01*
X33230Y16400D02*
Y16360D01*
X33310D01*
Y16400D01*
X33350D01*
Y16480D01*
X33310D01*
Y16520D01*
X33230D01*
Y16480D01*
X33190D01*
Y16400D01*
X33230D01*
X33250Y16420D02*
Y16400D01*
X33290D01*
Y16420D01*
X33310D01*
Y16460D01*
X33290D01*
Y16480D01*
X33250D01*
Y16460D01*
X33230D01*
Y16420D01*
X33250D01*
X9930Y16400D02*
Y16360D01*
X10010D01*
Y16400D01*
X10050D01*
Y16480D01*
X10010D01*
Y16520D01*
X9930D01*
Y16480D01*
X9890D01*
Y16400D01*
X9930D01*
X9950Y16420D02*
Y16400D01*
X9990D01*
Y16420D01*
X10010D01*
Y16460D01*
X9990D01*
Y16480D01*
X9950D01*
Y16460D01*
X9930D01*
Y16420D01*
X9950D01*
X9930Y16840D02*
Y16800D01*
X10010D01*
Y16840D01*
X10050D01*
Y16920D01*
X10010D01*
Y16960D01*
X9930D01*
Y16920D01*
X9890D01*
Y16840D01*
X9930D01*
X9950Y16860D02*
Y16840D01*
X9990D01*
Y16860D01*
X10010D01*
Y16900D01*
X9990D01*
Y16920D01*
X9950D01*
Y16900D01*
X9930D01*
Y16860D01*
X9950D01*
X21980Y18910D02*
Y18870D01*
X22060D01*
Y18910D01*
X22100D01*
Y18990D01*
X22060D01*
Y19030D01*
X21980D01*
Y18990D01*
X21940D01*
Y18910D01*
X21980D01*
X22000Y18930D02*
Y18910D01*
X22040D01*
Y18930D01*
X22060D01*
Y18970D01*
X22040D01*
Y18990D01*
X22000D01*
Y18970D01*
X21980D01*
Y18930D01*
X22000D01*
X21610Y18540D02*
Y18500D01*
X21690D01*
Y18540D01*
X21730D01*
Y18620D01*
X21690D01*
Y18660D01*
X21610D01*
Y18620D01*
X21570D01*
Y18540D01*
X21610D01*
X21630Y18560D02*
Y18540D01*
X21670D01*
Y18560D01*
X21690D01*
Y18600D01*
X21670D01*
Y18620D01*
X21630D01*
Y18600D01*
X21610D01*
Y18560D01*
X21630D01*
X10340Y17340D02*
Y17300D01*
X10420D01*
Y17340D01*
X10460D01*
Y17420D01*
X10420D01*
Y17460D01*
X10340D01*
Y17420D01*
X10300D01*
Y17340D01*
X10340D01*
X10360Y17360D02*
Y17340D01*
X10400D01*
Y17360D01*
X10420D01*
Y17400D01*
X10400D01*
Y17420D01*
X10360D01*
Y17400D01*
X10340D01*
Y17360D01*
X10360D01*
X10340Y17790D02*
Y17750D01*
X10420D01*
Y17790D01*
X10460D01*
Y17870D01*
X10420D01*
Y17910D01*
X10340D01*
Y17870D01*
X10300D01*
Y17790D01*
X10340D01*
X10360Y17810D02*
Y17790D01*
X10400D01*
Y17810D01*
X10420D01*
Y17850D01*
X10400D01*
Y17870D01*
X10360D01*
Y17850D01*
X10340D01*
Y17810D01*
X10360D01*
X18857Y7043D02*
Y7003D01*
X18937D01*
Y7043D01*
X18977D01*
Y7123D01*
X18937D01*
Y7163D01*
X18857D01*
Y7123D01*
X18817D01*
Y7043D01*
X18857D01*
X18877Y7063D02*
Y7043D01*
X18917D01*
Y7063D01*
X18937D01*
Y7103D01*
X18917D01*
Y7123D01*
X18877D01*
Y7103D01*
X18857D01*
Y7063D01*
X18877D01*
X18857Y7435D02*
Y7395D01*
X18937D01*
Y7435D01*
X18977D01*
Y7515D01*
X18937D01*
Y7555D01*
X18857D01*
Y7515D01*
X18817D01*
Y7435D01*
X18857D01*
X18877Y7455D02*
Y7435D01*
X18917D01*
Y7455D01*
X18937D01*
Y7495D01*
X18917D01*
Y7515D01*
X18877D01*
Y7495D01*
X18857D01*
Y7455D01*
X18877D01*
X18857Y7827D02*
Y7787D01*
X18937D01*
Y7827D01*
X18977D01*
Y7907D01*
X18937D01*
Y7947D01*
X18857D01*
Y7907D01*
X18817D01*
Y7827D01*
X18857D01*
X18877Y7847D02*
Y7827D01*
X18917D01*
Y7847D01*
X18937D01*
Y7887D01*
X18917D01*
Y7907D01*
X18877D01*
Y7887D01*
X18857D01*
Y7847D01*
X18877D01*
X100650Y32970D02*
Y32930D01*
X100730D01*
Y32970D01*
X100770D01*
Y33050D01*
X100730D01*
Y33090D01*
X100650D01*
Y33050D01*
X100610D01*
Y32970D01*
X100650D01*
X100670Y32990D02*
Y32970D01*
X100710D01*
Y32990D01*
X100730D01*
Y33030D01*
X100710D01*
Y33050D01*
X100670D01*
Y33030D01*
X100650D01*
Y32990D01*
X100670D01*
X99670Y32920D02*
Y32880D01*
X99750D01*
Y32920D01*
X99790D01*
Y33000D01*
X99750D01*
Y33040D01*
X99670D01*
Y33000D01*
X99630D01*
Y32920D01*
X99670D01*
X99690Y32940D02*
Y32920D01*
X99730D01*
Y32940D01*
X99750D01*
Y32980D01*
X99730D01*
Y33000D01*
X99690D01*
Y32980D01*
X99670D01*
Y32940D01*
X99690D01*
X91870Y33830D02*
Y33790D01*
X91950D01*
Y33830D01*
X91990D01*
Y33910D01*
X91950D01*
Y33950D01*
X91870D01*
Y33910D01*
X91830D01*
Y33830D01*
X91870D01*
X91890Y33850D02*
Y33830D01*
X91930D01*
Y33850D01*
X91950D01*
Y33890D01*
X91930D01*
Y33910D01*
X91890D01*
Y33890D01*
X91870D01*
Y33850D01*
X91890D01*
X91883Y34213D02*
Y34173D01*
X91963D01*
Y34213D01*
X92003D01*
Y34293D01*
X91963D01*
Y34333D01*
X91883D01*
Y34293D01*
X91843D01*
Y34213D01*
X91883D01*
X91903Y34233D02*
Y34213D01*
X91943D01*
Y34233D01*
X91963D01*
Y34273D01*
X91943D01*
Y34293D01*
X91903D01*
Y34273D01*
X91883D01*
Y34233D01*
X91903D01*
X34970Y32730D02*
Y32690D01*
X35050D01*
Y32730D01*
X35090D01*
Y32810D01*
X35050D01*
Y32850D01*
X34970D01*
Y32810D01*
X34930D01*
Y32730D01*
X34970D01*
X34990Y32750D02*
Y32730D01*
X35030D01*
Y32750D01*
X35050D01*
Y32790D01*
X35030D01*
Y32810D01*
X34990D01*
Y32790D01*
X34970D01*
Y32750D01*
X34990D01*
X56550Y32660D02*
Y32620D01*
X56630D01*
Y32660D01*
X56670D01*
Y32740D01*
X56630D01*
Y32780D01*
X56550D01*
Y32740D01*
X56510D01*
Y32660D01*
X56550D01*
X56570Y32680D02*
Y32660D01*
X56610D01*
Y32680D01*
X56630D01*
Y32720D01*
X56610D01*
Y32740D01*
X56570D01*
Y32720D01*
X56550D01*
Y32680D01*
X56570D01*
X90540Y33470D02*
Y33430D01*
X90620D01*
Y33470D01*
X90660D01*
Y33550D01*
X90620D01*
Y33590D01*
X90540D01*
Y33550D01*
X90500D01*
Y33470D01*
X90540D01*
X90560Y33490D02*
Y33470D01*
X90600D01*
Y33490D01*
X90620D01*
Y33530D01*
X90600D01*
Y33550D01*
X90560D01*
Y33530D01*
X90540D01*
Y33490D01*
X90560D01*
X90540Y33030D02*
Y32990D01*
X90620D01*
Y33030D01*
X90660D01*
Y33110D01*
X90620D01*
Y33150D01*
X90540D01*
Y33110D01*
X90500D01*
Y33030D01*
X90540D01*
X90560Y33050D02*
Y33030D01*
X90600D01*
Y33050D01*
X90620D01*
Y33090D01*
X90600D01*
Y33110D01*
X90560D01*
Y33090D01*
X90540D01*
Y33050D01*
X90560D01*
X91160Y31820D02*
Y31780D01*
X91240D01*
Y31820D01*
X91280D01*
Y31900D01*
X91240D01*
Y31940D01*
X91160D01*
Y31900D01*
X91120D01*
Y31820D01*
X91160D01*
X91180Y31840D02*
Y31820D01*
X91220D01*
Y31840D01*
X91240D01*
Y31880D01*
X91220D01*
Y31900D01*
X91180D01*
Y31880D01*
X91160D01*
Y31840D01*
X91180D01*
X62650Y26280D02*
Y26240D01*
X62730D01*
Y26280D01*
X62770D01*
Y26360D01*
X62730D01*
Y26400D01*
X62650D01*
Y26360D01*
X62610D01*
Y26280D01*
X62650D01*
X62670Y26300D02*
Y26280D01*
X62710D01*
Y26300D01*
X62730D01*
Y26340D01*
X62710D01*
Y26360D01*
X62670D01*
Y26340D01*
X62650D01*
Y26300D01*
X62670D01*
X62870Y26680D02*
Y26640D01*
X62950D01*
Y26680D01*
X62990D01*
Y26760D01*
X62950D01*
Y26800D01*
X62870D01*
Y26760D01*
X62830D01*
Y26680D01*
X62870D01*
X62890Y26700D02*
Y26680D01*
X62930D01*
Y26700D01*
X62950D01*
Y26740D01*
X62930D01*
Y26760D01*
X62890D01*
Y26740D01*
X62870D01*
Y26700D01*
X62890D01*
X69700Y28790D02*
Y28750D01*
X69780D01*
Y28790D01*
X69820D01*
Y28870D01*
X69780D01*
Y28910D01*
X69700D01*
Y28870D01*
X69660D01*
Y28790D01*
X69700D01*
X69720Y28810D02*
Y28790D01*
X69760D01*
Y28810D01*
X69780D01*
Y28850D01*
X69760D01*
Y28870D01*
X69720D01*
Y28850D01*
X69700D01*
Y28810D01*
X69720D01*
X69710Y29280D02*
Y29240D01*
X69790D01*
Y29280D01*
X69830D01*
Y29360D01*
X69790D01*
Y29400D01*
X69710D01*
Y29360D01*
X69670D01*
Y29280D01*
X69710D01*
X69730Y29300D02*
Y29280D01*
X69770D01*
Y29300D01*
X69790D01*
Y29340D01*
X69770D01*
Y29360D01*
X69730D01*
Y29340D01*
X69710D01*
Y29300D01*
X69730D01*
X66040Y31920D02*
Y31880D01*
X66120D01*
Y31920D01*
X66160D01*
Y32000D01*
X66120D01*
Y32040D01*
X66040D01*
Y32000D01*
X66000D01*
Y31920D01*
X66040D01*
X66060Y31940D02*
Y31920D01*
X66100D01*
Y31940D01*
X66120D01*
Y31980D01*
X66100D01*
Y32000D01*
X66060D01*
Y31980D01*
X66040D01*
Y31940D01*
X66060D01*
X66050Y32320D02*
Y32280D01*
X66130D01*
Y32320D01*
X66170D01*
Y32400D01*
X66130D01*
Y32440D01*
X66050D01*
Y32400D01*
X66010D01*
Y32320D01*
X66050D01*
X66070Y32340D02*
Y32320D01*
X66110D01*
Y32340D01*
X66130D01*
Y32380D01*
X66110D01*
Y32400D01*
X66070D01*
Y32380D01*
X66050D01*
Y32340D01*
X66070D01*
X61470Y24340D02*
Y24300D01*
X61550D01*
Y24340D01*
X61590D01*
Y24420D01*
X61550D01*
Y24460D01*
X61470D01*
Y24420D01*
X61430D01*
Y24340D01*
X61470D01*
X61490Y24360D02*
Y24340D01*
X61530D01*
Y24360D01*
X61550D01*
Y24400D01*
X61530D01*
Y24420D01*
X61490D01*
Y24400D01*
X61470D01*
Y24360D01*
X61490D01*
X61696Y24019D02*
Y23979D01*
X61776D01*
Y24019D01*
X61816D01*
Y24099D01*
X61776D01*
Y24139D01*
X61696D01*
Y24099D01*
X61656D01*
Y24019D01*
X61696D01*
X61716Y24039D02*
Y24019D01*
X61756D01*
Y24039D01*
X61776D01*
Y24079D01*
X61756D01*
Y24099D01*
X61716D01*
Y24079D01*
X61696D01*
Y24039D01*
X61716D01*
X61170Y24660D02*
Y24620D01*
X61250D01*
Y24660D01*
X61290D01*
Y24740D01*
X61250D01*
Y24780D01*
X61170D01*
Y24740D01*
X61130D01*
Y24660D01*
X61170D01*
X61190Y24680D02*
Y24660D01*
X61230D01*
Y24680D01*
X61250D01*
Y24720D01*
X61230D01*
Y24740D01*
X61190D01*
Y24720D01*
X61170D01*
Y24680D01*
X61190D01*
X47950Y23960D02*
Y23920D01*
X48030D01*
Y23960D01*
X48070D01*
Y24040D01*
X48030D01*
Y24080D01*
X47950D01*
Y24040D01*
X47910D01*
Y23960D01*
X47950D01*
X47970Y23980D02*
Y23960D01*
X48010D01*
Y23980D01*
X48030D01*
Y24020D01*
X48010D01*
Y24040D01*
X47970D01*
Y24020D01*
X47950D01*
Y23980D01*
X47970D01*
X47940Y24350D02*
Y24310D01*
X48020D01*
Y24350D01*
X48060D01*
Y24430D01*
X48020D01*
Y24470D01*
X47940D01*
Y24430D01*
X47900D01*
Y24350D01*
X47940D01*
X47960Y24370D02*
Y24350D01*
X48000D01*
Y24370D01*
X48020D01*
Y24410D01*
X48000D01*
Y24430D01*
X47960D01*
Y24410D01*
X47940D01*
Y24370D01*
X47960D01*
X39100Y24350D02*
Y24310D01*
X39180D01*
Y24350D01*
X39220D01*
Y24430D01*
X39180D01*
Y24470D01*
X39100D01*
Y24430D01*
X39060D01*
Y24350D01*
X39100D01*
X39120Y24370D02*
Y24350D01*
X39160D01*
Y24370D01*
X39180D01*
Y24410D01*
X39160D01*
Y24430D01*
X39120D01*
Y24410D01*
X39100D01*
Y24370D01*
X39120D01*
X39230Y23960D02*
Y23920D01*
X39310D01*
Y23960D01*
X39350D01*
Y24040D01*
X39310D01*
Y24080D01*
X39230D01*
Y24040D01*
X39190D01*
Y23960D01*
X39230D01*
X39250Y23980D02*
Y23960D01*
X39290D01*
Y23980D01*
X39310D01*
Y24020D01*
X39290D01*
Y24040D01*
X39250D01*
Y24020D01*
X39230D01*
Y23980D01*
X39250D01*
X38930Y24770D02*
Y24730D01*
X39010D01*
Y24770D01*
X39050D01*
Y24850D01*
X39010D01*
Y24890D01*
X38930D01*
Y24850D01*
X38890D01*
Y24770D01*
X38930D01*
X38950Y24790D02*
Y24770D01*
X38990D01*
Y24790D01*
X39010D01*
Y24830D01*
X38990D01*
Y24850D01*
X38950D01*
Y24830D01*
X38930D01*
Y24790D01*
X38950D01*
X25710Y25290D02*
Y25250D01*
X25790D01*
Y25290D01*
X25830D01*
Y25370D01*
X25790D01*
Y25410D01*
X25710D01*
Y25370D01*
X25670D01*
Y25290D01*
X25710D01*
X25730Y25310D02*
Y25290D01*
X25770D01*
Y25310D01*
X25790D01*
Y25350D01*
X25770D01*
Y25370D01*
X25730D01*
Y25350D01*
X25710D01*
Y25310D01*
X25730D01*
X38170Y25550D02*
Y25510D01*
X38250D01*
Y25550D01*
X38290D01*
Y25630D01*
X38250D01*
Y25670D01*
X38170D01*
Y25630D01*
X38130D01*
Y25550D01*
X38170D01*
X38190Y25570D02*
Y25550D01*
X38230D01*
Y25570D01*
X38250D01*
Y25610D01*
X38230D01*
Y25630D01*
X38190D01*
Y25610D01*
X38170D01*
Y25570D01*
X38190D01*
X25710Y24870D02*
Y24830D01*
X25790D01*
Y24870D01*
X25830D01*
Y24950D01*
X25790D01*
Y24990D01*
X25710D01*
Y24950D01*
X25670D01*
Y24870D01*
X25710D01*
X25730Y24890D02*
Y24870D01*
X25770D01*
Y24890D01*
X25790D01*
Y24930D01*
X25770D01*
Y24950D01*
X25730D01*
Y24930D01*
X25710D01*
Y24890D01*
X25730D01*
X91125Y29585D02*
Y29545D01*
X91205D01*
Y29585D01*
X91245D01*
Y29665D01*
X91205D01*
Y29705D01*
X91125D01*
Y29665D01*
X91085D01*
Y29585D01*
X91125D01*
X91145Y29605D02*
Y29585D01*
X91185D01*
Y29605D01*
X91205D01*
Y29645D01*
X91185D01*
Y29665D01*
X91145D01*
Y29645D01*
X91125D01*
Y29605D01*
X91145D01*
X96620Y32450D02*
Y32410D01*
X96700D01*
Y32450D01*
X96740D01*
Y32530D01*
X96700D01*
Y32570D01*
X96620D01*
Y32530D01*
X96580D01*
Y32450D01*
X96620D01*
X96640Y32470D02*
Y32450D01*
X96680D01*
Y32470D01*
X96700D01*
Y32510D01*
X96680D01*
Y32530D01*
X96640D01*
Y32510D01*
X96620D01*
Y32470D01*
X96640D01*
X103290Y29262D02*
Y29223D01*
X103370D01*
Y29262D01*
X103410D01*
Y29343D01*
X103370D01*
Y29383D01*
X103290D01*
Y29343D01*
X103250D01*
Y29262D01*
X103290D01*
X103310Y29283D02*
Y29262D01*
X103350D01*
Y29283D01*
X103370D01*
Y29323D01*
X103350D01*
Y29343D01*
X103310D01*
Y29323D01*
X103290D01*
Y29283D01*
X103310D01*
X115410Y27860D02*
Y27820D01*
X115490D01*
Y27860D01*
X115530D01*
Y27940D01*
X115490D01*
Y27980D01*
X115410D01*
Y27940D01*
X115370D01*
Y27860D01*
X115410D01*
X115430Y27880D02*
Y27860D01*
X115470D01*
Y27880D01*
X115490D01*
Y27920D01*
X115470D01*
Y27940D01*
X115430D01*
Y27920D01*
X115410D01*
Y27880D01*
X115430D01*
X117140Y29262D02*
Y29223D01*
X117220D01*
Y29262D01*
X117260D01*
Y29343D01*
X117220D01*
Y29383D01*
X117140D01*
Y29343D01*
X117100D01*
Y29262D01*
X117140D01*
X117160Y29283D02*
Y29262D01*
X117200D01*
Y29283D01*
X117220D01*
Y29323D01*
X117200D01*
Y29343D01*
X117160D01*
Y29323D01*
X117140D01*
Y29283D01*
X117160D01*
X94210Y26260D02*
Y26220D01*
X94290D01*
Y26260D01*
X94330D01*
Y26340D01*
X94290D01*
Y26380D01*
X94210D01*
Y26340D01*
X94170D01*
Y26260D01*
X94210D01*
X94230Y26280D02*
Y26260D01*
X94270D01*
Y26280D01*
X94290D01*
Y26320D01*
X94270D01*
Y26340D01*
X94230D01*
Y26320D01*
X94210D01*
Y26280D01*
X94230D01*
X11000Y32750D02*
Y32710D01*
X11080D01*
Y32750D01*
X11120D01*
Y32830D01*
X11080D01*
Y32870D01*
X11000D01*
Y32830D01*
X10960D01*
Y32750D01*
X11000D01*
X11020Y32770D02*
Y32750D01*
X11060D01*
Y32770D01*
X11080D01*
Y32810D01*
X11060D01*
Y32830D01*
X11020D01*
Y32810D01*
X11000D01*
Y32770D01*
X11020D01*
X143187Y40800D02*
Y40760D01*
X143267D01*
Y40800D01*
X143307D01*
Y40880D01*
X143267D01*
Y40920D01*
X143187D01*
Y40880D01*
X143147D01*
Y40800D01*
X143187D01*
X143207Y40820D02*
Y40800D01*
X143247D01*
Y40820D01*
X143267D01*
Y40860D01*
X143247D01*
Y40880D01*
X143207D01*
Y40860D01*
X143187D01*
Y40820D01*
X143207D01*
X61640Y35750D02*
Y35710D01*
X61720D01*
Y35750D01*
X61760D01*
Y35830D01*
X61720D01*
Y35870D01*
X61640D01*
Y35830D01*
X61600D01*
Y35750D01*
X61640D01*
X61660Y35770D02*
Y35750D01*
X61700D01*
Y35770D01*
X61720D01*
Y35810D01*
X61700D01*
Y35830D01*
X61660D01*
Y35810D01*
X61640D01*
Y35770D01*
X61660D01*
X33750Y34500D02*
Y34460D01*
X33830D01*
Y34500D01*
X33870D01*
Y34580D01*
X33830D01*
Y34620D01*
X33750D01*
Y34580D01*
X33710D01*
Y34500D01*
X33750D01*
X33770Y34520D02*
Y34500D01*
X33810D01*
Y34520D01*
X33830D01*
Y34560D01*
X33810D01*
Y34580D01*
X33770D01*
Y34560D01*
X33750D01*
Y34520D01*
X33770D01*
X49603Y31514D02*
Y31474D01*
X49683D01*
Y31514D01*
X49723D01*
Y31594D01*
X49683D01*
Y31634D01*
X49603D01*
Y31594D01*
X49563D01*
Y31514D01*
X49603D01*
X49623Y31534D02*
Y31514D01*
X49663D01*
Y31534D01*
X49683D01*
Y31574D01*
X49663D01*
Y31594D01*
X49623D01*
Y31574D01*
X49603D01*
Y31534D01*
X49623D01*
X51080Y32360D02*
Y32320D01*
X51160D01*
Y32360D01*
X51200D01*
Y32440D01*
X51160D01*
Y32480D01*
X51080D01*
Y32440D01*
X51040D01*
Y32360D01*
X51080D01*
X51100Y32380D02*
Y32360D01*
X51140D01*
Y32380D01*
X51160D01*
Y32420D01*
X51140D01*
Y32440D01*
X51100D01*
Y32420D01*
X51080D01*
Y32380D01*
X51100D01*
X63110Y39200D02*
Y39160D01*
X63190D01*
Y39200D01*
X63230D01*
Y39280D01*
X63190D01*
Y39320D01*
X63110D01*
Y39280D01*
X63070D01*
Y39200D01*
X63110D01*
X63130Y39220D02*
Y39200D01*
X63170D01*
Y39220D01*
X63190D01*
Y39260D01*
X63170D01*
Y39280D01*
X63130D01*
Y39260D01*
X63110D01*
Y39220D01*
X63130D01*
X63410Y38580D02*
Y38540D01*
X63490D01*
Y38580D01*
X63530D01*
Y38660D01*
X63490D01*
Y38700D01*
X63410D01*
Y38660D01*
X63370D01*
Y38580D01*
X63410D01*
X63430Y38600D02*
Y38580D01*
X63470D01*
Y38600D01*
X63490D01*
Y38640D01*
X63470D01*
Y38660D01*
X63430D01*
Y38640D01*
X63410D01*
Y38600D01*
X63430D01*
X137650Y27860D02*
Y27820D01*
X137730D01*
Y27860D01*
X137770D01*
Y27940D01*
X137730D01*
Y27980D01*
X137650D01*
Y27940D01*
X137610D01*
Y27860D01*
X137650D01*
X137670Y27880D02*
Y27860D01*
X137710D01*
Y27880D01*
X137730D01*
Y27920D01*
X137710D01*
Y27940D01*
X137670D01*
Y27920D01*
X137650D01*
Y27880D01*
X137670D01*
X137650Y28260D02*
Y28220D01*
X137730D01*
Y28260D01*
X137770D01*
Y28340D01*
X137730D01*
Y28380D01*
X137650D01*
Y28340D01*
X137610D01*
Y28260D01*
X137650D01*
X137670Y28280D02*
Y28260D01*
X137710D01*
Y28280D01*
X137730D01*
Y28320D01*
X137710D01*
Y28340D01*
X137670D01*
Y28320D01*
X137650D01*
Y28280D01*
X137670D01*
X130350Y23460D02*
Y23420D01*
X130430D01*
Y23460D01*
X130470D01*
Y23540D01*
X130430D01*
Y23580D01*
X130350D01*
Y23540D01*
X130310D01*
Y23460D01*
X130350D01*
X130370Y23480D02*
Y23460D01*
X130410D01*
Y23480D01*
X130430D01*
Y23520D01*
X130410D01*
Y23540D01*
X130370D01*
Y23520D01*
X130350D01*
Y23480D01*
X130370D01*
X94370Y24930D02*
Y24890D01*
X94450D01*
Y24930D01*
X94490D01*
Y25010D01*
X94450D01*
Y25050D01*
X94370D01*
Y25010D01*
X94330D01*
Y24930D01*
X94370D01*
X94390Y24950D02*
Y24930D01*
X94430D01*
Y24950D01*
X94450D01*
Y24990D01*
X94430D01*
Y25010D01*
X94390D01*
Y24990D01*
X94370D01*
Y24950D01*
X94390D01*
X94650Y25210D02*
Y25170D01*
X94730D01*
Y25210D01*
X94770D01*
Y25290D01*
X94730D01*
Y25330D01*
X94650D01*
Y25290D01*
X94610D01*
Y25210D01*
X94650D01*
X94670Y25230D02*
Y25210D01*
X94710D01*
Y25230D01*
X94730D01*
Y25270D01*
X94710D01*
Y25290D01*
X94670D01*
Y25270D01*
X94650D01*
Y25230D01*
X94670D01*
X94600Y27560D02*
Y27520D01*
X94680D01*
Y27560D01*
X94720D01*
Y27640D01*
X94680D01*
Y27680D01*
X94600D01*
Y27640D01*
X94560D01*
Y27560D01*
X94600D01*
X94620Y27580D02*
Y27560D01*
X94660D01*
Y27580D01*
X94680D01*
Y27620D01*
X94660D01*
Y27640D01*
X94620D01*
Y27620D01*
X94600D01*
Y27580D01*
X94620D01*
X94600Y27110D02*
Y27070D01*
X94680D01*
Y27110D01*
X94720D01*
Y27190D01*
X94680D01*
Y27230D01*
X94600D01*
Y27190D01*
X94560D01*
Y27110D01*
X94600D01*
X94620Y27130D02*
Y27110D01*
X94660D01*
Y27130D01*
X94680D01*
Y27170D01*
X94660D01*
Y27190D01*
X94620D01*
Y27170D01*
X94600D01*
Y27130D01*
X94620D01*
X94600Y28060D02*
Y28020D01*
X94680D01*
Y28060D01*
X94720D01*
Y28140D01*
X94680D01*
Y28180D01*
X94600D01*
Y28140D01*
X94560D01*
Y28060D01*
X94600D01*
X94620Y28080D02*
Y28060D01*
X94660D01*
Y28080D01*
X94680D01*
Y28120D01*
X94660D01*
Y28140D01*
X94620D01*
Y28120D01*
X94600D01*
Y28080D01*
X94620D01*
X94367Y23663D02*
Y23623D01*
X94447D01*
Y23663D01*
X94487D01*
Y23743D01*
X94447D01*
Y23783D01*
X94367D01*
Y23743D01*
X94327D01*
Y23663D01*
X94367D01*
X94387Y23683D02*
Y23663D01*
X94427D01*
Y23683D01*
X94447D01*
Y23723D01*
X94427D01*
Y23743D01*
X94387D01*
Y23723D01*
X94367D01*
Y23683D01*
X94387D01*
X94084Y23376D02*
Y23336D01*
X94164D01*
Y23376D01*
X94204D01*
Y23456D01*
X94164D01*
Y23496D01*
X94084D01*
Y23456D01*
X94044D01*
Y23376D01*
X94084D01*
X94104Y23396D02*
Y23376D01*
X94144D01*
Y23396D01*
X94164D01*
Y23436D01*
X94144D01*
Y23456D01*
X94104D01*
Y23436D01*
X94084D01*
Y23396D01*
X94104D01*
X107450Y25210D02*
Y25170D01*
X107530D01*
Y25210D01*
X107570D01*
Y25290D01*
X107530D01*
Y25330D01*
X107450D01*
Y25290D01*
X107410D01*
Y25210D01*
X107450D01*
X107470Y25230D02*
Y25210D01*
X107510D01*
Y25230D01*
X107530D01*
Y25270D01*
X107510D01*
Y25290D01*
X107470D01*
Y25270D01*
X107450D01*
Y25230D01*
X107470D01*
X94600Y26610D02*
Y26570D01*
X94680D01*
Y26610D01*
X94720D01*
Y26690D01*
X94680D01*
Y26730D01*
X94600D01*
Y26690D01*
X94560D01*
Y26610D01*
X94600D01*
X94620Y26630D02*
Y26610D01*
X94660D01*
Y26630D01*
X94680D01*
Y26670D01*
X94660D01*
Y26690D01*
X94620D01*
Y26670D01*
X94600D01*
Y26630D01*
X94620D01*
X95890Y31130D02*
Y31090D01*
X95970D01*
Y31130D01*
X96010D01*
Y31210D01*
X95970D01*
Y31250D01*
X95890D01*
Y31210D01*
X95850D01*
Y31130D01*
X95890D01*
X95910Y31150D02*
Y31130D01*
X95950D01*
Y31150D01*
X95970D01*
Y31190D01*
X95950D01*
Y31210D01*
X95910D01*
Y31190D01*
X95890D01*
Y31150D01*
X95910D01*
X95890Y30600D02*
Y30560D01*
X95970D01*
Y30600D01*
X96010D01*
Y30680D01*
X95970D01*
Y30720D01*
X95890D01*
Y30680D01*
X95850D01*
Y30600D01*
X95890D01*
X95910Y30620D02*
Y30600D01*
X95950D01*
Y30620D01*
X95970D01*
Y30660D01*
X95950D01*
Y30680D01*
X95910D01*
Y30660D01*
X95890D01*
Y30620D01*
X95910D01*
X95890Y29600D02*
Y29560D01*
X95970D01*
Y29600D01*
X96010D01*
Y29680D01*
X95970D01*
Y29720D01*
X95890D01*
Y29680D01*
X95850D01*
Y29600D01*
X95890D01*
X95910Y29620D02*
Y29600D01*
X95950D01*
Y29620D01*
X95970D01*
Y29660D01*
X95950D01*
Y29680D01*
X95910D01*
Y29660D01*
X95890D01*
Y29620D01*
X95910D01*
X95890Y30140D02*
Y30100D01*
X95970D01*
Y30140D01*
X96010D01*
Y30220D01*
X95970D01*
Y30260D01*
X95890D01*
Y30220D01*
X95850D01*
Y30140D01*
X95890D01*
X95910Y30160D02*
Y30140D01*
X95950D01*
Y30160D01*
X95970D01*
Y30200D01*
X95950D01*
Y30220D01*
X95910D01*
Y30200D01*
X95890D01*
Y30160D01*
X95910D01*
X104860Y27560D02*
Y27520D01*
X104940D01*
Y27560D01*
X104980D01*
Y27640D01*
X104940D01*
Y27680D01*
X104860D01*
Y27640D01*
X104820D01*
Y27560D01*
X104860D01*
X104880Y27580D02*
Y27560D01*
X104920D01*
Y27580D01*
X104940D01*
Y27620D01*
X104920D01*
Y27640D01*
X104880D01*
Y27620D01*
X104860D01*
Y27580D01*
X104880D01*
X105330Y27110D02*
Y27070D01*
X105410D01*
Y27110D01*
X105450D01*
Y27190D01*
X105410D01*
Y27230D01*
X105330D01*
Y27190D01*
X105290D01*
Y27110D01*
X105330D01*
X105350Y27130D02*
Y27110D01*
X105390D01*
Y27130D01*
X105410D01*
Y27170D01*
X105390D01*
Y27190D01*
X105350D01*
Y27170D01*
X105330D01*
Y27130D01*
X105350D01*
X105750Y26610D02*
Y26570D01*
X105830D01*
Y26610D01*
X105870D01*
Y26690D01*
X105830D01*
Y26730D01*
X105750D01*
Y26690D01*
X105710D01*
Y26610D01*
X105750D01*
X105770Y26630D02*
Y26610D01*
X105810D01*
Y26630D01*
X105830D01*
Y26670D01*
X105810D01*
Y26690D01*
X105770D01*
Y26670D01*
X105750D01*
Y26630D01*
X105770D01*
X106220Y26260D02*
Y26220D01*
X106300D01*
Y26260D01*
X106340D01*
Y26340D01*
X106300D01*
Y26380D01*
X106220D01*
Y26340D01*
X106180D01*
Y26260D01*
X106220D01*
X106240Y26280D02*
Y26260D01*
X106280D01*
Y26280D01*
X106300D01*
Y26320D01*
X106280D01*
Y26340D01*
X106240D01*
Y26320D01*
X106220D01*
Y26280D01*
X106240D01*
X107890Y24770D02*
Y24730D01*
X107970D01*
Y24770D01*
X108010D01*
Y24850D01*
X107970D01*
Y24890D01*
X107890D01*
Y24850D01*
X107850D01*
Y24770D01*
X107890D01*
X107910Y24790D02*
Y24770D01*
X107950D01*
Y24790D01*
X107970D01*
Y24830D01*
X107950D01*
Y24850D01*
X107910D01*
Y24830D01*
X107890D01*
Y24790D01*
X107910D01*
X108140Y23800D02*
Y23760D01*
X108220D01*
Y23800D01*
X108260D01*
Y23880D01*
X108220D01*
Y23920D01*
X108140D01*
Y23880D01*
X108100D01*
Y23800D01*
X108140D01*
X108160Y23820D02*
Y23800D01*
X108200D01*
Y23820D01*
X108220D01*
Y23860D01*
X108200D01*
Y23880D01*
X108160D01*
Y23860D01*
X108140D01*
Y23820D01*
X108160D01*
X104420Y28060D02*
Y28020D01*
X104500D01*
Y28060D01*
X104540D01*
Y28140D01*
X104500D01*
Y28180D01*
X104420D01*
Y28140D01*
X104380D01*
Y28060D01*
X104420D01*
X104440Y28080D02*
Y28060D01*
X104480D01*
Y28080D01*
X104500D01*
Y28120D01*
X104480D01*
Y28140D01*
X104440D01*
Y28120D01*
X104420D01*
Y28080D01*
X104440D01*
X103570Y28940D02*
Y28900D01*
X103650D01*
Y28940D01*
X103690D01*
Y29020D01*
X103650D01*
Y29060D01*
X103570D01*
Y29020D01*
X103530D01*
Y28940D01*
X103570D01*
X103590Y28960D02*
Y28940D01*
X103630D01*
Y28960D01*
X103650D01*
Y29000D01*
X103630D01*
Y29020D01*
X103590D01*
Y29000D01*
X103570D01*
Y28960D01*
X103590D01*
X103990Y28480D02*
Y28440D01*
X104070D01*
Y28480D01*
X104110D01*
Y28560D01*
X104070D01*
Y28600D01*
X103990D01*
Y28560D01*
X103950D01*
Y28480D01*
X103990D01*
X104010Y28500D02*
Y28480D01*
X104050D01*
Y28500D01*
X104070D01*
Y28540D01*
X104050D01*
Y28560D01*
X104010D01*
Y28540D01*
X103990D01*
Y28500D01*
X104010D01*
X106640Y25890D02*
Y25850D01*
X106720D01*
Y25890D01*
X106760D01*
Y25970D01*
X106720D01*
Y26010D01*
X106640D01*
Y25970D01*
X106600D01*
Y25890D01*
X106640D01*
X106660Y25910D02*
Y25890D01*
X106700D01*
Y25910D01*
X106720D01*
Y25950D01*
X106700D01*
Y25970D01*
X106660D01*
Y25950D01*
X106640D01*
Y25910D01*
X106660D01*
X107010Y25510D02*
Y25470D01*
X107090D01*
Y25510D01*
X107130D01*
Y25590D01*
X107090D01*
Y25630D01*
X107010D01*
Y25590D01*
X106970D01*
Y25510D01*
X107010D01*
X107030Y25530D02*
Y25510D01*
X107070D01*
Y25530D01*
X107090D01*
Y25570D01*
X107070D01*
Y25590D01*
X107030D01*
Y25570D01*
X107010D01*
Y25530D01*
X107030D01*
X108140Y24310D02*
Y24270D01*
X108220D01*
Y24310D01*
X108260D01*
Y24390D01*
X108220D01*
Y24430D01*
X108140D01*
Y24390D01*
X108100D01*
Y24310D01*
X108140D01*
X108160Y24330D02*
Y24310D01*
X108200D01*
Y24330D01*
X108220D01*
Y24370D01*
X108200D01*
Y24390D01*
X108160D01*
Y24370D01*
X108140D01*
Y24330D01*
X108160D01*
X115550Y22800D02*
Y22760D01*
X115630D01*
Y22800D01*
X115670D01*
Y22880D01*
X115630D01*
Y22920D01*
X115550D01*
Y22880D01*
X115510D01*
Y22800D01*
X115550D01*
X115570Y22820D02*
Y22800D01*
X115610D01*
Y22820D01*
X115630D01*
Y22860D01*
X115610D01*
Y22880D01*
X115570D01*
Y22860D01*
X115550D01*
Y22820D01*
X115570D01*
X115517Y23663D02*
Y23623D01*
X115597D01*
Y23663D01*
X115637D01*
Y23743D01*
X115597D01*
Y23783D01*
X115517D01*
Y23743D01*
X115477D01*
Y23663D01*
X115517D01*
X115537Y23683D02*
Y23663D01*
X115577D01*
Y23683D01*
X115597D01*
Y23723D01*
X115577D01*
Y23743D01*
X115537D01*
Y23723D01*
X115517D01*
Y23683D01*
X115537D01*
X115410Y25110D02*
Y25070D01*
X115490D01*
Y25110D01*
X115530D01*
Y25190D01*
X115490D01*
Y25230D01*
X115410D01*
Y25190D01*
X115370D01*
Y25110D01*
X115410D01*
X115430Y25130D02*
Y25110D01*
X115470D01*
Y25130D01*
X115490D01*
Y25170D01*
X115470D01*
Y25190D01*
X115430D01*
Y25170D01*
X115410D01*
Y25130D01*
X115430D01*
X115410Y25560D02*
Y25520D01*
X115490D01*
Y25560D01*
X115530D01*
Y25640D01*
X115490D01*
Y25680D01*
X115410D01*
Y25640D01*
X115370D01*
Y25560D01*
X115410D01*
X115430Y25580D02*
Y25560D01*
X115470D01*
Y25580D01*
X115490D01*
Y25620D01*
X115470D01*
Y25640D01*
X115430D01*
Y25620D01*
X115410D01*
Y25580D01*
X115430D01*
X115840Y25820D02*
Y25780D01*
X115920D01*
Y25820D01*
X115960D01*
Y25900D01*
X115920D01*
Y25940D01*
X115840D01*
Y25900D01*
X115800D01*
Y25820D01*
X115840D01*
X115860Y25840D02*
Y25820D01*
X115900D01*
Y25840D01*
X115920D01*
Y25880D01*
X115900D01*
Y25900D01*
X115860D01*
Y25880D01*
X115840D01*
Y25840D01*
X115860D01*
X128605Y26175D02*
Y26135D01*
X128685D01*
Y26175D01*
X128725D01*
Y26255D01*
X128685D01*
Y26295D01*
X128605D01*
Y26255D01*
X128565D01*
Y26175D01*
X128605D01*
X128625Y26195D02*
Y26175D01*
X128665D01*
Y26195D01*
X128685D01*
Y26235D01*
X128665D01*
Y26255D01*
X128625D01*
Y26235D01*
X128605D01*
Y26195D01*
X128625D01*
X129050Y25820D02*
Y25780D01*
X129130D01*
Y25820D01*
X129170D01*
Y25900D01*
X129130D01*
Y25940D01*
X129050D01*
Y25900D01*
X129010D01*
Y25820D01*
X129050D01*
X129070Y25840D02*
Y25820D01*
X129110D01*
Y25840D01*
X129130D01*
Y25880D01*
X129110D01*
Y25900D01*
X129070D01*
Y25880D01*
X129050D01*
Y25840D01*
X129070D01*
X115410Y26210D02*
Y26170D01*
X115490D01*
Y26210D01*
X115530D01*
Y26290D01*
X115490D01*
Y26330D01*
X115410D01*
Y26290D01*
X115370D01*
Y26210D01*
X115410D01*
X115430Y26230D02*
Y26210D01*
X115470D01*
Y26230D01*
X115490D01*
Y26270D01*
X115470D01*
Y26290D01*
X115430D01*
Y26270D01*
X115410D01*
Y26230D01*
X115430D01*
X115410Y27050D02*
Y27010D01*
X115490D01*
Y27050D01*
X115530D01*
Y27130D01*
X115490D01*
Y27170D01*
X115410D01*
Y27130D01*
X115370D01*
Y27050D01*
X115410D01*
X115430Y27070D02*
Y27050D01*
X115470D01*
Y27070D01*
X115490D01*
Y27110D01*
X115470D01*
Y27130D01*
X115430D01*
Y27110D01*
X115410D01*
Y27070D01*
X115430D01*
X115840Y28170D02*
Y28130D01*
X115920D01*
Y28170D01*
X115960D01*
Y28250D01*
X115920D01*
Y28290D01*
X115840D01*
Y28250D01*
X115800D01*
Y28170D01*
X115840D01*
X115860Y28190D02*
Y28170D01*
X115900D01*
Y28190D01*
X115920D01*
Y28230D01*
X115900D01*
Y28250D01*
X115860D01*
Y28230D01*
X115840D01*
Y28190D01*
X115860D01*
Y27480D02*
Y27440D01*
X115940D01*
Y27480D01*
X115980D01*
Y27560D01*
X115940D01*
Y27600D01*
X115860D01*
Y27560D01*
X115820D01*
Y27480D01*
X115860D01*
X115880Y27500D02*
Y27480D01*
X115920D01*
Y27500D01*
X115940D01*
Y27540D01*
X115920D01*
Y27560D01*
X115880D01*
Y27540D01*
X115860D01*
Y27500D01*
X115880D01*
X115840Y26570D02*
Y26530D01*
X115920D01*
Y26570D01*
X115960D01*
Y26650D01*
X115920D01*
Y26690D01*
X115840D01*
Y26650D01*
X115800D01*
Y26570D01*
X115840D01*
X115860Y26590D02*
Y26570D01*
X115900D01*
Y26590D01*
X115920D01*
Y26630D01*
X115900D01*
Y26650D01*
X115860D01*
Y26630D01*
X115840D01*
Y26590D01*
X115860D01*
X115930Y23290D02*
Y23250D01*
X116010D01*
Y23290D01*
X116050D01*
Y23370D01*
X116010D01*
Y23410D01*
X115930D01*
Y23370D01*
X115890D01*
Y23290D01*
X115930D01*
X115950Y23310D02*
Y23290D01*
X115990D01*
Y23310D01*
X116010D01*
Y23350D01*
X115990D01*
Y23370D01*
X115950D01*
Y23350D01*
X115930D01*
Y23310D01*
X115950D01*
X129450Y25540D02*
Y25500D01*
X129530D01*
Y25540D01*
X129570D01*
Y25620D01*
X129530D01*
Y25660D01*
X129450D01*
Y25620D01*
X129410D01*
Y25540D01*
X129450D01*
X129470Y25560D02*
Y25540D01*
X129510D01*
Y25560D01*
X129530D01*
Y25600D01*
X129510D01*
Y25620D01*
X129470D01*
Y25600D01*
X129450D01*
Y25560D01*
X129470D01*
X129865Y25165D02*
Y25125D01*
X129945D01*
Y25165D01*
X129985D01*
Y25245D01*
X129945D01*
Y25285D01*
X129865D01*
Y25245D01*
X129825D01*
Y25165D01*
X129865D01*
X129885Y25185D02*
Y25165D01*
X129925D01*
Y25185D01*
X129945D01*
Y25225D01*
X129925D01*
Y25245D01*
X129885D01*
Y25225D01*
X129865D01*
Y25185D01*
X129885D01*
X130240Y24790D02*
Y24750D01*
X130320D01*
Y24790D01*
X130360D01*
Y24870D01*
X130320D01*
Y24910D01*
X130240D01*
Y24870D01*
X130200D01*
Y24790D01*
X130240D01*
X130260Y24810D02*
Y24790D01*
X130300D01*
Y24810D01*
X130320D01*
Y24850D01*
X130300D01*
Y24870D01*
X130260D01*
Y24850D01*
X130240D01*
Y24810D01*
X130260D01*
X130380Y24400D02*
Y24360D01*
X130460D01*
Y24400D01*
X130500D01*
Y24480D01*
X130460D01*
Y24520D01*
X130380D01*
Y24480D01*
X130340D01*
Y24400D01*
X130380D01*
X130400Y24420D02*
Y24400D01*
X130440D01*
Y24420D01*
X130460D01*
Y24460D01*
X130440D01*
Y24480D01*
X130400D01*
Y24460D01*
X130380D01*
Y24420D01*
X130400D01*
X130432Y23972D02*
Y23932D01*
X130512D01*
Y23972D01*
X130552D01*
Y24052D01*
X130512D01*
Y24092D01*
X130432D01*
Y24052D01*
X130392D01*
Y23972D01*
X130432D01*
X130452Y23992D02*
Y23972D01*
X130492D01*
Y23992D01*
X130512D01*
Y24032D01*
X130492D01*
Y24052D01*
X130452D01*
Y24032D01*
X130432D01*
Y23992D01*
X130452D01*
X136320Y26690D02*
Y26650D01*
X136400D01*
Y26690D01*
X136440D01*
Y26770D01*
X136400D01*
Y26810D01*
X136320D01*
Y26770D01*
X136280D01*
Y26690D01*
X136320D01*
X136340Y26710D02*
Y26690D01*
X136380D01*
Y26710D01*
X136400D01*
Y26750D01*
X136380D01*
Y26770D01*
X136340D01*
Y26750D01*
X136320D01*
Y26710D01*
X136340D01*
X136300Y25880D02*
Y25840D01*
X136380D01*
Y25880D01*
X136420D01*
Y25960D01*
X136380D01*
Y26000D01*
X136300D01*
Y25960D01*
X136260D01*
Y25880D01*
X136300D01*
X136320Y25900D02*
Y25880D01*
X136360D01*
Y25900D01*
X136380D01*
Y25940D01*
X136360D01*
Y25960D01*
X136320D01*
Y25940D01*
X136300D01*
Y25900D01*
X136320D01*
X136330Y25140D02*
Y25100D01*
X136410D01*
Y25140D01*
X136450D01*
Y25220D01*
X136410D01*
Y25260D01*
X136330D01*
Y25220D01*
X136290D01*
Y25140D01*
X136330D01*
X136350Y25160D02*
Y25140D01*
X136390D01*
Y25160D01*
X136410D01*
Y25200D01*
X136390D01*
Y25220D01*
X136350D01*
Y25200D01*
X136330D01*
Y25160D01*
X136350D01*
X136800Y27050D02*
Y27010D01*
X136880D01*
Y27050D01*
X136920D01*
Y27130D01*
X136880D01*
Y27170D01*
X136800D01*
Y27130D01*
X136760D01*
Y27050D01*
X136800D01*
X136820Y27070D02*
Y27050D01*
X136860D01*
Y27070D01*
X136880D01*
Y27110D01*
X136860D01*
Y27130D01*
X136820D01*
Y27110D01*
X136800D01*
Y27070D01*
X136820D01*
X136800Y26230D02*
Y26190D01*
X136880D01*
Y26230D01*
X136920D01*
Y26310D01*
X136880D01*
Y26350D01*
X136800D01*
Y26310D01*
X136760D01*
Y26230D01*
X136800D01*
X136820Y26250D02*
Y26230D01*
X136860D01*
Y26250D01*
X136880D01*
Y26290D01*
X136860D01*
Y26310D01*
X136820D01*
Y26290D01*
X136800D01*
Y26250D01*
X136820D01*
X136800Y25520D02*
Y25480D01*
X136880D01*
Y25520D01*
X136920D01*
Y25600D01*
X136880D01*
Y25640D01*
X136800D01*
Y25600D01*
X136760D01*
Y25520D01*
X136800D01*
X136820Y25540D02*
Y25520D01*
X136860D01*
Y25540D01*
X136880D01*
Y25580D01*
X136860D01*
Y25600D01*
X136820D01*
Y25580D01*
X136800D01*
Y25540D01*
X136820D01*
X136800Y24570D02*
Y24530D01*
X136880D01*
Y24570D01*
X136920D01*
Y24650D01*
X136880D01*
Y24690D01*
X136800D01*
Y24650D01*
X136760D01*
Y24570D01*
X136800D01*
X136820Y24590D02*
Y24570D01*
X136860D01*
Y24590D01*
X136880D01*
Y24630D01*
X136860D01*
Y24650D01*
X136820D01*
Y24630D01*
X136800D01*
Y24590D01*
X136820D01*
X147650Y28400D02*
Y28360D01*
X147730D01*
Y28400D01*
X147770D01*
Y28480D01*
X147730D01*
Y28520D01*
X147650D01*
Y28480D01*
X147610D01*
Y28400D01*
X147650D01*
X147670Y28420D02*
Y28400D01*
X147710D01*
Y28420D01*
X147730D01*
Y28460D01*
X147710D01*
Y28480D01*
X147670D01*
Y28460D01*
X147650D01*
Y28420D01*
X147670D01*
X148910Y27070D02*
Y27030D01*
X148990D01*
Y27070D01*
X149030D01*
Y27150D01*
X148990D01*
Y27190D01*
X148910D01*
Y27150D01*
X148870D01*
Y27070D01*
X148910D01*
X148930Y27090D02*
Y27070D01*
X148970D01*
Y27090D01*
X148990D01*
Y27130D01*
X148970D01*
Y27150D01*
X148930D01*
Y27130D01*
X148910D01*
Y27090D01*
X148930D01*
X149500Y26590D02*
Y26550D01*
X149580D01*
Y26590D01*
X149620D01*
Y26670D01*
X149580D01*
Y26710D01*
X149500D01*
Y26670D01*
X149460D01*
Y26590D01*
X149500D01*
X149520Y26610D02*
Y26590D01*
X149560D01*
Y26610D01*
X149580D01*
Y26650D01*
X149560D01*
Y26670D01*
X149520D01*
Y26650D01*
X149500D01*
Y26610D01*
X149520D01*
X150840Y25300D02*
Y25260D01*
X150920D01*
Y25300D01*
X150960D01*
Y25380D01*
X150920D01*
Y25420D01*
X150840D01*
Y25380D01*
X150800D01*
Y25300D01*
X150840D01*
X150860Y25320D02*
Y25300D01*
X150900D01*
Y25320D01*
X150920D01*
Y25360D01*
X150900D01*
Y25380D01*
X150860D01*
Y25360D01*
X150840D01*
Y25320D01*
X150860D01*
X151480Y24700D02*
Y24660D01*
X151560D01*
Y24700D01*
X151600D01*
Y24780D01*
X151560D01*
Y24820D01*
X151480D01*
Y24780D01*
X151440D01*
Y24700D01*
X151480D01*
X151500Y24720D02*
Y24700D01*
X151540D01*
Y24720D01*
X151560D01*
Y24760D01*
X151540D01*
Y24780D01*
X151500D01*
Y24760D01*
X151480D01*
Y24720D01*
X151500D01*
X151650Y24090D02*
Y24050D01*
X151730D01*
Y24090D01*
X151770D01*
Y24170D01*
X151730D01*
Y24210D01*
X151650D01*
Y24170D01*
X151610D01*
Y24090D01*
X151650D01*
X151670Y24110D02*
Y24090D01*
X151710D01*
Y24110D01*
X151730D01*
Y24150D01*
X151710D01*
Y24170D01*
X151670D01*
Y24150D01*
X151650D01*
Y24110D01*
X151670D01*
Y23610D02*
Y23570D01*
X151750D01*
Y23610D01*
X151790D01*
Y23690D01*
X151750D01*
Y23730D01*
X151670D01*
Y23690D01*
X151630D01*
Y23610D01*
X151670D01*
X151690Y23630D02*
Y23610D01*
X151730D01*
Y23630D01*
X151750D01*
Y23670D01*
X151730D01*
Y23690D01*
X151690D01*
Y23670D01*
X151670D01*
Y23630D01*
X151690D01*
X125520Y29262D02*
Y29223D01*
X125600D01*
Y29262D01*
X125640D01*
Y29343D01*
X125600D01*
Y29383D01*
X125520D01*
Y29343D01*
X125480D01*
Y29262D01*
X125520D01*
X125540Y29283D02*
Y29262D01*
X125580D01*
Y29283D01*
X125600D01*
Y29323D01*
X125580D01*
Y29343D01*
X125540D01*
Y29323D01*
X125520D01*
Y29283D01*
X125540D01*
X127800Y26970D02*
Y26930D01*
X127880D01*
Y26970D01*
X127920D01*
Y27050D01*
X127880D01*
Y27090D01*
X127800D01*
Y27050D01*
X127760D01*
Y26970D01*
X127800D01*
X127820Y26990D02*
Y26970D01*
X127860D01*
Y26990D01*
X127880D01*
Y27030D01*
X127860D01*
Y27050D01*
X127820D01*
Y27030D01*
X127800D01*
Y26990D01*
X127820D01*
X126980Y27840D02*
Y27800D01*
X127060D01*
Y27840D01*
X127100D01*
Y27920D01*
X127060D01*
Y27960D01*
X126980D01*
Y27920D01*
X126940D01*
Y27840D01*
X126980D01*
X127000Y27860D02*
Y27840D01*
X127040D01*
Y27860D01*
X127060D01*
Y27900D01*
X127040D01*
Y27920D01*
X127000D01*
Y27900D01*
X126980D01*
Y27860D01*
X127000D01*
X126630Y28170D02*
Y28130D01*
X126710D01*
Y28170D01*
X126750D01*
Y28250D01*
X126710D01*
Y28290D01*
X126630D01*
Y28250D01*
X126590D01*
Y28170D01*
X126630D01*
X126650Y28190D02*
Y28170D01*
X126690D01*
Y28190D01*
X126710D01*
Y28230D01*
X126690D01*
Y28250D01*
X126650D01*
Y28230D01*
X126630D01*
Y28190D01*
X126650D01*
X127300Y27480D02*
Y27440D01*
X127380D01*
Y27480D01*
X127420D01*
Y27560D01*
X127380D01*
Y27600D01*
X127300D01*
Y27560D01*
X127260D01*
Y27480D01*
X127300D01*
X127320Y27500D02*
Y27480D01*
X127360D01*
Y27500D01*
X127380D01*
Y27540D01*
X127360D01*
Y27560D01*
X127320D01*
Y27540D01*
X127300D01*
Y27500D01*
X127320D01*
X128210Y26570D02*
Y26530D01*
X128290D01*
Y26570D01*
X128330D01*
Y26650D01*
X128290D01*
Y26690D01*
X128210D01*
Y26650D01*
X128170D01*
Y26570D01*
X128210D01*
X128230Y26590D02*
Y26570D01*
X128270D01*
Y26590D01*
X128290D01*
Y26630D01*
X128270D01*
Y26650D01*
X128230D01*
Y26630D01*
X128210D01*
Y26590D01*
X128230D01*
X102930Y29600D02*
Y29560D01*
X103010D01*
Y29600D01*
X103050D01*
Y29680D01*
X103010D01*
Y29720D01*
X102930D01*
Y29680D01*
X102890D01*
Y29600D01*
X102930D01*
X102950Y29620D02*
Y29600D01*
X102990D01*
Y29620D01*
X103010D01*
Y29660D01*
X102990D01*
Y29680D01*
X102950D01*
Y29660D01*
X102930D01*
Y29620D01*
X102950D01*
X102490Y30140D02*
Y30100D01*
X102570D01*
Y30140D01*
X102610D01*
Y30220D01*
X102570D01*
Y30260D01*
X102490D01*
Y30220D01*
X102450D01*
Y30140D01*
X102490D01*
X102510Y30160D02*
Y30140D01*
X102550D01*
Y30160D01*
X102570D01*
Y30200D01*
X102550D01*
Y30220D01*
X102510D01*
Y30200D01*
X102490D01*
Y30160D01*
X102510D01*
X101950Y30620D02*
Y30580D01*
X102030D01*
Y30620D01*
X102070D01*
Y30700D01*
X102030D01*
Y30740D01*
X101950D01*
Y30700D01*
X101910D01*
Y30620D01*
X101950D01*
X101970Y30640D02*
Y30620D01*
X102010D01*
Y30640D01*
X102030D01*
Y30680D01*
X102010D01*
Y30700D01*
X101970D01*
Y30680D01*
X101950D01*
Y30640D01*
X101970D01*
X101370Y31150D02*
Y31110D01*
X101450D01*
Y31150D01*
X101490D01*
Y31230D01*
X101450D01*
Y31270D01*
X101370D01*
Y31230D01*
X101330D01*
Y31150D01*
X101370D01*
X101390Y31170D02*
Y31150D01*
X101430D01*
Y31170D01*
X101450D01*
Y31210D01*
X101430D01*
Y31230D01*
X101390D01*
Y31210D01*
X101370D01*
Y31170D01*
X101390D01*
X100880Y31660D02*
Y31620D01*
X100960D01*
Y31660D01*
X101000D01*
Y31740D01*
X100960D01*
Y31780D01*
X100880D01*
Y31740D01*
X100840D01*
Y31660D01*
X100880D01*
X100900Y31680D02*
Y31660D01*
X100940D01*
Y31680D01*
X100960D01*
Y31720D01*
X100940D01*
Y31740D01*
X100900D01*
Y31720D01*
X100880D01*
Y31680D01*
X100900D01*
X100460Y32110D02*
Y32070D01*
X100540D01*
Y32110D01*
X100580D01*
Y32190D01*
X100540D01*
Y32230D01*
X100460D01*
Y32190D01*
X100420D01*
Y32110D01*
X100460D01*
X100480Y32130D02*
Y32110D01*
X100520D01*
Y32130D01*
X100540D01*
Y32170D01*
X100520D01*
Y32190D01*
X100480D01*
Y32170D01*
X100460D01*
Y32130D01*
X100480D01*
X60891Y25150D02*
Y25110D01*
X60971D01*
Y25150D01*
X61011D01*
Y25230D01*
X60971D01*
Y25270D01*
X60891D01*
Y25230D01*
X60851D01*
Y25150D01*
X60891D01*
X60911Y25170D02*
Y25150D01*
X60951D01*
Y25170D01*
X60971D01*
Y25210D01*
X60951D01*
Y25230D01*
X60911D01*
Y25210D01*
X60891D01*
Y25170D01*
X60911D01*
X60370Y25550D02*
Y25510D01*
X60450D01*
Y25550D01*
X60490D01*
Y25630D01*
X60450D01*
Y25670D01*
X60370D01*
Y25630D01*
X60330D01*
Y25550D01*
X60370D01*
X60390Y25570D02*
Y25550D01*
X60430D01*
Y25570D01*
X60450D01*
Y25610D01*
X60430D01*
Y25630D01*
X60390D01*
Y25610D01*
X60370D01*
Y25570D01*
X60390D01*
X59940Y25990D02*
Y25950D01*
X60020D01*
Y25990D01*
X60060D01*
Y26070D01*
X60020D01*
Y26110D01*
X59940D01*
Y26070D01*
X59900D01*
Y25990D01*
X59940D01*
X59960Y26010D02*
Y25990D01*
X60000D01*
Y26010D01*
X60020D01*
Y26050D01*
X60000D01*
Y26070D01*
X59960D01*
Y26050D01*
X59940D01*
Y26010D01*
X59960D01*
X59610Y26440D02*
Y26400D01*
X59690D01*
Y26440D01*
X59730D01*
Y26520D01*
X59690D01*
Y26560D01*
X59610D01*
Y26520D01*
X59570D01*
Y26440D01*
X59610D01*
X59630Y26460D02*
Y26440D01*
X59670D01*
Y26460D01*
X59690D01*
Y26500D01*
X59670D01*
Y26520D01*
X59630D01*
Y26500D01*
X59610D01*
Y26460D01*
X59630D01*
X59120Y26970D02*
Y26930D01*
X59200D01*
Y26970D01*
X59240D01*
Y27050D01*
X59200D01*
Y27090D01*
X59120D01*
Y27050D01*
X59080D01*
Y26970D01*
X59120D01*
X59140Y26990D02*
Y26970D01*
X59180D01*
Y26990D01*
X59200D01*
Y27030D01*
X59180D01*
Y27050D01*
X59140D01*
Y27030D01*
X59120D01*
Y26990D01*
X59140D01*
X57910Y28130D02*
Y28090D01*
X57990D01*
Y28130D01*
X58030D01*
Y28210D01*
X57990D01*
Y28250D01*
X57910D01*
Y28210D01*
X57870D01*
Y28130D01*
X57910D01*
X57930Y28150D02*
Y28130D01*
X57970D01*
Y28150D01*
X57990D01*
Y28190D01*
X57970D01*
Y28210D01*
X57930D01*
Y28190D01*
X57910D01*
Y28150D01*
X57930D01*
X57370Y28570D02*
Y28530D01*
X57450D01*
Y28570D01*
X57490D01*
Y28650D01*
X57450D01*
Y28690D01*
X57370D01*
Y28650D01*
X57330D01*
Y28570D01*
X57370D01*
X57390Y28590D02*
Y28570D01*
X57430D01*
Y28590D01*
X57450D01*
Y28630D01*
X57430D01*
Y28650D01*
X57390D01*
Y28630D01*
X57370D01*
Y28590D01*
X57390D01*
X56950Y28990D02*
Y28950D01*
X57030D01*
Y28990D01*
X57070D01*
Y29070D01*
X57030D01*
Y29110D01*
X56950D01*
Y29070D01*
X56910D01*
Y28990D01*
X56950D01*
X56970Y29010D02*
Y28990D01*
X57010D01*
Y29010D01*
X57030D01*
Y29050D01*
X57010D01*
Y29070D01*
X56970D01*
Y29050D01*
X56950D01*
Y29010D01*
X56970D01*
X56440Y29370D02*
Y29330D01*
X56520D01*
Y29370D01*
X56560D01*
Y29450D01*
X56520D01*
Y29490D01*
X56440D01*
Y29450D01*
X56400D01*
Y29370D01*
X56440D01*
X56460Y29390D02*
Y29370D01*
X56500D01*
Y29390D01*
X56520D01*
Y29430D01*
X56500D01*
Y29450D01*
X56460D01*
Y29430D01*
X56440D01*
Y29390D01*
X56460D01*
X47960Y25990D02*
Y25950D01*
X48040D01*
Y25990D01*
X48080D01*
Y26070D01*
X48040D01*
Y26110D01*
X47960D01*
Y26070D01*
X47920D01*
Y25990D01*
X47960D01*
X47980Y26010D02*
Y25990D01*
X48020D01*
Y26010D01*
X48040D01*
Y26050D01*
X48020D01*
Y26070D01*
X47980D01*
Y26050D01*
X47960D01*
Y26010D01*
X47980D01*
X47960Y26440D02*
Y26400D01*
X48040D01*
Y26440D01*
X48080D01*
Y26520D01*
X48040D01*
Y26560D01*
X47960D01*
Y26520D01*
X47920D01*
Y26440D01*
X47960D01*
X47980Y26460D02*
Y26440D01*
X48020D01*
Y26460D01*
X48040D01*
Y26500D01*
X48020D01*
Y26520D01*
X47980D01*
Y26500D01*
X47960D01*
Y26460D01*
X47980D01*
X47960Y24770D02*
Y24730D01*
X48040D01*
Y24770D01*
X48080D01*
Y24850D01*
X48040D01*
Y24890D01*
X47960D01*
Y24850D01*
X47920D01*
Y24770D01*
X47960D01*
X47980Y24790D02*
Y24770D01*
X48020D01*
Y24790D01*
X48040D01*
Y24830D01*
X48020D01*
Y24850D01*
X47980D01*
Y24830D01*
X47960D01*
Y24790D01*
X47980D01*
X47960Y25154D02*
Y25114D01*
X48040D01*
Y25154D01*
X48080D01*
Y25234D01*
X48040D01*
Y25274D01*
X47960D01*
Y25234D01*
X47920D01*
Y25154D01*
X47960D01*
X47980Y25174D02*
Y25154D01*
X48020D01*
Y25174D01*
X48040D01*
Y25214D01*
X48020D01*
Y25234D01*
X47980D01*
Y25214D01*
X47960D01*
Y25174D01*
X47980D01*
X47960Y25550D02*
Y25510D01*
X48040D01*
Y25550D01*
X48080D01*
Y25630D01*
X48040D01*
Y25670D01*
X47960D01*
Y25630D01*
X47920D01*
Y25550D01*
X47960D01*
X47980Y25570D02*
Y25550D01*
X48020D01*
Y25570D01*
X48040D01*
Y25610D01*
X48020D01*
Y25630D01*
X47980D01*
Y25610D01*
X47960D01*
Y25570D01*
X47980D01*
X47960Y29370D02*
Y29330D01*
X48040D01*
Y29370D01*
X48080D01*
Y29450D01*
X48040D01*
Y29490D01*
X47960D01*
Y29450D01*
X47920D01*
Y29370D01*
X47960D01*
X47980Y29390D02*
Y29370D01*
X48020D01*
Y29390D01*
X48040D01*
Y29430D01*
X48020D01*
Y29450D01*
X47980D01*
Y29430D01*
X47960D01*
Y29390D01*
X47980D01*
X47960Y28990D02*
Y28950D01*
X48040D01*
Y28990D01*
X48080D01*
Y29070D01*
X48040D01*
Y29110D01*
X47960D01*
Y29070D01*
X47920D01*
Y28990D01*
X47960D01*
X47980Y29010D02*
Y28990D01*
X48020D01*
Y29010D01*
X48040D01*
Y29050D01*
X48020D01*
Y29070D01*
X47980D01*
Y29050D01*
X47960D01*
Y29010D01*
X47980D01*
X47960Y28570D02*
Y28530D01*
X48040D01*
Y28570D01*
X48080D01*
Y28650D01*
X48040D01*
Y28690D01*
X47960D01*
Y28650D01*
X47920D01*
Y28570D01*
X47960D01*
X47980Y28590D02*
Y28570D01*
X48020D01*
Y28590D01*
X48040D01*
Y28630D01*
X48020D01*
Y28650D01*
X47980D01*
Y28630D01*
X47960D01*
Y28590D01*
X47980D01*
X47960Y28130D02*
Y28090D01*
X48040D01*
Y28130D01*
X48080D01*
Y28210D01*
X48040D01*
Y28250D01*
X47960D01*
Y28210D01*
X47920D01*
Y28130D01*
X47960D01*
X47980Y28150D02*
Y28130D01*
X48020D01*
Y28150D01*
X48040D01*
Y28190D01*
X48020D01*
Y28210D01*
X47980D01*
Y28190D01*
X47960D01*
Y28150D01*
X47980D01*
X47960Y27740D02*
Y27700D01*
X48040D01*
Y27740D01*
X48080D01*
Y27820D01*
X48040D01*
Y27860D01*
X47960D01*
Y27820D01*
X47920D01*
Y27740D01*
X47960D01*
X47980Y27760D02*
Y27740D01*
X48020D01*
Y27760D01*
X48040D01*
Y27800D01*
X48020D01*
Y27820D01*
X47980D01*
Y27800D01*
X47960D01*
Y27760D01*
X47980D01*
X47960Y27350D02*
Y27310D01*
X48040D01*
Y27350D01*
X48080D01*
Y27430D01*
X48040D01*
Y27470D01*
X47960D01*
Y27430D01*
X47920D01*
Y27350D01*
X47960D01*
X47980Y27370D02*
Y27350D01*
X48020D01*
Y27370D01*
X48040D01*
Y27410D01*
X48020D01*
Y27430D01*
X47980D01*
Y27410D01*
X47960D01*
Y27370D01*
X47980D01*
X47960Y26970D02*
Y26930D01*
X48040D01*
Y26970D01*
X48080D01*
Y27050D01*
X48040D01*
Y27090D01*
X47960D01*
Y27050D01*
X47920D01*
Y26970D01*
X47960D01*
X47980Y26990D02*
Y26970D01*
X48020D01*
Y26990D01*
X48040D01*
Y27030D01*
X48020D01*
Y27050D01*
X47980D01*
Y27030D01*
X47960D01*
Y26990D01*
X47980D01*
X37440Y26280D02*
Y26240D01*
X37520D01*
Y26280D01*
X37560D01*
Y26360D01*
X37520D01*
Y26400D01*
X37440D01*
Y26360D01*
X37400D01*
Y26280D01*
X37440D01*
X37460Y26300D02*
Y26280D01*
X37500D01*
Y26300D01*
X37520D01*
Y26340D01*
X37500D01*
Y26360D01*
X37460D01*
Y26340D01*
X37440D01*
Y26300D01*
X37460D01*
X37794Y25981D02*
Y25941D01*
X37874D01*
Y25981D01*
X37914D01*
Y26061D01*
X37874D01*
Y26101D01*
X37794D01*
Y26061D01*
X37754D01*
Y25981D01*
X37794D01*
X37814Y26001D02*
Y25981D01*
X37854D01*
Y26001D01*
X37874D01*
Y26041D01*
X37854D01*
Y26061D01*
X37814D01*
Y26041D01*
X37794D01*
Y26001D01*
X37814D01*
X38521Y25154D02*
Y25114D01*
X38601D01*
Y25154D01*
X38641D01*
Y25234D01*
X38601D01*
Y25274D01*
X38521D01*
Y25234D01*
X38481D01*
Y25154D01*
X38521D01*
X38541Y25174D02*
Y25154D01*
X38581D01*
Y25174D01*
X38601D01*
Y25214D01*
X38581D01*
Y25234D01*
X38541D01*
Y25214D01*
X38521D01*
Y25174D01*
X38541D01*
X25710Y27040D02*
Y27000D01*
X25790D01*
Y27040D01*
X25830D01*
Y27120D01*
X25790D01*
Y27160D01*
X25710D01*
Y27120D01*
X25670D01*
Y27040D01*
X25710D01*
X25730Y27060D02*
Y27040D01*
X25770D01*
Y27060D01*
X25790D01*
Y27100D01*
X25770D01*
Y27120D01*
X25730D01*
Y27100D01*
X25710D01*
Y27060D01*
X25730D01*
X25710Y27420D02*
Y27380D01*
X25790D01*
Y27420D01*
X25830D01*
Y27500D01*
X25790D01*
Y27540D01*
X25710D01*
Y27500D01*
X25670D01*
Y27420D01*
X25710D01*
X25730Y27440D02*
Y27420D01*
X25770D01*
Y27440D01*
X25790D01*
Y27480D01*
X25770D01*
Y27500D01*
X25730D01*
Y27480D01*
X25710D01*
Y27440D01*
X25730D01*
X25710Y26580D02*
Y26540D01*
X25790D01*
Y26580D01*
X25830D01*
Y26660D01*
X25790D01*
Y26700D01*
X25710D01*
Y26660D01*
X25670D01*
Y26580D01*
X25710D01*
X25730Y26600D02*
Y26580D01*
X25770D01*
Y26600D01*
X25790D01*
Y26640D01*
X25770D01*
Y26660D01*
X25730D01*
Y26640D01*
X25710D01*
Y26600D01*
X25730D01*
X25710Y26160D02*
Y26120D01*
X25790D01*
Y26160D01*
X25830D01*
Y26240D01*
X25790D01*
Y26280D01*
X25710D01*
Y26240D01*
X25670D01*
Y26160D01*
X25710D01*
X25730Y26180D02*
Y26160D01*
X25770D01*
Y26180D01*
X25790D01*
Y26220D01*
X25770D01*
Y26240D01*
X25730D01*
Y26220D01*
X25710D01*
Y26180D01*
X25730D01*
X25710Y25720D02*
Y25680D01*
X25790D01*
Y25720D01*
X25830D01*
Y25800D01*
X25790D01*
Y25840D01*
X25710D01*
Y25800D01*
X25670D01*
Y25720D01*
X25710D01*
X25730Y25740D02*
Y25720D01*
X25770D01*
Y25740D01*
X25790D01*
Y25780D01*
X25770D01*
Y25800D01*
X25730D01*
Y25780D01*
X25710D01*
Y25740D01*
X25730D01*
X25990Y28260D02*
Y28220D01*
X26070D01*
Y28260D01*
X26110D01*
Y28340D01*
X26070D01*
Y28380D01*
X25990D01*
Y28340D01*
X25950D01*
Y28260D01*
X25990D01*
X26010Y28280D02*
Y28260D01*
X26050D01*
Y28280D01*
X26070D01*
Y28320D01*
X26050D01*
Y28340D01*
X26010D01*
Y28320D01*
X25990D01*
Y28280D01*
X26010D01*
X156162Y47727D02*
Y47687D01*
X156242D01*
Y47727D01*
X156282D01*
Y47807D01*
X156242D01*
Y47847D01*
X156162D01*
Y47807D01*
X156122D01*
Y47727D01*
X156162D01*
X156182Y47747D02*
Y47727D01*
X156222D01*
Y47747D01*
X156242D01*
Y47787D01*
X156222D01*
Y47807D01*
X156182D01*
Y47787D01*
X156162D01*
Y47747D01*
X156182D01*
X155870Y45150D02*
Y45110D01*
X155950D01*
Y45150D01*
X155990D01*
Y45230D01*
X155950D01*
Y45270D01*
X155870D01*
Y45230D01*
X155830D01*
Y45150D01*
X155870D01*
X155890Y45170D02*
Y45150D01*
X155930D01*
Y45170D01*
X155950D01*
Y45210D01*
X155930D01*
Y45230D01*
X155890D01*
Y45210D01*
X155870D01*
Y45170D01*
X155890D01*
X29860Y58190D02*
Y58150D01*
X29940D01*
Y58190D01*
X29980D01*
Y58270D01*
X29940D01*
Y58310D01*
X29860D01*
Y58270D01*
X29820D01*
Y58190D01*
X29860D01*
X29880Y58210D02*
Y58190D01*
X29920D01*
Y58210D01*
X29940D01*
Y58250D01*
X29920D01*
Y58270D01*
X29880D01*
Y58250D01*
X29860D01*
Y58210D01*
X29880D01*
X28720Y55370D02*
Y55330D01*
X28800D01*
Y55370D01*
X28840D01*
Y55450D01*
X28800D01*
Y55490D01*
X28720D01*
Y55450D01*
X28680D01*
Y55370D01*
X28720D01*
X28740Y55390D02*
Y55370D01*
X28780D01*
Y55390D01*
X28800D01*
Y55430D01*
X28780D01*
Y55450D01*
X28740D01*
Y55430D01*
X28720D01*
Y55390D01*
X28740D01*
X25950Y53340D02*
Y53300D01*
X26030D01*
Y53340D01*
X26070D01*
Y53420D01*
X26030D01*
Y53460D01*
X25950D01*
Y53420D01*
X25910D01*
Y53340D01*
X25950D01*
X25970Y53360D02*
Y53340D01*
X26010D01*
Y53360D01*
X26030D01*
Y53400D01*
X26010D01*
Y53420D01*
X25970D01*
Y53400D01*
X25950D01*
Y53360D01*
X25970D01*
X155460Y39620D02*
Y39580D01*
X155540D01*
Y39620D01*
X155580D01*
Y39700D01*
X155540D01*
Y39740D01*
X155460D01*
Y39700D01*
X155420D01*
Y39620D01*
X155460D01*
X155480Y39640D02*
Y39620D01*
X155520D01*
Y39640D01*
X155540D01*
Y39680D01*
X155520D01*
Y39700D01*
X155480D01*
Y39680D01*
X155460D01*
Y39640D01*
X155480D01*
X144560Y45280D02*
Y45240D01*
X144640D01*
Y45280D01*
X144680D01*
Y45360D01*
X144640D01*
Y45400D01*
X144560D01*
Y45360D01*
X144520D01*
Y45280D01*
X144560D01*
X144580Y45300D02*
Y45280D01*
X144620D01*
Y45300D01*
X144640D01*
Y45340D01*
X144620D01*
Y45360D01*
X144580D01*
Y45340D01*
X144560D01*
Y45300D01*
X144580D01*
X152650Y43210D02*
Y43170D01*
X152730D01*
Y43210D01*
X152770D01*
Y43290D01*
X152730D01*
Y43330D01*
X152650D01*
Y43290D01*
X152610D01*
Y43210D01*
X152650D01*
X152670Y43230D02*
Y43210D01*
X152710D01*
Y43230D01*
X152730D01*
Y43270D01*
X152710D01*
Y43290D01*
X152670D01*
Y43270D01*
X152650D01*
Y43230D01*
X152670D01*
X80150Y580D02*
Y540D01*
X80230D01*
Y580D01*
X80270D01*
Y660D01*
X80230D01*
Y700D01*
X80150D01*
Y660D01*
X80110D01*
Y580D01*
X80150D01*
X80170Y600D02*
Y580D01*
X80210D01*
Y600D01*
X80230D01*
Y640D01*
X80210D01*
Y660D01*
X80170D01*
Y640D01*
X80150D01*
Y600D01*
X80170D01*
X26332Y35220D02*
Y35180D01*
X26412D01*
Y35220D01*
X26452D01*
Y35300D01*
X26412D01*
Y35340D01*
X26332D01*
Y35300D01*
X26292D01*
Y35220D01*
X26332D01*
X26352Y35240D02*
Y35220D01*
X26392D01*
Y35240D01*
X26412D01*
Y35280D01*
X26392D01*
Y35300D01*
X26352D01*
Y35280D01*
X26332D01*
Y35240D01*
X26352D01*
X145450Y40800D02*
Y40760D01*
X145530D01*
Y40800D01*
X145570D01*
Y40880D01*
X145530D01*
Y40920D01*
X145450D01*
Y40880D01*
X145410D01*
Y40800D01*
X145450D01*
X145470Y40820D02*
Y40800D01*
X145510D01*
Y40820D01*
X145530D01*
Y40860D01*
X145510D01*
Y40880D01*
X145470D01*
Y40860D01*
X145450D01*
Y40820D01*
X145470D01*
X115810Y37080D02*
Y37040D01*
X115890D01*
Y37080D01*
X115930D01*
Y37160D01*
X115890D01*
Y37200D01*
X115810D01*
Y37160D01*
X115770D01*
Y37080D01*
X115810D01*
X115830Y37100D02*
Y37080D01*
X115870D01*
Y37100D01*
X115890D01*
Y37140D01*
X115870D01*
Y37160D01*
X115830D01*
Y37140D01*
X115810D01*
Y37100D01*
X115830D01*
X63790Y37730D02*
Y37690D01*
X63870D01*
Y37730D01*
X63910D01*
Y37810D01*
X63870D01*
Y37850D01*
X63790D01*
Y37810D01*
X63750D01*
Y37730D01*
X63790D01*
X63810Y37750D02*
Y37730D01*
X63850D01*
Y37750D01*
X63870D01*
Y37790D01*
X63850D01*
Y37810D01*
X63810D01*
Y37790D01*
X63790D01*
Y37750D01*
X63810D01*
X48650Y34790D02*
Y34750D01*
X48730D01*
Y34790D01*
X48770D01*
Y34870D01*
X48730D01*
Y34910D01*
X48650D01*
Y34870D01*
X48610D01*
Y34790D01*
X48650D01*
X48670Y34810D02*
Y34790D01*
X48710D01*
Y34810D01*
X48730D01*
Y34850D01*
X48710D01*
Y34870D01*
X48670D01*
Y34850D01*
X48650D01*
Y34810D01*
X48670D01*
X49060Y35880D02*
Y35840D01*
X49140D01*
Y35880D01*
X49180D01*
Y35960D01*
X49140D01*
Y36000D01*
X49060D01*
Y35960D01*
X49020D01*
Y35880D01*
X49060D01*
X49080Y35900D02*
Y35880D01*
X49120D01*
Y35900D01*
X49140D01*
Y35940D01*
X49120D01*
Y35960D01*
X49080D01*
Y35940D01*
X49060D01*
Y35900D01*
X49080D01*
X26560Y36280D02*
Y36240D01*
X26640D01*
Y36280D01*
X26680D01*
Y36360D01*
X26640D01*
Y36400D01*
X26560D01*
Y36360D01*
X26520D01*
Y36280D01*
X26560D01*
X26580Y36300D02*
Y36280D01*
X26620D01*
Y36300D01*
X26640D01*
Y36340D01*
X26620D01*
Y36360D01*
X26580D01*
Y36340D01*
X26560D01*
Y36300D01*
X26580D01*
X57240Y35170D02*
Y35130D01*
X57320D01*
Y35170D01*
X57360D01*
Y35250D01*
X57320D01*
Y35290D01*
X57240D01*
Y35250D01*
X57200D01*
Y35170D01*
X57240D01*
X57260Y35190D02*
Y35170D01*
X57300D01*
Y35190D01*
X57320D01*
Y35230D01*
X57300D01*
Y35250D01*
X57260D01*
Y35230D01*
X57240D01*
Y35190D01*
X57260D01*
X83400Y5370D02*
Y5330D01*
X83480D01*
Y5370D01*
X83520D01*
Y5450D01*
X83480D01*
Y5490D01*
X83400D01*
Y5450D01*
X83360D01*
Y5370D01*
X83400D01*
X83420Y5390D02*
Y5370D01*
X83460D01*
Y5390D01*
X83480D01*
Y5430D01*
X83460D01*
Y5450D01*
X83420D01*
Y5430D01*
X83400D01*
Y5390D01*
X83420D01*
X88600Y5430D02*
Y5390D01*
X88680D01*
Y5430D01*
X88720D01*
Y5510D01*
X88680D01*
Y5550D01*
X88600D01*
Y5510D01*
X88560D01*
Y5430D01*
X88600D01*
X88620Y5450D02*
Y5430D01*
X88660D01*
Y5450D01*
X88680D01*
Y5490D01*
X88660D01*
Y5510D01*
X88620D01*
Y5490D01*
X88600D01*
Y5450D01*
X88620D01*
X3290Y28260D02*
Y28220D01*
X3370D01*
Y28260D01*
X3410D01*
Y28340D01*
X3370D01*
Y28380D01*
X3290D01*
Y28340D01*
X3250D01*
Y28260D01*
X3290D01*
X3310Y28280D02*
Y28260D01*
X3350D01*
Y28280D01*
X3370D01*
Y28320D01*
X3350D01*
Y28340D01*
X3310D01*
Y28320D01*
X3290D01*
Y28280D01*
X3310D01*
X3290Y27860D02*
Y27820D01*
X3370D01*
Y27860D01*
X3410D01*
Y27940D01*
X3370D01*
Y27980D01*
X3290D01*
Y27940D01*
X3250D01*
Y27860D01*
X3290D01*
X3310Y27880D02*
Y27860D01*
X3350D01*
Y27880D01*
X3370D01*
Y27920D01*
X3350D01*
Y27940D01*
X3310D01*
Y27920D01*
X3290D01*
Y27880D01*
X3310D01*
X3290Y28660D02*
Y28620D01*
X3370D01*
Y28660D01*
X3410D01*
Y28740D01*
X3370D01*
Y28780D01*
X3290D01*
Y28740D01*
X3250D01*
Y28660D01*
X3290D01*
X3310Y28680D02*
Y28660D01*
X3350D01*
Y28680D01*
X3370D01*
Y28720D01*
X3350D01*
Y28740D01*
X3310D01*
Y28720D01*
X3290D01*
Y28680D01*
X3310D01*
X25990Y27860D02*
Y27820D01*
X26070D01*
Y27860D01*
X26110D01*
Y27940D01*
X26070D01*
Y27980D01*
X25990D01*
Y27940D01*
X25950D01*
Y27860D01*
X25990D01*
X26010Y27880D02*
Y27860D01*
X26050D01*
Y27880D01*
X26070D01*
Y27920D01*
X26050D01*
Y27940D01*
X26010D01*
Y27920D01*
X25990D01*
Y27880D01*
X26010D01*
X25990Y28660D02*
Y28620D01*
X26070D01*
Y28660D01*
X26110D01*
Y28740D01*
X26070D01*
Y28780D01*
X25990D01*
Y28740D01*
X25950D01*
Y28660D01*
X25990D01*
X26010Y28680D02*
Y28660D01*
X26050D01*
Y28680D01*
X26070D01*
Y28720D01*
X26050D01*
Y28740D01*
X26010D01*
Y28720D01*
X25990D01*
Y28680D01*
X26010D01*
X137650Y28660D02*
Y28620D01*
X137730D01*
Y28660D01*
X137770D01*
Y28740D01*
X137730D01*
Y28780D01*
X137650D01*
Y28740D01*
X137610D01*
Y28660D01*
X137650D01*
X137670Y28680D02*
Y28660D01*
X137710D01*
Y28680D01*
X137730D01*
Y28720D01*
X137710D01*
Y28740D01*
X137670D01*
Y28720D01*
X137650D01*
Y28680D01*
X137670D01*
X151670Y59972D02*
Y59932D01*
X151750D01*
Y59972D01*
X151790D01*
Y60052D01*
X151750D01*
Y60092D01*
X151670D01*
Y60052D01*
X151630D01*
Y59972D01*
X151670D01*
X151690Y59992D02*
Y59972D01*
X151730D01*
Y59992D01*
X151750D01*
Y60032D01*
X151730D01*
Y60052D01*
X151690D01*
Y60032D01*
X151670D01*
Y59992D01*
X151690D01*
X151050Y59972D02*
Y59932D01*
X151130D01*
Y59972D01*
X151170D01*
Y60052D01*
X151130D01*
Y60092D01*
X151050D01*
Y60052D01*
X151010D01*
Y59972D01*
X151050D01*
X151070Y59992D02*
Y59972D01*
X151110D01*
Y59992D01*
X151130D01*
Y60032D01*
X151110D01*
Y60052D01*
X151070D01*
Y60032D01*
X151050D01*
Y59992D01*
X151070D01*
X150440Y59962D02*
Y59922D01*
X150520D01*
Y59962D01*
X150560D01*
Y60042D01*
X150520D01*
Y60082D01*
X150440D01*
Y60042D01*
X150400D01*
Y59962D01*
X150440D01*
X150460Y59982D02*
Y59962D01*
X150500D01*
Y59982D01*
X150520D01*
Y60022D01*
X150500D01*
Y60042D01*
X150460D01*
Y60022D01*
X150440D01*
Y59982D01*
X150460D01*
X153520Y58452D02*
Y58412D01*
X153600D01*
Y58452D01*
X153640D01*
Y58532D01*
X153600D01*
Y58572D01*
X153520D01*
Y58532D01*
X153480D01*
Y58452D01*
X153520D01*
X153540Y58472D02*
Y58452D01*
X153580D01*
Y58472D01*
X153600D01*
Y58512D01*
X153580D01*
Y58532D01*
X153540D01*
Y58512D01*
X153520D01*
Y58472D01*
X153540D01*
X153520Y57788D02*
Y57748D01*
X153600D01*
Y57788D01*
X153640D01*
Y57868D01*
X153600D01*
Y57908D01*
X153520D01*
Y57868D01*
X153480D01*
Y57788D01*
X153520D01*
X153540Y57808D02*
Y57788D01*
X153580D01*
Y57808D01*
X153600D01*
Y57848D01*
X153580D01*
Y57868D01*
X153540D01*
Y57848D01*
X153520D01*
Y57808D01*
X153540D01*
X153520Y57122D02*
Y57082D01*
X153600D01*
Y57122D01*
X153640D01*
Y57202D01*
X153600D01*
Y57242D01*
X153520D01*
Y57202D01*
X153480D01*
Y57122D01*
X153520D01*
X153540Y57142D02*
Y57122D01*
X153580D01*
Y57142D01*
X153600D01*
Y57182D01*
X153580D01*
Y57202D01*
X153540D01*
Y57182D01*
X153520D01*
Y57142D01*
X153540D01*
X151670Y55632D02*
Y55592D01*
X151750D01*
Y55632D01*
X151790D01*
Y55712D01*
X151750D01*
Y55752D01*
X151670D01*
Y55712D01*
X151630D01*
Y55632D01*
X151670D01*
X151690Y55652D02*
Y55632D01*
X151730D01*
Y55652D01*
X151750D01*
Y55692D01*
X151730D01*
Y55712D01*
X151690D01*
Y55692D01*
X151670D01*
Y55652D01*
X151690D01*
X151050Y55632D02*
Y55592D01*
X151130D01*
Y55632D01*
X151170D01*
Y55712D01*
X151130D01*
Y55752D01*
X151050D01*
Y55712D01*
X151010D01*
Y55632D01*
X151050D01*
X151070Y55652D02*
Y55632D01*
X151110D01*
Y55652D01*
X151130D01*
Y55692D01*
X151110D01*
Y55712D01*
X151070D01*
Y55692D01*
X151050D01*
Y55652D01*
X151070D01*
X150440Y55622D02*
Y55582D01*
X150520D01*
Y55622D01*
X150560D01*
Y55702D01*
X150520D01*
Y55742D01*
X150440D01*
Y55702D01*
X150400D01*
Y55622D01*
X150440D01*
X150460Y55642D02*
Y55622D01*
X150500D01*
Y55642D01*
X150520D01*
Y55682D01*
X150500D01*
Y55702D01*
X150460D01*
Y55682D01*
X150440D01*
Y55642D01*
X150460D01*
X28280Y21380D02*
Y21340D01*
X28360D01*
Y21380D01*
X28400D01*
Y21460D01*
X28360D01*
Y21500D01*
X28280D01*
Y21460D01*
X28240D01*
Y21380D01*
X28280D01*
X28300Y21400D02*
Y21380D01*
X28340D01*
Y21400D01*
X28360D01*
Y21440D01*
X28340D01*
Y21460D01*
X28300D01*
Y21440D01*
X28280D01*
Y21400D01*
X28300D01*
X26630Y21365D02*
Y21325D01*
X26710D01*
Y21365D01*
X26750D01*
Y21445D01*
X26710D01*
Y21485D01*
X26630D01*
Y21445D01*
X26590D01*
Y21365D01*
X26630D01*
X26650Y21385D02*
Y21365D01*
X26690D01*
Y21385D01*
X26710D01*
Y21425D01*
X26690D01*
Y21445D01*
X26650D01*
Y21425D01*
X26630D01*
Y21385D01*
X26650D01*
X46730Y35910D02*
Y35870D01*
X46810D01*
Y35910D01*
X46850D01*
Y35990D01*
X46810D01*
Y36030D01*
X46730D01*
Y35990D01*
X46690D01*
Y35910D01*
X46730D01*
X46750Y35930D02*
Y35910D01*
X46790D01*
Y35930D01*
X46810D01*
Y35970D01*
X46790D01*
Y35990D01*
X46750D01*
Y35970D01*
X46730D01*
Y35930D01*
X46750D01*
X114850Y36280D02*
Y36240D01*
X114930D01*
Y36280D01*
X114970D01*
Y36360D01*
X114930D01*
Y36400D01*
X114850D01*
Y36360D01*
X114810D01*
Y36280D01*
X114850D01*
X114870Y36300D02*
Y36280D01*
X114910D01*
Y36300D01*
X114930D01*
Y36340D01*
X114910D01*
Y36360D01*
X114870D01*
Y36340D01*
X114850D01*
Y36300D01*
X114870D01*
X151260Y39750D02*
Y39710D01*
X151340D01*
Y39750D01*
X151380D01*
Y39830D01*
X151340D01*
Y39870D01*
X151260D01*
Y39830D01*
X151220D01*
Y39750D01*
X151260D01*
X151280Y39770D02*
Y39750D01*
X151320D01*
Y39770D01*
X151340D01*
Y39810D01*
X151320D01*
Y39830D01*
X151280D01*
Y39810D01*
X151260D01*
Y39770D01*
X151280D01*
X154840Y37990D02*
Y37950D01*
X154920D01*
Y37990D01*
X154960D01*
Y38070D01*
X154920D01*
Y38110D01*
X154840D01*
Y38070D01*
X154800D01*
Y37990D01*
X154840D01*
X154860Y38010D02*
Y37990D01*
X154900D01*
Y38010D01*
X154920D01*
Y38050D01*
X154900D01*
Y38070D01*
X154860D01*
Y38050D01*
X154840D01*
Y38010D01*
X154860D01*
X142630Y4850D02*
Y4810D01*
X142710D01*
Y4850D01*
X142750D01*
Y4930D01*
X142710D01*
Y4970D01*
X142630D01*
Y4930D01*
X142590D01*
Y4850D01*
X142630D01*
X142650Y4870D02*
Y4850D01*
X142690D01*
Y4870D01*
X142710D01*
Y4910D01*
X142690D01*
Y4930D01*
X142650D01*
Y4910D01*
X142630D01*
Y4870D01*
X142650D01*
X89880Y22050D02*
Y22010D01*
X89960D01*
Y22050D01*
X90000D01*
Y22130D01*
X89960D01*
Y22170D01*
X89880D01*
Y22130D01*
X89840D01*
Y22050D01*
X89880D01*
X89900Y22070D02*
Y22050D01*
X89940D01*
Y22070D01*
X89960D01*
Y22110D01*
X89940D01*
Y22130D01*
X89900D01*
Y22110D01*
X89880D01*
Y22070D01*
X89900D01*
X121160Y5140D02*
Y5100D01*
X121240D01*
Y5140D01*
X121280D01*
Y5220D01*
X121240D01*
Y5260D01*
X121160D01*
Y5220D01*
X121120D01*
Y5140D01*
X121160D01*
X121180Y5160D02*
Y5140D01*
X121220D01*
Y5160D01*
X121240D01*
Y5200D01*
X121220D01*
Y5220D01*
X121180D01*
Y5200D01*
X121160D01*
Y5160D01*
X121180D01*
X76800Y58340D02*
Y58300D01*
X76880D01*
Y58340D01*
X76920D01*
Y58420D01*
X76880D01*
Y58460D01*
X76800D01*
Y58420D01*
X76760D01*
Y58340D01*
X76800D01*
X76820Y58360D02*
Y58340D01*
X76860D01*
Y58360D01*
X76880D01*
Y58400D01*
X76860D01*
Y58420D01*
X76820D01*
Y58400D01*
X76800D01*
Y58360D01*
X76820D01*
X76790Y58950D02*
Y58910D01*
X76870D01*
Y58950D01*
X76910D01*
Y59030D01*
X76870D01*
Y59070D01*
X76790D01*
Y59030D01*
X76750D01*
Y58950D01*
X76790D01*
X76810Y58970D02*
Y58950D01*
X76850D01*
Y58970D01*
X76870D01*
Y59010D01*
X76850D01*
Y59030D01*
X76810D01*
Y59010D01*
X76790D01*
Y58970D01*
X76810D01*
X76790Y59570D02*
Y59530D01*
X76870D01*
Y59570D01*
X76910D01*
Y59650D01*
X76870D01*
Y59690D01*
X76790D01*
Y59650D01*
X76750D01*
Y59570D01*
X76790D01*
X76810Y59590D02*
Y59570D01*
X76850D01*
Y59590D01*
X76870D01*
Y59630D01*
X76850D01*
Y59650D01*
X76810D01*
Y59630D01*
X76790D01*
Y59590D01*
X76810D01*
X75300Y61420D02*
Y61380D01*
X75380D01*
Y61420D01*
X75420D01*
Y61500D01*
X75380D01*
Y61540D01*
X75300D01*
Y61500D01*
X75260D01*
Y61420D01*
X75300D01*
X75320Y61440D02*
Y61420D01*
X75360D01*
Y61440D01*
X75380D01*
Y61480D01*
X75360D01*
Y61500D01*
X75320D01*
Y61480D01*
X75300D01*
Y61440D01*
X75320D01*
X74634Y61420D02*
Y61380D01*
X74714D01*
Y61420D01*
X74754D01*
Y61500D01*
X74714D01*
Y61540D01*
X74634D01*
Y61500D01*
X74594D01*
Y61420D01*
X74634D01*
X74654Y61440D02*
Y61420D01*
X74694D01*
Y61440D01*
X74714D01*
Y61480D01*
X74694D01*
Y61500D01*
X74654D01*
Y61480D01*
X74634D01*
Y61440D01*
X74654D01*
X73970Y61420D02*
Y61380D01*
X74050D01*
Y61420D01*
X74090D01*
Y61500D01*
X74050D01*
Y61540D01*
X73970D01*
Y61500D01*
X73930D01*
Y61420D01*
X73970D01*
X73990Y61440D02*
Y61420D01*
X74030D01*
Y61440D01*
X74050D01*
Y61480D01*
X74030D01*
Y61500D01*
X73990D01*
Y61480D01*
X73970D01*
Y61440D01*
X73990D01*
X72460Y58340D02*
Y58300D01*
X72540D01*
Y58340D01*
X72580D01*
Y58420D01*
X72540D01*
Y58460D01*
X72460D01*
Y58420D01*
X72420D01*
Y58340D01*
X72460D01*
X72480Y58360D02*
Y58340D01*
X72520D01*
Y58360D01*
X72540D01*
Y58400D01*
X72520D01*
Y58420D01*
X72480D01*
Y58400D01*
X72460D01*
Y58360D01*
X72480D01*
X72450Y58950D02*
Y58910D01*
X72530D01*
Y58950D01*
X72570D01*
Y59030D01*
X72530D01*
Y59070D01*
X72450D01*
Y59030D01*
X72410D01*
Y58950D01*
X72450D01*
X72470Y58970D02*
Y58950D01*
X72510D01*
Y58970D01*
X72530D01*
Y59010D01*
X72510D01*
Y59030D01*
X72470D01*
Y59010D01*
X72450D01*
Y58970D01*
X72470D01*
X72450Y59570D02*
Y59530D01*
X72530D01*
Y59570D01*
X72570D01*
Y59650D01*
X72530D01*
Y59690D01*
X72450D01*
Y59650D01*
X72410D01*
Y59570D01*
X72450D01*
X72470Y59590D02*
Y59570D01*
X72510D01*
Y59590D01*
X72530D01*
Y59630D01*
X72510D01*
Y59650D01*
X72470D01*
Y59630D01*
X72450D01*
Y59590D01*
X72470D01*
X80630Y58970D02*
Y58930D01*
X80710D01*
Y58970D01*
X80750D01*
Y59050D01*
X80710D01*
Y59090D01*
X80630D01*
Y59050D01*
X80590D01*
Y58970D01*
X80630D01*
X80650Y58990D02*
Y58970D01*
X80690D01*
Y58990D01*
X80710D01*
Y59030D01*
X80690D01*
Y59050D01*
X80650D01*
Y59030D01*
X80630D01*
Y58990D01*
X80650D01*
X23900Y5570D02*
Y5530D01*
X23980D01*
Y5570D01*
X24020D01*
Y5650D01*
X23980D01*
Y5690D01*
X23900D01*
Y5650D01*
X23860D01*
Y5570D01*
X23900D01*
X23920Y5590D02*
Y5570D01*
X23960D01*
Y5590D01*
X23980D01*
Y5630D01*
X23960D01*
Y5650D01*
X23920D01*
Y5630D01*
X23900D01*
Y5590D01*
X23920D01*
X24700Y7370D02*
Y7330D01*
X24780D01*
Y7370D01*
X24820D01*
Y7450D01*
X24780D01*
Y7490D01*
X24700D01*
Y7450D01*
X24660D01*
Y7370D01*
X24700D01*
X24720Y7390D02*
Y7370D01*
X24760D01*
Y7390D01*
X24780D01*
Y7430D01*
X24760D01*
Y7450D01*
X24720D01*
Y7430D01*
X24700D01*
Y7390D01*
X24720D01*
X22090Y1580D02*
Y1540D01*
X22170D01*
Y1580D01*
X22210D01*
Y1660D01*
X22170D01*
Y1700D01*
X22090D01*
Y1660D01*
X22050D01*
Y1580D01*
X22090D01*
X22110Y1600D02*
Y1580D01*
X22150D01*
Y1600D01*
X22170D01*
Y1640D01*
X22150D01*
Y1660D01*
X22110D01*
Y1640D01*
X22090D01*
Y1600D01*
X22110D01*
X22860Y2330D02*
Y2290D01*
X22940D01*
Y2330D01*
X22980D01*
Y2410D01*
X22940D01*
Y2450D01*
X22860D01*
Y2410D01*
X22820D01*
Y2330D01*
X22860D01*
X22880Y2350D02*
Y2330D01*
X22920D01*
Y2350D01*
X22940D01*
Y2390D01*
X22920D01*
Y2410D01*
X22880D01*
Y2390D01*
X22860D01*
Y2350D01*
X22880D01*
X9590Y6690D02*
Y6650D01*
X9670D01*
Y6690D01*
X9710D01*
Y6770D01*
X9670D01*
Y6810D01*
X9590D01*
Y6770D01*
X9550D01*
Y6690D01*
X9590D01*
X9610Y6710D02*
Y6690D01*
X9650D01*
Y6710D01*
X9670D01*
Y6750D01*
X9650D01*
Y6770D01*
X9610D01*
Y6750D01*
X9590D01*
Y6710D01*
X9610D01*
X8550Y6020D02*
Y5980D01*
X8630D01*
Y6020D01*
X8670D01*
Y6100D01*
X8630D01*
Y6140D01*
X8550D01*
Y6100D01*
X8510D01*
Y6020D01*
X8550D01*
X8570Y6040D02*
Y6020D01*
X8610D01*
Y6040D01*
X8630D01*
Y6080D01*
X8610D01*
Y6100D01*
X8570D01*
Y6080D01*
X8550D01*
Y6040D01*
X8570D01*
X45420Y6690D02*
Y6650D01*
X45500D01*
Y6690D01*
X45540D01*
Y6770D01*
X45500D01*
Y6810D01*
X45420D01*
Y6770D01*
X45380D01*
Y6690D01*
X45420D01*
X45440Y6710D02*
Y6690D01*
X45480D01*
Y6710D01*
X45500D01*
Y6750D01*
X45480D01*
Y6770D01*
X45440D01*
Y6750D01*
X45420D01*
Y6710D01*
X45440D01*
X46620Y7690D02*
Y7650D01*
X46700D01*
Y7690D01*
X46740D01*
Y7770D01*
X46700D01*
Y7810D01*
X46620D01*
Y7770D01*
X46580D01*
Y7690D01*
X46620D01*
X46640Y7710D02*
Y7690D01*
X46680D01*
Y7710D01*
X46700D01*
Y7750D01*
X46680D01*
Y7770D01*
X46640D01*
Y7750D01*
X46620D01*
Y7710D01*
X46640D01*
X44440Y1560D02*
Y1520D01*
X44520D01*
Y1560D01*
X44560D01*
Y1640D01*
X44520D01*
Y1680D01*
X44440D01*
Y1640D01*
X44400D01*
Y1560D01*
X44440D01*
X44460Y1580D02*
Y1560D01*
X44500D01*
Y1580D01*
X44520D01*
Y1620D01*
X44500D01*
Y1640D01*
X44460D01*
Y1620D01*
X44440D01*
Y1580D01*
X44460D01*
X45210Y2070D02*
Y2030D01*
X45290D01*
Y2070D01*
X45330D01*
Y2150D01*
X45290D01*
Y2190D01*
X45210D01*
Y2150D01*
X45170D01*
Y2070D01*
X45210D01*
X45230Y2090D02*
Y2070D01*
X45270D01*
Y2090D01*
X45290D01*
Y2130D01*
X45270D01*
Y2150D01*
X45230D01*
Y2130D01*
X45210D01*
Y2090D01*
X45230D01*
X31300Y5500D02*
Y5460D01*
X31380D01*
Y5500D01*
X31420D01*
Y5580D01*
X31380D01*
Y5620D01*
X31300D01*
Y5580D01*
X31260D01*
Y5500D01*
X31300D01*
X31320Y5520D02*
Y5500D01*
X31360D01*
Y5520D01*
X31380D01*
Y5560D01*
X31360D01*
Y5580D01*
X31320D01*
Y5560D01*
X31300D01*
Y5520D01*
X31320D01*
X32030Y5950D02*
Y5910D01*
X32110D01*
Y5950D01*
X32150D01*
Y6030D01*
X32110D01*
Y6070D01*
X32030D01*
Y6030D01*
X31990D01*
Y5950D01*
X32030D01*
X32050Y5970D02*
Y5950D01*
X32090D01*
Y5970D01*
X32110D01*
Y6010D01*
X32090D01*
Y6030D01*
X32050D01*
Y6010D01*
X32030D01*
Y5970D01*
X32050D01*
X69480Y5800D02*
Y5760D01*
X69560D01*
Y5800D01*
X69600D01*
Y5880D01*
X69560D01*
Y5920D01*
X69480D01*
Y5880D01*
X69440D01*
Y5800D01*
X69480D01*
X69500Y5820D02*
Y5800D01*
X69540D01*
Y5820D01*
X69560D01*
Y5860D01*
X69540D01*
Y5880D01*
X69500D01*
Y5860D01*
X69480D01*
Y5820D01*
X69500D01*
X70280Y7600D02*
Y7560D01*
X70360D01*
Y7600D01*
X70400D01*
Y7680D01*
X70360D01*
Y7720D01*
X70280D01*
Y7680D01*
X70240D01*
Y7600D01*
X70280D01*
X70300Y7620D02*
Y7600D01*
X70340D01*
Y7620D01*
X70360D01*
Y7660D01*
X70340D01*
Y7680D01*
X70300D01*
Y7660D01*
X70280D01*
Y7620D01*
X70300D01*
X66860Y1490D02*
Y1450D01*
X66940D01*
Y1490D01*
X66980D01*
Y1570D01*
X66940D01*
Y1610D01*
X66860D01*
Y1570D01*
X66820D01*
Y1490D01*
X66860D01*
X66880Y1510D02*
Y1490D01*
X66920D01*
Y1510D01*
X66940D01*
Y1550D01*
X66920D01*
Y1570D01*
X66880D01*
Y1550D01*
X66860D01*
Y1510D01*
X66880D01*
X67580Y2130D02*
Y2090D01*
X67660D01*
Y2130D01*
X67700D01*
Y2210D01*
X67660D01*
Y2250D01*
X67580D01*
Y2210D01*
X67540D01*
Y2130D01*
X67580D01*
X67600Y2150D02*
Y2130D01*
X67640D01*
Y2150D01*
X67660D01*
Y2190D01*
X67640D01*
Y2210D01*
X67600D01*
Y2190D01*
X67580D01*
Y2150D01*
X67600D01*
X54760Y5690D02*
Y5650D01*
X54840D01*
Y5690D01*
X54880D01*
Y5770D01*
X54840D01*
Y5810D01*
X54760D01*
Y5770D01*
X54720D01*
Y5690D01*
X54760D01*
X54780Y5710D02*
Y5690D01*
X54820D01*
Y5710D01*
X54840D01*
Y5750D01*
X54820D01*
Y5770D01*
X54780D01*
Y5750D01*
X54760D01*
Y5710D01*
X54780D01*
X54010Y4990D02*
Y4950D01*
X54090D01*
Y4990D01*
X54130D01*
Y5070D01*
X54090D01*
Y5110D01*
X54010D01*
Y5070D01*
X53970D01*
Y4990D01*
X54010D01*
X54030Y5010D02*
Y4990D01*
X54070D01*
Y5010D01*
X54090D01*
Y5050D01*
X54070D01*
Y5070D01*
X54030D01*
Y5050D01*
X54010D01*
Y5010D01*
X54030D01*
X114710Y4940D02*
Y4900D01*
X114790D01*
Y4940D01*
X114830D01*
Y5020D01*
X114790D01*
Y5060D01*
X114710D01*
Y5020D01*
X114670D01*
Y4940D01*
X114710D01*
X114730Y4960D02*
Y4940D01*
X114770D01*
Y4960D01*
X114790D01*
Y5000D01*
X114770D01*
Y5020D01*
X114730D01*
Y5000D01*
X114710D01*
Y4960D01*
X114730D01*
X116010Y6040D02*
Y6000D01*
X116090D01*
Y6040D01*
X116130D01*
Y6120D01*
X116090D01*
Y6160D01*
X116010D01*
Y6120D01*
X115970D01*
Y6040D01*
X116010D01*
X116030Y6060D02*
Y6040D01*
X116070D01*
Y6060D01*
X116090D01*
Y6100D01*
X116070D01*
Y6120D01*
X116030D01*
Y6100D01*
X116010D01*
Y6060D01*
X116030D01*
X113320Y1470D02*
Y1430D01*
X113400D01*
Y1470D01*
X113440D01*
Y1550D01*
X113400D01*
Y1590D01*
X113320D01*
Y1550D01*
X113280D01*
Y1470D01*
X113320D01*
X113340Y1490D02*
Y1470D01*
X113380D01*
Y1490D01*
X113400D01*
Y1530D01*
X113380D01*
Y1550D01*
X113340D01*
Y1530D01*
X113320D01*
Y1490D01*
X113340D01*
X114100Y1990D02*
Y1950D01*
X114180D01*
Y1990D01*
X114220D01*
Y2070D01*
X114180D01*
Y2110D01*
X114100D01*
Y2070D01*
X114060D01*
Y1990D01*
X114100D01*
X114120Y2010D02*
Y1990D01*
X114160D01*
Y2010D01*
X114180D01*
Y2050D01*
X114160D01*
Y2070D01*
X114120D01*
Y2050D01*
X114100D01*
Y2010D01*
X114120D01*
X100910Y6240D02*
Y6200D01*
X100990D01*
Y6240D01*
X101030D01*
Y6320D01*
X100990D01*
Y6360D01*
X100910D01*
Y6320D01*
X100870D01*
Y6240D01*
X100910D01*
X100930Y6260D02*
Y6240D01*
X100970D01*
Y6260D01*
X100990D01*
Y6300D01*
X100970D01*
Y6320D01*
X100930D01*
Y6300D01*
X100910D01*
Y6260D01*
X100930D01*
X100130Y5570D02*
Y5530D01*
X100210D01*
Y5570D01*
X100250D01*
Y5650D01*
X100210D01*
Y5690D01*
X100130D01*
Y5650D01*
X100090D01*
Y5570D01*
X100130D01*
X100150Y5590D02*
Y5570D01*
X100190D01*
Y5590D01*
X100210D01*
Y5630D01*
X100190D01*
Y5650D01*
X100150D01*
Y5630D01*
X100130D01*
Y5590D01*
X100150D01*
X137370Y4790D02*
Y4750D01*
X137450D01*
Y4790D01*
X137490D01*
Y4870D01*
X137450D01*
Y4910D01*
X137370D01*
Y4870D01*
X137330D01*
Y4790D01*
X137370D01*
X137390Y4810D02*
Y4790D01*
X137430D01*
Y4810D01*
X137450D01*
Y4850D01*
X137430D01*
Y4870D01*
X137390D01*
Y4850D01*
X137370D01*
Y4810D01*
X137390D01*
X138570Y5790D02*
Y5750D01*
X138650D01*
Y5790D01*
X138690D01*
Y5870D01*
X138650D01*
Y5910D01*
X138570D01*
Y5870D01*
X138530D01*
Y5790D01*
X138570D01*
X138590Y5810D02*
Y5790D01*
X138630D01*
Y5810D01*
X138650D01*
Y5850D01*
X138630D01*
Y5870D01*
X138590D01*
Y5850D01*
X138570D01*
Y5810D01*
X138590D01*
X134450Y1470D02*
Y1430D01*
X134530D01*
Y1470D01*
X134570D01*
Y1550D01*
X134530D01*
Y1590D01*
X134450D01*
Y1550D01*
X134410D01*
Y1470D01*
X134450D01*
X134470Y1490D02*
Y1470D01*
X134510D01*
Y1490D01*
X134530D01*
Y1530D01*
X134510D01*
Y1550D01*
X134470D01*
Y1530D01*
X134450D01*
Y1490D01*
X134470D01*
X135900Y2570D02*
Y2530D01*
X135980D01*
Y2570D01*
X136020D01*
Y2650D01*
X135980D01*
Y2690D01*
X135900D01*
Y2650D01*
X135860D01*
Y2570D01*
X135900D01*
X135920Y2590D02*
Y2570D01*
X135960D01*
Y2590D01*
X135980D01*
Y2630D01*
X135960D01*
Y2650D01*
X135920D01*
Y2630D01*
X135900D01*
Y2590D01*
X135920D01*
X122640Y6340D02*
Y6300D01*
X122720D01*
Y6340D01*
X122760D01*
Y6420D01*
X122720D01*
Y6460D01*
X122640D01*
Y6420D01*
X122600D01*
Y6340D01*
X122640D01*
X122660Y6360D02*
Y6340D01*
X122700D01*
Y6360D01*
X122720D01*
Y6400D01*
X122700D01*
Y6420D01*
X122660D01*
Y6400D01*
X122640D01*
Y6360D01*
X122660D01*
X159760Y6860D02*
Y6820D01*
X159840D01*
Y6860D01*
X159880D01*
Y6940D01*
X159840D01*
Y6980D01*
X159760D01*
Y6940D01*
X159720D01*
Y6860D01*
X159760D01*
X159780Y6880D02*
Y6860D01*
X159820D01*
Y6880D01*
X159840D01*
Y6920D01*
X159820D01*
Y6940D01*
X159780D01*
Y6920D01*
X159760D01*
Y6880D01*
X159780D01*
X155460Y4160D02*
Y4120D01*
X155540D01*
Y4160D01*
X155580D01*
Y4240D01*
X155540D01*
Y4280D01*
X155460D01*
Y4240D01*
X155420D01*
Y4160D01*
X155460D01*
X155480Y4180D02*
Y4160D01*
X155520D01*
Y4180D01*
X155540D01*
Y4220D01*
X155520D01*
Y4240D01*
X155480D01*
Y4220D01*
X155460D01*
Y4180D01*
X155480D01*
X143170Y5350D02*
Y5310D01*
X143250D01*
Y5350D01*
X143290D01*
Y5430D01*
X143250D01*
Y5470D01*
X143170D01*
Y5430D01*
X143130D01*
Y5350D01*
X143170D01*
X143190Y5370D02*
Y5350D01*
X143230D01*
Y5370D01*
X143250D01*
Y5410D01*
X143230D01*
Y5430D01*
X143190D01*
Y5410D01*
X143170D01*
Y5370D01*
X143190D01*
X92020Y11620D02*
X92060D01*
X92100Y11660D01*
X92140Y11620D01*
X92180D01*
Y11660D01*
X92140Y11700D01*
X92180Y11740D01*
Y11780D01*
X92140D01*
X92100Y11740D01*
X92060Y11780D01*
X92020D01*
Y11740D01*
X92060Y11700D01*
X92020Y11660D01*
Y11620D01*
X92060Y11660D02*
X92080D01*
X92100Y11680D01*
X92120Y11660D01*
X92140D01*
Y11680D01*
X92120Y11700D01*
X92140Y11720D01*
Y11740D01*
X92120D01*
X92100Y11720D01*
X92080Y11740D01*
X92060D01*
Y11720D01*
X92080Y11700D01*
X92060Y11680D01*
Y11660D01*
X73020Y12120D02*
X73060D01*
X73100Y12160D01*
X73140Y12120D01*
X73180D01*
Y12160D01*
X73140Y12200D01*
X73180Y12240D01*
Y12280D01*
X73140D01*
X73100Y12240D01*
X73060Y12280D01*
X73020D01*
Y12240D01*
X73060Y12200D01*
X73020Y12160D01*
Y12120D01*
X73060Y12160D02*
X73080D01*
X73100Y12180D01*
X73120Y12160D01*
X73140D01*
Y12180D01*
X73120Y12200D01*
X73140Y12220D01*
Y12240D01*
X73120D01*
X73100Y12220D01*
X73080Y12240D01*
X73060D01*
Y12220D01*
X73080Y12200D01*
X73060Y12180D01*
Y12160D01*
X73020Y41620D02*
X73060D01*
X73100Y41660D01*
X73140Y41620D01*
X73180D01*
Y41660D01*
X73140Y41700D01*
X73180Y41740D01*
Y41780D01*
X73140D01*
X73100Y41740D01*
X73060Y41780D01*
X73020D01*
Y41740D01*
X73060Y41700D01*
X73020Y41660D01*
Y41620D01*
X73060Y41660D02*
X73080D01*
X73100Y41680D01*
X73120Y41660D01*
X73140D01*
Y41680D01*
X73120Y41700D01*
X73140Y41720D01*
Y41740D01*
X73120D01*
X73100Y41720D01*
X73080Y41740D01*
X73060D01*
Y41720D01*
X73080Y41700D01*
X73060Y41680D01*
Y41660D01*
X92020Y44120D02*
X92060D01*
X92100Y44160D01*
X92140Y44120D01*
X92180D01*
Y44160D01*
X92140Y44200D01*
X92180Y44240D01*
Y44280D01*
X92140D01*
X92100Y44240D01*
X92060Y44280D01*
X92020D01*
Y44240D01*
X92060Y44200D01*
X92020Y44160D01*
Y44120D01*
X92060Y44160D02*
X92080D01*
X92100Y44180D01*
X92120Y44160D01*
X92140D01*
Y44180D01*
X92120Y44200D01*
X92140Y44220D01*
Y44240D01*
X92120D01*
X92100Y44220D01*
X92080Y44240D01*
X92060D01*
Y44220D01*
X92080Y44200D01*
X92060Y44180D01*
Y44160D01*
D104*
X21498Y33400D02*
G03*
X21498Y33400I-80J0D01*
G01*
X20498D02*
G03*
X20498Y33400I-80J0D01*
G01*
X19498D02*
G03*
X19498Y33400I-80J0D01*
G01*
X11498D02*
G03*
X11498Y33400I-80J0D01*
G01*
X12498D02*
G03*
X12498Y33400I-80J0D01*
G01*
X13498D02*
G03*
X13498Y33400I-80J0D01*
G01*
X14498D02*
G03*
X14498Y33400I-80J0D01*
G01*
X15498D02*
G03*
X15498Y33400I-80J0D01*
G01*
X16498D02*
G03*
X16498Y33400I-80J0D01*
G01*
X17498D02*
G03*
X17498Y33400I-80J0D01*
G01*
X18498D02*
G03*
X18498Y33400I-80J0D01*
G01*
X20498Y19400D02*
G03*
X20498Y19400I-80J0D01*
G01*
Y18400D02*
G03*
X20498Y18400I-80J0D01*
G01*
X19498Y19400D02*
G03*
X19498Y19400I-80J0D01*
G01*
Y18400D02*
G03*
X19498Y18400I-80J0D01*
G01*
X18498Y19400D02*
G03*
X18498Y19400I-80J0D01*
G01*
Y18400D02*
G03*
X18498Y18400I-80J0D01*
G01*
X17498Y19400D02*
G03*
X17498Y19400I-80J0D01*
G01*
Y18400D02*
G03*
X17498Y18400I-80J0D01*
G01*
X16498Y19400D02*
G03*
X16498Y19400I-80J0D01*
G01*
Y18400D02*
G03*
X16498Y18400I-80J0D01*
G01*
X15498Y19400D02*
G03*
X15498Y19400I-80J0D01*
G01*
Y18400D02*
G03*
X15498Y18400I-80J0D01*
G01*
X14498Y19400D02*
G03*
X14498Y19400I-80J0D01*
G01*
Y18400D02*
G03*
X14498Y18400I-80J0D01*
G01*
X13498Y19400D02*
G03*
X13498Y19400I-80J0D01*
G01*
Y18400D02*
G03*
X13498Y18400I-80J0D01*
G01*
X12498Y19400D02*
G03*
X12498Y19400I-80J0D01*
G01*
Y18400D02*
G03*
X12498Y18400I-80J0D01*
G01*
X34898D02*
G03*
X34898Y18400I-80J0D01*
G01*
Y19400D02*
G03*
X34898Y19400I-80J0D01*
G01*
X35898Y18400D02*
G03*
X35898Y18400I-80J0D01*
G01*
Y19400D02*
G03*
X35898Y19400I-80J0D01*
G01*
X36898Y18400D02*
G03*
X36898Y18400I-80J0D01*
G01*
Y19400D02*
G03*
X36898Y19400I-80J0D01*
G01*
X37898Y18400D02*
G03*
X37898Y18400I-80J0D01*
G01*
Y19400D02*
G03*
X37898Y19400I-80J0D01*
G01*
X38898Y18400D02*
G03*
X38898Y18400I-80J0D01*
G01*
Y19400D02*
G03*
X38898Y19400I-80J0D01*
G01*
X39898Y18400D02*
G03*
X39898Y18400I-80J0D01*
G01*
Y19400D02*
G03*
X39898Y19400I-80J0D01*
G01*
X40898Y18400D02*
G03*
X40898Y18400I-80J0D01*
G01*
Y19400D02*
G03*
X40898Y19400I-80J0D01*
G01*
X41898Y18400D02*
G03*
X41898Y18400I-80J0D01*
G01*
Y19400D02*
G03*
X41898Y19400I-80J0D01*
G01*
X42898Y18400D02*
G03*
X42898Y18400I-80J0D01*
G01*
Y19400D02*
G03*
X42898Y19400I-80J0D01*
G01*
X40898Y33400D02*
G03*
X40898Y33400I-80J0D01*
G01*
X39898D02*
G03*
X39898Y33400I-80J0D01*
G01*
X38898D02*
G03*
X38898Y33400I-80J0D01*
G01*
X37898D02*
G03*
X37898Y33400I-80J0D01*
G01*
X36898D02*
G03*
X36898Y33400I-80J0D01*
G01*
X35898D02*
G03*
X35898Y33400I-80J0D01*
G01*
X34898D02*
G03*
X34898Y33400I-80J0D01*
G01*
X33898D02*
G03*
X33898Y33400I-80J0D01*
G01*
X41898D02*
G03*
X41898Y33400I-80J0D01*
G01*
X42898D02*
G03*
X42898Y33400I-80J0D01*
G01*
X43898D02*
G03*
X43898Y33400I-80J0D01*
G01*
X66198D02*
G03*
X66198Y33400I-80J0D01*
G01*
X65198D02*
G03*
X65198Y33400I-80J0D01*
G01*
X64198D02*
G03*
X64198Y33400I-80J0D01*
G01*
X56198D02*
G03*
X56198Y33400I-80J0D01*
G01*
X57198D02*
G03*
X57198Y33400I-80J0D01*
G01*
X58198D02*
G03*
X58198Y33400I-80J0D01*
G01*
X59198D02*
G03*
X59198Y33400I-80J0D01*
G01*
X60198D02*
G03*
X60198Y33400I-80J0D01*
G01*
X61198D02*
G03*
X61198Y33400I-80J0D01*
G01*
X62198D02*
G03*
X62198Y33400I-80J0D01*
G01*
X63198D02*
G03*
X63198Y33400I-80J0D01*
G01*
X65198Y19400D02*
G03*
X65198Y19400I-80J0D01*
G01*
Y18400D02*
G03*
X65198Y18400I-80J0D01*
G01*
X64198Y19400D02*
G03*
X64198Y19400I-80J0D01*
G01*
Y18400D02*
G03*
X64198Y18400I-80J0D01*
G01*
X63198Y19400D02*
G03*
X63198Y19400I-80J0D01*
G01*
Y18400D02*
G03*
X63198Y18400I-80J0D01*
G01*
X62198Y19400D02*
G03*
X62198Y19400I-80J0D01*
G01*
Y18400D02*
G03*
X62198Y18400I-80J0D01*
G01*
X61198Y19400D02*
G03*
X61198Y19400I-80J0D01*
G01*
Y18400D02*
G03*
X61198Y18400I-80J0D01*
G01*
X60198Y19400D02*
G03*
X60198Y19400I-80J0D01*
G01*
Y18400D02*
G03*
X60198Y18400I-80J0D01*
G01*
X59198Y19400D02*
G03*
X59198Y19400I-80J0D01*
G01*
Y18400D02*
G03*
X59198Y18400I-80J0D01*
G01*
X58198Y19400D02*
G03*
X58198Y19400I-80J0D01*
G01*
Y18400D02*
G03*
X58198Y18400I-80J0D01*
G01*
X57198Y19400D02*
G03*
X57198Y19400I-80J0D01*
G01*
Y18400D02*
G03*
X57198Y18400I-80J0D01*
G01*
X103748Y18300D02*
G03*
X103748Y18300I-80J0D01*
G01*
Y19300D02*
G03*
X103748Y19300I-80J0D01*
G01*
X104748Y18300D02*
G03*
X104748Y18300I-80J0D01*
G01*
Y19300D02*
G03*
X104748Y19300I-80J0D01*
G01*
X105748Y18300D02*
G03*
X105748Y18300I-80J0D01*
G01*
Y19300D02*
G03*
X105748Y19300I-80J0D01*
G01*
X106748Y18300D02*
G03*
X106748Y18300I-80J0D01*
G01*
Y19300D02*
G03*
X106748Y19300I-80J0D01*
G01*
X107748Y18300D02*
G03*
X107748Y18300I-80J0D01*
G01*
Y19300D02*
G03*
X107748Y19300I-80J0D01*
G01*
X108748Y18300D02*
G03*
X108748Y18300I-80J0D01*
G01*
Y19300D02*
G03*
X108748Y19300I-80J0D01*
G01*
X109748Y18300D02*
G03*
X109748Y18300I-80J0D01*
G01*
Y19300D02*
G03*
X109748Y19300I-80J0D01*
G01*
X110748Y18300D02*
G03*
X110748Y18300I-80J0D01*
G01*
Y19300D02*
G03*
X110748Y19300I-80J0D01*
G01*
X111748Y18300D02*
G03*
X111748Y18300I-80J0D01*
G01*
Y19300D02*
G03*
X111748Y19300I-80J0D01*
G01*
X109748Y33300D02*
G03*
X109748Y33300I-80J0D01*
G01*
X108748D02*
G03*
X108748Y33300I-80J0D01*
G01*
X107748D02*
G03*
X107748Y33300I-80J0D01*
G01*
X106748D02*
G03*
X106748Y33300I-80J0D01*
G01*
X105748D02*
G03*
X105748Y33300I-80J0D01*
G01*
X104748D02*
G03*
X104748Y33300I-80J0D01*
G01*
X103748D02*
G03*
X103748Y33300I-80J0D01*
G01*
X102748D02*
G03*
X102748Y33300I-80J0D01*
G01*
X110748D02*
G03*
X110748Y33300I-80J0D01*
G01*
X111748D02*
G03*
X111748Y33300I-80J0D01*
G01*
X112748D02*
G03*
X112748Y33300I-80J0D01*
G01*
X133848D02*
G03*
X133848Y33300I-80J0D01*
G01*
X132848D02*
G03*
X132848Y33300I-80J0D01*
G01*
X131848D02*
G03*
X131848Y33300I-80J0D01*
G01*
X123848D02*
G03*
X123848Y33300I-80J0D01*
G01*
X124848D02*
G03*
X124848Y33300I-80J0D01*
G01*
X125848D02*
G03*
X125848Y33300I-80J0D01*
G01*
X126848D02*
G03*
X126848Y33300I-80J0D01*
G01*
X127848D02*
G03*
X127848Y33300I-80J0D01*
G01*
X128848D02*
G03*
X128848Y33300I-80J0D01*
G01*
X129848D02*
G03*
X129848Y33300I-80J0D01*
G01*
X130848D02*
G03*
X130848Y33300I-80J0D01*
G01*
X132848Y19300D02*
G03*
X132848Y19300I-80J0D01*
G01*
Y18300D02*
G03*
X132848Y18300I-80J0D01*
G01*
X131848Y19300D02*
G03*
X131848Y19300I-80J0D01*
G01*
Y18300D02*
G03*
X131848Y18300I-80J0D01*
G01*
X130848Y19300D02*
G03*
X130848Y19300I-80J0D01*
G01*
Y18300D02*
G03*
X130848Y18300I-80J0D01*
G01*
X129848Y19300D02*
G03*
X129848Y19300I-80J0D01*
G01*
Y18300D02*
G03*
X129848Y18300I-80J0D01*
G01*
X128848Y19300D02*
G03*
X128848Y19300I-80J0D01*
G01*
Y18300D02*
G03*
X128848Y18300I-80J0D01*
G01*
X127848Y19300D02*
G03*
X127848Y19300I-80J0D01*
G01*
Y18300D02*
G03*
X127848Y18300I-80J0D01*
G01*
X126848Y19300D02*
G03*
X126848Y19300I-80J0D01*
G01*
Y18300D02*
G03*
X126848Y18300I-80J0D01*
G01*
X125848Y19300D02*
G03*
X125848Y19300I-80J0D01*
G01*
Y18300D02*
G03*
X125848Y18300I-80J0D01*
G01*
X124848Y19300D02*
G03*
X124848Y19300I-80J0D01*
G01*
Y18300D02*
G03*
X124848Y18300I-80J0D01*
G01*
X146948D02*
G03*
X146948Y18300I-80J0D01*
G01*
Y19300D02*
G03*
X146948Y19300I-80J0D01*
G01*
X147948Y18300D02*
G03*
X147948Y18300I-80J0D01*
G01*
Y19300D02*
G03*
X147948Y19300I-80J0D01*
G01*
X148948Y18300D02*
G03*
X148948Y18300I-80J0D01*
G01*
Y19300D02*
G03*
X148948Y19300I-80J0D01*
G01*
X149948Y18300D02*
G03*
X149948Y18300I-80J0D01*
G01*
Y19300D02*
G03*
X149948Y19300I-80J0D01*
G01*
X150948Y18300D02*
G03*
X150948Y18300I-80J0D01*
G01*
Y19300D02*
G03*
X150948Y19300I-80J0D01*
G01*
X151948Y18300D02*
G03*
X151948Y18300I-80J0D01*
G01*
Y19300D02*
G03*
X151948Y19300I-80J0D01*
G01*
X152948Y18300D02*
G03*
X152948Y18300I-80J0D01*
G01*
Y19300D02*
G03*
X152948Y19300I-80J0D01*
G01*
X153948Y18300D02*
G03*
X153948Y18300I-80J0D01*
G01*
Y19300D02*
G03*
X153948Y19300I-80J0D01*
G01*
X154948Y18300D02*
G03*
X154948Y18300I-80J0D01*
G01*
Y19300D02*
G03*
X154948Y19300I-80J0D01*
G01*
X152948Y33300D02*
G03*
X152948Y33300I-80J0D01*
G01*
X151948D02*
G03*
X151948Y33300I-80J0D01*
G01*
X150948D02*
G03*
X150948Y33300I-80J0D01*
G01*
X149948D02*
G03*
X149948Y33300I-80J0D01*
G01*
X148948D02*
G03*
X148948Y33300I-80J0D01*
G01*
X147948D02*
G03*
X147948Y33300I-80J0D01*
G01*
X146948D02*
G03*
X146948Y33300I-80J0D01*
G01*
X145948D02*
G03*
X145948Y33300I-80J0D01*
G01*
X153948D02*
G03*
X153948Y33300I-80J0D01*
G01*
X154948D02*
G03*
X154948Y33300I-80J0D01*
G01*
X155948D02*
G03*
X155948Y33300I-80J0D01*
G01*
X17725Y61950D02*
G03*
X17725Y61950I-80J0D01*
G01*
Y60950D02*
G03*
X17725Y60950I-80J0D01*
G01*
Y59950D02*
G03*
X17725Y59950I-80J0D01*
G01*
Y58950D02*
G03*
X17725Y58950I-80J0D01*
G01*
Y57950D02*
G03*
X17725Y57950I-80J0D01*
G01*
Y56950D02*
G03*
X17725Y56950I-80J0D01*
G01*
Y55950D02*
G03*
X17725Y55950I-80J0D01*
G01*
Y54950D02*
G03*
X17725Y54950I-80J0D01*
G01*
Y53950D02*
G03*
X17725Y53950I-80J0D01*
G01*
Y52950D02*
G03*
X17725Y52950I-80J0D01*
G01*
X20675Y61950D02*
G03*
X20675Y61950I-80J0D01*
G01*
Y60950D02*
G03*
X20675Y60950I-80J0D01*
G01*
Y59950D02*
G03*
X20675Y59950I-80J0D01*
G01*
Y58950D02*
G03*
X20675Y58950I-80J0D01*
G01*
Y57950D02*
G03*
X20675Y57950I-80J0D01*
G01*
Y56950D02*
G03*
X20675Y56950I-80J0D01*
G01*
Y55950D02*
G03*
X20675Y55950I-80J0D01*
G01*
Y54950D02*
G03*
X20675Y54950I-80J0D01*
G01*
Y53950D02*
G03*
X20675Y53950I-80J0D01*
G01*
Y52950D02*
G03*
X20675Y52950I-80J0D01*
G01*
X146195Y51640D02*
G03*
X146195Y51640I-80J0D01*
G01*
Y50640D02*
G03*
X146195Y50640I-80J0D01*
G01*
Y49640D02*
G03*
X146195Y49640I-80J0D01*
G01*
Y48640D02*
G03*
X146195Y48640I-80J0D01*
G01*
Y47640D02*
G03*
X146195Y47640I-80J0D01*
G01*
Y46640D02*
G03*
X146195Y46640I-80J0D01*
G01*
Y45640D02*
G03*
X146195Y45640I-80J0D01*
G01*
Y44640D02*
G03*
X146195Y44640I-80J0D01*
G01*
Y43640D02*
G03*
X146195Y43640I-80J0D01*
G01*
Y42640D02*
G03*
X146195Y42640I-80J0D01*
G01*
X149145Y51640D02*
G03*
X149145Y51640I-80J0D01*
G01*
Y50640D02*
G03*
X149145Y50640I-80J0D01*
G01*
Y49640D02*
G03*
X149145Y49640I-80J0D01*
G01*
Y48640D02*
G03*
X149145Y48640I-80J0D01*
G01*
Y47640D02*
G03*
X149145Y47640I-80J0D01*
G01*
Y46640D02*
G03*
X149145Y46640I-80J0D01*
G01*
Y45640D02*
G03*
X149145Y45640I-80J0D01*
G01*
Y44640D02*
G03*
X149145Y44640I-80J0D01*
G01*
Y43640D02*
G03*
X149145Y43640I-80J0D01*
G01*
Y42640D02*
G03*
X149145Y42640I-80J0D01*
G01*
X119017Y24300D02*
G03*
X119017Y24300I-80J0D01*
G01*
X117443D02*
G03*
X117443Y24300I-80J0D01*
G01*
X51055D02*
G03*
X51055Y24300I-80J0D01*
G01*
X49480D02*
G03*
X49480Y24300I-80J0D01*
G01*
X28667D02*
G03*
X28667Y24300I-80J0D01*
G01*
X27093D02*
G03*
X27093Y24300I-80J0D01*
G01*
X97467D02*
G03*
X97467Y24300I-80J0D01*
G01*
X95893D02*
G03*
X95893Y24300I-80J0D01*
G01*
X4480D02*
G03*
X4480Y24300I-80J0D01*
G01*
X6055D02*
G03*
X6055Y24300I-80J0D01*
G01*
X45367Y60965D02*
G03*
X45367Y60965I-80J0D01*
G01*
X43033D02*
G03*
X43033Y60965I-80J0D01*
G01*
X50662D02*
G03*
X50662Y60965I-80J0D01*
G01*
X52757D02*
G03*
X52757Y60965I-80J0D01*
G01*
X139043Y24300D02*
G03*
X139043Y24300I-80J0D01*
G01*
X140617D02*
G03*
X140617Y24300I-80J0D01*
G01*
D105*
X45327Y60965D02*
G03*
X45327Y60965I-40J0D01*
G01*
X42993D02*
G03*
X42993Y60965I-40J0D01*
G01*
X50622D02*
G03*
X50622Y60965I-40J0D01*
G01*
X52717D02*
G03*
X52717Y60965I-40J0D01*
G01*
M02*
