G04*
G04 #@! TF.GenerationSoftware,Altium Limited,Altium Designer,19.1.7 (138)*
G04*
G04 Layer_Color=16711935*
%FSLAX24Y24*%
%MOIN*%
G70*
G01*
G75*
%ADD38C,0.0631*%
%ADD39C,0.0789*%
%ADD40C,0.0710*%
%ADD41R,0.0867X0.0867*%
%ADD42C,0.0867*%
%ADD43O,0.1180X0.4580*%
%ADD44O,0.4580X0.1180*%
%ADD45R,0.0789X0.0789*%
%ADD46C,0.0986*%
%ADD47C,0.0749*%
%ADD48C,0.1143*%
%ADD49C,0.0080*%
%ADD50C,0.0946*%
%ADD51R,0.0867X0.0867*%
%ADD52C,0.1496*%
%ADD53C,0.4094*%
%ADD54C,0.1457*%
%ADD55C,0.0671*%
%ADD56R,0.0671X0.0671*%
%ADD57R,0.0671X0.0671*%
%ADD58R,0.0749X0.0749*%
%ADD59C,0.1261*%
D38*
X50100Y19100D02*
D03*
Y18100D02*
D03*
Y17100D02*
D03*
Y16100D02*
D03*
Y15100D02*
D03*
X51100D02*
D03*
Y16100D02*
D03*
Y17100D02*
D03*
Y18100D02*
D03*
Y19100D02*
D03*
X27700D02*
D03*
Y18100D02*
D03*
Y17100D02*
D03*
Y16100D02*
D03*
Y15100D02*
D03*
X28700D02*
D03*
Y16100D02*
D03*
Y17100D02*
D03*
Y18100D02*
D03*
Y19100D02*
D03*
X146100Y59510D02*
D03*
Y56510D02*
D03*
X118300Y19100D02*
D03*
Y18100D02*
D03*
Y17100D02*
D03*
Y16100D02*
D03*
Y15100D02*
D03*
X119300D02*
D03*
Y16100D02*
D03*
Y17100D02*
D03*
Y18100D02*
D03*
Y19100D02*
D03*
X96300D02*
D03*
Y18100D02*
D03*
Y17100D02*
D03*
Y16100D02*
D03*
Y15100D02*
D03*
X97300D02*
D03*
Y16100D02*
D03*
Y17100D02*
D03*
Y18100D02*
D03*
Y19100D02*
D03*
X141100D02*
D03*
Y18100D02*
D03*
Y17100D02*
D03*
Y16100D02*
D03*
Y15100D02*
D03*
X140100D02*
D03*
Y16100D02*
D03*
Y17100D02*
D03*
Y18100D02*
D03*
Y19100D02*
D03*
X5400D02*
D03*
Y18100D02*
D03*
Y17100D02*
D03*
Y16100D02*
D03*
Y15100D02*
D03*
X4400D02*
D03*
Y16100D02*
D03*
Y17100D02*
D03*
Y18100D02*
D03*
Y19100D02*
D03*
D39*
X21418Y33400D02*
D03*
X20418D02*
D03*
X19418D02*
D03*
X11418D02*
D03*
X12418D02*
D03*
X13418D02*
D03*
X14418D02*
D03*
X15418D02*
D03*
X16418D02*
D03*
X17418D02*
D03*
X18418D02*
D03*
X20418Y19400D02*
D03*
Y18400D02*
D03*
X19418Y19400D02*
D03*
Y18400D02*
D03*
X18418Y19400D02*
D03*
Y18400D02*
D03*
X17418Y19400D02*
D03*
Y18400D02*
D03*
X16418Y19400D02*
D03*
Y18400D02*
D03*
X15418Y19400D02*
D03*
Y18400D02*
D03*
X14418Y19400D02*
D03*
Y18400D02*
D03*
X13418Y19400D02*
D03*
Y18400D02*
D03*
X12418Y19400D02*
D03*
Y18400D02*
D03*
X34818D02*
D03*
Y19400D02*
D03*
X35818Y18400D02*
D03*
Y19400D02*
D03*
X36818Y18400D02*
D03*
Y19400D02*
D03*
X37818Y18400D02*
D03*
Y19400D02*
D03*
X38818Y18400D02*
D03*
Y19400D02*
D03*
X39818Y18400D02*
D03*
Y19400D02*
D03*
X40818Y18400D02*
D03*
Y19400D02*
D03*
X41818Y18400D02*
D03*
Y19400D02*
D03*
X42818Y18400D02*
D03*
Y19400D02*
D03*
X40818Y33400D02*
D03*
X39818D02*
D03*
X38818D02*
D03*
X37818D02*
D03*
X36818D02*
D03*
X35818D02*
D03*
X34818D02*
D03*
X33818D02*
D03*
X41818D02*
D03*
X42818D02*
D03*
X43818D02*
D03*
X66118D02*
D03*
X65118D02*
D03*
X64118D02*
D03*
X56118D02*
D03*
X57118D02*
D03*
X58118D02*
D03*
X59118D02*
D03*
X60118D02*
D03*
X61118D02*
D03*
X62118D02*
D03*
X63118D02*
D03*
X65118Y19400D02*
D03*
Y18400D02*
D03*
X64118Y19400D02*
D03*
Y18400D02*
D03*
X63118Y19400D02*
D03*
Y18400D02*
D03*
X62118Y19400D02*
D03*
Y18400D02*
D03*
X61118Y19400D02*
D03*
Y18400D02*
D03*
X60118Y19400D02*
D03*
Y18400D02*
D03*
X59118Y19400D02*
D03*
Y18400D02*
D03*
X58118Y19400D02*
D03*
Y18400D02*
D03*
X57118Y19400D02*
D03*
Y18400D02*
D03*
X103668Y18300D02*
D03*
Y19300D02*
D03*
X104668Y18300D02*
D03*
Y19300D02*
D03*
X105668Y18300D02*
D03*
Y19300D02*
D03*
X106668Y18300D02*
D03*
Y19300D02*
D03*
X107668Y18300D02*
D03*
Y19300D02*
D03*
X108668Y18300D02*
D03*
Y19300D02*
D03*
X109668Y18300D02*
D03*
Y19300D02*
D03*
X110668Y18300D02*
D03*
Y19300D02*
D03*
X111668Y18300D02*
D03*
Y19300D02*
D03*
X109668Y33300D02*
D03*
X108668D02*
D03*
X107668D02*
D03*
X106668D02*
D03*
X105668D02*
D03*
X104668D02*
D03*
X103668D02*
D03*
X102668D02*
D03*
X110668D02*
D03*
X111668D02*
D03*
X112668D02*
D03*
X133768D02*
D03*
X132768D02*
D03*
X131768D02*
D03*
X123768D02*
D03*
X124768D02*
D03*
X125768D02*
D03*
X126768D02*
D03*
X127768D02*
D03*
X128768D02*
D03*
X129768D02*
D03*
X130768D02*
D03*
X132768Y19300D02*
D03*
Y18300D02*
D03*
X131768Y19300D02*
D03*
Y18300D02*
D03*
X130768Y19300D02*
D03*
Y18300D02*
D03*
X129768Y19300D02*
D03*
Y18300D02*
D03*
X128768Y19300D02*
D03*
Y18300D02*
D03*
X127768Y19300D02*
D03*
Y18300D02*
D03*
X126768Y19300D02*
D03*
Y18300D02*
D03*
X125768Y19300D02*
D03*
Y18300D02*
D03*
X124768Y19300D02*
D03*
Y18300D02*
D03*
X146868D02*
D03*
Y19300D02*
D03*
X147868Y18300D02*
D03*
Y19300D02*
D03*
X148868Y18300D02*
D03*
Y19300D02*
D03*
X149868Y18300D02*
D03*
Y19300D02*
D03*
X150868Y18300D02*
D03*
Y19300D02*
D03*
X151868Y18300D02*
D03*
Y19300D02*
D03*
X152868Y18300D02*
D03*
Y19300D02*
D03*
X153868Y18300D02*
D03*
Y19300D02*
D03*
X154868Y18300D02*
D03*
Y19300D02*
D03*
X152868Y33300D02*
D03*
X151868D02*
D03*
X150868D02*
D03*
X149868D02*
D03*
X148868D02*
D03*
X147868D02*
D03*
X146868D02*
D03*
X145868D02*
D03*
X153868D02*
D03*
X154868D02*
D03*
X155868D02*
D03*
X117363Y24300D02*
D03*
X49400D02*
D03*
X27013D02*
D03*
X95813D02*
D03*
X4400D02*
D03*
X138963D02*
D03*
D40*
X17645Y61950D02*
D03*
Y60950D02*
D03*
Y59950D02*
D03*
Y58950D02*
D03*
Y57950D02*
D03*
Y56950D02*
D03*
Y55950D02*
D03*
Y54950D02*
D03*
Y53950D02*
D03*
Y52950D02*
D03*
X20595Y61950D02*
D03*
Y60950D02*
D03*
Y59950D02*
D03*
Y58950D02*
D03*
Y57950D02*
D03*
Y56950D02*
D03*
Y55950D02*
D03*
Y54950D02*
D03*
Y53950D02*
D03*
Y52950D02*
D03*
X146115Y51640D02*
D03*
Y50640D02*
D03*
Y49640D02*
D03*
Y48640D02*
D03*
Y47640D02*
D03*
Y46640D02*
D03*
Y45640D02*
D03*
Y44640D02*
D03*
Y43640D02*
D03*
Y42640D02*
D03*
X149065Y51640D02*
D03*
Y50640D02*
D03*
Y49640D02*
D03*
Y48640D02*
D03*
Y47640D02*
D03*
Y46640D02*
D03*
Y45640D02*
D03*
Y44640D02*
D03*
Y43640D02*
D03*
Y42640D02*
D03*
D41*
X142100Y42241D02*
D03*
X144690Y52381D02*
D03*
D42*
X142100Y46359D02*
D03*
X73071Y55890D02*
D03*
X96329Y58460D02*
D03*
X126359Y49400D02*
D03*
X144690Y56499D02*
D03*
X46081Y42640D02*
D03*
X80941Y2480D02*
D03*
X43859Y55500D02*
D03*
D43*
X121090Y44100D02*
D03*
X127710D02*
D03*
X124400Y40360D02*
D03*
X135700Y46640D02*
D03*
X132390Y42900D02*
D03*
X139010D02*
D03*
X38845Y50240D02*
D03*
X45465D02*
D03*
X42155Y46500D02*
D03*
X54000Y46493D02*
D03*
X57310Y50233D02*
D03*
X50690D02*
D03*
D44*
X124400Y47410D02*
D03*
Y44100D02*
D03*
X135700Y42900D02*
D03*
Y39590D02*
D03*
X42155Y53550D02*
D03*
Y50240D02*
D03*
X54000Y50233D02*
D03*
Y53543D02*
D03*
D45*
X118937Y24300D02*
D03*
X50975D02*
D03*
X28587D02*
D03*
X97387D02*
D03*
X5975D02*
D03*
X140537D02*
D03*
D46*
X6046Y48835D02*
D03*
X7700D02*
D03*
Y46670D02*
D03*
X6046D02*
D03*
X99700Y60554D02*
D03*
Y58900D02*
D03*
X101865D02*
D03*
Y60554D02*
D03*
X160325Y46850D02*
D03*
Y45196D02*
D03*
X158160D02*
D03*
Y46850D02*
D03*
D47*
X26700Y29960D02*
D03*
Y30960D02*
D03*
Y31960D02*
D03*
X24980Y31950D02*
D03*
Y30950D02*
D03*
Y29950D02*
D03*
X160310Y39140D02*
D03*
Y38140D02*
D03*
Y37140D02*
D03*
X158880Y37130D02*
D03*
Y38130D02*
D03*
Y39130D02*
D03*
X148510Y40180D02*
D03*
Y39180D02*
D03*
Y38180D02*
D03*
X147110D02*
D03*
Y39180D02*
D03*
Y40180D02*
D03*
X116780Y32560D02*
D03*
Y33560D02*
D03*
Y34560D02*
D03*
X118010D02*
D03*
Y33560D02*
D03*
Y32560D02*
D03*
X48620Y32000D02*
D03*
Y31000D02*
D03*
Y30000D02*
D03*
X47190D02*
D03*
Y31000D02*
D03*
Y32000D02*
D03*
X67540Y38300D02*
D03*
Y39300D02*
D03*
Y40300D02*
D03*
X66240Y40310D02*
D03*
Y39310D02*
D03*
Y38310D02*
D03*
X87040Y4340D02*
D03*
X86040D02*
D03*
D48*
X19134Y46746D02*
D03*
X16890D02*
D03*
X14646Y46756D02*
D03*
X14646Y48990D02*
D03*
X16890D02*
D03*
X19134D02*
D03*
X12402Y46756D02*
D03*
Y48990D02*
D03*
D49*
X20110Y45655D02*
D03*
D50*
X22510Y48623D02*
D03*
X24163D02*
D03*
X25817D02*
D03*
X27470D02*
D03*
Y46457D02*
D03*
X25817D02*
D03*
X24163D02*
D03*
X22510D02*
D03*
X87275Y58426D02*
D03*
X89440D02*
D03*
X148388Y5083D02*
D03*
X150042D02*
D03*
X151695D02*
D03*
X153349D02*
D03*
Y2917D02*
D03*
X151695D02*
D03*
X150042D02*
D03*
X148388D02*
D03*
X105188Y5083D02*
D03*
X106842D02*
D03*
X108495D02*
D03*
X110149D02*
D03*
Y2917D02*
D03*
X108495D02*
D03*
X106842D02*
D03*
X105188D02*
D03*
X58638Y5183D02*
D03*
X60292D02*
D03*
X61945D02*
D03*
X63599D02*
D03*
Y3017D02*
D03*
X61945D02*
D03*
X60292D02*
D03*
X58638D02*
D03*
X36338Y5183D02*
D03*
X37992D02*
D03*
X39645D02*
D03*
X41299D02*
D03*
Y3017D02*
D03*
X39645D02*
D03*
X37992D02*
D03*
X36338D02*
D03*
X13938Y5183D02*
D03*
X15592D02*
D03*
X17245D02*
D03*
X18899D02*
D03*
Y3017D02*
D03*
X17245D02*
D03*
X15592D02*
D03*
X13938D02*
D03*
X126288Y2917D02*
D03*
X127942D02*
D03*
X129595D02*
D03*
X131249D02*
D03*
Y5083D02*
D03*
X129595D02*
D03*
X127942D02*
D03*
X126288D02*
D03*
D51*
X77189Y55890D02*
D03*
X92211Y58460D02*
D03*
X122241Y49400D02*
D03*
X50199Y42640D02*
D03*
X85059Y2480D02*
D03*
X39741Y55500D02*
D03*
D52*
X45287Y60965D02*
D03*
X42953D02*
D03*
X50582D02*
D03*
X52677D02*
D03*
D53*
X3000Y60650D02*
D03*
Y2650D02*
D03*
X159000Y60650D02*
D03*
Y2650D02*
D03*
D54*
X135495Y54200D02*
D03*
X124587D02*
D03*
X137677D02*
D03*
X122494D02*
D03*
X137677Y60600D02*
D03*
X122494Y60600D02*
D03*
X135495Y60600D02*
D03*
X124587Y60600D02*
D03*
D55*
X73100Y43200D02*
D03*
Y44200D02*
D03*
X74100Y43200D02*
D03*
Y44200D02*
D03*
X75100Y43200D02*
D03*
Y44200D02*
D03*
X76100Y43200D02*
D03*
Y44200D02*
D03*
X77100Y43200D02*
D03*
Y44200D02*
D03*
X78100Y43200D02*
D03*
Y44200D02*
D03*
X79100Y43200D02*
D03*
Y44200D02*
D03*
X80100Y43200D02*
D03*
Y44200D02*
D03*
X81100Y43200D02*
D03*
Y44200D02*
D03*
X82100Y43200D02*
D03*
Y44200D02*
D03*
X83100Y43200D02*
D03*
Y44200D02*
D03*
X84100Y43200D02*
D03*
Y44200D02*
D03*
X85100Y43200D02*
D03*
Y44200D02*
D03*
X86100Y43200D02*
D03*
Y44200D02*
D03*
X87100Y43200D02*
D03*
Y44200D02*
D03*
X88100Y43200D02*
D03*
Y44200D02*
D03*
X89100Y43200D02*
D03*
Y44200D02*
D03*
X90100Y43200D02*
D03*
X92100Y32200D02*
D03*
Y31200D02*
D03*
Y30200D02*
D03*
Y29200D02*
D03*
Y28200D02*
D03*
Y27200D02*
D03*
Y26200D02*
D03*
Y41200D02*
D03*
Y40200D02*
D03*
Y39200D02*
D03*
Y38200D02*
D03*
Y37200D02*
D03*
Y36200D02*
D03*
Y35200D02*
D03*
X73100Y21700D02*
D03*
Y20700D02*
D03*
Y19700D02*
D03*
Y18700D02*
D03*
Y17700D02*
D03*
Y16700D02*
D03*
Y15700D02*
D03*
Y30200D02*
D03*
Y29200D02*
D03*
Y28200D02*
D03*
Y27200D02*
D03*
Y26200D02*
D03*
Y25200D02*
D03*
Y24200D02*
D03*
X92100Y19200D02*
D03*
Y20200D02*
D03*
Y21200D02*
D03*
Y22200D02*
D03*
Y23200D02*
D03*
X73100Y33200D02*
D03*
Y34200D02*
D03*
Y35200D02*
D03*
Y36200D02*
D03*
Y37200D02*
D03*
Y38200D02*
D03*
Y39200D02*
D03*
D56*
X90100Y44200D02*
D03*
D57*
X92100Y33200D02*
D03*
Y42200D02*
D03*
X73100Y22700D02*
D03*
Y31200D02*
D03*
X92100Y24200D02*
D03*
X73100Y40200D02*
D03*
D58*
X85040Y4340D02*
D03*
D59*
X92100Y11700D02*
D03*
X73100Y12200D02*
D03*
Y41700D02*
D03*
X92100Y44200D02*
D03*
M02*
