M48
;Layer_Color=9474304
;FILE_FORMAT=2:4
INCH,LZ
;TYPE=PLATED
T1F00S00C0.0150
T2F00S00C0.0335
T3F00S00C0.0350
T4F00S00C0.0354
T5F00S00C0.0394
T6F00S00C0.0433
T7F00S00C0.0472
T9F00S00C0.0630
T10F00S00C0.0787
T11F00S00C0.0925
T12F00S00C0.1122
T13F00S00C0.1181
T14F00S00C0.2067
;TYPE=NON_PLATED
T15F00S00C0.0748
%
T01
X00859Y00606
X00963Y00673
X018897Y007083
Y007475
Y007867
X02474Y00741
X02394Y00561
X0229Y00237
X02213Y00162
X03134Y00554
X03207Y00599
X041297Y007083
Y007475
Y007867
X04546Y00673
X04666Y00773
X04525Y00211
X04448Y0016
X05405Y00503
X0548Y00573
X063597Y007083
Y007475
Y007867
X07032Y00764
X06952Y00584
X06762Y00217
X0669Y00153
X08019Y00062
X08344Y00541
X08864Y00547
X10017Y00561
X10095Y00628
X110147Y006983
Y007375
Y007767
X11475Y00498
X11605Y00608
X11414Y00203
X11336Y00151
X1212Y00518
X12268Y00638
X131247Y006983
Y007375
Y007767
X13741Y00483
X13861Y00583
X13594Y00261
X13449Y00151
X14267Y00489
X14321Y00539
X153347Y006983
Y007375
Y007767
X1555Y0042
X1598Y0069
X15628Y01895
X15588Y0188
X15171Y02365
X15169Y02413
X15152Y02474
X15088Y02534
X14954Y02663
X14895Y02711
X14769Y02844
X14567Y01688
Y01644
X14456Y01738
Y01786
X13406Y01893
X13367Y01873
X13039Y0235
X130472Y024012
X13042Y02444
X13028Y02483
X129905Y025205
X12949Y02558
X12909Y02586
X128645Y026215
X12825Y02661
X12784Y02701
X12734Y02752
X12702Y02788
X12667Y02821
X12556Y029302
X13769Y0287
Y0283
Y0279
X13684Y02709
Y02627
Y02556
X13637Y02518
X13634Y02592
X13636Y02673
X13684Y02461
X12387Y01688
Y01644
X12276Y01738
Y01786
X11303Y01893
X11257Y01874
X11559Y02284
X11597Y02333
X115557Y023703
X115826Y024904
X11545Y02515
Y0256
Y02625
X11588Y02661
Y02586
X11545Y02709
Y0279
X11588Y02821
X1159Y02752
X11718Y029302
X10749Y02525
X10705Y02555
X10668Y02593
X10626Y0263
X10579Y02665
X10537Y02715
X1049Y0276
X10446Y0281
X10403Y02852
X10361Y02898
X10333Y029302
X10297Y02964
X10253Y03018
X10199Y03066
X10141Y03119
X09593Y03117
Y03064
Y03018
Y02964
X09464Y0281
Y0276
Y02715
Y02665
X09425Y0263
X09441Y02497
X09469Y02525
X094407Y023703
X094124Y023416
X10228Y01783
Y01738
X10187Y01688
Y01644
X10818Y02384
Y02435
X10793Y02481
X08992Y02209
X091165Y029625
X06975Y02932
X06974Y02883
X06291Y02672
X06269Y02632
X06606Y01873
X06646Y01895
X061736Y024059
X06151Y02438
X06121Y0247
X060931Y02519
X06041Y02559
X05998Y02603
X05965Y02648
X05916Y02701
X05795Y02817
X05741Y02861
X05699Y02903
X05648Y02941
X048
Y02903
Y02861
Y02817
Y02778
Y02739
Y02701
Y02648
Y02603
Y02559
Y025194
Y02481
X04798Y02439
X04799Y024
X05608Y01783
Y01738
X05567Y01688
Y01644
X04452Y01895
X04399Y01867
X03927Y024
X03914Y02439
X03897Y02481
X038561Y025194
X03821Y02559
X037834Y026021
X03748Y02632
X03368Y01783
Y01738
X03327Y01688
Y01644
X02832Y02142
X02667Y021405
X02575Y02491
Y02533
Y02576
Y0262
Y02662
Y02708
Y02746
X02603Y0279
Y0283
Y0287
X02202Y01895
X02165Y01858
X01038Y01783
Y01738
X00997Y01688
Y01644
X00333Y0279
Y0283
Y0287
X01104Y03279
X026372Y03526
X0266Y03632
X03379Y03454
X03501Y03277
X04677Y03595
X04049Y0433
X0491Y03592
X04869Y03483
X049643Y031554
X05112Y0324
X05659Y0327
X05728Y03521
X06168Y03579
X06383Y03777
X06345Y03862
X06315Y03924
X06609Y03236
X06608Y03196
X0912Y03186
X09058Y03307
Y03351
X09191Y03387
X091923Y034253
X09666Y03249
X09971Y03296
X10069Y03301
X1005Y03215
X10092Y0317
X11489Y03632
X11585Y03712
X143227Y04084
X14549
X1446Y04532
X15269Y04325
X1513Y03979
X1555Y03966
X15488Y03803
X15591Y04519
X156202Y047767
X15356Y057162
Y057828
Y058492
X15171Y060012
X15109
X15048Y060002
Y055662
X15109Y055672
X15171
X08067Y05901
X07683Y05899
X07684Y05838
X07683Y05961
X07534Y06146
X074674
X07401
X07249Y05961
Y05899
X0725Y05838
X0299Y05823
X02876Y05541
X02599Y05338
T02
X1461Y05651
Y05951
T03
X0044Y0151
X0054
X0277
X0287
X0501
X0511
X0963
X0973
X1183
X1193
X1401
X1411
Y0161
Y0171
Y0181
Y0191
X1401
Y0181
Y0171
Y0161
X1193
X1183
Y0171
Y0181
Y0191
X1193
Y0181
Y0171
X0973
X0963
Y0181
Y0191
X0973
Y0181
Y0161
X0963
X0511
X0501
Y0171
Y0181
Y0191
X0511
Y0181
Y0171
X0287
X0277
Y0181
Y0191
X0287
Y0181
Y0161
X0277
X0054
Y0171
Y0181
Y0191
X0044
Y0181
Y0171
Y0161
T04
X0921Y0192
Y0202
Y0212
Y0222
Y0232
Y0242
Y0262
Y0272
Y0282
Y0292
Y0302
Y0312
X0731
Y0302
Y0292
Y0282
Y0272
Y0262
Y0252
Y0242
Y0227
Y0217
Y0207
Y0197
Y0187
Y0177
Y0167
Y0157
Y0332
Y0342
Y0352
Y0362
Y0372
Y0382
Y0392
Y0402
Y0432
Y0442
X0741
Y0432
X0751
Y0442
X0761
Y0432
X0771
Y0442
X0781
Y0432
X0791
Y0442
X0801
Y0432
X0811
Y0442
X0821
Y0432
X0831
Y0442
X0841
Y0432
X0851
Y0442
X0861
Y0432
X0871
Y0442
X0881
Y0432
X0891
Y0442
X0901
Y0432
X0921Y0422
Y0412
Y0402
Y0392
Y0382
Y0372
Y0362
Y0352
Y0332
Y0322
T05
X154868Y0183
X153868
X152868
X151868
X150868
X149868
X148868
X147868
X146868
Y0193
X147868
X148868
X149868
X150868
X151868
X152868
X153868
X154868
X140537Y0243
X138963
X132768Y0193
Y0183
X131768
Y0193
X130768
Y0183
X129768
Y0193
X128768
Y0183
X127768
Y0193
X126768
Y0183
X125768
Y0193
X124768
Y0183
X118937Y0243
X117363
X111668Y0193
X110668
X109668
Y0183
X110668
X111668
X108668
X107668
X106668
X105668
X104668
X103668
Y0193
X104668
X105668
X106668
X107668
X108668
X097387Y0243
X095813
X065118Y0194
Y0184
X064118
Y0194
X063118
Y0184
X062118
Y0194
X061118
Y0184
X060118
Y0194
X059118
Y0184
X058118
Y0194
X057118
Y0184
X050975Y0243
X0494
X042818Y0194
X041818
X040818
X039818
X038818
X037818
X036818
X035818
X034818
Y0184
X035818
X036818
X037818
X038818
X039818
X040818
X041818
X042818
X028587Y0243
X027013
X020418Y0194
Y0184
X019418
Y0194
X018418
Y0184
X017418
Y0194
X016418
Y0184
X015418
Y0194
X014418
Y0184
X013418
Y0194
X012418
Y0184
X005975Y0243
X0044
X011418Y0334
X012418
X013418
X014418
X015418
X016418
X017418
X018418
X019418
X020418
X021418
X033818
X034818
X035818
X036818
X037818
X038818
X039818
X040818
X041818
X042818
X043818
X056118
X057118
X058118
X059118
X060118
X061118
X062118
X063118
X064118
X065118
X066118
X102668Y0333
X103668
X104668
X105668
X106668
X107668
X108668
X109668
X110668
X111668
X112668
X123768
X124768
X125768
X126768
X127768
X128768
X129768
X130768
X131768
X132768
X133768
X145868
X146868
X147868
X148868
X149868
X150868
X151868
X152868
X153868
X154868
X155868
X149065Y04264
Y04364
Y04464
Y04564
Y04664
X146115
Y04564
Y04464
Y04364
Y04264
Y04764
Y04864
Y04964
Y05064
Y05164
X149065
Y05064
Y04964
Y04864
Y04764
X020595Y05295
Y05395
Y05495
Y05595
Y05695
Y05795
Y05895
Y05995
Y06095
Y06195
X017645
Y06095
Y05995
Y05895
Y05795
Y05695
Y05595
Y05495
Y05395
Y05295
T06
X08504Y00434
X08604
X08704
X04862Y03
Y031
X04719
Y03
X0267Y02996
Y03096
X02498Y03095
Y02995
Y03195
X0267Y03196
X04719Y032
X04862
X06624Y03831
Y03931
Y04031
X06754Y0403
Y0393
Y0383
X11678Y03456
Y03356
Y03256
X11801
Y03356
Y03456
X14711Y03818
Y03918
Y04018
X14851
Y03918
Y03818
X15888Y03813
Y03713
X16031Y03714
Y03814
Y03914
X15888Y03913
T07
X080941Y00248
X085059
X046081Y04264
X050199
X1421Y042241
Y046359
X14469Y052381
Y056499
X126359Y0494
X122241
X096329Y05846
X092211
X077189Y05589
X073071
X043859Y0555
X039741
T09
X013938Y003017
X015592
Y005183
X013938
X017245
X018899
Y003017
X017245
X036338
X037992
X039645
X041299
Y005183
X039645
X037992
X036338
X058638
X060292
X061945
X061945Y003017
X060292
X058638
X063599
Y005183
X105188Y005083
X106842
X108495
X108495Y002917
X106842
X105188
X110149
Y005083
X126288
X127942
X129595
X131249
Y002917
X129595
X127942
X126288
X148388
X150042
X151695
X153349
Y005083
X151695
X150042
X148388
X0077Y04667
X006046
X02251Y046457
X024163
X025817
X02747
X15816Y04685
Y045196
X160325
Y04685
X101865Y0589
Y060554
X0997
Y0589
X08944Y058426
X087275
X02747Y048623
X025817
X024163
X02251
X0077Y048835
X006046
T10
X012402Y046756
X014646Y046756
X01689Y046746
X019134
Y04899
X01689
X014646
X012402
T11
X135495Y0542
X137677
Y0606
X135495Y0606
X124587Y0606
X122494
Y0542
X124587
T12
X050582Y060965
X052677
X045287
X042953
T13
X0731Y0122
X0921Y0117
X0731Y0417
X0921Y0442
T14
X003Y00265
X159
Y06065
X003
T15
X02011Y045655
M30
