M48
;Layer_Color=9474304
;FILE_FORMAT=2:4
INCH,LZ
;TYPE=PLATED
T8F00S00C0.0600
;TYPE=NON_PLATED
%
G90
G05
T08
G00X042155Y0482
M15
G01Y0448
M16
G00X054Y048193
M15
G01Y044793
M16
G00X12109Y0458
M15
G01Y0424
M16
G00X1261Y0441
M15
G01X1227
M16
G00X1244Y04206
M15
G01Y03866
M16
G00X12771Y0424
M15
G01Y0458
M16
G00X13239Y0446
M15
G01Y0412
M16
G00X134Y0429
M15
G01X1374
M16
G00X134Y03959
M15
G01X1374
M16
G00X13901Y0412
M15
G01Y0446
M16
G00X1357Y04494
M15
G01Y04834
M16
G00X1261Y04741
M15
G01X1227
M16
G00X05731Y048533
M15
G01Y051933
M16
G00X0557Y050233
M15
G01X0523
M16
G00X0557Y053543
M15
G01X0523
M16
G00X05069Y051933
M15
G01Y048533
M16
G00X045465Y04854
M15
G01Y05194
M16
G00X043855Y05024
M15
G01X040455
M16
G00X038845Y05194
M15
G01Y04854
M16
G00X043855Y05355
M15
G01X040455
M16
M17
M30
